<svg width="25" height="24" viewBox="0 0 25 24" fill="none" xmlns="http://www.w3.org/2000/svg">
<path d="M3.125 20.2812L14.4688 10.4688L18.67 17.17L3.33999 20.72L3.125 20.2812Z" fill="#F9662D" fill-opacity="0.4"/>
<path d="M19 18.59C18.7 18.59 18.42 18.44 18.26 18.16L12.04 7.38C11.8 6.97 11.94 6.45 12.35 6.21C12.76 5.97 13.28 6.11 13.52 6.52L19.74 17.3C19.98 17.71 19.84 18.23 19.43 18.47C19.3 18.55 19.15 18.59 19 18.59Z" fill="#1335AF"/>
<path d="M3.33999 21.58C3.03999 21.58 2.74999 21.42 2.59999 21.15L1.61999 19.45C1.42999 19.12 1.47999 18.71 1.73999 18.44L12.48 6.94001C12.8 6.60001 13.34 6.58001 13.69 6.90001C14.04 7.22001 14.05 7.76001 13.73 8.11001L3.40999 19.15L3.75999 19.75L18.48 16.33C18.94 16.23 19.4 16.51 19.51 16.97C19.62 17.43 19.33 17.89 18.87 18L3.52999 21.56C3.46999 21.57 3.39999 21.58 3.33999 21.58Z" fill="#1335AF"/>
<path d="M9.50002 23.41C9.23002 23.41 8.96002 23.37 8.69002 23.31C7.88002 23.1 7.19002 22.58 6.77002 21.85L5.92002 20.39C5.68002 19.98 5.82002 19.46 6.23002 19.22C6.64002 18.98 7.16002 19.12 7.40002 19.53L8.24002 20.99C8.43002 21.32 8.74002 21.56 9.12002 21.65C9.49002 21.75 9.88002 21.69 10.21 21.5C10.54 21.31 10.78 21 10.88 20.62C10.98 20.25 10.92 19.86 10.73 19.53L10.59 19.29C10.35 18.88 10.5 18.36 10.9 18.12C11.31 17.88 11.83 18.03 12.07 18.44L12.2 18.67C12.62 19.38 12.73 20.25 12.52 21.05C12.31 21.86 11.79 22.54 11.06 22.97C10.57 23.26 10.03 23.4 9.48002 23.4L9.50002 23.41Z" fill="#1335AF"/>
<path d="M12.7 4.85C12.23 4.85 11.84 4.47 11.84 4V1.85C11.84 1.38 12.22 1 12.7 1C13.18 1 13.56 1.38 13.56 1.85V3.99C13.56 4.46 13.18 4.84 12.7 4.84V4.85Z" fill="#1335AF"/>
<path d="M23.05 13.06H20.91C20.44 13.06 20.05 12.68 20.05 12.2C20.05 11.72 20.43 11.34 20.91 11.34H23.05C23.52 11.34 23.91 11.72 23.91 12.2C23.91 12.68 23.53 13.06 23.05 13.06Z" fill="#1335AF"/>
<path d="M4.5 13.06H2.36C1.88 13.06 1.5 12.68 1.5 12.2C1.5 11.72 1.88 11.34 2.35 11.34H4.49C4.96 11.34 5.34 11.72 5.34 12.2C5.34 12.68 4.96 13.06 4.49 13.06H4.5Z" fill="#1335AF"/>
<path d="M6.89998 7.26001C6.67998 7.26001 6.45998 7.18001 6.29998 7.01001L4.78998 5.50001C4.45998 5.17001 4.45998 4.62001 4.78998 4.29001C5.11998 3.96001 5.66998 3.96001 5.99998 4.29001L7.50998 5.80001C7.83998 6.13001 7.83998 6.68001 7.50998 7.01001C7.33998 7.18001 7.11998 7.26001 6.90998 7.26001H6.89998Z" fill="#1335AF"/>
<path d="M18.51 7.26001C18.29 7.26001 18.07 7.18001 17.91 7.01001C17.58 6.68001 17.58 6.13001 17.91 5.80001L19.42 4.29001C19.75 3.96001 20.3 3.96001 20.63 4.29001C20.96 4.62001 20.96 5.17001 20.63 5.50001L19.12 7.01001C18.95 7.18001 18.73 7.26001 18.52 7.26001H18.51Z" fill="#1335AF"/>
</svg>
