<svg width="38" height="38" viewBox="0 0 38 38" fill="none" xmlns="http://www.w3.org/2000/svg">
<path fill-rule="evenodd" clip-rule="evenodd" d="M29.0602 10.6666C30.6478 10.6666 31.9348 11.9537 31.9348 13.5413V29.0615C31.9348 30.6491 30.6478 31.9361 29.0602 31.9361H8.93719C7.34953 31.9361 6.0625 30.6491 6.0625 29.0615V13.5413C6.0625 11.9537 7.34953 10.6666 8.93719 10.6666H29.0602ZM12.9149 18.3348C12.1813 18.4646 12.1813 19.5354 12.9149 19.6651C15.5724 20.1353 17.6861 22.1936 18.263 24.8731L18.3072 25.0785C18.4659 25.8157 19.4982 25.8203 19.6632 25.0845L19.7169 24.8452C20.3151 22.1783 22.4294 20.1374 25.0796 19.6685C25.8169 19.5381 25.8169 18.4618 25.0796 18.3314C22.4294 17.8626 20.3151 15.8216 19.7169 13.1548L19.6632 12.9154C19.4982 12.1796 18.4659 12.1842 18.3072 12.9214L18.263 13.1268C17.6861 15.8064 15.5724 17.8647 12.9149 18.3348Z" fill="#F9662D" fill-opacity="0.4"/>
<path fill-rule="evenodd" clip-rule="evenodd" d="M0.326172 24.2701C0.326172 23.4831 0.964166 22.8451 1.75117 22.8451H6.06323C6.85023 22.8451 7.48823 23.4831 7.48823 24.2701C7.48823 25.0571 6.85023 25.6951 6.06323 25.6951H1.75117C0.964166 25.6951 0.326172 25.0571 0.326172 24.2701Z" fill="#1335AF"/>
<path fill-rule="evenodd" clip-rule="evenodd" d="M30.5098 24.2701C30.5098 23.4831 31.1478 22.8451 31.9348 22.8451H36.2468C37.0338 22.8451 37.6718 23.4831 37.6718 24.2701C37.6718 25.0571 37.0338 25.6951 36.2468 25.6951H31.9348C31.1478 25.6951 30.5098 25.0571 30.5098 24.2701Z" fill="#1335AF"/>
<path fill-rule="evenodd" clip-rule="evenodd" d="M0.326172 13.7299C0.326172 12.9429 0.964166 12.3049 1.75117 12.3049H6.06323C6.85023 12.3049 7.48823 12.9429 7.48823 13.7299C7.48823 14.5169 6.85023 15.1549 6.06323 15.1549H1.75117C0.964166 15.1549 0.326172 14.5169 0.326172 13.7299Z" fill="#1335AF"/>
<path fill-rule="evenodd" clip-rule="evenodd" d="M30.5098 13.7299C30.5098 12.9429 31.1478 12.3049 31.9348 12.3049H36.2468C37.0338 12.3049 37.6718 12.9429 37.6718 13.7299C37.6718 14.5169 37.0338 15.1549 36.2468 15.1549H31.9348C31.1478 15.1549 30.5098 14.5169 30.5098 13.7299Z" fill="#1335AF"/>
<path fill-rule="evenodd" clip-rule="evenodd" d="M13.7297 0.326782C14.5167 0.326782 15.1547 0.964776 15.1547 1.75178V6.06384C15.1547 6.85084 14.5167 7.48884 13.7297 7.48884C12.9427 7.48884 12.3047 6.85084 12.3047 6.06384V1.75178C12.3047 0.964776 12.9427 0.326782 13.7297 0.326782Z" fill="#1335AF"/>
<path fill-rule="evenodd" clip-rule="evenodd" d="M13.7297 30.5111C14.5167 30.5111 15.1547 31.1491 15.1547 31.9361V36.2482C15.1547 37.0352 14.5167 37.6732 13.7297 37.6732C12.9427 37.6732 12.3047 37.0352 12.3047 36.2482V31.9361C12.3047 31.1491 12.9427 30.5111 13.7297 30.5111Z" fill="#1335AF"/>
<path fill-rule="evenodd" clip-rule="evenodd" d="M24.2688 0.326782C25.0558 0.326782 25.6938 0.964776 25.6938 1.75178V6.06384C25.6938 6.85084 25.0558 7.48884 24.2688 7.48884C23.4817 7.48884 22.8438 6.85084 22.8438 6.06384V1.75178C22.8438 0.964776 23.4817 0.326782 24.2688 0.326782Z" fill="#1335AF"/>
<path fill-rule="evenodd" clip-rule="evenodd" d="M24.2688 30.5111C25.0558 30.5111 25.6938 31.1491 25.6938 31.9361V36.2482C25.6938 37.0352 25.0558 37.6732 24.2688 37.6732C23.4817 37.6732 22.8438 37.0352 22.8438 36.2482V31.9361C22.8438 31.1491 23.4817 30.5111 24.2688 30.5111Z" fill="#1335AF"/>
<path fill-rule="evenodd" clip-rule="evenodd" d="M4.63867 8.93849C4.63867 6.56382 6.5637 4.63879 8.93836 4.63879H29.0614C31.4361 4.63879 33.361 6.56387 33.361 8.93849V29.0615C33.361 31.4361 31.436 33.3611 29.0614 33.3611H8.93836C6.56374 33.3611 4.63867 31.4362 4.63867 29.0615V8.93849ZM8.93836 7.48879C8.13771 7.48879 7.48867 8.13783 7.48867 8.93849V29.0615C7.48867 29.8621 8.13767 30.5111 8.93836 30.5111H29.0614C29.862 30.5111 30.511 29.8621 30.511 29.0615V8.93849C30.511 8.13779 29.862 7.48879 29.0614 7.48879H8.93836Z" fill="#1335AF"/>
<path fill-rule="evenodd" clip-rule="evenodd" d="M18.9921 15.3398C18.2114 16.9229 16.9418 18.2095 15.3796 19C16.9418 19.7904 18.2114 21.0771 18.9921 22.6601C19.7795 21.0755 21.0549 19.7893 22.6219 19C21.0549 18.2107 19.7795 16.9244 18.9921 15.3398ZM24.8331 18.2653L24.8331 18.2653ZM13.1648 18.2619C13.1655 18.262 13.1661 18.2622 13.1668 18.2623ZM16.9158 12.6215C17.3958 10.3919 20.5557 10.3759 21.0554 12.6035L21.0554 12.6036L21.1091 12.8429C21.1091 12.8429 21.1091 12.8429 21.1091 12.8429C21.5841 14.9604 23.2568 16.5615 25.3295 16.9282C27.6359 17.3362 27.6358 20.6638 25.3295 21.0718L25.0813 19.6685L25.3295 21.0718C23.2568 21.4384 21.5841 23.0396 21.1091 25.157C21.1091 25.157 21.1091 25.1571 21.1091 25.1571L21.0554 25.3964L21.0554 25.3964C20.5557 27.6241 17.3958 27.608 16.9158 25.3784L16.9158 25.3784L16.8716 25.173C16.8716 25.173 16.8716 25.173 16.8716 25.173C16.4141 23.0481 14.7438 21.4355 12.6683 21.0684C10.3658 20.661 10.3658 17.3389 12.6683 16.9316C14.7438 16.5644 16.4141 14.9519 16.8716 12.827C16.8716 12.827 16.8716 12.8269 16.8716 12.8269L16.9158 12.6216L16.9158 12.6215Z" fill="#1335AF"/>
</svg>
