<svg width="39" height="38" viewBox="0 0 39 38" fill="none" xmlns="http://www.w3.org/2000/svg">
<path fill-rule="evenodd" clip-rule="evenodd" d="M19.5413 15.4487C20.9673 15.7009 22.1639 16.8219 22.4957 18.3632L22.5509 18.6199C23.7953 24.4002 32.0192 24.4524 33.3168 18.6665L33.3839 18.3673C33.7204 16.8672 34.8678 15.7681 36.2474 15.4758V30.9413C36.2474 31.645 35.9677 32.3201 35.4702 32.8176C34.9726 33.3152 34.2976 33.5949 33.5938 33.5949H12.3653L2.33203 36.2484L8.9987 28.2874V7.05884C8.9987 6.35506 9.27828 5.68013 9.7759 5.18248C10.2736 4.68485 10.9485 4.40527 11.6523 4.40527L20.3246 4.40558C20.0747 4.51308 19.8122 4.59231 19.5413 4.64021C13.5113 5.70697 13.5114 14.3819 19.5413 15.4487Z" fill="#F9662D" fill-opacity="0.4"/>
<path d="M2.01389 37.0025C1.64054 37.0025 1.29385 36.8424 1.02717 36.5758C0.707149 36.2291 0.573808 35.6957 0.733817 35.2424L3.32064 27.4552V6.33398C3.32064 5.26725 3.74733 4.25385 4.49404 3.50714C5.24075 2.76043 6.25414 2.33374 7.32087 2.33374H19.3216C20.0683 2.33374 20.655 2.92044 20.655 3.66715C20.655 4.41386 20.0683 5.00056 19.3216 5.00056H7.34754C7.00085 5.00056 6.65417 5.13391 6.41415 5.40059C6.17414 5.66727 6.01413 5.98729 6.01413 6.33398V27.6686C6.01413 27.8019 6.01413 27.9619 5.93412 28.0953L4.04068 33.8023L12.3612 31.7221C12.3612 31.7221 12.5745 31.6955 12.6812 31.6955H34.0158C34.3625 31.6955 34.7092 31.5621 34.9492 31.2954C35.1892 31.0288 35.3492 30.7087 35.3492 30.3621V15.6945C35.3492 14.9478 35.9359 14.3611 36.6826 14.3611C37.4293 14.3611 38.016 14.9478 38.016 15.6945V30.3621C38.016 31.4288 37.5893 32.4422 36.8426 33.1889C36.0959 33.9356 35.0558 34.3623 34.0158 34.3623H12.8412L2.33391 37.0025C2.33391 37.0025 2.12057 37.0291 2.01389 37.0291V37.0025Z" fill="#1335AF"/>
<path fill-rule="evenodd" clip-rule="evenodd" d="M27.9441 4.59671C26.9566 7.07444 25.0146 9.04379 22.5733 10.0443C25.0146 11.0448 26.9566 13.0142 27.9441 15.4919C28.9422 13.011 30.8939 11.0426 33.3425 10.0443C30.8939 9.04604 28.9422 7.07768 27.9441 4.59671ZM20.5992 9.47258C20.5987 9.47249 20.5997 9.47266 20.5992 9.47258ZM20.5997 10.616C20.5999 10.6159 20.5996 10.616 20.5997 10.616ZM25.6984 2.1461C26.2183 -0.267716 29.6357 -0.284675 30.1769 2.12652L30.2441 2.42583C30.8684 5.20992 33.0698 7.3215 35.8051 7.80539C38.2957 8.246 38.2957 11.8426 35.8051 12.2832C33.0698 12.7671 30.8684 14.8785 30.2441 17.6626L30.177 17.962C29.6357 20.3732 26.2183 20.3564 25.6984 17.9425L25.6432 17.6857C25.6431 17.6855 25.6432 17.6858 25.6432 17.6857C25.0413 14.8911 22.8425 12.7637 20.1028 12.279C17.6168 11.8392 17.6168 8.24942 20.1028 7.80964C22.8425 7.32497 25.0412 5.19798 25.6431 2.40339L25.6984 2.1461Z" fill="#1335AF"/>
</svg>
