<svg width="23" height="23" viewBox="0 0 23 23" fill="none" xmlns="http://www.w3.org/2000/svg">
<g id="Ai-Chat-Spark--Streamline-Core">
<path id="Subtract" fill-rule="evenodd" clip-rule="evenodd" d="M11.3256 9.36907C12.1811 9.52042 12.8991 10.193 13.0982 11.1178L13.1313 11.2718C13.878 14.74 18.8123 14.7713 19.5909 11.2998L19.6311 11.1203C19.833 10.2202 20.5215 9.56073 21.3492 9.38534V18.6647C21.3492 19.0869 21.1814 19.4919 20.8829 19.7905C20.5844 20.089 20.1793 20.2568 19.7571 20.2568H7.01994L1 21.8489L5 17.0723V4.33518C5 3.91292 5.16775 3.50796 5.46632 3.20936C5.76491 2.91079 6.16987 2.74304 6.59214 2.74304L11.7955 2.74323C11.6456 2.80772 11.4881 2.85527 11.3256 2.884C7.70754 3.52406 7.70762 8.72903 11.3256 9.36907Z" fill="#F9662D" fill-opacity="0.4"/>
<path id="Vector" d="M0.808726 22.3013C0.584713 22.3013 0.376701 22.2053 0.216691 22.0453C0.0246799 21.8373 -0.0553248 21.5173 0.0406808 21.2453L1.59277 16.573V3.90026C1.59277 3.26023 1.84879 2.65219 2.29681 2.20416C2.74484 1.75614 3.35288 1.50012 3.99291 1.50012H11.1933C11.6414 1.50012 11.9934 1.85214 11.9934 2.30017C11.9934 2.7482 11.6414 3.10022 11.1933 3.10022H4.00891C3.8009 3.10022 3.59289 3.18022 3.44888 3.34023C3.30487 3.50024 3.20887 3.69225 3.20887 3.90026V16.701C3.20887 16.781 3.20887 16.877 3.16087 16.957L2.0248 20.3812L7.01709 19.1332C7.01709 19.1332 7.1451 19.1172 7.2091 19.1172H20.0099C20.2179 19.1172 20.4259 19.0372 20.5699 18.8771C20.7139 18.7171 20.8099 18.5251 20.8099 18.3171V9.5166C20.8099 9.06857 21.1619 8.71655 21.61 8.71655C22.058 8.71655 22.41 9.06857 22.41 9.5166V18.3171C22.41 18.9572 22.154 19.5652 21.706 20.0132C21.2579 20.4612 20.6339 20.7173 20.0099 20.7173H7.30511L1.00074 22.3013C1.00074 22.3013 0.87273 22.3174 0.808726 22.3174V22.3013Z" fill="#1335AF"/>
<path id="Vector 4489 (Stroke)" fill-rule="evenodd" clip-rule="evenodd" d="M16.3665 2.8579C15.774 4.34454 14.6088 5.52615 13.144 6.12647C14.6088 6.72679 15.774 7.9084 16.3665 9.39503C16.9653 7.90645 18.1363 6.72544 19.6055 6.12647C18.1363 5.5275 16.9653 4.34649 16.3665 2.8579ZM11.9595 5.78342C11.9592 5.78337 11.9598 5.78347 11.9595 5.78342V5.78342ZM11.9598 6.46946C11.9597 6.46948 11.9599 6.46944 11.9598 6.46946V6.46946ZM15.019 1.38754C15.331 -0.0607519 17.3814 -0.0709273 17.7062 1.37579L17.7465 1.55538C18.121 3.22583 19.4419 4.49278 21.0831 4.78311C22.5774 5.04748 22.5774 7.20546 21.0831 7.46983C19.4419 7.76016 18.1211 9.02699 17.7465 10.6974L17.7062 10.8771C17.3814 12.3238 15.331 12.3137 15.019 10.8654L14.9859 10.7113C14.9859 10.7112 14.9859 10.7114 14.9859 10.7113C14.6248 9.03453 13.3055 7.75808 11.6617 7.46728C10.1701 7.20341 10.1701 5.04953 11.6617 4.78566C13.3055 4.49486 14.6247 3.21867 14.9858 1.54191L15.019 1.38754Z" fill="#1335AF"/>
</g>
</svg>
