<svg width="46" height="46" viewBox="0 0 46 46" fill="none" xmlns="http://www.w3.org/2000/svg">
<g id="Ai-Edit-Spark--Streamline-Core">
<path id="Intersect" d="M14 43.3758L23.0126 42.8708L42.7552 23.0008C43.0536 22.7048 43.2905 22.3526 43.4522 21.9646C43.5346 21.7669 43.5966 21.5619 43.6376 21.3527L40.7111 18.4032C40.4147 18.0999 40.0606 17.859 39.6696 17.6944C39.2785 17.5299 38.8585 17.4451 38.4344 17.4451C38.0102 17.4451 37.5902 17.5299 37.1992 17.6944C36.8085 17.859 36.4541 18.0999 36.1576 18.4032L14.125 39.5008L14 43.3758Z" fill="#F9662D" fill-opacity="0.4"/>
<path id="Vector_2 (Stroke)" fill-rule="evenodd" clip-rule="evenodd" d="M35.8631 15.2696C36.044 15.1935 36.2384 15.1543 36.4346 15.1543L35.8631 15.2696ZM34.5362 12.1175C35.1372 11.8646 35.7827 11.7343 36.4346 11.7343C37.0865 11.7343 37.732 11.8646 38.333 12.1175C38.9319 12.3695 39.4745 12.7381 39.9294 13.2022L43.965 17.2696C44.421 17.7234 44.7832 18.2626 45.0308 18.8565C45.2796 19.4535 45.4073 20.0934 45.4073 20.7391C45.4073 21.3849 45.2796 22.0248 45.0308 22.6217C44.7831 23.2158 44.4208 23.7553 43.9645 24.2092L24.2259 44.0752C23.9409 44.3621 23.5634 44.5386 23.1605 44.5736L13.6077 45.4015C13.1046 45.4451 12.6079 45.2641 12.2509 44.907C11.8938 44.5499 11.7128 44.0533 11.7564 43.5502L12.5843 33.9974C12.6192 33.5945 12.7958 33.217 13.0827 32.932L32.9447 13.1972C33.3988 12.7352 33.9405 12.3683 34.5362 12.1175ZM36.4346 15.1543C36.6309 15.1543 36.8255 15.1936 37.0066 15.2698L36.4346 15.1543ZM37.0066 15.2698C37.1876 15.3459 37.3514 15.4574 37.4885 15.5977L37.0066 15.2698ZM35.8631 15.2696C35.6818 15.346 35.5174 15.4578 35.3807 15.5977L35.3632 15.6156L15.9375 34.9166L15.3393 41.8186L22.2413 41.2204L41.551 21.786C41.6893 21.6489 41.7991 21.4857 41.8741 21.3058C41.9488 21.1266 41.9873 20.9341 41.9873 20.7391C41.9873 20.5442 41.9488 20.3516 41.8741 20.1725C41.7991 19.9926 41.6893 19.8294 41.5511 19.6922L41.5415 19.6827L37.4885 15.5977" fill="#1335AF"/>
<path id="Vector 2138 (Stroke)" fill-rule="evenodd" clip-rule="evenodd" d="M12.2387 5.71589C11.0538 8.68919 8.72339 11.0524 5.79385 12.2531C8.72339 13.4537 11.0538 15.8169 12.2387 18.7902C13.4365 15.8131 15.7785 13.451 18.7169 12.2531C15.7785 11.0551 13.4365 8.69305 12.2387 5.71589ZM9.54384 2.77536C10.1674 -0.12121 14.269 -0.142048 14.9181 2.75197L14.9987 3.111C14.9987 3.111 14.9987 3.11101 14.9987 3.111C15.7481 6.45203 18.3897 8.98569 21.672 9.56635C24.6608 10.0951 24.6608 14.4111 21.672 14.9398C18.3897 15.5204 15.7481 18.0541 14.9987 21.3951L14.9181 21.7541C14.9181 21.7541 14.9181 21.7541 14.9181 21.7541C14.269 24.6481 10.1674 24.6273 9.54384 21.7308C9.54384 21.7308 9.54385 21.7308 9.54384 21.7308L9.47751 21.4227C8.75555 18.069 6.11702 15.5163 2.82917 14.9347C-0.153986 14.4069 -0.154001 10.0992 2.82917 9.57144C6.11702 8.98981 8.75554 6.4372 9.4775 3.08348L9.54384 2.77536C9.54384 2.77535 9.54384 2.77537 9.54384 2.77536Z" fill="#1335AF"/>
</g>
</svg>
