<svg width="23" height="24" viewBox="0 0 23 24" fill="none" xmlns="http://www.w3.org/2000/svg">
<path d="M7 22.1879L11.5063 21.9354L21.3776 12.0004C21.5268 11.8524 21.6452 11.6763 21.7261 11.4822C21.7673 11.3834 21.7983 11.2809 21.8188 11.1763L20.3556 9.70158C20.2073 9.54993 20.0303 9.42945 19.8348 9.34718C19.6393 9.26492 19.4293 9.22253 19.2172 9.22253C19.0051 9.22253 18.7951 9.26492 18.5996 9.34718C18.4042 9.42945 18.227 9.54993 18.0788 9.70158L7.0625 20.2504L7 22.1879Z" fill="#F9662D" fill-opacity="0.4"/>
<path fill-rule="evenodd" clip-rule="evenodd" d="M17.9318 8.1347C18.0223 8.09666 18.1195 8.07707 18.2176 8.07707L17.9318 8.1347ZM17.2684 6.55863C17.5689 6.43221 17.8916 6.36707 18.2176 6.36707C18.5435 6.36707 18.8663 6.43221 19.1668 6.55863C19.4662 6.68463 19.7375 6.86898 19.965 7.10099L21.9828 9.13469C22.2108 9.36159 22.3919 9.63123 22.5157 9.92818C22.6401 10.2266 22.7039 10.5466 22.7039 10.8695C22.7039 11.1924 22.6401 11.5123 22.5157 11.8108C22.3918 12.1078 22.2107 12.3776 21.9825 12.6045L12.1132 22.5375C11.9707 22.6809 11.782 22.7692 11.5805 22.7867L6.8041 23.2006C6.55256 23.2224 6.30424 23.132 6.1257 22.9534C5.94717 22.7749 5.85667 22.5266 5.87847 22.275L6.29243 17.4986C6.30989 17.2971 6.39817 17.1084 6.54161 16.9659L16.4726 7.09851C16.6997 6.86753 16.9705 6.68407 17.2684 6.55863ZM18.2176 8.07707C18.3157 8.07707 18.413 8.09669 18.5036 8.13479L18.2176 8.07707ZM18.5036 8.13479C18.5941 8.17288 18.676 8.22862 18.7445 8.29875L18.5036 8.13479ZM17.9318 8.1347C17.8412 8.17289 17.759 8.22882 17.6906 8.29875L17.6819 8.30769L7.969 17.9582L7.66992 21.4092L11.1209 21.1101L20.7758 11.3929C20.8449 11.3243 20.8998 11.2427 20.9373 11.1528C20.9747 11.0632 20.9939 10.9669 20.9939 10.8695C20.9939 10.772 20.9747 10.6757 20.9373 10.5862C20.8998 10.4962 20.8449 10.4146 20.7758 10.346L20.771 10.3413L18.7445 8.29875" fill="white"/>
<path fill-rule="evenodd" clip-rule="evenodd" d="M6.11955 3.35788C5.52709 4.84453 4.36188 6.02615 2.89711 6.62647C4.36188 7.22679 5.52709 8.40841 6.11955 9.89506C6.71846 8.40648 7.88944 7.22544 9.35861 6.62647C7.88944 6.0275 6.71845 4.84646 6.11955 3.35788ZM4.7721 1.88762C5.0839 0.439334 7.1347 0.428915 7.45925 1.87593L7.49952 2.05544C7.49952 2.05544 7.49952 2.05544 7.49952 2.05544C7.87422 3.72595 9.19503 4.99278 10.8362 5.28311C12.3306 5.54747 12.3306 7.70547 10.8362 7.96983C9.19503 8.26016 7.87422 9.52698 7.49952 11.1975L7.45925 11.377C7.45925 11.377 7.45925 11.377 7.45925 11.377C7.13469 12.824 5.0839 12.8136 4.7721 11.3653C4.7721 11.3653 4.77211 11.3653 4.7721 11.3653L4.73894 11.2113C4.37796 9.53442 3.05869 8.25809 1.41477 7.96728C-0.0768098 7.70341 -0.0768175 5.54953 1.41477 5.28566C3.05869 4.99485 4.37795 3.71854 4.73894 2.04168L4.7721 1.88762C4.7721 1.88761 4.7721 1.88762 4.7721 1.88762Z" fill="white"/>
</svg>
