<svg width="24" height="23" viewBox="0 0 24 23" fill="none" xmlns="http://www.w3.org/2000/svg">
<g id="Ai-Edit-Spark--Streamline-Core">
<path id="Intersect" d="M7.5 21.6879L12.0063 21.4354L21.8776 11.5004C22.0268 11.3524 22.1452 11.1763 22.2261 10.9822C22.2673 10.8834 22.2983 10.7809 22.3188 10.6763L20.8556 9.20158C20.7073 9.04993 20.5303 8.92945 20.3348 8.84718C20.1393 8.76492 19.9293 8.72253 19.7172 8.72253C19.5051 8.72253 19.2951 8.76492 19.0996 8.84718C18.9042 8.92945 18.727 9.04993 18.5788 9.20158L7.5625 19.7504L7.5 21.6879Z" fill="#F9662D" fill-opacity="0.4"/>
<path id="Vector_2 (Stroke)" fill-rule="evenodd" clip-rule="evenodd" d="M18.4335 7.6347C18.524 7.59666 18.6212 7.57707 18.7193 7.57707L18.4335 7.6347ZM17.7701 6.05863C18.0705 5.93221 18.3933 5.86707 18.7193 5.86707C19.0452 5.86707 19.368 5.93221 19.6684 6.05863C19.9679 6.18463 20.2392 6.36898 20.4666 6.60099L22.4845 8.63469C22.7125 8.86159 22.8936 9.13123 23.0173 9.42818C23.1418 9.72665 23.2056 10.0466 23.2056 10.3695C23.2056 10.6924 23.1418 11.0123 23.0173 11.3108C22.8935 11.6078 22.7123 11.8776 22.4842 12.1045L12.6149 22.0375C12.4724 22.1809 12.2837 22.2692 12.0822 22.2867L7.30578 22.7006C7.05424 22.7224 6.80592 22.632 6.62738 22.4534C6.44884 22.2749 6.35835 22.0266 6.38015 21.775L6.79411 16.9986C6.81157 16.7971 6.89985 16.6084 7.04328 16.4659L16.9743 6.59851C17.2014 6.36753 17.4722 6.18407 17.7701 6.05863ZM18.7193 7.57707C18.8174 7.57707 18.9147 7.59669 19.0052 7.63479L18.7193 7.57707ZM19.0052 7.63479C19.0958 7.67288 19.1776 7.72862 19.2462 7.79875L19.0052 7.63479ZM18.4335 7.6347C18.3429 7.67289 18.2607 7.72882 18.1923 7.79875L18.1836 7.80769L8.47068 17.4582L8.1716 20.9092L11.6226 20.6101L21.2775 10.8929C21.3466 10.8243 21.4015 10.7427 21.439 10.6528C21.4763 10.5632 21.4956 10.4669 21.4956 10.3695C21.4956 10.272 21.4763 10.1757 21.439 10.0862C21.4015 9.99621 21.3466 9.91459 21.2775 9.84602L21.2727 9.84127L19.2462 7.79875" fill="#1335AF"/>
<path id="Vector 2138 (Stroke)" fill-rule="evenodd" clip-rule="evenodd" d="M6.62034 2.85788C6.02788 4.34453 4.86267 5.52615 3.3979 6.12647C4.86267 6.72679 6.02788 7.90841 6.62034 9.39506C7.21925 7.90648 8.39023 6.72544 9.85941 6.12647C8.39024 5.5275 7.21925 4.34646 6.62034 2.85788ZM5.2729 1.38762C5.58469 -0.060666 7.63549 -0.0710851 7.96005 1.37593L8.00031 1.55544C8.00031 1.55544 8.00031 1.55544 8.00031 1.55544C8.37501 3.22595 9.69583 4.49278 11.337 4.78311C12.8314 5.04747 12.8314 7.20547 11.337 7.46983C9.69582 7.76016 8.37501 9.02698 8.00031 10.6975L7.96005 10.877C7.96005 10.877 7.96005 10.877 7.96005 10.877C7.63549 12.324 5.5847 12.3136 5.2729 10.8653C5.2729 10.8653 5.2729 10.8653 5.2729 10.8653L5.23973 10.7113C4.87875 9.03442 3.55949 7.75809 1.91556 7.46728C0.423984 7.20341 0.423976 5.04953 1.91556 4.78566C3.55948 4.49485 4.87875 3.21854 5.23973 1.54168L5.2729 1.38762C5.2729 1.38761 5.2729 1.38762 5.2729 1.38762Z" fill="#1335AF"/>
</g>
</svg>
