<svg width="25" height="24" viewBox="0 0 25 24" fill="none" xmlns="http://www.w3.org/2000/svg">
<path d="M22.8474 4.00165H16.6015C16.4312 3.98751 16.2578 4.05326 16.1397 4.17678L3.8484 16.4681C3.72901 16.5877 3.63756 16.7299 3.57825 16.8847L8.6932 21.9996C8.91709 22.2233 9.2206 22.3488 9.53704 22.3488C9.85348 22.3488 10.157 22.2233 10.3809 21.9996L11.6175 20.7631C11.5477 20.5396 11.5011 20.3092 11.4777 20.0763C9.28316 18.5605 9.73216 14.6779 12.8249 14.1308C13.6804 13.9795 14.3984 13.3069 14.5975 12.3821L14.6306 12.2281C15.3244 9.00543 19.6336 8.75027 20.8652 11.5153L22.6723 9.70828C22.7958 9.59019 22.8616 9.41686 22.8474 9.24656V4.00165Z" fill="#F9662D" fill-opacity="0.4"/>
<path d="M17.9997 7.99988C17.1711 7.99988 16.4996 7.32833 16.4996 6.49988C16.4996 5.67146 17.1711 4.99988 17.9997 4.99988C18.828 4.99988 19.4996 5.67146 19.4996 6.49988C19.4996 7.32833 18.828 7.99988 17.9997 7.99988Z" fill="#1335AF"/>
<path fill-rule="evenodd" clip-rule="evenodd" d="M18.119 14.3576C17.5265 15.8443 16.3613 17.0259 14.8966 17.6262C16.3613 18.2265 17.5265 19.4082 18.119 20.8948C18.7179 19.4062 19.8889 18.2252 21.3581 17.6262C19.8889 17.0273 18.7179 15.8462 18.119 14.3576ZM16.7716 12.8874C17.0833 11.4391 19.1341 11.4287 19.4587 12.8757L19.499 13.0552C19.499 13.0552 19.499 13.0552 19.499 13.0552C19.8737 14.7257 21.1945 15.9925 22.8356 16.2829C24.33 16.5472 24.33 18.7052 22.8356 18.9696C21.1945 19.2599 19.8737 20.5267 19.499 22.1973L19.4587 22.3768C19.4587 22.3768 19.4587 22.3768 19.4587 22.3768C19.1341 23.8238 17.0834 23.8134 16.7716 22.3651C16.7716 22.3651 16.7716 22.3651 16.7716 22.3651L16.7384 22.211C16.3774 20.5342 15.0581 19.2578 13.4142 18.967C11.9226 18.7032 11.9226 16.5493 13.4142 16.2854C15.0581 15.9946 16.3774 14.7183 16.7384 13.0414L16.7716 12.8874C16.7716 12.8874 16.7716 12.8874 16.7716 12.8874Z" fill="#1335AF"/>
<path fill-rule="evenodd" clip-rule="evenodd" d="M15.4986 1.00166H23.1079C23.5499 1.00166 23.9082 1.35998 23.9082 1.80199V9.41144C23.929 9.80594 23.7768 10.1961 23.4929 10.4721L21.9946 11.9702C21.682 12.2828 21.1753 12.2828 20.8627 11.9702C20.5502 11.6576 20.5502 11.1509 20.8628 10.8384L22.3076 9.39369V2.60231H15.5161L3.21781 14.9006C3.14286 14.9757 3.10077 15.0774 3.10077 15.1834C3.10077 15.2894 3.14278 15.391 3.21758 15.466C3.21751 15.4659 3.21766 15.4661 3.21758 15.466L9.44351 21.6919C9.44341 21.6919 9.44361 21.692 9.44351 21.6919C9.51858 21.7667 9.62052 21.809 9.7264 21.809C9.83245 21.809 9.93421 21.7669 10.0093 21.692L11.1071 20.5942C11.4196 20.2817 11.9264 20.2817 12.2389 20.5942C12.5515 20.9068 12.5514 21.4135 12.2389 21.726L11.1407 22.8243C10.7656 23.1988 10.2566 23.4097 9.7264 23.4097C9.19617 23.4097 8.6877 23.1992 8.31261 22.8247L2.08562 16.5977C1.71094 16.2225 1.50012 15.7137 1.50012 15.1834C1.50012 14.6532 1.71059 14.1447 2.08526 13.7695L14.4377 1.41711C14.7136 1.13312 15.1039 0.980733 15.4986 1.00166Z" fill="#1335AF"/>
</svg>
