<svg width="42" height="42" viewBox="0 0 42 42" fill="none" xmlns="http://www.w3.org/2000/svg">
<g id="Ai-Sparkles--Streamline-Core">
<path id="Vector 2140 (Stroke)" fill-rule="evenodd" clip-rule="evenodd" d="M9.84446 5.46285C8.90753 7.36255 7.38411 8.90653 5.50946 9.85505C7.38411 10.8036 8.90753 12.3476 9.84445 14.2472C10.7893 12.3457 12.3198 10.8022 14.2001 9.85504C12.3198 8.90787 10.7893 7.3644 9.84446 5.46285ZM16.8536 10.7366C16.8528 10.7365 16.852 10.7363 16.8512 10.7362L16.8536 10.7366ZM16.8536 8.97347C16.8536 8.97347 16.8536 8.97347 16.8536 8.97347V8.97347ZM2.85167 8.96939C2.85247 8.96953 2.85326 8.96968 2.85405 8.96982L2.85167 8.96939ZM7.35288 2.20091C7.92887 -0.474603 11.7207 -0.493847 12.3204 2.17928L12.3848 2.46653C12.3848 2.46652 12.3848 2.46655 12.3848 2.46653C12.9548 5.00751 14.9621 6.9289 17.4493 7.36891C20.2169 7.85848 20.2169 11.8516 17.4493 12.3412C14.9621 12.7812 12.9548 14.7025 12.3848 17.2435C12.3848 17.2435 12.3848 17.2435 12.3848 17.2435L12.3204 17.5307C11.7207 20.2039 7.92887 20.1847 7.35288 17.5092L7.29983 17.2627C7.29982 17.2627 7.29983 17.2627 7.29983 17.2627C6.75088 14.7128 4.74648 12.7777 2.25591 12.3371C-0.507166 11.8483 -0.507198 7.86175 2.25593 7.37298C4.74651 6.93239 6.75087 4.99732 7.29982 2.44744C7.29981 2.44745 7.29982 2.44742 7.29982 2.44744L7.35288 2.20091Z" fill="#1335AF"/>
<path id="Intersect" d="M25.0993 36.3697C23.6179 33.2678 21.317 30.7058 18.5 29.0061C22.4588 27.3205 25.4434 24.4525 26.6702 21C27.876 24.3428 30.7225 27.1337 34.5 28.836C30.7683 30.9731 27.8936 34.5979 26.5503 39C26.1886 38.075 25.6997 37.1943 25.0993 36.3697Z" fill="#F9662D" fill-opacity="0.4"/>
<path id="Vector 2141 (Stroke)" fill-rule="evenodd" clip-rule="evenodd" d="M26.549 15.7481C25.1252 21.0122 21.069 25.1263 15.8948 26.5726C21.069 28.0188 25.1252 32.133 26.549 37.397C27.997 32.123 32.0757 28.0118 37.2659 26.5725C32.0757 25.1334 27.997 21.0221 26.549 15.7481ZM23.4891 13.8124C24.1984 10.5177 28.8575 10.4946 29.5957 13.7858L29.7052 14.2741C30.7776 19.0552 34.561 22.691 39.2743 23.5248C42.6612 24.124 42.6615 29.0211 39.2742 29.6203C34.5609 30.4541 30.7776 34.0899 29.7052 38.871L29.5957 39.3593C28.8575 42.6501 24.1984 42.6276 23.4891 39.3327L23.3989 38.9136C22.3654 34.113 18.5855 30.4489 13.8626 29.6134C10.4834 29.0155 10.4832 24.1295 13.8626 23.5317C18.5856 22.6962 22.3654 19.0321 23.3989 14.2315L23.4891 13.8124C23.4891 13.8124 23.4891 13.8125 23.4891 13.8124Z" fill="#1335AF"/>
</g>
</svg>
