<svg width="31" height="32" viewBox="0 0 31 32" fill="none" xmlns="http://www.w3.org/2000/svg">
<g filter="url(#filter0_d_3072_27410)">
<path d="M10.9999 22.1879L15.5062 21.9354L25.3775 12.0004C25.5267 11.8524 25.6451 11.6763 25.726 11.4823C25.7672 11.3835 25.7982 11.281 25.8187 11.1764L24.3555 9.70164C24.2072 9.54999 24.0302 9.42951 23.8347 9.34724C23.6391 9.26498 23.4291 9.2226 23.2171 9.2226C23.005 9.2226 22.795 9.26498 22.5995 9.34724C22.4041 9.42951 22.2269 9.54999 22.0787 9.70164L11.0624 20.2504L10.9999 22.1879Z" fill="#F9662D" fill-opacity="0.4"/>
<path fill-rule="evenodd" clip-rule="evenodd" d="M21.9318 8.13482C22.0223 8.09678 22.1195 8.07719 22.2175 8.07719L21.9318 8.13482ZM21.2684 6.55876C21.5688 6.43233 21.8916 6.36719 22.2175 6.36719C22.5435 6.36719 22.8663 6.43233 23.1667 6.55876C23.4662 6.68476 23.7375 6.8691 23.9649 7.10111L25.9827 9.13481C26.2108 9.36171 26.3918 9.63135 26.5156 9.9283C26.6401 10.2268 26.7039 10.5467 26.7039 10.8696C26.7039 11.1925 26.6401 11.5124 26.5156 11.8109C26.3918 12.1079 26.2106 12.3777 25.9825 12.6046L16.1132 22.5376C15.9707 22.6811 15.7819 22.7694 15.5805 22.7868L10.8041 23.2008C10.5525 23.2226 10.3042 23.1321 10.1257 22.9535C9.94714 22.775 9.85664 22.5267 9.87844 22.2751L10.2924 17.4987C10.3099 17.2973 10.3981 17.1085 10.5416 16.966L20.4726 7.09864C20.6996 6.86765 20.9705 6.68419 21.2684 6.55876ZM22.2175 8.07719C22.3157 8.07719 22.413 8.09681 22.5035 8.13492L22.2175 8.07719ZM22.5035 8.13492C22.594 8.173 22.6759 8.22874 22.7445 8.29887L22.5035 8.13492ZM21.9318 8.13482C21.8412 8.17301 21.7589 8.22894 21.6906 8.29887L21.6819 8.30781L11.969 17.9583L11.6699 21.4093L15.1209 21.1102L24.7758 11.393C24.8449 11.3245 24.8998 11.2429 24.9373 11.1529C24.9746 11.0633 24.9939 10.9671 24.9939 10.8696C24.9939 10.7721 24.9746 10.6758 24.9373 10.5863C24.8998 10.4963 24.8449 10.4147 24.7758 10.3461L24.771 10.3414L22.7445 8.29887" fill="#1335AF"/>
<path fill-rule="evenodd" clip-rule="evenodd" d="M10.1195 3.35794C9.52703 4.84459 8.36182 6.02621 6.89705 6.62653C8.36182 7.22685 9.52703 8.40847 10.1195 9.89512C10.7184 8.40654 11.8894 7.22551 13.3586 6.62653C11.8894 6.02756 10.7184 4.84653 10.1195 3.35794ZM8.77204 1.88768C9.08383 0.439395 11.1346 0.428976 11.4592 1.87599L11.4995 2.0555C11.4995 2.0555 11.4995 2.0555 11.4995 2.0555C11.8742 3.72601 13.195 4.99284 14.8361 5.28317C16.3305 5.54753 16.3305 7.70553 14.8361 7.96989C13.195 8.26022 11.8742 9.52704 11.4995 11.1976L11.4592 11.3771C11.4592 11.3771 11.4592 11.3771 11.4592 11.3771C11.1346 12.8241 9.08384 12.8137 8.77204 11.3654C8.77204 11.3654 8.77204 11.3654 8.77204 11.3654L8.73888 11.2113C8.3779 9.53448 7.05863 8.25815 5.41471 7.96734C3.92313 7.70347 3.92312 5.54959 5.41471 5.28572C7.05863 4.99491 8.37789 3.7186 8.73887 2.04174L8.77204 1.88768C8.77204 1.88767 8.77204 1.88768 8.77204 1.88768Z" fill="#1335AF"/>
</g>
<defs>
<filter id="filter0_d_3072_27410" x="-0.5" y="0" width="32" height="32" filterUnits="userSpaceOnUse" color-interpolation-filters="sRGB">
<feFlood flood-opacity="0" result="BackgroundImageFix"/>
<feColorMatrix in="SourceAlpha" type="matrix" values="0 0 0 0 0 0 0 0 0 0 0 0 0 0 0 0 0 0 127 0" result="hardAlpha"/>
<feOffset dy="4"/>
<feGaussianBlur stdDeviation="2"/>
<feComposite in2="hardAlpha" operator="out"/>
<feColorMatrix type="matrix" values="0 0 0 0 0 0 0 0 0 0 0 0 0 0 0 0 0 0 0.25 0"/>
<feBlend mode="normal" in2="BackgroundImageFix" result="effect1_dropShadow_3072_27410"/>
<feBlend mode="normal" in="SourceGraphic" in2="effect1_dropShadow_3072_27410" result="shape"/>
</filter>
</defs>
</svg>
