<svg width="25" height="24" viewBox="0 0 25 24" fill="none" xmlns="http://www.w3.org/2000/svg">
<path fill-rule="evenodd" clip-rule="evenodd" d="M11.7037 20.757C16.4083 20.757 20.3186 17.3561 21.1103 12.8787C20.3186 8.40124 16.4083 5.00037 11.7037 5.00037C6.99908 5.00037 3.08879 8.40124 2.29712 12.8787C3.08879 17.3561 6.99908 20.757 11.7037 20.757ZM6.95867 10.6853C6.3865 10.7865 6.3865 11.6217 6.95867 11.723C9.03157 12.0897 10.6803 13.6952 11.1302 15.7852L11.1647 15.9454C11.2885 16.5204 12.0937 16.524 12.2224 15.9501L12.2643 15.7634C12.7309 13.6832 14.38 12.0913 16.4471 11.7256C17.0222 11.6239 17.0222 10.7844 16.4471 10.6827C14.38 10.317 12.7309 8.72502 12.2643 6.64487L12.2224 6.45817C12.0937 5.88427 11.2885 5.88783 11.1647 6.46287L11.1302 6.62307C10.6803 8.71309 9.03157 10.3186 6.95867 10.6853Z" fill="#F9662D" fill-opacity="0.4"/>
<path fill-rule="evenodd" clip-rule="evenodd" d="M1.29602 11.2039C1.29602 5.45584 5.95578 0.796082 11.7039 0.796082C17.452 0.796082 22.1117 5.45584 22.1117 11.2039C22.1117 16.952 17.452 21.6118 11.7039 21.6118C5.95578 21.6118 1.29602 16.952 1.29602 11.2039ZM11.7039 2.50608C6.90018 2.50608 3.00602 6.40024 3.00602 11.2039C3.00602 16.0076 6.90018 19.9018 11.7039 19.9018C16.5076 19.9018 20.4017 16.0076 20.4017 11.2039C20.4017 6.40024 16.5076 2.50608 11.7039 2.50608Z" fill="#1335AF"/>
<path fill-rule="evenodd" clip-rule="evenodd" d="M17.85 17.3503C18.1839 17.0164 18.7253 17.0164 19.0592 17.3503L23.4535 21.7447C23.7874 22.0786 23.7874 22.6199 23.4535 22.9538C23.1196 23.2877 22.5782 23.2877 22.2443 22.9538L17.85 18.5595C17.5161 18.2256 17.5161 17.6842 17.85 17.3503Z" fill="#1335AF"/>
<path fill-rule="evenodd" clip-rule="evenodd" d="M11.3236 7.56205C10.7311 9.0487 9.56592 10.2303 8.10115 10.8306C9.56592 11.431 10.7311 12.6126 11.3236 14.0992C11.9225 12.6106 13.0935 11.4296 14.5627 10.8306C13.0935 10.2317 11.9225 9.05063 11.3236 7.56205ZM9.97614 6.09178C10.2879 4.6435 12.3387 4.63308 12.6633 6.08009L12.7036 6.2596C12.7036 6.2596 12.7036 6.25961 12.7036 6.2596C13.0783 7.93012 14.3991 9.19695 16.0402 9.48727C17.5346 9.75163 17.5346 11.9096 16.0402 12.174C14.3991 12.4643 13.0783 13.7311 12.7036 15.4017L12.6633 15.5812C12.6633 15.5812 12.6633 15.5812 12.6633 15.5812C12.3387 17.0282 10.2879 17.0178 9.97614 15.5695C9.97614 15.5695 9.97615 15.5695 9.97614 15.5695L9.94298 15.4154C9.582 13.7386 8.26273 12.4623 6.61881 12.1714C5.12723 11.9076 5.12722 9.75369 6.61881 9.48982C8.26273 9.19901 9.58199 7.9227 9.94298 6.24584L9.97614 6.09178C9.97614 6.09178 9.97614 6.09178 9.97614 6.09178Z" fill="#1335AF"/>
</svg>
