<svg width="23" height="23" viewBox="0 0 23 23" fill="none" xmlns="http://www.w3.org/2000/svg">
<g id="Ai-Tagging-Spark--Streamline-Core">
<path id="Intersect" d="M21.3473 3.50165H15.1013C14.931 3.48751 14.7577 3.55326 14.6396 3.67678L2.34828 15.9681C2.22889 16.0877 2.13744 16.2299 2.07812 16.3847L7.19308 21.4996C7.41697 21.7233 7.72048 21.8488 8.03692 21.8488C8.35336 21.8488 8.65685 21.7233 8.88075 21.4996L10.1174 20.2631C10.0476 20.0396 10.001 19.8092 9.97756 19.5763C7.78304 18.0605 8.23204 14.1779 11.3247 13.6308C12.1803 13.4795 12.8983 12.8069 13.0974 11.8821L13.1305 11.7281C13.8243 8.50543 18.1335 8.25027 19.365 11.0153L21.1721 9.20828C21.2957 9.09019 21.3614 8.91686 21.3473 8.74656V3.50165Z" fill="#F9662D" fill-opacity="0.4"/>
<path id="Vector" d="M16.5 7.49988C15.6715 7.49988 15 6.82833 15 5.99988C15 5.17146 15.6715 4.49988 16.5 4.49988C17.3283 4.49988 18 5.17146 18 5.99988C18 6.82833 17.3283 7.49988 16.5 7.49988Z" fill="#1335AF"/>
<path id="Vector 2138 (Stroke)" fill-rule="evenodd" clip-rule="evenodd" d="M16.6184 13.8576C16.0259 15.3443 14.8607 16.5259 13.3959 17.1262C14.8607 17.7265 16.0259 18.9082 16.6184 20.3948C17.2173 18.9062 18.3883 17.7252 19.8575 17.1262C18.3883 16.5273 17.2173 15.3462 16.6184 13.8576ZM15.2709 12.3874C15.5827 10.9391 17.6335 10.9287 17.9581 12.3757L17.9984 12.5552C17.9984 12.5552 17.9984 12.5552 17.9984 12.5552C18.3731 14.2257 19.6939 15.4925 21.335 15.7829C22.8294 16.0472 22.8294 18.2052 21.335 18.4696C19.6939 18.7599 18.3731 20.0267 17.9984 21.6973L17.9581 21.8768C17.9581 21.8768 17.9581 21.8768 17.9581 21.8768C17.6335 23.3238 15.5827 23.3134 15.2709 21.8651C15.2709 21.8651 15.2709 21.8651 15.2709 21.8651L15.2378 21.711C14.8768 20.0342 13.5575 18.7578 11.9136 18.467C10.422 18.2032 10.422 16.0493 11.9136 15.7854C13.5575 15.4946 14.8768 14.2183 15.2378 12.5414L15.2709 12.3874C15.2709 12.3874 15.2709 12.3874 15.2709 12.3874Z" fill="#1335AF"/>
<path id="Vector_2 (Stroke)" fill-rule="evenodd" clip-rule="evenodd" d="M13.9985 0.50166H21.6078C22.0498 0.50166 22.4081 0.859978 22.4081 1.30199V8.91144C22.4289 9.30594 22.2766 9.69609 21.9928 9.97205L20.4944 11.4702C20.1819 11.7828 19.6751 11.7828 19.3626 11.4702C19.0501 11.1576 19.0501 10.6509 19.3627 10.3384L20.8075 8.89369V2.10231H14.016L1.71769 14.4006C1.64274 14.4757 1.60065 14.5774 1.60065 14.6834C1.60065 14.7894 1.64266 14.891 1.71746 14.966C1.71739 14.9659 1.71754 14.9661 1.71746 14.966L7.94339 21.1919C7.94329 21.1919 7.94348 21.192 7.94339 21.1919C8.01846 21.2667 8.1204 21.309 8.22628 21.309C8.33233 21.309 8.43409 21.2669 8.50915 21.192L9.60696 20.0942C9.91951 19.7817 10.4262 19.7817 10.7388 20.0942C11.0513 20.4068 11.0513 20.9135 10.7388 21.226L9.64053 22.3243C9.26543 22.6988 8.75652 22.9097 8.22628 22.9097C7.69604 22.9097 7.18758 22.6992 6.81248 22.3247L0.585496 16.0977C0.210821 15.7225 0 15.2137 0 14.6834C0 14.1532 0.210465 13.6447 0.585134 13.2695L12.9375 0.91711C13.2135 0.633119 13.6037 0.480733 13.9985 0.50166Z" fill="#1335AF"/>
</g>
</svg>
