<svg width="24" height="23" viewBox="0 0 24 23" fill="none" xmlns="http://www.w3.org/2000/svg">
<g id="Ai-Upscale-Spark--Streamline-Core">
<path id="Subtract" fill-rule="evenodd" clip-rule="evenodd" d="M11.2054 20.2568C15.91 20.2568 19.8203 16.856 20.612 12.3785C19.8203 7.90112 15.91 4.50024 11.2054 4.50024C6.50079 4.50024 2.5905 7.90112 1.79883 12.3785C2.5905 16.856 6.50079 20.2568 11.2054 20.2568ZM6.46038 10.1852C5.88821 10.2864 5.88821 11.1216 6.46038 11.2228C8.53328 11.5896 10.182 13.195 10.6319 15.2851L10.6664 15.4453C10.7902 16.0203 11.5954 16.0239 11.7241 15.45L11.766 15.2633C12.2326 13.1831 13.8817 11.5912 15.9488 11.2255C16.5239 11.1238 16.5239 10.2843 15.9488 10.1825C13.8817 9.81683 12.2326 8.2249 11.766 6.14474L11.7241 5.95805C11.5954 5.38415 10.7902 5.38771 10.6664 5.96275L10.6319 6.12295C10.182 8.21297 8.53328 9.81846 6.46038 10.1852Z" fill="#F9662D" fill-opacity="0.4"/>
<path id="Vector_2 (Stroke)" fill-rule="evenodd" clip-rule="evenodd" d="M0.796875 10.7039C0.796875 4.95578 5.45663 0.296021 11.2047 0.296021C16.9528 0.296021 21.6126 4.95578 21.6126 10.7039C21.6126 16.452 16.9528 21.1117 11.2047 21.1117C5.45663 21.1117 0.796875 16.452 0.796875 10.7039ZM11.2047 2.00602C6.40104 2.00602 2.50688 5.90018 2.50688 10.7039C2.50688 15.5076 6.40104 19.4017 11.2047 19.4017C16.0084 19.4017 19.9026 15.5076 19.9026 10.7039C19.9026 5.90018 16.0084 2.00602 11.2047 2.00602Z" fill="#1335AF"/>
<path id="Vector_3 (Stroke)" fill-rule="evenodd" clip-rule="evenodd" d="M17.35 16.8503C17.6839 16.5164 18.2253 16.5164 18.5592 16.8503L22.9535 21.2446C23.2874 21.5785 23.2874 22.1198 22.9535 22.4537C22.6196 22.7876 22.0782 22.7876 21.7443 22.4537L17.35 18.0594C17.0161 17.7255 17.0161 17.1842 17.35 16.8503Z" fill="#1335AF"/>
<path id="Vector 2138 (Stroke)" fill-rule="evenodd" clip-rule="evenodd" d="M10.8254 7.06198C10.233 8.54864 9.06775 9.73025 7.60298 10.3306C9.06775 10.9309 10.233 12.1125 10.8254 13.5992C11.4243 12.1106 12.5953 10.9295 14.0645 10.3306C12.5953 9.7316 11.4243 8.55057 10.8254 7.06198ZM9.47797 5.59172C9.78977 4.14344 11.8406 4.13302 12.1651 5.58003L12.2054 5.75954C12.2054 5.75954 12.2054 5.75954 12.2054 5.75954C12.5801 7.43006 13.9009 8.69688 15.5421 8.98721C17.0364 9.25157 17.0364 11.4096 15.542 11.6739C13.9009 11.9643 12.5801 13.2311 12.2054 14.9016L12.1651 15.0811C12.1651 15.0811 12.1651 15.0811 12.1651 15.0811C11.8406 16.5281 9.78977 16.5177 9.47798 15.0694C9.47797 15.0694 9.47798 15.0694 9.47798 15.0694L9.44481 14.9154C9.08383 13.2385 7.76457 11.9622 6.12064 11.6714C4.62906 11.4075 4.62905 9.25363 6.12064 8.98976C7.76456 8.69895 9.08382 7.42264 9.44481 5.74578L9.47797 5.59172C9.47798 5.59171 9.47797 5.59172 9.47797 5.59172Z" fill="#1335AF"/>
</g>
</svg>
