<svg width="46" height="46" viewBox="0 0 46 46" fill="none" xmlns="http://www.w3.org/2000/svg">
<g id="Ai-Upscale-Spark--Streamline-Core">
<path id="Subtract" fill-rule="evenodd" clip-rule="evenodd" d="M21.4069 40.5139C30.8161 40.5139 38.6367 33.7122 40.22 24.7573C38.6367 15.8025 30.8161 9.00073 21.4069 9.00073C11.9977 9.00073 4.17709 15.8025 2.59375 24.7573C4.17709 33.7122 11.9977 40.5139 21.4069 40.5139ZM11.9168 20.3706C10.7725 20.573 10.7725 22.2435 11.9168 22.4459C16.0627 23.1794 19.3601 26.3903 20.2599 30.5704L20.3289 30.8908C20.5764 32.0408 22.1868 32.048 22.4443 30.9002L22.5281 30.5268C23.4612 26.3665 26.7595 23.1826 30.8938 22.4512C32.044 22.2478 32.044 20.5687 30.8938 20.3653C26.7595 19.6339 23.4612 16.45 22.5281 12.2897L22.4443 11.9163C22.1868 10.7685 20.5764 10.7757 20.3289 11.9257L20.2599 12.2461C19.3601 16.4262 16.0627 19.6372 11.9168 20.3706Z" fill="#F9662D" fill-opacity="0.4"/>
<path id="Vector_2 (Stroke)" fill-rule="evenodd" clip-rule="evenodd" d="M0.591797 21.4079C0.591797 9.91167 9.91131 0.592163 21.4075 0.592163C32.9037 0.592163 42.2232 9.91167 42.2232 21.4079C42.2232 32.9041 32.9037 42.2236 21.4075 42.2236C9.91131 42.2236 0.591797 32.9041 0.591797 21.4079ZM21.4075 4.01216C11.8001 4.01216 4.0118 11.8005 4.0118 21.4079C4.0118 31.0153 11.8001 38.8036 21.4075 38.8036C31.0149 38.8036 38.8032 31.0153 38.8032 21.4079C38.8032 11.8005 31.0149 4.01216 21.4075 4.01216Z" fill="#1335AF"/>
<path id="Vector_3 (Stroke)" fill-rule="evenodd" clip-rule="evenodd" d="M33.7001 33.7007C34.3679 33.0329 35.4506 33.0329 36.1184 33.7007L44.907 42.4894C45.5748 43.1572 45.5748 44.2399 44.907 44.9077C44.2392 45.5755 43.1565 45.5755 42.4887 44.9077L33.7001 36.119C33.0323 35.4512 33.0323 34.3685 33.7001 33.7007Z" fill="#1335AF"/>
<path id="Vector 2138 (Stroke)" fill-rule="evenodd" clip-rule="evenodd" d="M20.6469 14.1241C19.462 17.0974 17.1316 19.4606 14.2021 20.6613C17.1316 21.8619 19.462 24.2251 20.6469 27.1984C21.8447 24.2213 24.1867 21.8592 27.1251 20.6613C24.1867 19.4633 21.8447 17.1013 20.6469 14.1241ZM17.952 11.1836C18.5756 8.28699 22.6772 8.26616 23.3263 11.1602L23.4069 11.5192C23.4069 11.5192 23.4069 11.5192 23.4069 11.5192C24.1563 14.8602 26.7979 17.3939 30.0802 17.9745C33.069 18.5033 33.069 22.8193 30.0802 23.348C26.7979 23.9286 24.1563 26.4623 23.4069 29.8033L23.3263 30.1623C23.3263 30.1623 23.3263 30.1623 23.3263 30.1623C22.6772 33.0563 18.5756 33.0355 17.952 30.139C17.952 30.139 17.952 30.139 17.952 30.139L17.8857 29.8309C17.1637 26.4772 14.5252 23.9245 11.2374 23.3429C8.25422 22.8151 8.2542 18.5074 11.2374 17.9796C14.5252 17.398 17.1637 14.8454 17.8857 11.4917L17.952 11.1836C17.952 11.1836 17.952 11.1836 17.952 11.1836Z" fill="#1335AF"/>
</g>
</svg>
