<svg width="25" height="24" viewBox="0 0 25 24" fill="none" xmlns="http://www.w3.org/2000/svg">
<path d="M21.0715 3.42853H15.9286C14.9819 3.42853 14.2144 4.04254 14.2144 4.79996V8.91424C14.2144 9.67165 14.9819 10.2857 15.9286 10.2857H21.0715C22.0183 10.2857 22.7858 9.67165 22.7858 8.91424V4.79996C22.7858 4.04254 22.0183 3.42853 21.0715 3.42853Z" fill="#F9662D" fill-opacity="0.4"/>
<path d="M9.0715 15.4285H3.92864C2.98188 15.4285 2.21436 16.0425 2.21436 16.8V20.9142C2.21436 21.6717 2.98188 22.2857 3.92864 22.2857H9.0715C10.0183 22.2857 10.7858 21.6717 10.7858 20.9142V16.8C10.7858 16.0425 10.0183 15.4285 9.0715 15.4285Z" fill="#F9662D" fill-opacity="0.4"/>
<path fill-rule="evenodd" clip-rule="evenodd" d="M13.3572 3.42855C13.3572 2.00839 14.5085 0.857117 15.9286 0.857117H21.0715C22.4917 0.857117 23.6429 2.0084 23.6429 3.42855V8.5714C23.6429 9.99154 22.4917 11.1428 21.0715 11.1428H15.9286C14.5085 11.1428 13.3572 9.99156 13.3572 8.5714V3.42855ZM15.9286 2.5714C15.4552 2.5714 15.0715 2.95517 15.0715 3.42855V8.5714C15.0715 9.04478 15.4552 9.42854 15.9286 9.42854H21.0715C21.5449 9.42854 21.9286 9.04479 21.9286 8.5714V3.42855C21.9286 2.95516 21.5449 2.5714 21.0715 2.5714H15.9286Z" fill="#1335AF"/>
<path fill-rule="evenodd" clip-rule="evenodd" d="M1.35718 15.4285C1.35718 14.0084 2.50845 12.8571 3.92861 12.8571H9.07146C10.4916 12.8571 11.6429 14.0084 11.6429 15.4285V20.5714C11.6429 21.9916 10.4916 23.1428 9.07146 23.1428H3.92861C2.50846 23.1428 1.35718 21.9916 1.35718 20.5714V15.4285ZM3.92861 14.5714C3.45523 14.5714 3.07146 14.9552 3.07146 15.4285V20.5714C3.07146 21.0448 3.45522 21.4285 3.92861 21.4285H9.07146C9.54485 21.4285 9.92861 21.0448 9.92861 20.5714V15.4285C9.92861 14.9552 9.54484 14.5714 9.07146 14.5714H3.92861Z" fill="#1335AF"/>
<ellipse cx="6.50007" cy="6.8571" rx="4.28571" ry="3.42857" fill="#F9662D" fill-opacity="0.4"/>
<ellipse cx="18.5001" cy="18.8571" rx="4.28571" ry="3.42857" fill="#F9662D" fill-opacity="0.4"/>
<path fill-rule="evenodd" clip-rule="evenodd" d="M6.50003 2.5714C4.60649 2.5714 3.07146 4.10643 3.07146 5.99997C3.07146 7.89352 4.60649 9.42854 6.50003 9.42854C8.39358 9.42854 9.92861 7.89352 9.92861 5.99997C9.92861 4.10643 8.39358 2.5714 6.50003 2.5714ZM1.35718 5.99997C1.35718 3.15965 3.65971 0.857117 6.50003 0.857117C9.34036 0.857117 11.6429 3.15965 11.6429 5.99997C11.6429 8.8403 9.34036 11.1428 6.50003 11.1428C3.65971 11.1428 1.35718 8.8403 1.35718 5.99997Z" fill="#1335AF"/>
<path fill-rule="evenodd" clip-rule="evenodd" d="M18.5 14.5714C16.6065 14.5714 15.0715 16.1064 15.0715 18C15.0715 19.8935 16.6065 21.4285 18.5 21.4285C20.3936 21.4285 21.9286 19.8935 21.9286 18C21.9286 16.1064 20.3936 14.5714 18.5 14.5714ZM13.3572 18C13.3572 15.1597 15.6597 12.8571 18.5 12.8571C21.3404 12.8571 23.6429 15.1597 23.6429 18C23.6429 20.8403 21.3404 23.1428 18.5 23.1428C15.6597 23.1428 13.3572 20.8403 13.3572 18Z" fill="#1335AF"/>
</svg>
