<svg width="15" height="10" viewBox="0 0 15 10" fill="none" xmlns="http://www.w3.org/2000/svg">
<path d="M9.16797 6.61694L14.1458 1.81616L4.85547 1.82007L9.16797 6.61694Z" fill="#F9662D" fill-opacity="0.4"/>
<path fill-rule="evenodd" clip-rule="evenodd" d="M0.617842 1.4885C0.485505 1.80799 0.558655 2.17574 0.803183 2.42027L7.17176 8.78884C7.3321 8.94919 7.54957 9.03927 7.77633 9.03927C8.00309 9.03927 8.22056 8.94919 8.38091 8.78884L14.7495 2.42027C14.994 2.17574 15.0672 1.80799 14.9348 1.4885C14.8025 1.16901 14.4907 0.960693 14.1449 0.960693L1.40776 0.960693C1.06194 0.960693 0.75018 1.16901 0.617842 1.4885ZM3.47191 2.67069L12.0808 2.67069L7.77633 6.97511L3.47191 2.67069Z" fill="#1335AF"/>
</svg>
