<svg width="45" height="45" viewBox="0 0 45 45" fill="none" xmlns="http://www.w3.org/2000/svg">
<g id="Announcement-Megaphone--Streamline-Core">
<path id="Vector 3878" d="M3.25 38.5625L25.9375 18.9375L34.34 32.34L3.67997 39.44L3.25 38.5625Z" fill="#F9662D" fill-opacity="0.4"/>
<path id="Vector" d="M35.0005 35.18C34.4005 35.18 33.8405 34.88 33.5205 34.32L21.0805 12.76C20.6005 11.94 20.8805 10.9 21.7005 10.42C22.5205 9.94 23.5605 10.22 24.0405 11.04L36.4805 32.6C36.9605 33.42 36.6805 34.46 35.8605 34.94C35.6005 35.1 35.3005 35.18 35.0005 35.18Z" fill="#1335AF"/>
<path id="Vector_2" d="M3.67926 41.16C3.07926 41.16 2.49926 40.84 2.19926 40.3L0.239257 36.9C-0.140743 36.24 -0.0407428 35.42 0.479257 34.88L21.9593 11.88C22.5993 11.2 23.6793 11.16 24.3793 11.8C25.0793 12.44 25.0993 13.52 24.4593 14.22L3.81926 36.3L4.51926 37.5L33.9593 30.66C34.8793 30.46 35.7993 31.02 36.0193 31.94C36.2393 32.86 35.6593 33.78 34.7393 34L4.05926 41.12C3.93926 41.14 3.79926 41.16 3.67926 41.16Z" fill="#1335AF"/>
<path id="Vector_3" d="M16.0003 44.82C15.4603 44.82 14.9203 44.74 14.3803 44.62C12.7603 44.2 11.3803 43.16 10.5403 41.7L8.84029 38.78C8.36029 37.96 8.64029 36.92 9.46029 36.44C10.2803 35.96 11.3203 36.24 11.8003 37.06L13.4803 39.98C13.8603 40.64 14.4803 41.12 15.2403 41.3C15.9803 41.5 16.7603 41.38 17.4203 41C18.0803 40.62 18.5603 40 18.7603 39.24C18.9603 38.5 18.8403 37.72 18.4603 37.06L18.1803 36.58C17.7003 35.76 18.0003 34.72 18.8003 34.24C19.6203 33.76 20.6603 34.06 21.1403 34.88L21.4003 35.34C22.2403 36.76 22.4603 38.5 22.0403 40.1C21.6203 41.72 20.5803 43.08 19.1203 43.94C18.1403 44.52 17.0603 44.8 15.9603 44.8L16.0003 44.82Z" fill="#1335AF"/>
<path id="Vector_4" d="M22.3997 7.7C21.4597 7.7 20.6797 6.94 20.6797 6V1.7C20.6797 0.76 21.4397 0 22.3997 0C23.3597 0 24.1197 0.76 24.1197 1.7V5.98C24.1197 6.92 23.3597 7.68 22.3997 7.68V7.7Z" fill="#1335AF"/>
<path id="Vector_5" d="M43.0996 24.1201H38.8196C37.8796 24.1201 37.0996 23.3601 37.0996 22.4001C37.0996 21.4401 37.8596 20.6801 38.8196 20.6801H43.0996C44.0396 20.6801 44.8196 21.4401 44.8196 22.4001C44.8196 23.3601 44.0596 24.1201 43.0996 24.1201Z" fill="#1335AF"/>
<path id="Vector_6" d="M6 24.1201H1.72C0.76 24.1201 0 23.3601 0 22.4001C0 21.4401 0.76 20.6801 1.7 20.6801H5.98C6.92 20.6801 7.68 21.4401 7.68 22.4001C7.68 23.3601 6.92 24.1201 5.98 24.1201H6Z" fill="#1335AF"/>
<path id="Vector_7" d="M10.8009 12.52C10.3609 12.52 9.92094 12.36 9.60094 12.02L6.58094 8.99996C5.92094 8.33996 5.92094 7.23996 6.58094 6.57996C7.24094 5.91996 8.34094 5.91996 9.00094 6.57996L12.0209 9.59996C12.6809 10.26 12.6809 11.36 12.0209 12.02C11.6809 12.36 11.2409 12.52 10.8209 12.52H10.8009Z" fill="#1335AF"/>
<path id="Vector_8" d="M34.0192 12.52C33.5792 12.52 33.1392 12.36 32.8192 12.02C32.1592 11.36 32.1592 10.26 32.8192 9.59996L35.8392 6.57996C36.4992 5.91996 37.5992 5.91996 38.2592 6.57996C38.9192 7.23996 38.9192 8.33996 38.2592 8.99996L35.2392 12.02C34.8992 12.36 34.4592 12.52 34.0392 12.52H34.0192Z" fill="#1335AF"/>
</g>
</svg>
