<svg width="25" height="24" viewBox="0 0 25 24" fill="none" xmlns="http://www.w3.org/2000/svg">
<path fill-rule="evenodd" clip-rule="evenodd" d="M5.33533 6.02946C5.33533 5.60719 5.50308 5.20223 5.80165 4.90364C6.10024 4.60506 6.5052 4.43732 6.92747 4.43732H17.2764L22.8489 10.0098V20.7568C22.8489 21.179 22.6811 21.5841 22.3826 21.8826C22.084 22.1811 21.679 22.3489 21.2568 22.3489H12.7912C13.8533 21.0467 14.4901 19.384 14.4901 17.5725C14.4901 13.3958 11.1042 10.0098 6.92747 10.0098C6.3813 10.0098 5.84865 10.0677 5.33533 10.1777V6.02946Z" fill="#F9662D" fill-opacity="0.4"/>
<path fill-rule="evenodd" clip-rule="evenodd" d="M6.92749 2.50608C6.73199 2.50608 6.54451 2.58374 6.40626 2.72197C6.40625 2.72198 6.40625 2.72199 6.40624 2.72199M6.40624 2.72199C6.268 2.86024 6.19035 3.04773 6.19035 3.24322V9.6118C6.19035 10.084 5.80755 10.4668 5.33535 10.4668C4.86314 10.4668 4.48035 10.084 4.48035 9.6118V3.24322C4.48035 2.59419 4.73818 1.97176 5.19708 1.51284L5.1971 1.51283C5.65603 1.05391 6.27846 0.796082 6.92749 0.796082H17.2764C17.5032 0.796082 17.7207 0.886162 17.881 1.04651L23.4535 6.619C23.6138 6.77935 23.7039 6.99682 23.7039 7.22358V20.7568C23.7039 21.4058 23.446 22.0283 22.9872 22.4872C22.5283 22.946 21.9058 23.2039 21.2568 23.2039H13.2961C12.8239 23.2039 12.4411 22.8211 12.4411 22.3489C12.4411 21.8767 12.8239 21.4939 13.2961 21.4939H21.2568C21.4522 21.4939 21.6398 21.4162 21.778 21.278C21.9162 21.1398 21.9939 20.9522 21.9939 20.7568V7.57773L16.9223 2.50608H6.92749" fill="#1335AF"/>
<path fill-rule="evenodd" clip-rule="evenodd" d="M1.29602 17.5725C1.29602 14.4624 3.8173 11.9411 6.92745 11.9411C10.0376 11.9411 12.5589 14.4624 12.5589 17.5725C12.5589 20.6828 10.0376 23.204 6.92745 23.204C3.81731 23.204 1.29602 20.6828 1.29602 17.5725ZM6.92745 13.6511C4.76171 13.6511 3.00602 15.4068 3.00602 17.5725C3.00602 19.7383 4.7617 21.494 6.92745 21.494C9.0932 21.494 10.8489 19.7383 10.8489 17.5725C10.8489 15.4068 9.09319 13.6511 6.92745 13.6511Z" fill="#1335AF"/>
<path fill-rule="evenodd" clip-rule="evenodd" d="M8.72619 15.7738C9.06009 16.1077 9.06009 16.6491 8.72619 16.983L7.53209 18.1771C7.19819 18.511 6.65683 18.511 6.32293 18.1771C5.98904 17.8432 5.98904 17.3018 6.32293 16.9679L7.51704 15.7738C7.85094 15.4399 8.39229 15.4399 8.72619 15.7738Z" fill="#1335AF"/>
</svg>
