<svg width="40" height="40" viewBox="0 0 40 40" fill="none" xmlns="http://www.w3.org/2000/svg">
<path fill-rule="evenodd" clip-rule="evenodd" d="M20.0002 23.8826C20.7872 23.8826 21.4252 24.5206 21.4252 25.3076V35.9219C21.4252 36.7089 20.7872 37.3469 20.0002 37.3469C19.2132 37.3469 18.5752 36.7089 18.5752 35.9219V25.3076C18.5752 24.5206 19.2132 23.8826 20.0002 23.8826Z" fill="#1335AF"/>
<path fill-rule="evenodd" clip-rule="evenodd" d="M11.9404 35.9219C11.9404 35.1349 12.5784 34.4969 13.3654 34.4969H26.6333C27.4203 34.4969 28.0583 35.1349 28.0583 35.9219C28.0583 36.709 27.4203 37.3469 26.6333 37.3469H13.3654C12.5784 37.3469 11.9404 36.709 11.9404 35.9219Z" fill="#1335AF"/>
<path fill-rule="evenodd" clip-rule="evenodd" d="M2.65332 4.07905C2.65332 3.29205 3.29131 2.65405 4.07832 2.65405H10.7122C11.4993 2.65405 12.1372 3.29205 12.1372 4.07905V18.6737C12.1372 19.4607 11.4993 20.0987 10.7122 20.0987C6.26143 20.0987 2.65332 16.4906 2.65332 12.0398V4.07905ZM5.50332 5.50405V12.0398C5.50332 14.4225 7.10316 16.4316 9.28725 17.0514V5.50405H5.50332Z" fill="#1335AF"/>
<path fill-rule="evenodd" clip-rule="evenodd" d="M27.8623 4.07905C27.8623 3.29205 28.5003 2.65405 29.2873 2.65405H35.9212C36.7082 2.65405 37.3462 3.29205 37.3462 4.07905V12.0398C37.3462 16.4906 33.7381 20.0987 29.2873 20.0987C28.5003 20.0987 27.8623 19.4607 27.8623 18.6737V4.07905ZM30.7123 5.50405V17.0514C32.8964 16.4315 34.4962 14.4225 34.4962 12.0398V5.50405H30.7123Z" fill="#1335AF"/>
<path fill-rule="evenodd" clip-rule="evenodd" d="M29.2869 8.33386H10.7119V16.0202C10.7119 21.1495 14.8701 25.3077 19.9994 25.3077C25.1288 25.3077 29.2869 21.1495 29.2869 16.0202V8.33386Z" fill="#F9662D" fill-opacity="0.4"/>
<path fill-rule="evenodd" clip-rule="evenodd" d="M9.28711 4.07905C9.28711 3.29205 9.9251 2.65405 10.7121 2.65405H29.2871C30.0741 2.65405 30.7121 3.29205 30.7121 4.07905V16.0201C30.7121 21.9365 25.916 26.7326 19.9996 26.7326C14.0833 26.7326 9.28711 21.9365 9.28711 16.0201V4.07905ZM12.1371 5.50405V16.0201C12.1371 20.3625 15.6573 23.8826 19.9996 23.8826C24.342 23.8826 27.8621 20.3625 27.8621 16.0201V5.50405H12.1371Z" fill="#1335AF"/>
</svg>
