<svg width="32" height="32" viewBox="0 0 32 32" fill="none" xmlns="http://www.w3.org/2000/svg">
<path d="M29.7977 5.33565H21.4698C21.2427 5.31681 21.0116 5.40447 20.8541 5.56917L4.46567 21.9576C4.30649 22.117 4.18455 22.3066 4.10547 22.513L10.9254 29.333C11.2239 29.6312 11.6286 29.7985 12.0505 29.7985C12.4724 29.7985 12.8771 29.6312 13.1756 29.333L14.8244 27.6842C14.7314 27.3863 14.6692 27.079 14.6381 26.7685C11.712 24.7474 12.3107 19.5707 16.4343 18.8412C17.575 18.6394 18.5323 17.7426 18.7978 16.5096L18.842 16.3042C19.767 12.0074 25.5127 11.6672 27.1547 15.3538L29.5641 12.9445C29.7289 12.787 29.8165 12.5559 29.7977 12.3289V5.33565Z" fill="#F9662D" fill-opacity="0.4"/>
<path d="M23.334 10.6666C22.2293 10.6666 21.334 9.77123 21.334 8.66663C21.334 7.56207 22.2293 6.66663 23.334 6.66663C24.4384 6.66663 25.334 7.56207 25.334 8.66663C25.334 9.77123 24.4384 10.6666 23.334 10.6666Z" fill="#1335AF"/>
<path fill-rule="evenodd" clip-rule="evenodd" d="M23.4931 19.1437C22.7032 21.1259 21.1496 22.7014 19.1966 23.5018C21.1496 24.3022 22.7032 25.8777 23.4931 27.8599C24.2917 25.8751 25.853 24.3004 27.8119 23.5018C25.853 22.7031 24.2917 21.1284 23.4931 19.1437ZM21.6965 17.1833C22.1123 15.2523 24.8467 15.2384 25.2794 17.1677L25.3331 17.4071C25.3331 17.4071 25.3331 17.4071 25.3331 17.4071C25.8327 19.6344 27.5938 21.3235 29.782 21.7106C31.7745 22.0631 31.7745 24.9404 29.782 25.2929C27.5938 25.68 25.8327 27.3691 25.3331 29.5965L25.2794 29.8358C25.2794 29.8358 25.2794 29.8358 25.2794 29.8358C24.8467 31.7652 22.1123 31.7513 21.6965 29.8202C21.6965 29.8202 21.6965 29.8203 21.6965 29.8202L21.6523 29.6149C21.171 27.379 19.412 25.6773 17.2201 25.2895C15.2313 24.9377 15.2313 22.0659 17.2201 21.714C19.412 21.3263 21.171 19.6245 21.6523 17.3887L21.6965 17.1833C21.6965 17.1833 21.6965 17.1833 21.6965 17.1833Z" fill="#1335AF"/>
<path fill-rule="evenodd" clip-rule="evenodd" d="M19.9986 1.33567H30.1444C30.7337 1.33567 31.2115 1.81343 31.2115 2.40277V12.5487C31.2391 13.0747 31.0362 13.5949 30.6577 13.9629L28.6599 15.9604C28.2432 16.3772 27.5675 16.3771 27.1508 15.9604C26.7341 15.5436 26.7341 14.868 27.1509 14.4513L29.0773 12.525V3.46987H20.022L3.62424 19.8676C3.5243 19.9677 3.46819 20.1033 3.46819 20.2447C3.46819 20.3859 3.52419 20.5214 3.62393 20.6215C3.62383 20.6214 3.62404 20.6216 3.62393 20.6215L11.9252 28.9227C11.925 28.9226 11.9253 28.9228 11.9252 28.9227C12.0253 29.0225 12.1612 29.0788 12.3024 29.0788C12.4438 29.0788 12.5794 29.0227 12.6795 28.9227L14.1433 27.4591C14.56 27.0423 15.2356 27.0423 15.6524 27.4591C16.0691 27.8758 16.0691 28.5515 15.6523 28.9682L14.188 30.4325C13.6879 30.9318 13.0093 31.213 12.3024 31.213C11.5954 31.213 10.9174 30.9324 10.4173 30.4331L2.11465 22.1304C1.61508 21.6302 1.33398 20.9517 1.33398 20.2447C1.33398 19.5377 1.6146 18.8597 2.11416 18.3595L18.584 1.8896C18.952 1.51095 19.4723 1.30777 19.9986 1.33567Z" fill="#1335AF"/>
</svg>
