<svg width="25" height="24" viewBox="0 0 25 24" fill="none" xmlns="http://www.w3.org/2000/svg">
<path d="M21.0715 3.42859H15.9286C14.9819 3.42859 14.2144 4.0426 14.2144 4.80002V8.9143C14.2144 9.67172 14.9819 10.2857 15.9286 10.2857H21.0715C22.0183 10.2857 22.7858 9.67172 22.7858 8.9143V4.80002C22.7858 4.0426 22.0183 3.42859 21.0715 3.42859Z" fill="#F9662D" fill-opacity="0.4"/>
<path d="M9.0715 15.4286H3.92864C2.98188 15.4286 2.21436 16.0426 2.21436 16.8V20.9143C2.21436 21.6717 2.98188 22.2857 3.92864 22.2857H9.0715C10.0183 22.2857 10.7858 21.6717 10.7858 20.9143V16.8C10.7858 16.0426 10.0183 15.4286 9.0715 15.4286Z" fill="#F9662D" fill-opacity="0.4"/>
<path fill-rule="evenodd" clip-rule="evenodd" d="M13.3572 3.42858C13.3572 2.00842 14.5085 0.857147 15.9286 0.857147H21.0715C22.4917 0.857147 23.6429 2.00843 23.6429 3.42858V8.57143C23.6429 9.99157 22.4917 11.1429 21.0715 11.1429H15.9286C14.5085 11.1429 13.3572 9.99159 13.3572 8.57143V3.42858ZM15.9286 2.57143C15.4552 2.57143 15.0715 2.9552 15.0715 3.42858V8.57143C15.0715 9.04481 15.4552 9.42858 15.9286 9.42858H21.0715C21.5449 9.42858 21.9286 9.04482 21.9286 8.57143V3.42858C21.9286 2.95519 21.5449 2.57143 21.0715 2.57143H15.9286Z" fill="#1335AF"/>
<path fill-rule="evenodd" clip-rule="evenodd" d="M1.35718 15.4286C1.35718 14.0084 2.50845 12.8571 3.92861 12.8571H9.07146C10.4916 12.8571 11.6429 14.0084 11.6429 15.4286V20.5714C11.6429 21.9916 10.4916 23.1429 9.07146 23.1429H3.92861C2.50846 23.1429 1.35718 21.9916 1.35718 20.5714V15.4286ZM3.92861 14.5714C3.45523 14.5714 3.07146 14.9552 3.07146 15.4286V20.5714C3.07146 21.0448 3.45522 21.4286 3.92861 21.4286H9.07146C9.54485 21.4286 9.92861 21.0448 9.92861 20.5714V15.4286C9.92861 14.9552 9.54484 14.5714 9.07146 14.5714H3.92861Z" fill="#1335AF"/>
<ellipse cx="6.50007" cy="6.85716" rx="4.28571" ry="3.42857" fill="#F9662D" fill-opacity="0.4"/>
<ellipse cx="18.5001" cy="18.8572" rx="4.28571" ry="3.42857" fill="#F9662D" fill-opacity="0.4"/>
<path fill-rule="evenodd" clip-rule="evenodd" d="M6.50003 2.57143C4.60649 2.57143 3.07146 4.10646 3.07146 6C3.07146 7.89355 4.60649 9.42858 6.50003 9.42858C8.39358 9.42858 9.92861 7.89355 9.92861 6C9.92861 4.10646 8.39358 2.57143 6.50003 2.57143ZM1.35718 6C1.35718 3.15968 3.65971 0.857147 6.50003 0.857147C9.34036 0.857147 11.6429 3.15968 11.6429 6C11.6429 8.84033 9.34036 11.1429 6.50003 11.1429C3.65971 11.1429 1.35718 8.84033 1.35718 6Z" fill="#1335AF"/>
<path fill-rule="evenodd" clip-rule="evenodd" d="M18.5 14.5714C16.6065 14.5714 15.0715 16.1065 15.0715 18C15.0715 19.8936 16.6065 21.4286 18.5 21.4286C20.3936 21.4286 21.9286 19.8936 21.9286 18C21.9286 16.1065 20.3936 14.5714 18.5 14.5714ZM13.3572 18C13.3572 15.1597 15.6597 12.8571 18.5 12.8571C21.3404 12.8571 23.6429 15.1597 23.6429 18C23.6429 20.8403 21.3404 23.1429 18.5 23.1429C15.6597 23.1429 13.3572 20.8403 13.3572 18Z" fill="#1335AF"/>
</svg>
