<svg width="1120" height="40" viewBox="0 0 1120 40" fill="none" xmlns="http://www.w3.org/2000/svg">
<path d="M0 10C0 4.47715 4.47715 0 10 0H1110C1115.52 0 1120 4.47715 1120 10V40H0V10Z" fill="#D9DFEB"/>
<g opacity="0.5">
<path opacity="0.6" d="M32.7393 21.0527C32.5684 20.8818 32.5 20.6768 32.5 20.4375C32.5 20.2324 32.5684 20.0273 32.7393 19.8564L38.7549 14.1143C39.0967 13.8066 39.6094 13.8066 39.917 14.1484C40.2246 14.4561 40.2246 15.0029 39.8828 15.3105L35.3369 19.6172H46.9922C47.4365 19.6172 47.8125 19.9932 47.8125 20.4375C47.8125 20.916 47.4365 21.2578 46.9922 21.2578H35.3369L39.8828 25.5986C40.2246 25.9062 40.2246 26.4189 39.917 26.7607C39.6094 27.1025 39.0967 27.1025 38.7549 26.7949L32.7393 21.0527Z" fill="#182A54"/>
<path opacity="0.6" d="M88.5391 21.0527L82.5234 26.7949C82.1816 27.1025 81.6689 27.1025 81.3613 26.7607C81.0537 26.4189 81.0537 25.9062 81.3955 25.5986L85.9414 21.2578H74.3203C73.8418 21.2578 73.5 20.916 73.5 20.4375C73.5 19.9932 73.8418 19.6172 74.3203 19.6172H85.9414L81.3955 15.3105C81.0537 15.0029 81.0537 14.4561 81.3613 14.1484C81.6689 13.8066 82.2158 13.8066 82.5234 14.1143L88.5391 19.8564C88.71 20.0273 88.8125 20.2324 88.8125 20.4375C88.8125 20.6768 88.71 20.8818 88.5391 21.0527Z" fill="#182A54"/>
<path opacity="0.6" d="M131.453 18.5234C131.453 19.002 131.077 19.3438 130.633 19.3438H126.805H125.711C125.232 19.3438 124.891 19.002 124.891 18.5234C124.891 18.0791 125.232 17.7031 125.711 17.7031H126.805H128.65L126.873 15.9258C125.882 14.9688 124.583 14.4219 123.25 14.4219C120.755 14.4219 118.602 15.96 117.713 18.1133C117.508 18.5234 117.029 18.6943 116.619 18.5234C116.209 18.3525 116.004 17.874 116.175 17.4639C117.337 14.7295 120.071 12.7812 123.25 12.7812C125.027 12.7812 126.736 13.499 128.001 14.7637L129.812 16.5752V14.6953V13.6016C129.812 13.1572 130.154 12.7812 130.633 12.7812C131.077 12.7812 131.453 13.1572 131.453 13.6016V18.5234ZM115.867 21.5312H119.695C120.14 21.5312 120.516 21.9072 120.516 22.3516C120.516 22.8301 120.14 23.1719 119.695 23.1719H117.815L119.627 24.9834C120.584 25.9404 121.883 26.4531 123.25 26.4531C125.711 26.4531 127.864 24.9834 128.753 22.8301C128.958 22.3857 129.437 22.2148 129.847 22.3857C130.257 22.5566 130.462 23.0352 130.291 23.4795C129.095 26.1797 126.395 28.0938 123.25 28.0938C121.438 28.0938 119.729 27.4102 118.465 26.1455L116.688 24.334V26.1797C116.688 26.6582 116.312 27 115.867 27C115.389 27 115.047 26.6582 115.047 26.1797V22.3516C115.047 21.9072 115.389 21.5312 115.867 21.5312Z" fill="#182A54"/>
</g>
<rect x="157.5" y="5" width="814" height="30" rx="15" fill="white"/>
<rect x="160" y="7.5" width="25" height="25" rx="12.5" fill="#D9DFEB"/>
<path opacity="0.4" d="M166.5 23.2708C166.5 22.9746 166.728 22.724 167.047 22.724H168.391C168.619 21.9948 169.326 21.4479 170.146 21.4479C170.943 21.4479 171.65 21.9948 171.878 22.724H177.62C177.916 22.724 178.167 22.9746 178.167 23.2708C178.167 23.5898 177.916 23.8177 177.62 23.8177H171.878C171.65 24.5697 170.943 25.0938 170.146 25.0938C169.326 25.0938 168.619 24.5697 168.391 23.8177H167.047C166.728 23.8177 166.5 23.5898 166.5 23.2708ZM169.417 23.2708C169.417 23.681 169.736 24 170.146 24C170.533 24 170.875 23.681 170.875 23.2708C170.875 22.8835 170.533 22.5417 170.146 22.5417C169.736 22.5417 169.417 22.8835 169.417 23.2708ZM173.792 19.625C173.792 20.0352 174.111 20.3542 174.521 20.3542C174.908 20.3542 175.25 20.0352 175.25 19.625C175.25 19.2376 174.908 18.8958 174.521 18.8958C174.111 18.8958 173.792 19.2376 173.792 19.625ZM174.521 17.8021C175.318 17.8021 176.025 18.349 176.253 19.0781H177.62C177.916 19.0781 178.167 19.3288 178.167 19.625C178.167 19.944 177.916 20.1719 177.62 20.1719H176.253C176.025 20.9238 175.318 21.4479 174.521 21.4479C173.701 21.4479 172.994 20.9238 172.766 20.1719H167.047C166.728 20.1719 166.5 19.944 166.5 19.625C166.5 19.3288 166.728 19.0781 167.047 19.0781H172.766C172.994 18.349 173.701 17.8021 174.521 17.8021ZM170.875 16.7083C171.262 16.7083 171.604 16.3893 171.604 15.9792C171.604 15.5918 171.262 15.25 170.875 15.25C170.465 15.25 170.146 15.5918 170.146 15.9792C170.146 16.3893 170.465 16.7083 170.875 16.7083ZM172.607 15.4323H177.62C177.916 15.4323 178.167 15.6829 178.167 15.9792C178.167 16.2982 177.916 16.526 177.62 16.526H172.607C172.379 17.278 171.673 17.8021 170.875 17.8021C170.055 17.8021 169.348 17.278 169.12 16.526H167.047C166.728 16.526 166.5 16.2982 166.5 15.9792C166.5 15.6829 166.728 15.4323 167.047 15.4323H169.12C169.348 14.7031 170.055 14.1562 170.875 14.1562C171.673 14.1562 172.379 14.7031 172.607 15.4323Z" fill="#182A54"/>
<path opacity="0.5" d="M196.138 18.6417C196.9 18.6417 197.464 18.8089 197.829 19.1433C198.195 19.4778 198.378 20.0106 198.378 20.7417V25H197.631L197.433 24.1133H197.386C197.207 24.3389 197.021 24.5294 196.826 24.685C196.639 24.8328 196.422 24.9417 196.173 25.0117C195.932 25.0817 195.636 25.1167 195.286 25.1167C194.913 25.1167 194.574 25.0506 194.271 24.9183C193.976 24.7861 193.742 24.5839 193.571 24.3117C193.4 24.0317 193.314 23.6817 193.314 23.2617C193.314 22.6394 193.559 22.1611 194.049 21.8267C194.539 21.4844 195.294 21.2978 196.313 21.2667L197.374 21.2317V20.8583C197.374 20.3372 197.262 19.9756 197.036 19.7733C196.811 19.5711 196.492 19.47 196.079 19.47C195.753 19.47 195.442 19.5206 195.146 19.6217C194.851 19.715 194.574 19.8239 194.318 19.9483L194.003 19.1783C194.275 19.0306 194.598 18.9061 194.971 18.805C195.344 18.6961 195.733 18.6417 196.138 18.6417ZM196.441 21.9783C195.663 22.0094 195.123 22.1339 194.819 22.3517C194.524 22.5694 194.376 22.8767 194.376 23.2733C194.376 23.6233 194.481 23.88 194.691 24.0433C194.909 24.2067 195.185 24.2883 195.519 24.2883C196.048 24.2883 196.488 24.1444 196.838 23.8567C197.188 23.5611 197.363 23.11 197.363 22.5033V21.9433L196.441 21.9783ZM204.381 23.2733C204.381 23.6778 204.28 24.0161 204.077 24.2883C203.875 24.5606 203.587 24.7667 203.214 24.9067C202.841 25.0467 202.397 25.1167 201.884 25.1167C201.449 25.1167 201.071 25.0817 200.752 25.0117C200.441 24.9417 200.165 24.8444 199.924 24.72V23.7867C200.173 23.9111 200.472 24.0278 200.822 24.1367C201.18 24.2378 201.542 24.2883 201.907 24.2883C202.429 24.2883 202.806 24.2067 203.039 24.0433C203.272 23.8722 203.389 23.6467 203.389 23.3667C203.389 23.2111 203.346 23.0711 203.261 22.9467C203.175 22.8222 203.02 22.6978 202.794 22.5733C202.576 22.4489 202.261 22.3089 201.849 22.1533C201.445 21.9978 201.099 21.8422 200.811 21.6867C200.523 21.5311 200.301 21.3444 200.146 21.1267C199.99 20.9089 199.912 20.6289 199.912 20.2867C199.912 19.7578 200.126 19.3494 200.554 19.0617C200.99 18.7739 201.557 18.63 202.257 18.63C202.639 18.63 202.992 18.6689 203.319 18.7467C203.654 18.8167 203.965 18.9178 204.252 19.05L203.902 19.8667C203.731 19.7889 203.549 19.7228 203.354 19.6683C203.167 19.6061 202.977 19.5594 202.782 19.5283C202.588 19.4894 202.39 19.47 202.187 19.47C201.767 19.47 201.445 19.54 201.219 19.68C201.001 19.8122 200.892 19.995 200.892 20.2283C200.892 20.3994 200.943 20.5472 201.044 20.6717C201.145 20.7883 201.312 20.905 201.546 21.0217C201.787 21.1306 202.106 21.2628 202.502 21.4183C202.899 21.5661 203.237 21.7178 203.517 21.8733C203.797 22.0289 204.011 22.2194 204.159 22.445C204.307 22.6628 204.381 22.9389 204.381 23.2733ZM212.752 18.63C213.46 18.63 213.989 18.8128 214.339 19.1783C214.689 19.5361 214.864 20.1194 214.864 20.9283V25H213.849V20.975C213.849 20.485 213.744 20.1156 213.534 19.8667C213.331 19.6178 213.012 19.4933 212.577 19.4933C211.97 19.4933 211.535 19.6683 211.27 20.0183C211.014 20.3683 210.885 20.8778 210.885 21.5467V25H209.87V20.975C209.87 20.6483 209.824 20.3761 209.73 20.1583C209.637 19.9328 209.497 19.7656 209.31 19.6567C209.124 19.5478 208.882 19.4933 208.587 19.4933C208.167 19.4933 207.836 19.5828 207.595 19.7617C207.354 19.9328 207.179 20.1856 207.07 20.52C206.969 20.8544 206.919 21.2667 206.919 21.7567V25H205.892V18.7467H206.72L206.872 19.5983H206.93C207.062 19.3806 207.222 19.2017 207.409 19.0617C207.603 18.9139 207.817 18.805 208.05 18.735C208.284 18.665 208.525 18.63 208.774 18.63C209.256 18.63 209.656 18.7156 209.975 18.8867C210.302 19.0578 210.539 19.3222 210.687 19.68H210.745C210.955 19.3222 211.239 19.0578 211.597 18.8867C211.962 18.7156 212.347 18.63 212.752 18.63ZM217.822 18.2917C217.822 18.5561 217.814 18.805 217.798 19.0383C217.791 19.2639 217.779 19.4428 217.763 19.575H217.822C218.001 19.3106 218.246 19.0889 218.557 18.91C218.868 18.7311 219.268 18.6417 219.758 18.6417C220.536 18.6417 221.158 18.9139 221.625 19.4583C222.1 19.995 222.337 20.8 222.337 21.8733C222.337 22.5889 222.228 23.1878 222.01 23.67C221.8 24.1522 221.501 24.5139 221.112 24.755C220.723 24.9961 220.272 25.1167 219.758 25.1167C219.268 25.1167 218.868 25.0272 218.557 24.8483C218.246 24.6694 218.001 24.4556 217.822 24.2067H217.74L217.53 25H216.795V16.1333H217.822V18.2917ZM219.583 19.4933C219.14 19.4933 218.79 19.5789 218.533 19.75C218.277 19.9133 218.094 20.17 217.985 20.52C217.876 20.8622 217.822 21.3017 217.822 21.8383V21.885C217.822 22.655 217.946 23.2461 218.195 23.6583C218.452 24.0628 218.922 24.265 219.607 24.265C220.167 24.265 220.583 24.0589 220.855 23.6467C221.135 23.2344 221.275 22.6394 221.275 21.8617C221.275 21.0761 221.135 20.485 220.855 20.0883C220.583 19.6917 220.159 19.4933 219.583 19.4933ZM225 25H223.973V16.1333H225V25ZM226.829 24.37C226.829 24.0822 226.899 23.88 227.039 23.7633C227.179 23.6467 227.346 23.5883 227.541 23.5883C227.743 23.5883 227.914 23.6467 228.054 23.7633C228.202 23.88 228.276 24.0822 228.276 24.37C228.276 24.65 228.202 24.8522 228.054 24.9767C227.914 25.1011 227.743 25.1633 227.541 25.1633C227.346 25.1633 227.179 25.1011 227.039 24.9767C226.899 24.8522 226.829 24.65 226.829 24.37ZM232.471 18.6417C233.233 18.6417 233.797 18.8089 234.162 19.1433C234.528 19.4778 234.711 20.0106 234.711 20.7417V25H233.964L233.766 24.1133H233.719C233.54 24.3389 233.354 24.5294 233.159 24.685C232.972 24.8328 232.755 24.9417 232.506 25.0117C232.265 25.0817 231.969 25.1167 231.619 25.1167C231.246 25.1167 230.907 25.0506 230.604 24.9183C230.309 24.7861 230.075 24.5839 229.904 24.3117C229.733 24.0317 229.647 23.6817 229.647 23.2617C229.647 22.6394 229.892 22.1611 230.382 21.8267C230.872 21.4844 231.627 21.2978 232.646 21.2667L233.707 21.2317V20.8583C233.707 20.3372 233.595 19.9756 233.369 19.7733C233.144 19.5711 232.825 19.47 232.412 19.47C232.086 19.47 231.775 19.5206 231.479 19.6217C231.184 19.715 230.907 19.8239 230.651 19.9483L230.336 19.1783C230.608 19.0306 230.931 18.9061 231.304 18.805C231.677 18.6961 232.066 18.6417 232.471 18.6417ZM232.774 21.9783C231.996 22.0094 231.456 22.1339 231.152 22.3517C230.857 22.5694 230.709 22.8767 230.709 23.2733C230.709 23.6233 230.814 23.88 231.024 24.0433C231.242 24.2067 231.518 24.2883 231.852 24.2883C232.381 24.2883 232.821 24.1444 233.171 23.8567C233.521 23.5611 233.696 23.11 233.696 22.5033V21.9433L232.774 21.9783ZM237.669 18.7467V25H236.642V18.7467H237.669ZM237.167 16.4017C237.323 16.4017 237.459 16.4561 237.575 16.565C237.7 16.6661 237.762 16.8294 237.762 17.055C237.762 17.2728 237.7 17.4361 237.575 17.545C237.459 17.6539 237.323 17.7083 237.167 17.7083C236.996 17.7083 236.852 17.6539 236.735 17.545C236.619 17.4361 236.56 17.2728 236.56 17.055C236.56 16.8294 236.619 16.6661 236.735 16.565C236.852 16.4561 236.996 16.4017 237.167 16.4017Z" fill="#182A54"/>
<path d="M944.5 13.3472C944.5 12.5573 945.138 11.8889 945.958 11.8889H954.708C955.498 11.8889 956.167 12.5573 956.167 13.3472V26.7153C956.167 27.1406 955.832 27.4444 955.407 27.4444C955.255 27.4444 955.103 27.4141 954.982 27.3229L950.333 24.0417L945.655 27.3229C945.533 27.4141 945.381 27.4444 945.229 27.4444C944.804 27.4444 944.5 27.1406 944.5 26.7153V13.3472Z" fill="#D9DFEB"/>
<g opacity="0.5">
<path opacity="0.6" d="M999.234 14.4219V17.7031H1002.52V14.4219H999.234ZM997.594 14.4219C997.594 13.5332 998.312 12.7812 999.234 12.7812H1002.52C1003.4 12.7812 1004.16 13.5332 1004.16 14.4219V17.7031C1004.16 18.626 1003.4 19.3438 1002.52 19.3438H999.234C998.312 19.3438 997.594 18.626 997.594 17.7031V14.4219ZM999.234 23.1719V26.4531H1002.52V23.1719H999.234ZM997.594 23.1719C997.594 22.2832 998.312 21.5312 999.234 21.5312H1002.52C1003.4 21.5312 1004.16 22.2832 1004.16 23.1719V26.4531C1004.16 27.376 1003.4 28.0938 1002.52 28.0938H999.234C998.312 28.0938 997.594 27.376 997.594 26.4531V23.1719ZM1011.27 14.4219H1007.98V17.7031H1011.27V14.4219ZM1007.98 12.7812H1011.27C1012.15 12.7812 1012.91 13.5332 1012.91 14.4219V17.7031C1012.91 18.626 1012.15 19.3438 1011.27 19.3438H1007.98C1007.06 19.3438 1006.34 18.626 1006.34 17.7031V14.4219C1006.34 13.5332 1007.06 12.7812 1007.98 12.7812ZM1007.98 23.1719V26.4531H1011.27V23.1719H1007.98ZM1006.34 23.1719C1006.34 22.2832 1007.06 21.5312 1007.98 21.5312H1011.27C1012.15 21.5312 1012.91 22.2832 1012.91 23.1719V26.4531C1012.91 27.376 1012.15 28.0938 1011.27 28.0938H1007.98C1007.06 28.0938 1006.34 27.376 1006.34 26.4531V23.1719Z" fill="#182A54"/>
<path opacity="0.6" d="M1053.38 25.3594C1054.61 24.0947 1055.36 22.3516 1055.36 20.4375C1055.36 16.541 1052.15 13.3281 1048.25 13.3281C1044.32 13.3281 1041.14 16.541 1041.14 20.4375C1041.14 22.3516 1041.86 24.0947 1043.09 25.3594C1043.74 23.7529 1045.31 22.625 1047.16 22.625H1049.34C1051.16 22.625 1052.73 23.7529 1053.38 25.3594ZM1052.01 26.4873C1051.77 25.2227 1050.64 24.2656 1049.34 24.2656H1047.16C1045.82 24.2656 1044.7 25.2227 1044.46 26.4873C1045.55 27.1709 1046.85 27.5469 1048.25 27.5469C1049.62 27.5469 1050.92 27.1709 1052.01 26.4873ZM1048.25 29.1875C1045.11 29.1875 1042.23 27.5469 1040.66 24.8125C1039.09 22.1123 1039.09 18.7969 1040.66 16.0625C1042.23 13.3623 1045.11 11.6875 1048.25 11.6875C1051.36 11.6875 1054.23 13.3623 1055.8 16.0625C1057.38 18.7969 1057.38 22.1123 1055.8 24.8125C1054.23 27.5469 1051.36 29.1875 1048.25 29.1875ZM1048.25 19.8906C1048.73 19.8906 1049.17 19.6514 1049.41 19.207C1049.65 18.7969 1049.65 18.2842 1049.41 17.8398C1049.17 17.4297 1048.73 17.1562 1048.25 17.1562C1047.74 17.1562 1047.29 17.4297 1047.05 17.8398C1046.81 18.2842 1046.81 18.7969 1047.05 19.207C1047.29 19.6514 1047.74 19.8906 1048.25 19.8906ZM1045.24 18.5234C1045.24 17.4639 1045.79 16.4727 1046.75 15.9258C1047.67 15.4131 1048.8 15.4131 1049.75 15.9258C1050.68 16.4727 1051.26 17.4639 1051.26 18.5234C1051.26 19.6172 1050.68 20.6084 1049.75 21.1553C1048.8 21.668 1047.67 21.668 1046.75 21.1553C1045.79 20.6084 1045.24 19.6172 1045.24 18.5234Z" fill="#182A54"/>
<path opacity="0.6" d="M1084.69 24.2656C1085.27 24.2656 1085.78 24.6074 1086.09 25.0859C1086.4 25.5986 1086.4 26.248 1086.09 26.7266C1085.78 27.2393 1085.27 27.5469 1084.69 27.5469C1084.07 27.5469 1083.56 27.2393 1083.25 26.7266C1082.94 26.248 1082.94 25.5986 1083.25 25.0859C1083.56 24.6074 1084.07 24.2656 1084.69 24.2656ZM1084.69 18.7969C1085.27 18.7969 1085.78 19.1387 1086.09 19.6172C1086.4 20.1299 1086.4 20.7793 1086.09 21.2578C1085.78 21.7705 1085.27 22.0781 1084.69 22.0781C1084.07 22.0781 1083.56 21.7705 1083.25 21.2578C1082.94 20.7793 1082.94 20.1299 1083.25 19.6172C1083.56 19.1387 1084.07 18.7969 1084.69 18.7969ZM1086.33 14.9688C1086.33 15.584 1085.99 16.0967 1085.51 16.4043C1085 16.7119 1084.35 16.7119 1083.87 16.4043C1083.35 16.0967 1083.05 15.584 1083.05 14.9688C1083.05 14.3877 1083.35 13.875 1083.87 13.5674C1084.35 13.2598 1085 13.2598 1085.51 13.5674C1085.99 13.875 1086.33 14.3877 1086.33 14.9688Z" fill="#182A54"/>
</g>
</svg>
