<svg width="1120" height="40" viewBox="0 0 1120 40" fill="none" xmlns="http://www.w3.org/2000/svg">
<path d="M0 10.0005C0 4.47764 4.47715 0.000488281 10 0.000488281H1110C1115.52 0.000488281 1120 4.47764 1120 10.0005V40.0005H0V10.0005Z" fill="#D9DFEB"/>
<g opacity="0.5">
<path opacity="0.6" d="M32.7393 21.0532C32.5684 20.8823 32.5 20.6772 32.5 20.438C32.5 20.2329 32.5684 20.0278 32.7393 19.8569L38.7549 14.1147C39.0967 13.8071 39.6094 13.8071 39.917 14.1489C40.2246 14.4565 40.2246 15.0034 39.8828 15.311L35.3369 19.6177H46.9922C47.4365 19.6177 47.8125 19.9937 47.8125 20.438C47.8125 20.9165 47.4365 21.2583 46.9922 21.2583H35.3369L39.8828 25.5991C40.2246 25.9067 40.2246 26.4194 39.917 26.7612C39.6094 27.103 39.0967 27.103 38.7549 26.7954L32.7393 21.0532Z" fill="#182A54"/>
<path opacity="0.6" d="M88.5391 21.0532L82.5234 26.7954C82.1816 27.103 81.6689 27.103 81.3613 26.7612C81.0537 26.4194 81.0537 25.9067 81.3955 25.5991L85.9414 21.2583H74.3203C73.8418 21.2583 73.5 20.9165 73.5 20.438C73.5 19.9937 73.8418 19.6177 74.3203 19.6177H85.9414L81.3955 15.311C81.0537 15.0034 81.0537 14.4565 81.3613 14.1489C81.6689 13.8071 82.2158 13.8071 82.5234 14.1147L88.5391 19.8569C88.71 20.0278 88.8125 20.2329 88.8125 20.438C88.8125 20.6772 88.71 20.8823 88.5391 21.0532Z" fill="#182A54"/>
<path opacity="0.6" d="M117.713 18.1138C117.508 18.5239 117.029 18.6948 116.619 18.5239C116.209 18.353 116.004 17.8745 116.175 17.4644C117.337 14.73 120.071 12.7817 123.25 12.7817C125.027 12.7817 126.736 13.4995 128.001 14.7642L129.812 16.5757V14.6958C129.812 14.2515 130.154 13.8755 130.633 13.8755C131.077 13.8755 131.453 14.2515 131.453 14.6958V18.5239C131.453 19.0024 131.077 19.3442 130.633 19.3442H126.805C126.326 19.3442 125.984 19.0024 125.984 18.5239C125.984 18.0796 126.326 17.7036 126.805 17.7036H128.65L126.839 15.9263C125.882 14.9692 124.583 14.4224 123.25 14.4224C120.755 14.4224 118.602 15.9604 117.713 18.1138ZM130.291 23.48C129.095 26.1802 126.395 28.0942 123.25 28.0942C121.438 28.0942 119.729 27.4106 118.465 26.1118L116.688 24.3345V26.1802C116.688 26.6587 116.312 27.0005 115.867 27.0005C115.389 27.0005 115.047 26.6587 115.047 26.1802V22.3521C115.047 21.9077 115.389 21.5317 115.867 21.5317H119.695C120.14 21.5317 120.516 21.9077 120.516 22.3521C120.516 22.8306 120.14 23.1724 119.695 23.1724H117.815L119.627 24.9839C120.584 25.9409 121.883 26.4536 123.25 26.4536C125.711 26.4536 127.864 24.9839 128.753 22.8306C128.958 22.3862 129.437 22.2153 129.847 22.3862C130.257 22.5571 130.462 23.0356 130.291 23.48Z" fill="#182A54"/>
</g>
<rect x="157.5" y="5.00049" width="814" height="30" rx="15" fill="white"/>
<rect x="160" y="7.50049" width="25" height="25" rx="12.5" fill="#D9DFEB"/>
<path opacity="0.4" d="M166.5 23.2713C166.5 22.9751 166.728 22.7244 167.047 22.7244H168.391C168.619 21.9953 169.326 21.4484 170.146 21.4484C170.943 21.4484 171.65 21.9953 171.878 22.7244H177.62C177.916 22.7244 178.167 22.9751 178.167 23.2713C178.167 23.5903 177.916 23.8182 177.62 23.8182H171.878C171.65 24.5701 170.943 25.0942 170.146 25.0942C169.326 25.0942 168.619 24.5701 168.391 23.8182H167.047C166.728 23.8182 166.5 23.5903 166.5 23.2713ZM169.417 23.2713C169.417 23.6815 169.736 24.0005 170.146 24.0005C170.533 24.0005 170.875 23.6815 170.875 23.2713C170.875 22.884 170.533 22.5422 170.146 22.5422C169.736 22.5422 169.417 22.884 169.417 23.2713ZM173.792 19.6255C173.792 20.0356 174.111 20.3547 174.521 20.3547C174.908 20.3547 175.25 20.0356 175.25 19.6255C175.25 19.2381 174.908 18.8963 174.521 18.8963C174.111 18.8963 173.792 19.2381 173.792 19.6255ZM174.521 17.8026C175.318 17.8026 176.025 18.3494 176.253 19.0786H177.62C177.916 19.0786 178.167 19.3293 178.167 19.6255C178.167 19.9445 177.916 20.1724 177.62 20.1724H176.253C176.025 20.9243 175.318 21.4484 174.521 21.4484C173.701 21.4484 172.994 20.9243 172.766 20.1724H167.047C166.728 20.1724 166.5 19.9445 166.5 19.6255C166.5 19.3293 166.728 19.0786 167.047 19.0786H172.766C172.994 18.3494 173.701 17.8026 174.521 17.8026ZM170.875 16.7088C171.262 16.7088 171.604 16.3898 171.604 15.9797C171.604 15.5923 171.262 15.2505 170.875 15.2505C170.465 15.2505 170.146 15.5923 170.146 15.9797C170.146 16.3898 170.465 16.7088 170.875 16.7088ZM172.607 15.4328H177.62C177.916 15.4328 178.167 15.6834 178.167 15.9797C178.167 16.2987 177.916 16.5265 177.62 16.5265H172.607C172.379 17.2785 171.673 17.8026 170.875 17.8026C170.055 17.8026 169.348 17.2785 169.12 16.5265H167.047C166.728 16.5265 166.5 16.2987 166.5 15.9797C166.5 15.6834 166.728 15.4328 167.047 15.4328H169.12C169.348 14.7036 170.055 14.1567 170.875 14.1567C171.673 14.1567 172.379 14.7036 172.607 15.4328Z" fill="#182A54"/>
<path opacity="0.5" d="M196.138 18.6422C196.9 18.6422 197.464 18.8094 197.829 19.1438C198.195 19.4783 198.378 20.011 198.378 20.7422V25.0005H197.631L197.433 24.1138H197.386C197.207 24.3394 197.021 24.5299 196.826 24.6855C196.639 24.8333 196.422 24.9422 196.173 25.0122C195.932 25.0822 195.636 25.1172 195.286 25.1172C194.913 25.1172 194.574 25.051 194.271 24.9188C193.976 24.7866 193.742 24.5844 193.571 24.3122C193.4 24.0322 193.314 23.6822 193.314 23.2622C193.314 22.6399 193.559 22.1616 194.049 21.8272C194.539 21.4849 195.294 21.2983 196.313 21.2672L197.374 21.2322V20.8588C197.374 20.3377 197.262 19.976 197.036 19.7738C196.811 19.5716 196.492 19.4705 196.079 19.4705C195.753 19.4705 195.442 19.521 195.146 19.6222C194.851 19.7155 194.574 19.8244 194.318 19.9488L194.003 19.1788C194.275 19.031 194.598 18.9066 194.971 18.8055C195.344 18.6966 195.733 18.6422 196.138 18.6422ZM196.441 21.9788C195.663 22.0099 195.123 22.1344 194.819 22.3522C194.524 22.5699 194.376 22.8772 194.376 23.2738C194.376 23.6238 194.481 23.8805 194.691 24.0438C194.909 24.2072 195.185 24.2888 195.519 24.2888C196.048 24.2888 196.488 24.1449 196.838 23.8572C197.188 23.5616 197.363 23.1105 197.363 22.5038V21.9438L196.441 21.9788ZM204.381 23.2738C204.381 23.6783 204.28 24.0166 204.078 24.2888C203.875 24.561 203.588 24.7672 203.214 24.9072C202.841 25.0472 202.398 25.1172 201.884 25.1172C201.449 25.1172 201.071 25.0822 200.753 25.0122C200.441 24.9422 200.165 24.8449 199.924 24.7205V23.7872C200.173 23.9116 200.473 24.0283 200.823 24.1372C201.18 24.2383 201.542 24.2888 201.908 24.2888C202.429 24.2888 202.806 24.2072 203.039 24.0438C203.273 23.8727 203.389 23.6472 203.389 23.3672C203.389 23.2116 203.346 23.0716 203.261 22.9472C203.175 22.8227 203.02 22.6983 202.794 22.5738C202.576 22.4494 202.261 22.3094 201.849 22.1538C201.445 21.9983 201.099 21.8427 200.811 21.6872C200.523 21.5316 200.301 21.3449 200.146 21.1272C199.99 20.9094 199.913 20.6294 199.913 20.2872C199.913 19.7583 200.126 19.3499 200.554 19.0622C200.99 18.7744 201.558 18.6305 202.258 18.6305C202.639 18.6305 202.993 18.6694 203.319 18.7472C203.654 18.8172 203.965 18.9183 204.253 19.0505L203.903 19.8672C203.731 19.7894 203.549 19.7233 203.354 19.6688C203.168 19.6066 202.977 19.5599 202.783 19.5288C202.588 19.4899 202.39 19.4705 202.188 19.4705C201.768 19.4705 201.445 19.5405 201.219 19.6805C201.001 19.8127 200.893 19.9955 200.893 20.2288C200.893 20.3999 200.943 20.5477 201.044 20.6722C201.145 20.7888 201.313 20.9055 201.546 21.0222C201.787 21.131 202.106 21.2633 202.503 21.4188C202.899 21.5666 203.238 21.7183 203.518 21.8738C203.798 22.0294 204.011 22.2199 204.159 22.4455C204.307 22.6633 204.381 22.9394 204.381 23.2738ZM212.752 18.6305C213.46 18.6305 213.989 18.8133 214.339 19.1788C214.689 19.5366 214.864 20.1199 214.864 20.9288V25.0005H213.849V20.9755C213.849 20.4855 213.744 20.116 213.534 19.8672C213.331 19.6183 213.012 19.4938 212.577 19.4938C211.97 19.4938 211.535 19.6688 211.27 20.0188C211.014 20.3688 210.885 20.8783 210.885 21.5472V25.0005H209.87V20.9755C209.87 20.6488 209.824 20.3766 209.73 20.1588C209.637 19.9333 209.497 19.766 209.31 19.6572C209.124 19.5483 208.882 19.4938 208.587 19.4938C208.167 19.4938 207.836 19.5833 207.595 19.7622C207.354 19.9333 207.179 20.186 207.07 20.5205C206.969 20.8549 206.919 21.2672 206.919 21.7572V25.0005H205.892V18.7472H206.72L206.872 19.5988H206.93C207.062 19.381 207.222 19.2022 207.409 19.0622C207.603 18.9144 207.817 18.8055 208.05 18.7355C208.284 18.6655 208.525 18.6305 208.774 18.6305C209.256 18.6305 209.656 18.716 209.975 18.8872C210.302 19.0583 210.539 19.3227 210.687 19.6805H210.745C210.955 19.3227 211.239 19.0583 211.597 18.8872C211.962 18.716 212.347 18.6305 212.752 18.6305ZM217.822 18.2922C217.822 18.5566 217.814 18.8055 217.799 19.0388C217.791 19.2644 217.779 19.4433 217.764 19.5755H217.822C218.001 19.311 218.246 19.0894 218.557 18.9105C218.868 18.7316 219.269 18.6422 219.759 18.6422C220.536 18.6422 221.159 18.9144 221.625 19.4588C222.1 19.9955 222.337 20.8005 222.337 21.8738C222.337 22.5894 222.228 23.1883 222.01 23.6705C221.8 24.1527 221.501 24.5144 221.112 24.7555C220.723 24.9966 220.272 25.1172 219.759 25.1172C219.269 25.1172 218.868 25.0277 218.557 24.8488C218.246 24.6699 218.001 24.456 217.822 24.2072H217.74L217.53 25.0005H216.795V16.1338H217.822V18.2922ZM219.584 19.4938C219.14 19.4938 218.79 19.5794 218.534 19.7505C218.277 19.9138 218.094 20.1705 217.985 20.5205C217.876 20.8627 217.822 21.3022 217.822 21.8388V21.8855C217.822 22.6555 217.946 23.2466 218.195 23.6588C218.452 24.0633 218.922 24.2655 219.607 24.2655C220.167 24.2655 220.583 24.0594 220.855 23.6472C221.135 23.2349 221.275 22.6399 221.275 21.8622C221.275 21.0766 221.135 20.4855 220.855 20.0888C220.583 19.6922 220.159 19.4938 219.584 19.4938ZM225 25.0005H223.973V16.1338H225V25.0005ZM226.829 24.3705C226.829 24.0827 226.899 23.8805 227.039 23.7638C227.179 23.6472 227.346 23.5888 227.541 23.5888C227.743 23.5888 227.914 23.6472 228.054 23.7638C228.202 23.8805 228.276 24.0827 228.276 24.3705C228.276 24.6505 228.202 24.8527 228.054 24.9772C227.914 25.1016 227.743 25.1638 227.541 25.1638C227.346 25.1638 227.179 25.1016 227.039 24.9772C226.899 24.8527 226.829 24.6505 226.829 24.3705ZM232.471 18.6422C233.233 18.6422 233.797 18.8094 234.163 19.1438C234.528 19.4783 234.711 20.011 234.711 20.7422V25.0005H233.964L233.766 24.1138H233.719C233.54 24.3394 233.354 24.5299 233.159 24.6855C232.973 24.8333 232.755 24.9422 232.506 25.0122C232.265 25.0822 231.969 25.1172 231.619 25.1172C231.246 25.1172 230.908 25.051 230.604 24.9188C230.309 24.7866 230.075 24.5844 229.904 24.3122C229.733 24.0322 229.648 23.6822 229.648 23.2622C229.648 22.6399 229.893 22.1616 230.383 21.8272C230.873 21.4849 231.627 21.2983 232.646 21.2672L233.708 21.2322V20.8588C233.708 20.3377 233.595 19.976 233.369 19.7738C233.144 19.5716 232.825 19.4705 232.413 19.4705C232.086 19.4705 231.775 19.521 231.479 19.6222C231.184 19.7155 230.908 19.8244 230.651 19.9488L230.336 19.1788C230.608 19.031 230.931 18.9066 231.304 18.8055C231.678 18.6966 232.066 18.6422 232.471 18.6422ZM232.774 21.9788C231.996 22.0099 231.456 22.1344 231.153 22.3522C230.857 22.5699 230.709 22.8772 230.709 23.2738C230.709 23.6238 230.814 23.8805 231.024 24.0438C231.242 24.2072 231.518 24.2888 231.853 24.2888C232.381 24.2888 232.821 24.1449 233.171 23.8572C233.521 23.5616 233.696 23.1105 233.696 22.5038V21.9438L232.774 21.9788ZM237.669 18.7472V25.0005H236.642V18.7472H237.669ZM237.167 16.4022C237.323 16.4022 237.459 16.4566 237.576 16.5655C237.7 16.6666 237.762 16.8299 237.762 17.0555C237.762 17.2733 237.7 17.4366 237.576 17.5455C237.459 17.6544 237.323 17.7088 237.167 17.7088C236.996 17.7088 236.852 17.6544 236.736 17.5455C236.619 17.4366 236.561 17.2733 236.561 17.0555C236.561 16.8299 236.619 16.6666 236.736 16.5655C236.852 16.4566 236.996 16.4022 237.167 16.4022Z" fill="#182A54"/>
<path d="M944.5 13.3477C944.5 12.5578 945.138 11.8894 945.958 11.8894H954.708C955.498 11.8894 956.167 12.5578 956.167 13.3477V26.7158C956.167 27.1411 955.832 27.4449 955.407 27.4449C955.255 27.4449 955.103 27.4146 954.982 27.3234L950.333 24.0422L945.655 27.3234C945.533 27.4146 945.381 27.4449 945.229 27.4449C944.804 27.4449 944.5 27.1411 944.5 26.7158V13.3477Z" fill="#D9DFEB"/>
<g opacity="0.5">
<path opacity="0.6" d="M999.234 14.4224V17.7036H1002.52V14.4224H999.234ZM997.594 14.4224C997.594 13.5337 998.312 12.7817 999.234 12.7817H1002.52C1003.4 12.7817 1004.16 13.5337 1004.16 14.4224V17.7036C1004.16 18.6265 1003.4 19.3442 1002.52 19.3442H999.234C998.312 19.3442 997.594 18.6265 997.594 17.7036V14.4224ZM999.234 23.1724V26.4536H1002.52V23.1724H999.234ZM997.594 23.1724C997.594 22.2837 998.312 21.5317 999.234 21.5317H1002.52C1003.4 21.5317 1004.16 22.2837 1004.16 23.1724V26.4536C1004.16 27.3765 1003.4 28.0942 1002.52 28.0942H999.234C998.312 28.0942 997.594 27.3765 997.594 26.4536V23.1724ZM1011.27 14.4224H1007.98V17.7036H1011.27V14.4224ZM1007.98 12.7817H1011.27C1012.15 12.7817 1012.91 13.5337 1012.91 14.4224V17.7036C1012.91 18.6265 1012.15 19.3442 1011.27 19.3442H1007.98C1007.06 19.3442 1006.34 18.6265 1006.34 17.7036V14.4224C1006.34 13.5337 1007.06 12.7817 1007.98 12.7817ZM1007.98 23.1724V26.4536H1011.27V23.1724H1007.98ZM1006.34 23.1724C1006.34 22.2837 1007.06 21.5317 1007.98 21.5317H1011.27C1012.15 21.5317 1012.91 22.2837 1012.91 23.1724V26.4536C1012.91 27.3765 1012.15 28.0942 1011.27 28.0942H1007.98C1007.06 28.0942 1006.34 27.3765 1006.34 26.4536V23.1724Z" fill="#182A54"/>
<path opacity="0.6" d="M1053.38 25.3599C1054.61 24.0952 1055.36 22.3521 1055.36 20.438C1055.36 16.5415 1052.15 13.3286 1048.25 13.3286C1044.32 13.3286 1041.14 16.5415 1041.14 20.438C1041.14 22.3521 1041.86 24.0952 1043.09 25.3599C1043.74 23.7534 1045.31 22.6255 1047.16 22.6255H1049.34C1051.16 22.6255 1052.73 23.7534 1053.38 25.3599ZM1052.01 26.4878C1051.77 25.2231 1050.64 24.2661 1049.34 24.2661H1047.16C1045.82 24.2661 1044.7 25.2231 1044.46 26.4878C1045.55 27.1714 1046.85 27.5474 1048.25 27.5474C1049.62 27.5474 1050.92 27.1714 1052.01 26.4878ZM1048.25 29.188C1045.11 29.188 1042.23 27.5474 1040.66 24.813C1039.09 22.1128 1039.09 18.7974 1040.66 16.063C1042.23 13.3628 1045.11 11.688 1048.25 11.688C1051.36 11.688 1054.23 13.3628 1055.8 16.063C1057.38 18.7974 1057.38 22.1128 1055.8 24.813C1054.23 27.5474 1051.36 29.188 1048.25 29.188ZM1048.25 19.8911C1048.73 19.8911 1049.17 19.6519 1049.41 19.2075C1049.65 18.7974 1049.65 18.2847 1049.41 17.8403C1049.17 17.4302 1048.73 17.1567 1048.25 17.1567C1047.74 17.1567 1047.29 17.4302 1047.05 17.8403C1046.81 18.2847 1046.81 18.7974 1047.05 19.2075C1047.29 19.6519 1047.74 19.8911 1048.25 19.8911ZM1045.24 18.5239C1045.24 17.4644 1045.79 16.4731 1046.75 15.9263C1047.67 15.4136 1048.8 15.4136 1049.75 15.9263C1050.68 16.4731 1051.26 17.4644 1051.26 18.5239C1051.26 19.6177 1050.68 20.6089 1049.75 21.1558C1048.8 21.6685 1047.67 21.6685 1046.75 21.1558C1045.79 20.6089 1045.24 19.6177 1045.24 18.5239Z" fill="#182A54"/>
<path opacity="0.6" d="M1084.69 24.2661C1085.27 24.2661 1085.78 24.6079 1086.09 25.0864C1086.4 25.5991 1086.4 26.2485 1086.09 26.7271C1085.78 27.2397 1085.27 27.5474 1084.69 27.5474C1084.07 27.5474 1083.56 27.2397 1083.25 26.7271C1082.94 26.2485 1082.94 25.5991 1083.25 25.0864C1083.56 24.6079 1084.07 24.2661 1084.69 24.2661ZM1084.69 18.7974C1085.27 18.7974 1085.78 19.1392 1086.09 19.6177C1086.4 20.1304 1086.4 20.7798 1086.09 21.2583C1085.78 21.771 1085.27 22.0786 1084.69 22.0786C1084.07 22.0786 1083.56 21.771 1083.25 21.2583C1082.94 20.7798 1082.94 20.1304 1083.25 19.6177C1083.56 19.1392 1084.07 18.7974 1084.69 18.7974ZM1086.33 14.9692C1086.33 15.5845 1085.99 16.0972 1085.51 16.4048C1085 16.7124 1084.35 16.7124 1083.87 16.4048C1083.35 16.0972 1083.05 15.5845 1083.05 14.9692C1083.05 14.3882 1083.35 13.8755 1083.87 13.5679C1084.35 13.2603 1085 13.2603 1085.51 13.5679C1085.99 13.8755 1086.33 14.3882 1086.33 14.9692Z" fill="#182A54"/>
</g>
</svg>
