<svg width="688" height="40" viewBox="0 0 688 40" fill="none" xmlns="http://www.w3.org/2000/svg">
<path d="M0 10C0 4.47715 4.47715 0 10 0H678C683.523 0 688 4.47715 688 10V40H0V10Z" fill="#D9DFEB"/>
<g opacity="0.5">
<path opacity="0.6" d="M32.7393 21.0527C32.5684 20.8818 32.5 20.6768 32.5 20.4375C32.5 20.2324 32.5684 20.0273 32.7393 19.8564L38.7549 14.1143C39.0967 13.8066 39.6094 13.8066 39.917 14.1484C40.2246 14.4561 40.2246 15.0029 39.8828 15.3105L35.3369 19.6172H46.9922C47.4365 19.6172 47.8125 19.9932 47.8125 20.4375C47.8125 20.916 47.4365 21.2578 46.9922 21.2578H35.3369L39.8828 25.5986C40.2246 25.9062 40.2246 26.4189 39.917 26.7607C39.6094 27.1025 39.0967 27.1025 38.7549 26.7949L32.7393 21.0527Z" fill="#182A54"/>
<path opacity="0.6" d="M88.5391 21.0527L82.5234 26.7949C82.1816 27.1025 81.6689 27.1025 81.3613 26.7607C81.0537 26.4189 81.0537 25.9062 81.3955 25.5986L85.9414 21.2578H74.3203C73.8418 21.2578 73.5 20.916 73.5 20.4375C73.5 19.9932 73.8418 19.6172 74.3203 19.6172H85.9414L81.3955 15.3105C81.0537 15.0029 81.0537 14.4561 81.3613 14.1484C81.6689 13.8066 82.2158 13.8066 82.5234 14.1143L88.5391 19.8564C88.71 20.0273 88.8125 20.2324 88.8125 20.4375C88.8125 20.6768 88.71 20.8818 88.5391 21.0527Z" fill="#182A54"/>
<path opacity="0.6" d="M131.453 18.5234C131.453 19.002 131.077 19.3438 130.633 19.3438H126.805H125.711C125.232 19.3438 124.891 19.002 124.891 18.5234C124.891 18.0791 125.232 17.7031 125.711 17.7031H126.805H128.65L126.873 15.9258C125.882 14.9688 124.583 14.4219 123.25 14.4219C120.755 14.4219 118.602 15.96 117.713 18.1133C117.508 18.5234 117.029 18.6943 116.619 18.5234C116.209 18.3525 116.004 17.874 116.175 17.4639C117.337 14.7295 120.071 12.7812 123.25 12.7812C125.027 12.7812 126.736 13.499 128.001 14.7637L129.812 16.5752V14.6953V13.6016C129.812 13.1572 130.154 12.7812 130.633 12.7812C131.077 12.7812 131.453 13.1572 131.453 13.6016V18.5234ZM115.867 21.5312H119.695C120.14 21.5312 120.516 21.9072 120.516 22.3516C120.516 22.8301 120.14 23.1719 119.695 23.1719H117.815L119.627 24.9834C120.584 25.9404 121.883 26.4531 123.25 26.4531C125.711 26.4531 127.864 24.9834 128.753 22.8301C128.958 22.3857 129.437 22.2148 129.847 22.3857C130.257 22.5566 130.462 23.0352 130.291 23.4795C129.095 26.1797 126.395 28.0938 123.25 28.0938C121.438 28.0938 119.729 27.4102 118.465 26.1455L116.688 24.334V26.1797C116.688 26.6582 116.312 27 115.867 27C115.389 27 115.047 26.6582 115.047 26.1797V22.3516C115.047 21.9072 115.389 21.5312 115.867 21.5312Z" fill="#182A54"/>
</g>
<rect x="157.5" y="5" width="382" height="30" rx="15" fill="white"/>
<rect x="160" y="7.5" width="25" height="25" rx="12.5" fill="#D9DFEB"/>
<path opacity="0.4" d="M166.5 23.2708C166.5 22.9746 166.728 22.724 167.047 22.724H168.391C168.619 21.9948 169.326 21.4479 170.146 21.4479C170.943 21.4479 171.65 21.9948 171.878 22.724H177.62C177.916 22.724 178.167 22.9746 178.167 23.2708C178.167 23.5898 177.916 23.8177 177.62 23.8177H171.878C171.65 24.5697 170.943 25.0938 170.146 25.0938C169.326 25.0938 168.619 24.5697 168.391 23.8177H167.047C166.728 23.8177 166.5 23.5898 166.5 23.2708ZM169.417 23.2708C169.417 23.681 169.736 24 170.146 24C170.533 24 170.875 23.681 170.875 23.2708C170.875 22.8835 170.533 22.5417 170.146 22.5417C169.736 22.5417 169.417 22.8835 169.417 23.2708ZM173.792 19.625C173.792 20.0352 174.111 20.3542 174.521 20.3542C174.908 20.3542 175.25 20.0352 175.25 19.625C175.25 19.2376 174.908 18.8958 174.521 18.8958C174.111 18.8958 173.792 19.2376 173.792 19.625ZM174.521 17.8021C175.318 17.8021 176.025 18.349 176.253 19.0781H177.62C177.916 19.0781 178.167 19.3288 178.167 19.625C178.167 19.944 177.916 20.1719 177.62 20.1719H176.253C176.025 20.9238 175.318 21.4479 174.521 21.4479C173.701 21.4479 172.994 20.9238 172.766 20.1719H167.047C166.728 20.1719 166.5 19.944 166.5 19.625C166.5 19.3288 166.728 19.0781 167.047 19.0781H172.766C172.994 18.349 173.701 17.8021 174.521 17.8021ZM170.875 16.7083C171.262 16.7083 171.604 16.3893 171.604 15.9792C171.604 15.5918 171.262 15.25 170.875 15.25C170.465 15.25 170.146 15.5918 170.146 15.9792C170.146 16.3893 170.465 16.7083 170.875 16.7083ZM172.607 15.4323H177.62C177.916 15.4323 178.167 15.6829 178.167 15.9792C178.167 16.2982 177.916 16.526 177.62 16.526H172.607C172.379 17.278 171.673 17.8021 170.875 17.8021C170.055 17.8021 169.348 17.278 169.12 16.526H167.047C166.728 16.526 166.5 16.2982 166.5 15.9792C166.5 15.6829 166.728 15.4323 167.047 15.4323H169.12C169.348 14.7031 170.055 14.1562 170.875 14.1562C171.673 14.1562 172.379 14.7031 172.607 15.4323Z" fill="#182A54"/>
<path opacity="0.5" d="M196.138 18.6417C196.9 18.6417 197.464 18.8089 197.829 19.1433C198.195 19.4778 198.378 20.0106 198.378 20.7417V25H197.631L197.433 24.1133H197.386C197.207 24.3389 197.021 24.5294 196.826 24.685C196.639 24.8328 196.422 24.9417 196.173 25.0117C195.932 25.0817 195.636 25.1167 195.286 25.1167C194.913 25.1167 194.574 25.0506 194.271 24.9183C193.976 24.7861 193.742 24.5839 193.571 24.3117C193.4 24.0317 193.314 23.6817 193.314 23.2617C193.314 22.6394 193.559 22.1611 194.049 21.8267C194.539 21.4844 195.294 21.2978 196.313 21.2667L197.374 21.2317V20.8583C197.374 20.3372 197.262 19.9756 197.036 19.7733C196.811 19.5711 196.492 19.47 196.079 19.47C195.753 19.47 195.442 19.5206 195.146 19.6217C194.851 19.715 194.574 19.8239 194.318 19.9483L194.003 19.1783C194.275 19.0306 194.598 18.9061 194.971 18.805C195.344 18.6961 195.733 18.6417 196.138 18.6417ZM196.441 21.9783C195.663 22.0094 195.123 22.1339 194.819 22.3517C194.524 22.5694 194.376 22.8767 194.376 23.2733C194.376 23.6233 194.481 23.88 194.691 24.0433C194.909 24.2067 195.185 24.2883 195.519 24.2883C196.048 24.2883 196.488 24.1444 196.838 23.8567C197.188 23.5611 197.363 23.11 197.363 22.5033V21.9433L196.441 21.9783ZM204.381 23.2733C204.381 23.6778 204.28 24.0161 204.077 24.2883C203.875 24.5606 203.587 24.7667 203.214 24.9067C202.841 25.0467 202.397 25.1167 201.884 25.1167C201.449 25.1167 201.071 25.0817 200.752 25.0117C200.441 24.9417 200.165 24.8444 199.924 24.72V23.7867C200.173 23.9111 200.472 24.0278 200.822 24.1367C201.18 24.2378 201.542 24.2883 201.907 24.2883C202.429 24.2883 202.806 24.2067 203.039 24.0433C203.272 23.8722 203.389 23.6467 203.389 23.3667C203.389 23.2111 203.346 23.0711 203.261 22.9467C203.175 22.8222 203.02 22.6978 202.794 22.5733C202.576 22.4489 202.261 22.3089 201.849 22.1533C201.445 21.9978 201.099 21.8422 200.811 21.6867C200.523 21.5311 200.301 21.3444 200.146 21.1267C199.99 20.9089 199.912 20.6289 199.912 20.2867C199.912 19.7578 200.126 19.3494 200.554 19.0617C200.99 18.7739 201.557 18.63 202.257 18.63C202.639 18.63 202.992 18.6689 203.319 18.7467C203.654 18.8167 203.965 18.9178 204.252 19.05L203.902 19.8667C203.731 19.7889 203.549 19.7228 203.354 19.6683C203.167 19.6061 202.977 19.5594 202.782 19.5283C202.588 19.4894 202.39 19.47 202.187 19.47C201.767 19.47 201.445 19.54 201.219 19.68C201.001 19.8122 200.892 19.995 200.892 20.2283C200.892 20.3994 200.943 20.5472 201.044 20.6717C201.145 20.7883 201.312 20.905 201.546 21.0217C201.787 21.1306 202.106 21.2628 202.502 21.4183C202.899 21.5661 203.237 21.7178 203.517 21.8733C203.797 22.0289 204.011 22.2194 204.159 22.445C204.307 22.6628 204.381 22.9389 204.381 23.2733ZM212.752 18.63C213.46 18.63 213.989 18.8128 214.339 19.1783C214.689 19.5361 214.864 20.1194 214.864 20.9283V25H213.849V20.975C213.849 20.485 213.744 20.1156 213.534 19.8667C213.331 19.6178 213.012 19.4933 212.577 19.4933C211.97 19.4933 211.535 19.6683 211.27 20.0183C211.014 20.3683 210.885 20.8778 210.885 21.5467V25H209.87V20.975C209.87 20.6483 209.824 20.3761 209.73 20.1583C209.637 19.9328 209.497 19.7656 209.31 19.6567C209.124 19.5478 208.882 19.4933 208.587 19.4933C208.167 19.4933 207.836 19.5828 207.595 19.7617C207.354 19.9328 207.179 20.1856 207.07 20.52C206.969 20.8544 206.919 21.2667 206.919 21.7567V25H205.892V18.7467H206.72L206.872 19.5983H206.93C207.062 19.3806 207.222 19.2017 207.409 19.0617C207.603 18.9139 207.817 18.805 208.05 18.735C208.284 18.665 208.525 18.63 208.774 18.63C209.256 18.63 209.656 18.7156 209.975 18.8867C210.302 19.0578 210.539 19.3222 210.687 19.68H210.745C210.955 19.3222 211.239 19.0578 211.597 18.8867C211.962 18.7156 212.347 18.63 212.752 18.63ZM217.822 18.2917C217.822 18.5561 217.814 18.805 217.798 19.0383C217.791 19.2639 217.779 19.4428 217.763 19.575H217.822C218.001 19.3106 218.246 19.0889 218.557 18.91C218.868 18.7311 219.268 18.6417 219.758 18.6417C220.536 18.6417 221.158 18.9139 221.625 19.4583C222.1 19.995 222.337 20.8 222.337 21.8733C222.337 22.5889 222.228 23.1878 222.01 23.67C221.8 24.1522 221.501 24.5139 221.112 24.755C220.723 24.9961 220.272 25.1167 219.758 25.1167C219.268 25.1167 218.868 25.0272 218.557 24.8483C218.246 24.6694 218.001 24.4556 217.822 24.2067H217.74L217.53 25H216.795V16.1333H217.822V18.2917ZM219.583 19.4933C219.14 19.4933 218.79 19.5789 218.533 19.75C218.277 19.9133 218.094 20.17 217.985 20.52C217.876 20.8622 217.822 21.3017 217.822 21.8383V21.885C217.822 22.655 217.946 23.2461 218.195 23.6583C218.452 24.0628 218.922 24.265 219.607 24.265C220.167 24.265 220.583 24.0589 220.855 23.6467C221.135 23.2344 221.275 22.6394 221.275 21.8617C221.275 21.0761 221.135 20.485 220.855 20.0883C220.583 19.6917 220.159 19.4933 219.583 19.4933ZM225 25H223.973V16.1333H225V25ZM226.829 24.37C226.829 24.0822 226.899 23.88 227.039 23.7633C227.179 23.6467 227.346 23.5883 227.541 23.5883C227.743 23.5883 227.914 23.6467 228.054 23.7633C228.202 23.88 228.276 24.0822 228.276 24.37C228.276 24.65 228.202 24.8522 228.054 24.9767C227.914 25.1011 227.743 25.1633 227.541 25.1633C227.346 25.1633 227.179 25.1011 227.039 24.9767C226.899 24.8522 226.829 24.65 226.829 24.37ZM232.471 18.6417C233.233 18.6417 233.797 18.8089 234.162 19.1433C234.528 19.4778 234.711 20.0106 234.711 20.7417V25H233.964L233.766 24.1133H233.719C233.54 24.3389 233.354 24.5294 233.159 24.685C232.972 24.8328 232.755 24.9417 232.506 25.0117C232.265 25.0817 231.969 25.1167 231.619 25.1167C231.246 25.1167 230.907 25.0506 230.604 24.9183C230.309 24.7861 230.075 24.5839 229.904 24.3117C229.733 24.0317 229.647 23.6817 229.647 23.2617C229.647 22.6394 229.892 22.1611 230.382 21.8267C230.872 21.4844 231.627 21.2978 232.646 21.2667L233.707 21.2317V20.8583C233.707 20.3372 233.595 19.9756 233.369 19.7733C233.144 19.5711 232.825 19.47 232.412 19.47C232.086 19.47 231.775 19.5206 231.479 19.6217C231.184 19.715 230.907 19.8239 230.651 19.9483L230.336 19.1783C230.608 19.0306 230.931 18.9061 231.304 18.805C231.677 18.6961 232.066 18.6417 232.471 18.6417ZM232.774 21.9783C231.996 22.0094 231.456 22.1339 231.152 22.3517C230.857 22.5694 230.709 22.8767 230.709 23.2733C230.709 23.6233 230.814 23.88 231.024 24.0433C231.242 24.2067 231.518 24.2883 231.852 24.2883C232.381 24.2883 232.821 24.1444 233.171 23.8567C233.521 23.5611 233.696 23.11 233.696 22.5033V21.9433L232.774 21.9783ZM237.669 18.7467V25H236.642V18.7467H237.669ZM237.167 16.4017C237.323 16.4017 237.459 16.4561 237.575 16.565C237.7 16.6661 237.762 16.8294 237.762 17.055C237.762 17.2728 237.7 17.4361 237.575 17.545C237.459 17.6539 237.323 17.7083 237.167 17.7083C236.996 17.7083 236.852 17.6539 236.735 17.545C236.619 17.4361 236.56 17.2728 236.56 17.055C236.56 16.8294 236.619 16.6661 236.735 16.565C236.852 16.4561 236.996 16.4017 237.167 16.4017Z" fill="#182A54"/>
<path d="M512.5 13.3472C512.5 12.5573 513.138 11.8889 513.958 11.8889H522.708C523.498 11.8889 524.167 12.5573 524.167 13.3472V26.7153C524.167 27.1406 523.832 27.4444 523.407 27.4444C523.255 27.4444 523.103 27.4141 522.982 27.3229L518.333 24.0417L513.655 27.3229C513.533 27.4141 513.381 27.4444 513.229 27.4444C512.804 27.4444 512.5 27.1406 512.5 26.7153V13.3472Z" fill="#D9DFEB"/>
<g opacity="0.5">
<path opacity="0.6" d="M567.234 14.4219V17.7031H570.516V14.4219H567.234ZM565.594 14.4219C565.594 13.5332 566.312 12.7812 567.234 12.7812H570.516C571.404 12.7812 572.156 13.5332 572.156 14.4219V17.7031C572.156 18.626 571.404 19.3438 570.516 19.3438H567.234C566.312 19.3438 565.594 18.626 565.594 17.7031V14.4219ZM567.234 23.1719V26.4531H570.516V23.1719H567.234ZM565.594 23.1719C565.594 22.2832 566.312 21.5312 567.234 21.5312H570.516C571.404 21.5312 572.156 22.2832 572.156 23.1719V26.4531C572.156 27.376 571.404 28.0938 570.516 28.0938H567.234C566.312 28.0938 565.594 27.376 565.594 26.4531V23.1719ZM579.266 14.4219H575.984V17.7031H579.266V14.4219ZM575.984 12.7812H579.266C580.154 12.7812 580.906 13.5332 580.906 14.4219V17.7031C580.906 18.626 580.154 19.3438 579.266 19.3438H575.984C575.062 19.3438 574.344 18.626 574.344 17.7031V14.4219C574.344 13.5332 575.062 12.7812 575.984 12.7812ZM575.984 23.1719V26.4531H579.266V23.1719H575.984ZM574.344 23.1719C574.344 22.2832 575.062 21.5312 575.984 21.5312H579.266C580.154 21.5312 580.906 22.2832 580.906 23.1719V26.4531C580.906 27.376 580.154 28.0938 579.266 28.0938H575.984C575.062 28.0938 574.344 27.376 574.344 26.4531V23.1719Z" fill="#182A54"/>
<path opacity="0.6" d="M621.377 25.3594C622.607 24.0947 623.359 22.3516 623.359 20.4375C623.359 16.541 620.146 13.3281 616.25 13.3281C612.319 13.3281 609.141 16.541 609.141 20.4375C609.141 22.3516 609.858 24.0947 611.089 25.3594C611.738 23.7529 613.311 22.625 615.156 22.625H617.344C619.155 22.625 620.728 23.7529 621.377 25.3594ZM620.01 26.4873C619.771 25.2227 618.643 24.2656 617.344 24.2656H615.156C613.823 24.2656 612.695 25.2227 612.456 26.4873C613.55 27.1709 614.849 27.5469 616.25 27.5469C617.617 27.5469 618.916 27.1709 620.01 26.4873ZM616.25 29.1875C613.105 29.1875 610.234 27.5469 608.662 24.8125C607.09 22.1123 607.09 18.7969 608.662 16.0625C610.234 13.3623 613.105 11.6875 616.25 11.6875C619.36 11.6875 622.231 13.3623 623.804 16.0625C625.376 18.7969 625.376 22.1123 623.804 24.8125C622.231 27.5469 619.36 29.1875 616.25 29.1875ZM616.25 19.8906C616.729 19.8906 617.173 19.6514 617.412 19.207C617.651 18.7969 617.651 18.2842 617.412 17.8398C617.173 17.4297 616.729 17.1562 616.25 17.1562C615.737 17.1562 615.293 17.4297 615.054 17.8398C614.814 18.2842 614.814 18.7969 615.054 19.207C615.293 19.6514 615.737 19.8906 616.25 19.8906ZM613.242 18.5234C613.242 17.4639 613.789 16.4727 614.746 15.9258C615.669 15.4131 616.797 15.4131 617.754 15.9258C618.677 16.4727 619.258 17.4639 619.258 18.5234C619.258 19.6172 618.677 20.6084 617.754 21.1553C616.797 21.668 615.669 21.668 614.746 21.1553C613.789 20.6084 613.242 19.6172 613.242 18.5234Z" fill="#182A54"/>
<path opacity="0.6" d="M652.688 24.2656C653.269 24.2656 653.781 24.6074 654.089 25.0859C654.396 25.5986 654.396 26.248 654.089 26.7266C653.781 27.2393 653.269 27.5469 652.688 27.5469C652.072 27.5469 651.56 27.2393 651.252 26.7266C650.944 26.248 650.944 25.5986 651.252 25.0859C651.56 24.6074 652.072 24.2656 652.688 24.2656ZM652.688 18.7969C653.269 18.7969 653.781 19.1387 654.089 19.6172C654.396 20.1299 654.396 20.7793 654.089 21.2578C653.781 21.7705 653.269 22.0781 652.688 22.0781C652.072 22.0781 651.56 21.7705 651.252 21.2578C650.944 20.7793 650.944 20.1299 651.252 19.6172C651.56 19.1387 652.072 18.7969 652.688 18.7969ZM654.328 14.9688C654.328 15.584 653.986 16.0967 653.508 16.4043C652.995 16.7119 652.346 16.7119 651.867 16.4043C651.354 16.0967 651.047 15.584 651.047 14.9688C651.047 14.3877 651.354 13.875 651.867 13.5674C652.346 13.2598 652.995 13.2598 653.508 13.5674C653.986 13.875 654.328 14.3877 654.328 14.9688Z" fill="#182A54"/>
</g>
</svg>
