<svg width="350" height="40" viewBox="0 0 350 40" fill="none" xmlns="http://www.w3.org/2000/svg">
<path d="M0 10C0 4.47715 4.47715 0 10 0H340C345.523 0 350 4.47715 350 10V40H0V10Z" fill="#D9DFEB"/>
<rect x="7.5" y="5" width="335" height="30" rx="15" fill="white"/>
<rect x="10" y="7.5" width="25" height="25" rx="12.5" fill="#D9DFEB"/>
<path opacity="0.4" d="M16.5 23.2708C16.5 22.9746 16.7279 22.724 17.0469 22.724H18.3913C18.6191 21.9948 19.3255 21.4479 20.1458 21.4479C20.9434 21.4479 21.6497 21.9948 21.8776 22.724H27.6198C27.916 22.724 28.1667 22.9746 28.1667 23.2708C28.1667 23.5898 27.916 23.8177 27.6198 23.8177H21.8776C21.6497 24.5697 20.9434 25.0938 20.1458 25.0938C19.3255 25.0938 18.6191 24.5697 18.3913 23.8177H17.0469C16.7279 23.8177 16.5 23.5898 16.5 23.2708ZM19.4167 23.2708C19.4167 23.681 19.7357 24 20.1458 24C20.5332 24 20.875 23.681 20.875 23.2708C20.875 22.8835 20.5332 22.5417 20.1458 22.5417C19.7357 22.5417 19.4167 22.8835 19.4167 23.2708ZM23.7917 19.625C23.7917 20.0352 24.1107 20.3542 24.5208 20.3542C24.9082 20.3542 25.25 20.0352 25.25 19.625C25.25 19.2376 24.9082 18.8958 24.5208 18.8958C24.1107 18.8958 23.7917 19.2376 23.7917 19.625ZM24.5208 17.8021C25.3184 17.8021 26.0247 18.349 26.2526 19.0781H27.6198C27.916 19.0781 28.1667 19.3288 28.1667 19.625C28.1667 19.944 27.916 20.1719 27.6198 20.1719H26.2526C26.0247 20.9238 25.3184 21.4479 24.5208 21.4479C23.7005 21.4479 22.9941 20.9238 22.7663 20.1719H17.0469C16.7279 20.1719 16.5 19.944 16.5 19.625C16.5 19.3288 16.7279 19.0781 17.0469 19.0781H22.7663C22.9941 18.349 23.7005 17.8021 24.5208 17.8021ZM20.875 16.7083C21.2624 16.7083 21.6042 16.3893 21.6042 15.9792C21.6042 15.5918 21.2624 15.25 20.875 15.25C20.4648 15.25 20.1458 15.5918 20.1458 15.9792C20.1458 16.3893 20.4648 16.7083 20.875 16.7083ZM22.6068 15.4323H27.6198C27.916 15.4323 28.1667 15.6829 28.1667 15.9792C28.1667 16.2982 27.916 16.526 27.6198 16.526H22.6068C22.3789 17.278 21.6725 17.8021 20.875 17.8021C20.0547 17.8021 19.3483 17.278 19.1204 16.526H17.0469C16.7279 16.526 16.5 16.2982 16.5 15.9792C16.5 15.6829 16.7279 15.4323 17.0469 15.4323H19.1204C19.3483 14.7031 20.0547 14.1562 20.875 14.1562C21.6725 14.1562 22.3789 14.7031 22.6068 15.4323Z" fill="#182A54"/>
<path opacity="0.5" d="M153.67 18.6417C154.432 18.6417 154.996 18.8089 155.361 19.1433C155.727 19.4778 155.91 20.0106 155.91 20.7417V25H155.163L154.965 24.1133H154.918C154.739 24.3389 154.553 24.5294 154.358 24.685C154.171 24.8328 153.954 24.9417 153.705 25.0117C153.464 25.0817 153.168 25.1167 152.818 25.1167C152.445 25.1167 152.106 25.0506 151.803 24.9183C151.508 24.7861 151.274 24.5839 151.103 24.3117C150.932 24.0317 150.846 23.6817 150.846 23.2617C150.846 22.6394 151.091 22.1611 151.581 21.8267C152.071 21.4844 152.826 21.2978 153.845 21.2667L154.906 21.2317V20.8583C154.906 20.3372 154.794 19.9756 154.568 19.7733C154.343 19.5711 154.024 19.47 153.611 19.47C153.285 19.47 152.974 19.5206 152.678 19.6217C152.383 19.715 152.106 19.8239 151.85 19.9483L151.535 19.1783C151.807 19.0306 152.13 18.9061 152.503 18.805C152.876 18.6961 153.265 18.6417 153.67 18.6417ZM153.973 21.9783C153.195 22.0094 152.655 22.1339 152.351 22.3517C152.056 22.5694 151.908 22.8767 151.908 23.2733C151.908 23.6233 152.013 23.88 152.223 24.0433C152.441 24.2067 152.717 24.2883 153.051 24.2883C153.58 24.2883 154.02 24.1444 154.37 23.8567C154.72 23.5611 154.895 23.11 154.895 22.5033V21.9433L153.973 21.9783ZM161.913 23.2733C161.913 23.6778 161.812 24.0161 161.609 24.2883C161.407 24.5606 161.119 24.7667 160.746 24.9067C160.373 25.0467 159.929 25.1167 159.416 25.1167C158.981 25.1167 158.603 25.0817 158.284 25.0117C157.973 24.9417 157.697 24.8444 157.456 24.72V23.7867C157.705 23.9111 158.004 24.0278 158.354 24.1367C158.712 24.2378 159.074 24.2883 159.439 24.2883C159.961 24.2883 160.338 24.2067 160.571 24.0433C160.804 23.8722 160.921 23.6467 160.921 23.3667C160.921 23.2111 160.878 23.0711 160.793 22.9467C160.707 22.8222 160.552 22.6978 160.326 22.5733C160.108 22.4489 159.793 22.3089 159.381 22.1533C158.977 21.9978 158.631 21.8422 158.343 21.6867C158.055 21.5311 157.833 21.3444 157.678 21.1267C157.522 20.9089 157.444 20.6289 157.444 20.2867C157.444 19.7578 157.658 19.3494 158.086 19.0617C158.522 18.7739 159.089 18.63 159.789 18.63C160.171 18.63 160.524 18.6689 160.851 18.7467C161.186 18.8167 161.497 18.9178 161.784 19.05L161.434 19.8667C161.263 19.7889 161.081 19.7228 160.886 19.6683C160.699 19.6061 160.509 19.5594 160.314 19.5283C160.12 19.4894 159.922 19.47 159.719 19.47C159.299 19.47 158.977 19.54 158.751 19.68C158.533 19.8122 158.424 19.995 158.424 20.2283C158.424 20.3994 158.475 20.5472 158.576 20.6717C158.677 20.7883 158.844 20.905 159.078 21.0217C159.319 21.1306 159.638 21.2628 160.034 21.4183C160.431 21.5661 160.769 21.7178 161.049 21.8733C161.329 22.0289 161.543 22.2194 161.691 22.445C161.839 22.6628 161.913 22.9389 161.913 23.2733ZM170.284 18.63C170.992 18.63 171.52 18.8128 171.87 19.1783C172.22 19.5361 172.395 20.1194 172.395 20.9283V25H171.38V20.975C171.38 20.485 171.275 20.1156 171.065 19.8667C170.863 19.6178 170.544 19.4933 170.109 19.4933C169.502 19.4933 169.067 19.6683 168.802 20.0183C168.545 20.3683 168.417 20.8778 168.417 21.5467V25H167.402V20.975C167.402 20.6483 167.355 20.3761 167.262 20.1583C167.169 19.9328 167.029 19.7656 166.842 19.6567C166.655 19.5478 166.414 19.4933 166.119 19.4933C165.699 19.4933 165.368 19.5828 165.127 19.7617C164.886 19.9328 164.711 20.1856 164.602 20.52C164.501 20.8544 164.45 21.2667 164.45 21.7567V25H163.424V18.7467H164.252L164.404 19.5983H164.462C164.594 19.3806 164.754 19.2017 164.94 19.0617C165.135 18.9139 165.349 18.805 165.582 18.735C165.815 18.665 166.057 18.63 166.305 18.63C166.788 18.63 167.188 18.7156 167.507 18.8867C167.834 19.0578 168.071 19.3222 168.219 19.68H168.277C168.487 19.3222 168.771 19.0578 169.129 18.8867C169.494 18.7156 169.879 18.63 170.284 18.63ZM175.354 18.2917C175.354 18.5561 175.346 18.805 175.33 19.0383C175.323 19.2639 175.311 19.4428 175.295 19.575H175.354C175.533 19.3106 175.778 19.0889 176.089 18.91C176.4 18.7311 176.8 18.6417 177.29 18.6417C178.068 18.6417 178.69 18.9139 179.157 19.4583C179.632 19.995 179.869 20.8 179.869 21.8733C179.869 22.5889 179.76 23.1878 179.542 23.67C179.332 24.1522 179.033 24.5139 178.644 24.755C178.255 24.9961 177.804 25.1167 177.29 25.1167C176.8 25.1167 176.4 25.0272 176.089 24.8483C175.778 24.6694 175.533 24.4556 175.354 24.2067H175.272L175.062 25H174.327V16.1333H175.354V18.2917ZM177.115 19.4933C176.672 19.4933 176.322 19.5789 176.065 19.75C175.809 19.9133 175.626 20.17 175.517 20.52C175.408 20.8622 175.354 21.3017 175.354 21.8383V21.885C175.354 22.655 175.478 23.2461 175.727 23.6583C175.984 24.0628 176.454 24.265 177.139 24.265C177.699 24.265 178.115 24.0589 178.387 23.6467C178.667 23.2344 178.807 22.6394 178.807 21.8617C178.807 21.0761 178.667 20.485 178.387 20.0883C178.115 19.6917 177.691 19.4933 177.115 19.4933ZM182.532 25H181.505V16.1333H182.532V25ZM184.361 24.37C184.361 24.0822 184.431 23.88 184.571 23.7633C184.711 23.6467 184.878 23.5883 185.073 23.5883C185.275 23.5883 185.446 23.6467 185.586 23.7633C185.734 23.88 185.808 24.0822 185.808 24.37C185.808 24.65 185.734 24.8522 185.586 24.9767C185.446 25.1011 185.275 25.1633 185.073 25.1633C184.878 25.1633 184.711 25.1011 184.571 24.9767C184.431 24.8522 184.361 24.65 184.361 24.37ZM190.003 18.6417C190.765 18.6417 191.329 18.8089 191.694 19.1433C192.06 19.4778 192.243 20.0106 192.243 20.7417V25H191.496L191.298 24.1133H191.251C191.072 24.3389 190.886 24.5294 190.691 24.685C190.504 24.8328 190.287 24.9417 190.038 25.0117C189.797 25.0817 189.501 25.1167 189.151 25.1167C188.778 25.1167 188.439 25.0506 188.136 24.9183C187.841 24.7861 187.607 24.5839 187.436 24.3117C187.265 24.0317 187.179 23.6817 187.179 23.2617C187.179 22.6394 187.424 22.1611 187.914 21.8267C188.404 21.4844 189.159 21.2978 190.178 21.2667L191.239 21.2317V20.8583C191.239 20.3372 191.127 19.9756 190.901 19.7733C190.676 19.5711 190.357 19.47 189.944 19.47C189.618 19.47 189.307 19.5206 189.011 19.6217C188.716 19.715 188.439 19.8239 188.183 19.9483L187.868 19.1783C188.14 19.0306 188.463 18.9061 188.836 18.805C189.209 18.6961 189.598 18.6417 190.003 18.6417ZM190.306 21.9783C189.528 22.0094 188.988 22.1339 188.684 22.3517C188.389 22.5694 188.241 22.8767 188.241 23.2733C188.241 23.6233 188.346 23.88 188.556 24.0433C188.774 24.2067 189.05 24.2883 189.384 24.2883C189.913 24.2883 190.353 24.1444 190.703 23.8567C191.053 23.5611 191.228 23.11 191.228 22.5033V21.9433L190.306 21.9783ZM195.201 18.7467V25H194.174V18.7467H195.201ZM194.699 16.4017C194.855 16.4017 194.991 16.4561 195.107 16.565C195.232 16.6661 195.294 16.8294 195.294 17.055C195.294 17.2728 195.232 17.4361 195.107 17.545C194.991 17.6539 194.855 17.7083 194.699 17.7083C194.528 17.7083 194.384 17.6539 194.267 17.545C194.151 17.4361 194.092 17.2728 194.092 17.055C194.092 16.8294 194.151 16.6661 194.267 16.565C194.384 16.4561 194.528 16.4017 194.699 16.4017Z" fill="#182A54"/>
<path d="M319.946 12.1927L322.863 15.1094C323.258 15.474 323.258 16.112 322.863 16.4766C322.498 16.8715 321.86 16.8715 321.496 16.4766L320.25 15.2309V21.6111C320.25 22.158 319.794 22.5833 319.278 22.5833C318.731 22.5833 318.306 22.158 318.306 21.6111V15.2309L317.03 16.4766C316.665 16.8715 316.027 16.8715 315.662 16.4766C315.267 16.112 315.267 15.474 315.662 15.1094L318.579 12.1927C318.944 11.7977 319.582 11.7977 319.946 12.1927ZM313.444 15.2917V25.0139C313.444 25.2873 313.657 25.5 313.931 25.5H324.625C324.868 25.5 325.111 25.2873 325.111 25.0139V15.2917C325.111 15.0486 324.868 14.8056 324.625 14.8056H324.382C323.835 14.8056 323.41 14.3802 323.41 13.8333C323.41 13.3168 323.835 12.8611 324.382 12.8611H324.625C325.962 12.8611 327.056 13.9549 327.056 15.2917V25.0139C327.056 26.3811 325.962 27.4444 324.625 27.4444H313.931C312.563 27.4444 311.5 26.3811 311.5 25.0139V15.2917C311.5 13.9549 312.563 12.8611 313.931 12.8611H314.174C314.69 12.8611 315.146 13.3168 315.146 13.8333C315.146 14.3802 314.69 14.8056 314.174 14.8056H313.931C313.657 14.8056 313.444 15.0486 313.444 15.2917Z" fill="#D9DFEB"/>
</svg>
