<svg width="42" height="42" viewBox="0 0 42 42" fill="none" xmlns="http://www.w3.org/2000/svg">
<path d="M40.106 16.1848C40.106 15.3402 39.7703 14.5303 39.1733 13.9331C38.5762 13.336 37.7661 13.0005 36.9217 13.0005H5.07882C4.23428 13.0005 3.42436 13.336 2.82718 13.9331C2.23003 14.5303 1.89453 15.3402 1.89453 16.1848V36.922C1.89453 37.7665 2.23003 38.5765 2.82718 39.1736C3.42436 39.7706 4.23428 40.1063 5.07882 40.1063H36.9217C37.7661 40.1063 38.5762 39.7706 39.1733 39.1736C39.7703 38.5765 40.106 37.7665 40.106 36.922V16.1848Z" fill="#F9662D" fill-opacity="0.4"/>
<path fill-rule="evenodd" clip-rule="evenodd" d="M12.9613 19.4084C13.0866 19.1707 13.1575 18.8998 13.1575 18.6123C13.1575 17.6679 12.3919 16.9023 11.4475 16.9023C10.0634 16.9023 8.94141 18.0244 8.94141 19.4084C8.94141 20.7925 10.0634 21.9145 11.4475 21.9145C12.3919 21.9145 13.1575 21.1489 13.1575 20.2045C13.1575 19.9171 13.0866 19.6462 12.9613 19.4084Z" fill="#1335AF"/>
<path fill-rule="evenodd" clip-rule="evenodd" d="M9.7373 18.6123C9.7373 17.6679 10.5029 16.9023 11.4473 16.9023C12.8314 16.9023 13.9534 18.0244 13.9534 19.4084C13.9534 20.7925 12.8314 21.9145 11.4473 21.9145C10.5029 21.9145 9.7373 21.1489 9.7373 20.2045C9.7373 19.9171 9.80822 19.6462 9.93352 19.4084C9.80822 19.1707 9.7373 18.8998 9.7373 18.6123Z" fill="#1335AF"/>
<path fill-rule="evenodd" clip-rule="evenodd" d="M22.514 19.4084C22.6393 19.1707 22.7102 18.8998 22.7102 18.6123C22.7102 17.6679 21.9446 16.9023 21.0002 16.9023C19.6162 16.9023 18.4941 18.0244 18.4941 19.4084C18.4941 20.7925 19.6162 21.9145 21.0002 21.9145C21.9446 21.9145 22.7102 21.1489 22.7102 20.2045C22.7102 19.9171 22.6393 19.6462 22.514 19.4084Z" fill="#1335AF"/>
<path fill-rule="evenodd" clip-rule="evenodd" d="M19.29 18.6123C19.29 17.6679 20.0556 16.9023 21 16.9023C22.3841 16.9023 23.5061 18.0244 23.5061 19.4084C23.5061 20.7925 22.3841 21.9145 21 21.9145C20.0556 21.9145 19.29 21.1489 19.29 20.2045C19.29 19.9171 19.361 19.6462 19.4863 19.4084C19.361 19.1707 19.29 18.8998 19.29 18.6123Z" fill="#1335AF"/>
<path fill-rule="evenodd" clip-rule="evenodd" d="M12.9613 30.5534C13.0866 30.3157 13.1575 30.0448 13.1575 29.7574C13.1575 28.813 12.3919 28.0474 11.4475 28.0474C10.0634 28.0474 8.94141 29.1694 8.94141 30.5534C8.94141 31.9377 10.0636 33.0595 11.4475 33.0595C12.3919 33.0595 13.1575 32.2939 13.1575 31.3495C13.1575 31.0621 13.0866 30.7912 12.9613 30.5534Z" fill="#1335AF"/>
<path fill-rule="evenodd" clip-rule="evenodd" d="M9.7373 29.7574C9.7373 28.813 10.5029 28.0474 11.4473 28.0474C12.8314 28.0474 13.9534 29.1694 13.9534 30.5534C13.9534 31.9377 12.8312 33.0595 11.4473 33.0595C10.5029 33.0595 9.7373 32.2939 9.7373 31.3495C9.7373 31.0621 9.80822 30.7912 9.93352 30.5534C9.80822 30.3157 9.7373 30.0448 9.7373 29.7574Z" fill="#1335AF"/>
<path fill-rule="evenodd" clip-rule="evenodd" d="M22.514 30.5534C22.6393 30.3157 22.7102 30.0448 22.7102 29.7574C22.7102 28.813 21.9446 28.0474 21.0002 28.0474C19.6162 28.0474 18.4941 29.1694 18.4941 30.5534C18.4941 31.9377 19.6163 33.0595 21.0002 33.0595C21.9446 33.0595 22.7102 32.2939 22.7102 31.3495C22.7102 31.0621 22.6393 30.7912 22.514 30.5534Z" fill="#1335AF"/>
<path fill-rule="evenodd" clip-rule="evenodd" d="M19.29 29.7574C19.29 28.813 20.0556 28.0474 21 28.0474C22.3841 28.0474 23.5061 29.1694 23.5061 30.5534C23.5061 31.9377 22.384 33.0595 21 33.0595C20.0556 33.0595 19.29 32.2939 19.29 31.3495C19.29 31.0621 19.361 30.7912 19.4863 30.5534C19.361 30.3157 19.29 30.0448 19.29 29.7574Z" fill="#1335AF"/>
<path fill-rule="evenodd" clip-rule="evenodd" d="M32.0667 19.4084C32.192 19.1707 32.2629 18.8998 32.2629 18.6123C32.2629 17.6679 31.4974 16.9023 30.5529 16.9023C29.1689 16.9023 28.0469 18.0244 28.0469 19.4084C28.0469 20.7925 29.1689 21.9145 30.5529 21.9145C31.4974 21.9145 32.2629 21.1489 32.2629 20.2045C32.2629 19.9171 32.192 19.6462 32.0667 19.4084Z" fill="#1335AF"/>
<path fill-rule="evenodd" clip-rule="evenodd" d="M28.8428 18.6123C28.8428 17.6679 29.6084 16.9023 30.5528 16.9023C31.9371 16.9023 33.0588 18.0245 33.0588 19.4084C33.0588 20.7923 31.9371 21.9145 30.5528 21.9145C29.6084 21.9145 28.8428 21.1489 28.8428 20.2045C28.8428 19.9171 28.9137 19.6462 29.039 19.4084C28.9137 19.1707 28.8428 18.8998 28.8428 18.6123Z" fill="#1335AF"/>
<path fill-rule="evenodd" clip-rule="evenodd" d="M1.6181 6.39476C2.53594 5.47697 3.78078 4.9613 5.07886 4.9613H36.9217C38.2196 4.9613 39.4647 5.4769 40.3826 6.39489L40.3826 6.39493C41.3001 7.31261 41.816 8.55735 41.816 9.85559V36.922C41.816 38.2201 41.3002 39.4651 40.3825 40.3828C39.4648 41.3005 38.2198 41.8163 36.9217 41.8163H5.07886C3.78062 41.8163 2.53588 41.3004 1.61819 40.3829L1.61816 40.3829C0.700171 39.465 0.18457 38.2199 0.18457 36.922V9.85559C0.18457 8.55752 0.700238 7.31267 1.61803 6.39483L1.6181 6.39476ZM4.03634 8.81313C4.03636 8.81311 4.03638 8.81309 4.0364 8.81307C4.31291 8.5366 4.68789 8.3813 5.07886 8.3813H36.9217C37.3127 8.3813 37.6878 8.53669 37.964 8.81297C38.2407 9.08965 38.396 9.46475 38.396 9.85559V36.922C38.396 37.3129 38.2406 37.688 37.9642 37.9645C37.6877 38.2409 37.3126 38.3963 36.9217 38.3963H5.07886C4.68803 38.3963 4.31294 38.241 4.03627 37.9644M4.03634 8.81313C3.75987 9.08965 3.60457 9.46462 3.60457 9.85559V36.922C3.60457 37.313 3.75995 37.6881 4.03624 37.9643" fill="#1335AF"/>
<path fill-rule="evenodd" clip-rule="evenodd" d="M9.85551 0.184814C10.7999 0.184814 11.5655 0.950408 11.5655 1.89481V11.4477C11.5655 12.3921 10.7999 13.1577 9.85551 13.1577C8.9111 13.1577 8.14551 12.3921 8.14551 11.4477V1.89481C8.14551 0.950408 8.9111 0.184814 9.85551 0.184814Z" fill="#1335AF"/>
<path fill-rule="evenodd" clip-rule="evenodd" d="M32.1455 0.184814C33.09 0.184814 33.8555 0.950408 33.8555 1.89481V11.4477C33.8555 12.3921 33.09 13.1577 32.1455 13.1577C31.2011 13.1577 30.4355 12.3921 30.4355 11.4477V1.89481C30.4355 0.950408 31.2011 0.184814 32.1455 0.184814Z" fill="#1335AF"/>
</svg>
