<svg width="15" height="9" viewBox="0 0 15 9" fill="none" xmlns="http://www.w3.org/2000/svg">
<g id="Caret">
<path id="Vector_2" d="M6.38574 6.11646L1.40788 1.31567L10.6982 1.31958L6.38574 6.11646Z" fill="#F9662D" fill-opacity="0.4"/>
<path id="Vector_3 (Stroke)" fill-rule="evenodd" clip-rule="evenodd" d="M14.9349 0.988499C15.0672 1.30799 14.9941 1.67574 14.7496 1.92027L8.38098 8.28884C8.22064 8.44919 8.00316 8.53927 7.7764 8.53927C7.54964 8.53927 7.33217 8.44919 7.17183 8.28884L0.803256 1.92027C0.558727 1.67574 0.485578 1.30799 0.617915 0.988499C0.750253 0.669007 1.06202 0.460693 1.40783 0.460693L14.145 0.460693C14.4908 0.460693 14.8026 0.669007 14.9349 0.988499ZM12.0808 2.17069L3.47198 2.17069L7.7764 6.47511L12.0808 2.17069Z" fill="#1335AF"/>
</g>
</svg>
