<svg width="46" height="46" viewBox="0 0 46 46" fill="none" xmlns="http://www.w3.org/2000/svg">
<path fill-rule="evenodd" clip-rule="evenodd" d="M23.0006 44.0418C33.2916 44.0418 41.8283 36.5316 43.4289 26.6929C41.8283 16.8543 33.2916 9.34393 23.0006 9.34393C12.7097 9.34393 4.17288 16.8543 2.57227 26.6929C3.05493 29.6597 4.1683 32.4147 5.77029 34.8159L4.25897 38.837C4.69731 39.7694 5.20318 40.6638 5.77029 41.5138L5.00373 43.5533L13.9086 41.943C16.653 43.2871 19.7387 44.0418 23.0006 44.0418ZM19.8163 23.3439V20.1596C19.8163 18.401 18.3906 16.9753 16.632 16.9753C14.8734 16.9753 13.4477 18.401 13.4477 20.1596C13.4477 21.9182 14.8734 23.3439 16.632 23.3439H19.8163ZM32.5534 23.3439V20.1596C32.5534 18.401 31.1278 16.9753 29.3692 16.9753C27.6105 16.9753 26.1849 18.401 26.1849 20.1596C26.1849 21.9182 27.6105 23.3439 29.3692 23.3439H32.5534Z" fill="#F9662D" fill-opacity="0.4"/>
<path fill-rule="evenodd" clip-rule="evenodd" d="M0.591821 23.3439C0.591821 10.9684 10.6242 0.93605 22.9997 0.93605C35.3754 0.93605 45.4075 10.9684 45.4075 23.3439C45.4075 35.7196 35.3754 45.7518 22.9997 45.7518C19.6741 45.7518 16.5137 45.0261 13.6718 43.7234L2.60612 45.7245C2.00049 45.834 1.38272 45.6096 0.988548 45.1369C0.594377 44.6643 0.484616 44.0163 0.701147 43.4401L3.86777 35.015C1.78951 31.6149 0.591821 27.617 0.591821 23.3439ZM7.36509 35.4306L4.9626 41.8229L13.6204 40.2572L13.6372 40.2544C14.0673 40.1811 14.4873 40.2754 14.8303 40.4897C17.3028 41.6701 20.0717 42.3318 22.9997 42.3318C33.4865 42.3318 41.9875 33.8308 41.9875 23.3439C41.9875 12.8572 33.4865 4.35605 22.9997 4.35605C12.513 4.35605 4.01182 12.8572 4.01182 23.3439C4.01182 27.1813 5.14838 30.7482 7.10291 33.7323C7.47365 34.192 7.59593 34.8313 7.3684 35.422L7.36509 35.4306Z" fill="#1335AF"/>
<path fill-rule="evenodd" clip-rule="evenodd" d="M11.7363 20.1596C11.7363 17.4566 13.9276 15.2653 16.6306 15.2653C19.3336 15.2653 21.5249 17.4566 21.5249 20.1596V24.936C21.5249 28.5184 18.6208 31.4225 15.0385 31.4225C14.0941 31.4225 13.3285 30.6569 13.3285 29.7125C13.3285 28.7681 14.0941 28.0025 15.0385 28.0025C16.6926 28.0025 18.0407 26.6928 18.1027 25.0539H16.6306C13.9276 25.0539 11.7363 22.8626 11.7363 20.1596ZM18.1049 21.6339V20.1596C18.1049 19.3454 17.4448 18.6853 16.6306 18.6853C15.8164 18.6853 15.1563 19.3454 15.1563 20.1596C15.1563 20.9738 15.8164 21.6339 16.6306 21.6339H18.1049Z" fill="#1335AF"/>
<path fill-rule="evenodd" clip-rule="evenodd" d="M24.4746 20.1596C24.4746 17.4566 26.6659 15.2653 29.3689 15.2653C32.0719 15.2653 34.2632 17.4566 34.2632 20.1596V24.936C34.2632 28.5184 31.3591 31.4225 27.7768 31.4225C26.8323 31.4225 26.0668 30.6569 26.0668 29.7125C26.0668 28.7681 26.8323 28.0025 27.7768 28.0025C29.4308 28.0025 30.779 26.6928 30.841 25.0539H29.3689C26.6659 25.0539 24.4746 22.8626 24.4746 20.1596ZM30.8432 21.6339V20.1596C30.8432 19.3454 30.1831 18.6853 29.3689 18.6853C28.5547 18.6853 27.8946 19.3454 27.8946 20.1596C27.8946 20.9738 28.5547 21.6339 29.3689 21.6339H30.8432Z" fill="#1335AF"/>
</svg>
