<svg width="25" height="24" viewBox="0 0 25 24" fill="none" xmlns="http://www.w3.org/2000/svg">
<path d="M2.94714 11H22.0529V20.0832C22.0529 20.4729 21.8979 20.8468 21.6223 21.1223C21.3467 21.3979 20.9729 21.5529 20.5832 21.5529H4.41682C4.02703 21.5529 3.65321 21.3979 3.3776 21.1223C3.10198 20.8468 2.94714 20.4729 2.94714 20.0832V11Z" fill="#F9662D" fill-opacity="0.4"/>
<path fill-rule="evenodd" clip-rule="evenodd" d="M12.5 1.59215C12.9722 1.59215 13.355 1.97494 13.355 2.44715V8.32583C13.355 8.79804 12.9722 9.18083 12.5 9.18083C12.0278 9.18083 11.645 8.79804 11.645 8.32583V2.44715C11.645 1.97494 12.0278 1.59215 12.5 1.59215Z" fill="#1335AF"/>
<path fill-rule="evenodd" clip-rule="evenodd" d="M13.8496 17.4806C13.8496 17.0084 14.2324 16.6256 14.7046 16.6256H17.8888C18.361 16.6256 18.7438 17.0084 18.7438 17.4806C18.7438 17.9528 18.361 18.3356 17.8888 18.3356H14.7046C14.2324 18.3356 13.8496 17.9528 13.8496 17.4806Z" fill="#1335AF"/>
<path fill-rule="evenodd" clip-rule="evenodd" d="M2.09216 8.32583C2.09216 7.85362 2.47496 7.47083 2.94716 7.47083H22.0529C22.5251 7.47083 22.9079 7.85362 22.9079 8.32583V20.0831C22.9079 20.6998 22.6628 21.291 22.2269 21.7269C21.7911 22.1628 21.1998 22.4079 20.5832 22.4079H4.41684C3.80018 22.4079 3.20893 22.1628 2.77306 21.7269C2.33707 21.291 2.09216 20.6996 2.09216 20.0831V8.32583ZM3.80216 9.18083V20.0831C3.80216 20.2462 3.86693 20.4025 3.98217 20.5177C4.09753 20.6331 4.25392 20.6979 4.41684 20.6979H20.5832C20.7461 20.6979 20.9025 20.6331 21.0178 20.5178C21.1331 20.4024 21.1979 20.246 21.1979 20.0831V9.18083H3.80216Z" fill="#1335AF"/>
<path fill-rule="evenodd" clip-rule="evenodd" d="M6.07461 3.72358C6.07461 3.72358 6.0746 3.72358 6.0746 3.72358L4.29857 7.47083H20.7015L18.9255 3.72362C18.9255 3.7236 18.9255 3.72359 18.9255 3.72357C18.8035 3.46621 18.5441 3.30215 18.2593 3.30215H6.74072C6.45592 3.30215 6.19659 3.46621 6.07461 3.72358ZM4.52938 2.9912C4.93433 2.13681 5.79523 1.59215 6.74072 1.59215H18.2593C19.2048 1.59215 20.0657 2.1368 20.4707 2.99116L20.4707 2.99121L22.8255 7.95965C22.951 8.22453 22.9321 8.53526 22.7754 8.78297C22.6187 9.03067 22.346 9.18083 22.0529 9.18083H2.94716C2.65404 9.18083 2.38135 9.03067 2.22463 8.78296C2.06791 8.53525 2.04901 8.22453 2.17455 7.95965L4.52938 2.99121L4.52938 2.9912Z" fill="#1335AF"/>
</svg>
