<svg width="46" height="46" viewBox="0 0 46 46" fill="none" xmlns="http://www.w3.org/2000/svg">
<g id="Dashboard-Mix-Circle-Square-1--Streamline-Core">
<path id="Vector" d="M40.144 5.85706H29.8583C27.9647 5.85706 26.4297 7.08509 26.4297 8.59991V16.8285C26.4297 18.3433 27.9647 19.5713 29.8583 19.5713H40.144C42.0376 19.5713 43.5725 18.3433 43.5725 16.8285V8.59991C43.5725 7.08509 42.0376 5.85706 40.144 5.85706Z" fill="#F9662D" fill-opacity="0.4"/>
<path id="Vector_2" d="M16.144 29.8571H5.85826C3.96473 29.8571 2.42969 31.0851 2.42969 32.5999V40.8285C2.42969 42.3434 3.96473 43.5713 5.85826 43.5713H16.144C18.0375 43.5713 19.5725 42.3434 19.5725 40.8285V32.5999C19.5725 31.0851 18.0375 29.8571 16.144 29.8571Z" fill="#F9662D" fill-opacity="0.4"/>
<path id="Vector_3 (Stroke)" fill-rule="evenodd" clip-rule="evenodd" d="M24.7148 5.85709C24.7148 3.01679 27.0174 0.714233 29.8577 0.714233H40.1434C42.9838 0.714233 45.2863 3.01681 45.2863 5.85709V16.1428C45.2863 18.9831 42.9838 21.2857 40.1434 21.2857H29.8577C27.0174 21.2857 24.7148 18.9831 24.7148 16.1428V5.85709ZM29.8577 4.1428C28.9109 4.1428 28.1434 4.91033 28.1434 5.85709V16.1428C28.1434 17.0896 28.9109 17.8571 29.8577 17.8571H40.1434C41.0902 17.8571 41.8577 17.0896 41.8577 16.1428V5.85709C41.8577 4.91031 41.0902 4.1428 40.1434 4.1428H29.8577Z" fill="#1335AF"/>
<path id="Vector_4 (Stroke)" fill-rule="evenodd" clip-rule="evenodd" d="M0.714844 29.8571C0.714844 27.0168 3.0174 24.7142 5.8577 24.7142H16.1434C18.9837 24.7142 21.2863 27.0168 21.2863 29.8571V40.1428C21.2863 42.9832 18.9837 45.2857 16.1434 45.2857H5.8577C3.01742 45.2857 0.714844 42.9832 0.714844 40.1428V29.8571ZM5.8577 28.1428C4.91094 28.1428 4.14342 28.9103 4.14342 29.8571V40.1428C4.14342 41.0896 4.91092 41.8571 5.8577 41.8571H16.1434C17.0902 41.8571 17.8577 41.0896 17.8577 40.1428V29.8571C17.8577 28.9103 17.0902 28.1428 16.1434 28.1428H5.8577Z" fill="#1335AF"/>
<ellipse id="Ellipse 1" cx="11.0011" cy="12.7142" rx="8.57143" ry="6.85714" fill="#F9662D" fill-opacity="0.4"/>
<ellipse id="Ellipse 2" cx="35.0011" cy="36.7142" rx="8.57143" ry="6.85714" fill="#F9662D" fill-opacity="0.4"/>
<path id="Ellipse 3 (Stroke)" fill-rule="evenodd" clip-rule="evenodd" d="M11.0006 4.1428C7.21346 4.1428 4.14342 7.21285 4.14342 10.9999C4.14342 14.787 7.21346 17.8571 11.0006 17.8571C14.7877 17.8571 17.8577 14.787 17.8577 10.9999C17.8577 7.21285 14.7877 4.1428 11.0006 4.1428ZM0.714844 10.9999C0.714844 5.3193 5.31991 0.714233 11.0006 0.714233C16.6812 0.714233 21.2863 5.3193 21.2863 10.9999C21.2863 16.6806 16.6812 21.2857 11.0006 21.2857C5.31991 21.2857 0.714844 16.6806 0.714844 10.9999Z" fill="#1335AF"/>
<path id="Ellipse 4 (Stroke)" fill-rule="evenodd" clip-rule="evenodd" d="M35.0006 28.1428C31.2135 28.1428 28.1434 31.2129 28.1434 34.9999C28.1434 38.787 31.2135 41.8571 35.0006 41.8571C38.7877 41.8571 41.8577 38.787 41.8577 34.9999C41.8577 31.2129 38.7877 28.1428 35.0006 28.1428ZM24.7148 34.9999C24.7148 29.3193 29.3199 24.7142 35.0006 24.7142C40.6812 24.7142 45.2863 29.3193 45.2863 34.9999C45.2863 40.6806 40.6812 45.2857 35.0006 45.2857C29.3199 45.2857 24.7148 40.6806 24.7148 34.9999Z" fill="#1335AF"/>
</g>
</svg>
