<svg width="42" height="42" viewBox="0 0 42 42" fill="none" xmlns="http://www.w3.org/2000/svg">
<g id="database--raid-storage-code-disk-programming-database-array-hard-disc">
<path id="Subtract" fill-rule="evenodd" clip-rule="evenodd" d="M40.106 13.2426C40.106 17.301 31.552 20.591 21.0002 20.591C10.4484 20.591 1.89453 17.301 1.89453 13.2426C1.89453 12.5494 2.14413 11.8786 2.61065 11.2427C2.14413 10.6069 1.89453 9.93605 1.89453 9.2428V13.2426V32.7577C1.89453 36.8138 10.448 40.1057 21.0002 40.1057C31.5523 40.1057 40.106 36.8138 40.106 32.7577V13.2426ZM39.3898 11.2427C39.8564 10.6069 40.106 9.93605 40.106 9.2428V13.2426C40.106 12.5494 39.8564 11.8786 39.3898 11.2427Z" fill="#F9662D" fill-opacity="0.4"/>
<path id="Vector_3 (Stroke)" fill-rule="evenodd" clip-rule="evenodd" d="M6.87567 2.45053C10.5744 1.02793 15.5684 0.184265 20.9993 0.184265C26.4302 0.184265 31.4242 1.02793 35.1229 2.45053C36.9666 3.15963 38.5759 4.04589 39.754 5.11716C40.9326 6.18888 41.815 7.58048 41.815 9.24261C41.815 10.9047 40.9326 12.2964 39.754 13.3681C38.5759 14.4393 36.9666 15.3256 35.1229 16.0347C31.4242 17.4573 26.4302 18.301 20.9993 18.301C15.5684 18.301 10.5744 17.4573 6.87567 16.0347C5.032 15.3256 3.42266 14.4393 2.24458 13.3681C1.066 12.2963 0.183594 10.9047 0.183594 9.24261C0.183594 7.58048 1.066 6.18888 2.24458 5.11716C3.42266 4.04589 5.032 3.15963 6.87567 2.45053ZM4.54545 7.64745C3.79043 8.33402 3.60359 8.87555 3.60359 9.24261C3.60359 9.60968 3.79043 10.1512 4.54545 10.8378C5.30097 11.5248 6.4896 12.222 8.10338 12.8427C11.3195 14.0796 15.8784 14.881 20.9993 14.881C26.1202 14.881 30.6791 14.0796 33.8952 12.8427C35.509 12.222 36.6976 11.5248 37.4532 10.8378C38.2082 10.1512 38.395 9.60968 38.395 9.24261C38.395 8.87555 38.2082 8.33402 37.4532 7.64745C36.6976 6.96044 35.509 6.26325 33.8952 5.64257C30.6791 4.40558 26.1202 3.60427 20.9993 3.60427C15.8784 3.60427 11.3195 4.40558 8.10338 5.64257C6.4896 6.26325 5.30097 6.96044 4.54545 7.64745Z" fill="#1335AF"/>
<path id="Vector_4 (Stroke)" fill-rule="evenodd" clip-rule="evenodd" d="M1.89359 7.53278C2.838 7.53278 3.60359 8.29837 3.60359 9.24278V32.7576C3.60359 33.1239 3.79017 33.6651 4.54532 34.3517C5.30086 35.0387 6.48953 35.7359 8.10331 36.3567C11.3194 37.5939 15.8783 38.3957 20.9993 38.3957C26.1202 38.3957 30.6791 37.5939 33.8953 36.3567C35.509 35.7359 36.6977 35.0387 37.4533 34.3517C38.2085 33.6651 38.395 33.1239 38.395 32.7576V9.24278C38.395 8.29837 39.1606 7.53278 40.105 7.53278C41.0494 7.53278 41.815 8.29837 41.815 9.24278V32.7576C41.815 34.4195 40.9324 35.8108 39.754 36.8822C38.576 37.9532 36.9668 38.8395 35.1231 39.5487C31.4245 40.9715 26.4305 41.8157 20.9993 41.8157C15.5681 41.8157 10.5741 40.9715 6.87541 39.5487C5.03179 38.8395 3.42258 37.9532 2.24459 36.8822C1.06621 35.8108 0.183594 34.4194 0.183594 32.7576V9.24278C0.183594 8.29837 0.949187 7.53278 1.89359 7.53278Z" fill="#1335AF"/>
<path id="Vector_5 (Stroke)" fill-rule="evenodd" clip-rule="evenodd" d="M1.89359 19.29C2.838 19.29 3.60359 20.0556 3.60359 21C3.60359 21.3663 3.79019 21.9076 4.54534 22.5942C5.30089 23.2812 6.48955 23.9785 8.10333 24.5993C11.3195 25.8365 15.8783 26.6383 20.9993 26.6383C26.1202 26.6383 30.6791 25.8365 33.8952 24.5993C35.509 23.9785 36.6977 23.2812 37.4533 22.5942C38.2084 21.9076 38.395 21.3663 38.395 21C38.395 20.0556 39.1606 19.29 40.105 19.29C41.0494 19.29 41.815 20.0556 41.815 21C41.815 22.6618 40.9324 24.0531 39.754 25.1246C38.576 26.1957 36.9668 27.082 35.1232 27.7912C31.4245 29.2141 26.4305 30.0583 20.9993 30.0583C15.5681 30.0583 10.5741 29.2141 6.87539 27.7912C5.03177 27.082 3.42255 26.1957 2.24456 25.1246C1.06618 24.0531 0.183594 22.6618 0.183594 21C0.183594 20.0556 0.949187 19.29 1.89359 19.29Z" fill="#1335AF"/>
</g>
</svg>
