<svg width="41" height="41" viewBox="0 0 41 41" fill="none" xmlns="http://www.w3.org/2000/svg">
<path fill-rule="evenodd" clip-rule="evenodd" d="M11.2043 7.55234C10.4235 9.13541 9.154 10.4221 7.59178 11.2125C9.154 12.0029 10.4235 13.2896 11.2043 14.8727C11.9916 13.288 13.2671 12.0018 14.834 11.2125C13.2671 10.4232 11.9916 9.13696 11.2043 7.55234ZM17.0452 11.9471C17.0446 11.947 17.0439 11.9469 17.0432 11.9468L17.0452 11.9471ZM17.0452 10.4779C17.0452 10.4779 17.0452 10.4779 17.0452 10.4779V10.4779ZM5.37697 10.4745C5.37762 10.4746 5.37828 10.4747 5.37894 10.4748L5.37697 10.4745ZM9.12797 4.83405C9.60796 2.60446 12.7679 2.58842 13.2676 4.81603L13.3212 5.0554C13.3212 5.05539 13.3212 5.05541 13.3212 5.0554C13.7962 7.17288 15.469 8.77405 17.5417 9.14072C19.848 9.54869 19.848 12.8763 17.5417 13.2843C15.469 13.6509 13.7962 15.2521 13.3212 17.3696C13.3212 17.3696 13.3213 17.3695 13.3212 17.3696L13.2676 17.6089C12.7679 19.8365 9.60796 19.8205 9.12797 17.5909L9.08376 17.3855C9.08376 17.3855 9.08376 17.3856 9.08376 17.3855C8.6263 15.2607 6.95597 13.648 4.8805 13.2809C2.57793 12.8736 2.5779 9.55142 4.88051 9.14411C6.95599 8.77695 8.6263 7.16439 9.08375 5.03949C9.08375 5.0395 9.08375 5.03948 9.08375 5.03949L9.12797 4.83405Z" fill="#1335AF"/>
<path d="M23.916 33.308C22.6815 30.7231 20.7641 28.5881 18.4166 27.1717C21.7156 25.767 24.2028 23.377 25.2252 20.4999C26.23 23.2856 28.602 25.6113 31.75 27.0299C28.6402 28.8108 26.2446 31.8315 25.1252 35.4999C24.8238 34.7291 24.4164 33.9952 23.916 33.308Z" fill="#F9662D" fill-opacity="0.4"/>
<path fill-rule="evenodd" clip-rule="evenodd" d="M25.1251 16.1233C23.9386 20.5101 20.5584 23.9385 16.2466 25.1437C20.5584 26.3489 23.9386 29.7774 25.1251 34.1641C26.3317 29.7691 29.7307 26.3431 34.0558 25.1437C29.7307 23.9444 26.3317 20.5183 25.1251 16.1233ZM22.5752 14.5103C23.1663 11.7647 27.0488 11.7454 27.664 14.4881L27.7553 14.895C28.649 18.8793 31.8017 21.9091 35.7295 22.6039C38.552 23.1032 38.5521 27.1842 35.7295 27.6835C31.8017 28.3783 28.649 31.4082 27.7553 35.3924L27.6641 35.7993C27.0488 38.5417 23.1663 38.5229 22.5752 35.7771L22.5 35.4279C21.6388 31.4274 18.4889 28.374 14.5531 27.6777C11.7371 27.1795 11.7369 23.1079 14.5531 22.6097C18.4889 21.9134 21.6388 18.86 22.5 14.8595L22.5752 14.5103C22.5752 14.5103 22.5752 14.5103 22.5752 14.5103Z" fill="#1335AF"/>
</svg>
