<svg width="24" height="16" viewBox="0 0 24 16" fill="none" xmlns="http://www.w3.org/2000/svg">
<g id="Triangle-Arrow-Right-1--Streamline-Core">
<path id="Vector (Stroke)" fill-rule="evenodd" clip-rule="evenodd" d="M0.796021 8.00002C0.796021 7.52782 1.17882 7.14502 1.65102 7.14502H15.9803C16.4525 7.14502 16.8353 7.52782 16.8353 8.00002C16.8353 8.47222 16.4525 8.85502 15.9803 8.85502H1.65102C1.17882 8.85502 0.796021 8.47222 0.796021 8.00002Z" fill="#1335AF"/>
<path id="Vector_2" d="M20.7811 9.39062L15.9803 14.3685L15.9843 5.07812L20.7811 9.39062Z" fill="#F9662D" fill-opacity="0.4"/>
<path id="Vector_3 (Stroke)" fill-rule="evenodd" clip-rule="evenodd" d="M15.653 0.841475C15.9725 0.709137 16.3403 0.782288 16.5848 1.02682L22.9534 7.39539C23.1137 7.55573 23.2038 7.7732 23.2038 7.99996C23.2038 8.22672 23.1137 8.4442 22.9534 8.60454L16.5848 14.9731C16.3403 15.2176 15.9725 15.2908 15.653 15.1585C15.3336 15.0261 15.1252 14.7144 15.1252 14.3685V1.63139C15.1252 1.28558 15.3336 0.973813 15.653 0.841475ZM16.8352 3.69554V12.3044L21.1397 7.99996L16.8352 3.69554Z" fill="#1335AF"/>
</g>
</svg>
