<svg width="25" height="24" viewBox="0 0 25 24" fill="none" xmlns="http://www.w3.org/2000/svg">
<path fill-rule="evenodd" clip-rule="evenodd" d="M1.29504 18.8527C1.29504 17.329 2.53028 16.0935 4.05415 16.0935C5.57802 16.0935 6.81326 17.329 6.81326 18.8527C6.81326 20.3766 5.57793 21.6118 4.05415 21.6118C2.53038 21.6118 1.29504 20.3766 1.29504 18.8527ZM4.05415 17.8035C3.4748 17.8035 3.00504 18.2733 3.00504 18.8527C3.00504 19.4321 3.47471 19.9018 4.05415 19.9018C4.6336 19.9018 5.10326 19.4321 5.10326 18.8527C5.10326 18.2733 4.6335 17.8035 4.05415 17.8035Z" fill="#1335AF"/>
<path d="M7.25482 15.0357C7.25482 15.0357 8.56538 17.2969 12.4994 17.2969C16.4334 17.2969 17.7531 15.0357 17.7531 15.0357L17.7521 9.93518H7.24463L7.25482 15.0357Z" fill="#F9662D" fill-opacity="0.4"/>
<path d="M12.5312 5.93748L19.875 8.84373L12.5 12.2111L5.21875 8.87498L12.5312 5.93748Z" fill="#F9662D" fill-opacity="0.4"/>
<path fill-rule="evenodd" clip-rule="evenodd" d="M12.16 2.45869C12.3769 2.36472 12.623 2.36472 12.8399 2.45869L23.1888 6.94261C23.5015 7.07809 23.7039 7.38634 23.7039 7.72713C23.7039 8.06793 23.5015 8.37617 23.1888 8.51166L12.8399 12.9956C12.623 13.0896 12.3769 13.0896 12.16 12.9956L1.8111 8.51166C1.4984 8.37617 1.29602 8.06793 1.29602 7.72713C1.29602 7.38634 1.4984 7.07809 1.81111 6.94261L12.16 2.45869ZM4.30163 7.72714L12.5 11.2793L20.6983 7.72714L12.5 4.17502L4.30163 7.72714Z" fill="#1335AF"/>
<path fill-rule="evenodd" clip-rule="evenodd" d="M7.24294 9.08019C7.71514 9.07924 8.0987 9.46127 8.09965 9.93348L8.10929 14.7604C8.12636 14.7813 8.14533 14.8039 8.16627 14.828C8.30951 14.9927 8.5437 15.2254 8.88739 15.4626C9.56588 15.9306 10.7081 16.4419 12.4994 16.4419C14.2908 16.4419 15.4357 15.9306 16.1169 15.4619C16.4619 15.2246 16.6974 14.9916 16.8415 14.8265C16.8622 14.8028 16.8811 14.7805 16.898 14.7598L16.8971 9.93535C16.897 9.46314 17.2798 9.08027 17.752 9.08018C18.2242 9.0801 18.607 9.46282 18.6071 9.93502L18.6081 15.0356C18.6081 15.1871 18.5679 15.3359 18.4915 15.4667L17.7531 15.0357C18.4915 15.4667 18.4912 15.4672 18.491 15.4677L18.4904 15.4687L18.4891 15.4709L18.4861 15.4759L18.4785 15.4884C18.4728 15.4978 18.4656 15.5093 18.4569 15.5228C18.4395 15.5499 18.4162 15.585 18.3865 15.6269C18.3272 15.7107 18.2424 15.8221 18.1293 15.9516C17.9031 16.2105 17.5627 16.5428 17.0861 16.8707C16.124 17.5326 14.6421 18.1519 12.4994 18.1519C10.3567 18.1519 8.87664 17.5326 7.91635 16.8701C7.44065 16.5419 7.10132 16.2093 6.87589 15.9501C6.76318 15.8205 6.67872 15.7089 6.61966 15.625C6.59012 15.5831 6.56688 15.5479 6.54959 15.5208C6.54094 15.5072 6.53377 15.4957 6.52804 15.4862L6.52052 15.4737L6.51755 15.4687L6.51626 15.4665L6.51567 15.4655C6.51538 15.465 6.51511 15.4645 7.25484 15.0357L6.51511 15.4645C6.43989 15.3347 6.40014 15.1874 6.39984 15.0374L6.38965 9.93689C6.38871 9.46469 6.77074 9.08113 7.24294 9.08019Z" fill="#1335AF"/>
<path fill-rule="evenodd" clip-rule="evenodd" d="M4.0541 7.70572C4.5263 7.70572 4.9091 8.08852 4.9091 8.56072V16.9485C4.9091 17.4207 4.5263 17.8035 4.0541 17.8035C3.58189 17.8035 3.1991 17.4207 3.1991 16.9485V8.56072C3.1991 8.08852 3.58189 7.70572 4.0541 7.70572Z" fill="#1335AF"/>
</svg>
