<svg width="32" height="32" viewBox="0 0 32 32" fill="none" xmlns="http://www.w3.org/2000/svg">
<path d="M13.1328 5.12034C13.1328 6.73242 14.4397 8.03927 16.0517 8.03927C16.4593 8.03927 16.8473 7.95576 17.1997 7.80489C18.241 7.359 18.9707 6.32488 18.9707 5.12034C18.9707 3.50827 17.6638 2.20142 16.0517 2.20142C14.4397 2.20142 13.1328 3.50827 13.1328 5.12034Z" fill="#F9662D" fill-opacity="0.4"/>
<path d="M29.4199 28.2333C28.9029 27.2995 27.9076 26.6672 26.7648 26.6672C25.6218 26.6672 24.6264 27.2995 24.1094 28.2333C24.6264 29.1671 25.6218 29.7993 26.7648 29.7993C27.1881 29.7993 27.5914 29.7125 27.9574 29.5556C28.5795 29.2894 29.0945 28.8211 29.4199 28.2333Z" fill="#F9662D" fill-opacity="0.4"/>
<path d="M18.6542 28.2327C18.1372 27.2989 17.1419 26.6667 15.999 26.6667C14.856 26.6667 13.8608 27.2989 13.3438 28.2327C13.8608 29.1665 14.856 29.7986 15.999 29.7986C16.4225 29.7986 16.8257 29.7118 17.1918 29.5551C17.8138 29.2889 18.3288 28.8206 18.6542 28.2327Z" fill="#F9662D" fill-opacity="0.4"/>
<path d="M7.88862 28.2327C7.37162 27.2989 6.37632 26.6667 5.23337 26.6667C4.09042 26.6667 3.09513 27.2989 2.57812 28.2327C3.09513 29.1665 4.09042 29.7986 5.23337 29.7986C5.65684 29.7986 6.06003 29.7118 6.42614 29.5551C7.04818 29.2889 7.56317 28.8206 7.88862 28.2327Z" fill="#F9662D" fill-opacity="0.4"/>
<path fill-rule="evenodd" clip-rule="evenodd" d="M5.23372 17.334L26.8684 17.3335C27.1707 17.3335 27.4607 17.4536 27.6745 17.6674C27.8883 17.8812 28.0084 18.1711 28.0084 18.4735V23.0272C28.0084 23.6568 27.498 24.1672 26.8684 24.1672C26.2388 24.1672 25.7284 23.6568 25.7284 23.0272V19.6135L6.37375 19.614V23.0277C6.37375 23.6573 5.86335 24.1677 5.23375 24.1677C4.60415 24.1677 4.09375 23.6573 4.09375 23.0277V18.474C4.09375 17.8444 4.60413 17.334 5.23372 17.334Z" fill="white"/>
<path fill-rule="evenodd" clip-rule="evenodd" d="M15.9974 18.6667C16.7338 18.6667 17.3307 19.0651 17.3307 19.5565V23.1104C17.3307 23.6017 16.7338 24.0001 15.9974 24.0001C15.261 24.0001 14.6641 23.6017 14.6641 23.1104V19.5565C14.6641 19.0651 15.261 18.6667 15.9974 18.6667Z" fill="white"/>
<path d="M16.0031 11.4285C13.5896 11.4285 11.5001 12.8937 10.4883 14.9141H21.5564C20.5597 12.8514 18.4476 11.4285 16.0031 11.4285Z" fill="#F9662D" fill-opacity="0.4"/>
<path fill-rule="evenodd" clip-rule="evenodd" d="M16.0027 12.5683C14.0626 12.5683 12.3453 13.751 11.5072 15.4245C11.2253 15.9874 10.5404 16.2152 9.97744 15.9333C9.41448 15.6514 9.18666 14.9665 9.46858 14.4035C10.6542 12.036 13.1159 10.2883 16.0027 10.2883C18.901 10.2883 21.4028 11.9765 22.5825 14.418C22.8564 14.9849 22.6189 15.6665 22.052 15.9405C21.4851 16.2144 20.8035 15.9769 20.5296 15.41C19.7159 13.726 17.9934 12.5683 16.0027 12.5683Z" fill="white"/>
<path fill-rule="evenodd" clip-rule="evenodd" d="M11.9922 5.12045C11.9922 2.87877 13.8094 1.06152 16.0511 1.06152C18.2928 1.06152 20.11 2.87877 20.11 5.12045C20.11 6.79721 19.0935 8.23394 17.6477 8.85298L17.199 7.805L17.6477 8.85298C17.1562 9.06346 16.6157 9.17938 16.0511 9.17938C13.8094 9.17938 11.9922 7.36213 11.9922 5.12045ZM16.0511 3.34152C15.0686 3.34152 14.2722 4.13798 14.2722 5.12045C14.2722 6.10292 15.0686 6.89938 16.0511 6.89938C16.3016 6.89938 16.5372 6.84829 16.7503 6.75702L16.7503 6.75702C17.3873 6.48428 17.83 5.85276 17.83 5.12045C17.83 4.13798 17.0336 3.34152 16.0511 3.34152Z" fill="white"/>
<path fill-rule="evenodd" clip-rule="evenodd" d="M5.33203 24.5001C4.13541 24.5001 3.16536 25.4701 3.16536 26.6667C3.16536 27.8634 4.13541 28.8334 5.33203 28.8334C6.52865 28.8334 7.4987 27.8634 7.4987 26.6667C7.4987 25.4701 6.52865 24.5001 5.33203 24.5001ZM0.832031 26.6667C0.832031 24.1815 2.84675 22.1667 5.33203 22.1667C7.81731 22.1667 9.83203 24.1815 9.83203 26.6667C9.83203 29.152 7.81731 31.1667 5.33203 31.1667C2.84675 31.1667 0.832031 29.152 0.832031 26.6667Z" fill="white"/>
<path fill-rule="evenodd" clip-rule="evenodd" d="M16 24.5001C14.8034 24.5001 13.8333 25.4701 13.8333 26.6667C13.8333 27.8634 14.8034 28.8334 16 28.8334C17.1966 28.8334 18.1667 27.8634 18.1667 26.6667C18.1667 25.4701 17.1966 24.5001 16 24.5001ZM11.5 26.6667C11.5 24.1815 13.5147 22.1667 16 22.1667C18.4853 22.1667 20.5 24.1815 20.5 26.6667C20.5 29.152 18.4853 31.1667 16 31.1667C13.5147 31.1667 11.5 29.152 11.5 26.6667Z" fill="white"/>
<path fill-rule="evenodd" clip-rule="evenodd" d="M26.668 24.5001C25.4714 24.5001 24.5013 25.4701 24.5013 26.6667C24.5013 27.8634 25.4714 28.8334 26.668 28.8334C27.8646 28.8334 28.8346 27.8634 28.8346 26.6667C28.8346 25.4701 27.8646 24.5001 26.668 24.5001ZM22.168 26.6667C22.168 24.1815 24.1827 22.1667 26.668 22.1667C29.1533 22.1667 31.168 24.1815 31.168 26.6667C31.168 29.152 29.1533 31.1667 26.668 31.1667C24.1827 31.1667 22.168 29.152 22.168 26.6667Z" fill="white"/>
</svg>
