<svg width="25" height="24" viewBox="0 0 25 24" fill="none" xmlns="http://www.w3.org/2000/svg">
<path d="M10.3495 3.84027C10.3495 5.04933 11.3296 6.02946 12.5387 6.02946C12.8443 6.02946 13.1354 5.96683 13.3996 5.85368C14.1807 5.51926 14.7279 4.74367 14.7279 3.84027C14.7279 2.63121 13.7477 1.65107 12.5387 1.65107C11.3296 1.65107 10.3495 2.63121 10.3495 3.84027Z" fill="#F9662D" fill-opacity="0.4"/>
<path d="M22.5656 21.1748C22.1778 20.4745 21.4313 20.0003 20.5742 20.0003C19.7169 20.0003 18.9704 20.4745 18.5826 21.1748C18.9704 21.8752 19.7169 22.3494 20.5742 22.3494C20.8916 22.3494 21.1942 22.2843 21.4686 22.1666C21.9352 21.9669 22.3215 21.6157 22.5656 21.1748Z" fill="#F9662D" fill-opacity="0.4"/>
<path d="M14.4908 21.1745C14.1031 20.4741 13.3566 20 12.4994 20C11.6422 20 10.8957 20.4741 10.5079 21.1745C10.8957 21.8748 11.6422 22.3489 12.4994 22.3489C12.817 22.3489 13.1194 22.2838 13.3939 22.1663C13.8605 21.9666 14.2467 21.6154 14.4908 21.1745Z" fill="#F9662D" fill-opacity="0.4"/>
<path d="M6.4172 21.1745C6.02945 20.4741 5.28298 20 4.42576 20C3.56855 20 2.82208 20.4741 2.43433 21.1745C2.82208 21.8748 3.56855 22.3489 4.42576 22.3489C4.74336 22.3489 5.04576 22.2838 5.32034 22.1663C5.78687 21.9666 6.17311 21.6154 6.4172 21.1745Z" fill="#F9662D" fill-opacity="0.4"/>
<path fill-rule="evenodd" clip-rule="evenodd" d="M4.42578 13.0004L20.6518 13C20.8785 13 21.096 13.0901 21.2563 13.2504C21.4167 13.4108 21.5068 13.6282 21.5068 13.855V17.2703C21.5068 17.7425 21.124 18.1253 20.6518 18.1253C20.1796 18.1253 19.7968 17.7425 19.7968 17.2703V14.71L5.2808 14.7103V17.2706C5.2808 17.7428 4.898 18.1256 4.4258 18.1256C3.9536 18.1256 3.5708 17.7428 3.5708 17.2706V13.8554C3.5708 13.3832 3.95359 13.0004 4.42578 13.0004Z" fill="#1335AF"/>
<path fill-rule="evenodd" clip-rule="evenodd" d="M12.5 14C13.0523 14 13.5 14.2987 13.5 14.6673V17.3327C13.5 17.7012 13.0523 18 12.5 18C11.9477 18 11.5 17.7012 11.5 17.3327V14.6673C11.5 14.2987 11.9477 14 12.5 14Z" fill="#1335AF"/>
<path d="M12.5019 8.57122C10.6917 8.57122 9.1246 9.67012 8.36572 11.1855H16.6668C15.9193 9.63841 14.3352 8.57122 12.5019 8.57122Z" fill="#F9662D" fill-opacity="0.4"/>
<path fill-rule="evenodd" clip-rule="evenodd" d="M12.5018 9.42622C11.0467 9.42622 9.75872 10.3132 9.13018 11.5683C8.91873 11.9905 8.40505 12.1614 7.98283 11.95C7.56061 11.7385 7.38975 11.2248 7.60119 10.8026C8.49041 9.02701 10.3367 7.71622 12.5018 7.71622C14.6755 7.71622 16.5518 8.98233 17.4366 10.8135C17.642 11.2387 17.4639 11.7499 17.0387 11.9553C16.6136 12.1608 16.1024 11.9826 15.8969 11.5574C15.2867 10.2945 13.9948 9.42622 12.5018 9.42622Z" fill="#1335AF"/>
<path fill-rule="evenodd" clip-rule="evenodd" d="M9.49451 3.84027C9.49451 2.15901 10.8574 0.796072 12.5387 0.796072C14.22 0.796072 15.5829 2.15901 15.5829 3.84027C15.5829 5.09784 14.8205 6.17539 13.7362 6.63966L13.3996 5.85368L13.7362 6.63966C13.3675 6.79752 12.9622 6.88446 12.5387 6.88446C10.8574 6.88446 9.49451 5.52153 9.49451 3.84027ZM12.5387 2.50607C11.8018 2.50607 11.2045 3.10341 11.2045 3.84027C11.2045 4.57712 11.8018 5.17446 12.5387 5.17446C12.7266 5.17446 12.9032 5.13614 13.0631 5.0677L13.0631 5.06769C13.5409 4.86314 13.8729 4.3895 13.8729 3.84027C13.8729 3.10341 13.2756 2.50607 12.5387 2.50607Z" fill="#1335AF"/>
<path fill-rule="evenodd" clip-rule="evenodd" d="M4.5 18.375C3.60254 18.375 2.875 19.1025 2.875 20C2.875 20.8975 3.60254 21.625 4.5 21.625C5.39746 21.625 6.125 20.8975 6.125 20C6.125 19.1025 5.39746 18.375 4.5 18.375ZM1.125 20C1.125 18.136 2.63604 16.625 4.5 16.625C6.36396 16.625 7.875 18.136 7.875 20C7.875 21.864 6.36396 23.375 4.5 23.375C2.63604 23.375 1.125 21.864 1.125 20Z" fill="#1335AF"/>
<path fill-rule="evenodd" clip-rule="evenodd" d="M12.5 18.375C11.6025 18.375 10.875 19.1025 10.875 20C10.875 20.8975 11.6025 21.625 12.5 21.625C13.3975 21.625 14.125 20.8975 14.125 20C14.125 19.1025 13.3975 18.375 12.5 18.375ZM9.125 20C9.125 18.136 10.636 16.625 12.5 16.625C14.364 16.625 15.875 18.136 15.875 20C15.875 21.864 14.364 23.375 12.5 23.375C10.636 23.375 9.125 21.864 9.125 20Z" fill="#1335AF"/>
<path fill-rule="evenodd" clip-rule="evenodd" d="M20.5 18.375C19.6025 18.375 18.875 19.1025 18.875 20C18.875 20.8975 19.6025 21.625 20.5 21.625C21.3975 21.625 22.125 20.8975 22.125 20C22.125 19.1025 21.3975 18.375 20.5 18.375ZM17.125 20C17.125 18.136 18.636 16.625 20.5 16.625C22.364 16.625 23.875 18.136 23.875 20C23.875 21.864 22.364 23.375 20.5 23.375C18.636 23.375 17.125 21.864 17.125 20Z" fill="#1335AF"/>
</svg>
