<svg width="24" height="25" viewBox="0 0 24 25" fill="none" xmlns="http://www.w3.org/2000/svg">
<path fill-rule="evenodd" clip-rule="evenodd" d="M12.3256 10.3697C13.1811 10.521 13.8991 11.1936 14.0982 12.1184L14.1313 12.2724C14.878 15.7406 19.8123 15.7719 20.5909 12.3004L20.6311 12.1209C20.833 11.2208 21.5215 10.5613 22.3492 10.386V19.6653C22.3492 20.0875 22.1814 20.4925 21.8829 20.7911C21.5844 21.0896 21.1793 21.2574 20.7571 21.2574H8.01994L2 22.8496L6 18.0729V5.3358C6 4.91353 6.16775 4.50857 6.46632 4.20998C6.76491 3.9114 7.16987 3.74365 7.59214 3.74365L12.7955 3.74384C12.6456 3.80834 12.4881 3.85588 12.3256 3.88461C8.70754 4.52467 8.70762 9.72964 12.3256 10.3697Z" fill="#F9662D" fill-opacity="0.4"/>
<path d="M1.80873 23.3019C1.58471 23.3019 1.3767 23.2059 1.21669 23.0459C1.02468 22.8379 0.944675 22.5179 1.04068 22.2458L2.59277 17.5736V4.90081C2.59277 4.26078 2.84879 3.65274 3.29681 3.20471C3.74484 2.75669 4.35288 2.50067 4.99291 2.50067H12.1933C12.6414 2.50067 12.9934 2.85269 12.9934 3.30072C12.9934 3.74875 12.6414 4.10077 12.1933 4.10077H5.00891C4.8009 4.10077 4.59289 4.18077 4.44888 4.34078C4.30487 4.50079 4.20887 4.6928 4.20887 4.90081V17.7016C4.20887 17.7816 4.20887 17.8776 4.16087 17.9576L3.0248 21.3818L8.01709 20.1337C8.01709 20.1337 8.1451 20.1177 8.2091 20.1177H21.0099C21.2179 20.1177 21.4259 20.0377 21.5699 19.8777C21.7139 19.7177 21.8099 19.5257 21.8099 19.3177V10.5171C21.8099 10.0691 22.1619 9.7171 22.61 9.7171C23.058 9.7171 23.41 10.0691 23.41 10.5171V19.3177C23.41 19.9577 23.154 20.5657 22.706 21.0138C22.2579 21.4618 21.6339 21.7178 21.0099 21.7178H8.30511L2.00074 23.3019C2.00074 23.3019 1.87273 23.3179 1.80873 23.3179V23.3019Z" fill="#1335AF"/>
<path fill-rule="evenodd" clip-rule="evenodd" d="M17.3665 3.85845C16.774 5.34509 15.6088 6.5267 14.144 7.12702C15.6088 7.72734 16.774 8.90895 17.3665 10.3956C17.9653 8.907 19.1363 7.72598 20.6055 7.12702C19.1363 6.52805 17.9653 5.34704 17.3665 3.85845ZM12.9595 6.78397C12.9592 6.78392 12.9598 6.78402 12.9595 6.78397V6.78397ZM12.9598 7.47001C12.9597 7.47003 12.9599 7.46999 12.9598 7.47001V7.47001ZM16.019 2.38809C16.331 0.939797 18.3814 0.929622 18.7062 2.37634L18.7465 2.55593C19.121 4.22638 20.4419 5.49333 22.0831 5.78366C23.5774 6.04803 23.5774 8.20601 22.0831 8.47037C20.4419 8.76071 19.1211 10.0275 18.7465 11.698L18.7062 11.8776C18.3814 13.3243 16.331 13.3142 16.019 11.8659L15.9859 11.7118C15.9859 11.7118 15.9859 11.7119 15.9859 11.7118C15.6248 10.0351 14.3055 8.75863 12.6617 8.46783C11.1701 8.20396 11.1701 6.05008 12.6617 5.78621C14.3055 5.49541 15.6247 4.21922 15.9858 2.54246L16.019 2.38809Z" fill="#1335AF"/>
</svg>
