<svg width="24" height="25" viewBox="0 0 24 25" fill="none" xmlns="http://www.w3.org/2000/svg">
<path fill-rule="evenodd" clip-rule="evenodd" d="M19.9608 5.50049C20.8402 5.50049 21.553 6.21332 21.553 7.09263V8.79946C21.553 14.8129 17.7049 20.1517 12.0001 22.0533C6.29525 20.1517 2.44727 14.8129 2.44727 8.79946V7.09263C2.44727 6.21332 3.1601 5.50049 4.03941 5.50049H19.9608ZM14.3883 9.37997C14.3883 10.699 13.3191 11.7682 12.0001 11.7682C10.6811 11.7682 9.61191 10.699 9.61191 9.37997C9.61191 8.061 10.6811 6.99176 12.0001 6.99176C13.3191 6.99176 14.3883 8.061 14.3883 9.37997Z" fill="#F9662D" fill-opacity="0.4"/>
<path fill-rule="evenodd" clip-rule="evenodd" d="M1.5918 4.53979C1.5918 3.18828 2.68743 2.09265 4.03894 2.09265H19.9604C21.3119 2.09265 22.4075 3.18829 22.4075 4.53979V8.79948C22.4075 15.181 18.324 20.8465 12.27 22.8645C12.0945 22.923 11.9048 22.923 11.7293 22.8645C5.67528 20.8465 1.5918 15.181 1.5918 8.79948V4.53979ZM4.03894 3.80265C3.63183 3.80265 3.3018 4.13269 3.3018 4.53979V8.79948C3.3018 14.3494 6.79306 19.2872 11.9996 21.1489C17.2062 19.2872 20.6975 14.3494 20.6975 8.79948V4.53979C20.6975 4.13268 20.3675 3.80265 19.9604 3.80265H4.03894Z" fill="#1335AF"/>
<path fill-rule="evenodd" clip-rule="evenodd" d="M11.9995 10.9132C12.4717 10.9132 12.8545 11.296 12.8545 11.7682V15.7486C12.8545 16.2208 12.4717 16.6036 11.9995 16.6036C11.5273 16.6036 11.1445 16.2208 11.1445 15.7486V11.7682C11.1445 11.296 11.5273 10.9132 11.9995 10.9132Z" fill="#1335AF"/>
<path fill-rule="evenodd" clip-rule="evenodd" d="M8.75684 9.37999C8.75684 7.58881 10.2089 6.13678 12.0001 6.13678C13.7912 6.13678 15.2433 7.58881 15.2433 9.37999C15.2433 11.1712 13.7912 12.6232 12.0001 12.6232C10.2089 12.6232 8.75684 11.1712 8.75684 9.37999ZM12.0001 7.84678C11.1533 7.84678 10.4668 8.53322 10.4668 9.37999C10.4668 10.2268 11.1533 10.9132 12.0001 10.9132C12.8468 10.9132 13.5333 10.2268 13.5333 9.37999C13.5333 8.53322 12.8468 7.84678 12.0001 7.84678Z" fill="#1335AF"/>
</svg>
