<svg width="24" height="25" viewBox="0 0 24 25" fill="none" xmlns="http://www.w3.org/2000/svg">
<path d="M22.3473 4.50214H16.1013C15.931 4.488 15.7577 4.55375 15.6396 4.67727L3.34828 16.9686C3.22889 17.0881 3.13744 17.2304 3.07812 17.3852L8.19308 22.5001C8.41697 22.7238 8.72048 22.8493 9.03692 22.8493C9.35336 22.8493 9.65685 22.7238 9.88075 22.5001L11.1174 21.2635C11.0476 21.0401 11.001 20.8096 10.9776 20.5768C8.78304 19.061 9.23204 15.1784 12.3247 14.6313C13.1803 14.4799 13.8983 13.8074 14.0974 12.8826L14.1305 12.7286C14.8243 9.50592 19.1335 9.25076 20.365 12.0158L22.1721 10.2088C22.2957 10.0907 22.3614 9.91734 22.3473 9.74705V4.50214Z" fill="#F9662D" fill-opacity="0.4"/>
<path d="M17.4991 8.50037C16.6705 8.50037 15.999 7.82882 15.999 7.00037C15.999 6.17195 16.6705 5.50037 17.4991 5.50037C18.3273 5.50037 18.999 6.17195 18.999 7.00037C18.999 7.82882 18.3273 8.50037 17.4991 8.50037Z" fill="#1335AF"/>
<path fill-rule="evenodd" clip-rule="evenodd" d="M17.6184 14.8581C17.0259 16.3448 15.8607 17.5264 14.3959 18.1267C15.8607 18.727 17.0259 19.9087 17.6184 21.3953C18.2173 19.9067 19.3883 18.7257 20.8575 18.1267C19.3883 17.5277 18.2173 16.3467 17.6184 14.8581ZM16.2709 13.3879C16.5827 11.9396 18.6335 11.9292 18.9581 13.3762L18.9984 13.5557C18.9984 13.5557 18.9984 13.5557 18.9984 13.5557C19.3731 15.2262 20.6939 16.493 22.335 16.7834C23.8294 17.0477 23.8294 19.2057 22.335 19.4701C20.6939 19.7604 19.3731 21.0272 18.9984 22.6977L18.9581 22.8773C18.9581 22.8772 18.9581 22.8773 18.9581 22.8773C18.6335 24.3242 16.5827 24.3139 16.2709 22.8656C16.2709 22.8656 16.2709 22.8656 16.2709 22.8656L16.2378 22.7115C15.8768 21.0347 14.5575 19.7583 12.9136 19.4675C11.422 19.2037 11.422 17.0498 12.9136 16.7859C14.5575 16.4951 15.8768 15.2188 16.2378 13.5419L16.2709 13.3879C16.2709 13.3879 16.2709 13.3879 16.2709 13.3879Z" fill="#1335AF"/>
<path fill-rule="evenodd" clip-rule="evenodd" d="M14.9985 1.50215H22.6078C23.0498 1.50215 23.4081 1.86047 23.4081 2.30247V9.91193C23.4289 10.3064 23.2766 10.6966 22.9928 10.9725L21.4944 12.4707C21.1819 12.7833 20.6751 12.7832 20.3626 12.4707C20.0501 12.1581 20.0501 11.6514 20.3627 11.3388L21.8075 9.89418V3.1028H15.016L2.71769 15.4011C2.64274 15.4762 2.60065 15.5779 2.60065 15.6839C2.60065 15.7899 2.64266 15.8915 2.71746 15.9665C2.71739 15.9664 2.71754 15.9666 2.71746 15.9665L8.94339 22.1924C8.94329 22.1923 8.94348 22.1925 8.94339 22.1924C9.01846 22.2672 9.1204 22.3095 9.22628 22.3095C9.33233 22.3095 9.43409 22.2674 9.50915 22.1925L10.607 21.0947C10.9195 20.7821 11.4262 20.7822 11.7388 21.0947C12.0513 21.4073 12.0513 21.914 11.7388 22.2265L10.6405 23.3247C10.2654 23.6993 9.75652 23.9102 9.22628 23.9102C8.69604 23.9102 8.18758 23.6997 7.81248 23.3252L1.5855 17.0982C1.21082 16.723 1 16.2141 1 15.6839C1 15.1537 1.21046 14.6452 1.58513 14.27L13.9375 1.9176C14.2135 1.63361 14.6037 1.48122 14.9985 1.50215Z" fill="#1335AF"/>
</svg>
