<svg width="24" height="25" viewBox="0 0 24 25" fill="none" xmlns="http://www.w3.org/2000/svg">
<path fill-rule="evenodd" clip-rule="evenodd" d="M6.36816 4.53979C6.36816 3.18828 7.4638 2.09265 8.81531 2.09265H19.9603C21.3119 2.09265 22.4074 3.18829 22.4074 4.53979V20.4612C22.4074 21.8128 21.3119 22.9084 19.9603 22.9084H15.1839C14.7117 22.9084 14.3289 22.5256 14.3289 22.0534C14.3289 21.5812 14.7117 21.1984 15.1839 21.1984H19.9603C20.3674 21.1984 20.6974 20.8684 20.6974 20.4612V4.53979C20.6974 4.13268 20.3674 3.80265 19.9603 3.80265H8.81531C8.4082 3.80265 8.07816 4.13269 8.07816 4.53979V5.1866C8.07816 5.65881 7.69537 6.0416 7.22316 6.0416C6.75096 6.0416 6.36816 5.65881 6.36816 5.1866V4.53979Z" fill="#1335AF"/>
<path d="M12.0001 13.0926C12.0001 12.2133 11.2873 11.5005 10.408 11.5005H4.03941C3.1601 11.5005 2.44727 12.2133 2.44727 13.0926V20.4612C2.44727 21.3406 3.1601 22.0534 4.03941 22.0534H10.408C11.2873 22.0534 12.0001 21.3406 12.0001 20.4612V13.0926Z" fill="#F9662D" fill-opacity="0.4"/>
<path fill-rule="evenodd" clip-rule="evenodd" d="M1.5918 10.1123C1.5918 8.76079 2.68743 7.66516 4.03894 7.66516H10.4075C11.759 7.66516 12.8547 8.76079 12.8547 10.1123V20.4612C12.8547 21.8128 11.759 22.9084 10.4075 22.9084H4.03894C2.68744 22.9084 1.5918 21.8128 1.5918 20.4612V10.1123ZM4.03894 9.37516C3.63183 9.37516 3.3018 9.7052 3.3018 10.1123V20.4612C3.3018 20.8684 3.63182 21.1984 4.03894 21.1984H10.4075C10.8146 21.1984 11.1447 20.8684 11.1447 20.4612V10.1123C11.1447 9.7052 10.8146 9.37516 10.4075 9.37516H4.03894Z" fill="#1335AF"/>
<path fill-rule="evenodd" clip-rule="evenodd" d="M5.57227 18.8691C5.57227 18.3969 5.95506 18.0141 6.42727 18.0141H8.01941C8.49161 18.0141 8.87441 18.3969 8.87441 18.8691C8.87441 19.3413 8.49161 19.7241 8.01941 19.7241H6.42727C5.95506 19.7241 5.57227 19.3413 5.57227 18.8691Z" fill="#1335AF"/>
</svg>
