<svg width="24" height="25" viewBox="0 0 24 25" fill="none" xmlns="http://www.w3.org/2000/svg">
<path d="M11.9999 7.35664C13.2174 7.35664 14.2044 6.36966 14.2044 5.15214C14.2044 3.93462 13.2174 2.94763 11.9999 2.94763C10.7824 2.94763 9.79541 3.93462 9.79541 5.15214C9.79541 6.36966 10.7824 7.35664 11.9999 7.35664Z" fill="#F9662D" fill-opacity="0.4"/>
<path d="M4.65178 14.705C5.86929 14.705 6.85628 13.718 6.85628 12.5005C6.85628 11.2829 5.86929 10.296 4.65178 10.296C3.43425 10.296 2.44727 11.2829 2.44727 12.5005C2.44727 13.718 3.43425 14.705 4.65178 14.705Z" fill="#F9662D" fill-opacity="0.4"/>
<path d="M19.349 14.705C20.5665 14.705 21.5535 13.718 21.5535 12.5005C21.5535 11.2829 20.5665 10.296 19.349 10.296C18.1315 10.296 17.1445 11.2829 17.1445 12.5005C17.1445 13.718 18.1315 14.705 19.349 14.705Z" fill="#F9662D" fill-opacity="0.4"/>
<path d="M11.9999 22.0532C13.2174 22.0532 14.2044 21.0662 14.2044 19.8487C14.2044 18.6312 13.2174 17.6442 11.9999 17.6442C10.7824 17.6442 9.79541 18.6312 9.79541 19.8487C9.79541 21.0662 10.7824 22.0532 11.9999 22.0532Z" fill="#F9662D" fill-opacity="0.4"/>
<path d="M19.349 22.0532C20.5665 22.0532 21.5535 21.0662 21.5535 19.8487C21.5535 18.6312 20.5665 17.6442 19.349 17.6442C18.1315 17.6442 17.1445 18.6312 17.1445 19.8487C17.1445 21.0662 18.1315 22.0532 19.349 22.0532Z" fill="#F9662D" fill-opacity="0.4"/>
<path fill-rule="evenodd" clip-rule="evenodd" d="M8.94043 5.15216C8.94043 3.46243 10.3102 2.09265 11.9999 2.09265C13.6897 2.09265 15.0595 3.46243 15.0595 5.15216C15.0595 6.84189 13.6896 8.21166 11.9999 8.21166C10.3102 8.21166 8.94043 6.84189 8.94043 5.15216ZM11.9999 3.80265C11.2546 3.80265 10.6504 4.40684 10.6504 5.15216C10.6504 5.89746 11.2546 6.50166 11.9999 6.50166C12.7453 6.50166 13.3495 5.89746 13.3495 5.15216C13.3495 4.40684 12.7453 3.80265 11.9999 3.80265Z" fill="#1335AF"/>
<path fill-rule="evenodd" clip-rule="evenodd" d="M1.59229 12.5005C1.59229 10.8108 2.96207 9.44098 4.6518 9.44098C6.34151 9.44098 7.7113 10.8108 7.7113 12.5005C7.7113 14.1902 6.34152 15.56 4.6518 15.56C2.96206 15.56 1.59229 14.1902 1.59229 12.5005ZM4.6518 11.151C3.90647 11.151 3.30229 11.7552 3.30229 12.5005C3.30229 13.2458 3.90648 13.85 4.6518 13.85C5.3971 13.85 6.0013 13.2458 6.0013 12.5005C6.0013 11.7552 5.39711 11.151 4.6518 11.151Z" fill="#1335AF"/>
<path fill-rule="evenodd" clip-rule="evenodd" d="M16.2896 12.5005C16.2896 10.8108 17.6593 9.44098 19.349 9.44098C21.0388 9.44098 22.4085 10.8108 22.4085 12.5005C22.4085 14.1902 21.0388 15.56 19.349 15.56C17.6593 15.56 16.2896 14.1902 16.2896 12.5005ZM19.349 11.151C18.6037 11.151 17.9996 11.7552 17.9996 12.5005C17.9996 13.2458 18.6037 13.85 19.349 13.85C20.0943 13.85 20.6985 13.2458 20.6985 12.5005C20.6985 11.7552 20.0943 11.151 19.349 11.151Z" fill="#1335AF"/>
<path fill-rule="evenodd" clip-rule="evenodd" d="M1.59229 5.15216C1.59229 3.46243 2.96207 2.09265 4.6518 2.09265C6.34152 2.09265 7.7113 3.46244 7.7113 5.15216C7.7113 6.84188 6.34151 8.21166 4.6518 8.21166C2.96207 8.21166 1.59229 6.84188 1.59229 5.15216ZM4.6518 3.80265C3.90647 3.80265 3.30229 4.40684 3.30229 5.15216C3.30229 5.89747 3.90647 6.50166 4.6518 6.50166C5.39711 6.50166 6.0013 5.89747 6.0013 5.15216C6.0013 4.40684 5.3971 3.80265 4.6518 3.80265Z" fill="#1335AF"/>
<path fill-rule="evenodd" clip-rule="evenodd" d="M16.2896 5.15216C16.2896 3.46245 17.6593 2.09265 19.349 2.09265C21.0388 2.09265 22.4085 3.46245 22.4085 5.15216C22.4085 6.84187 21.0388 8.21166 19.349 8.21166C17.6593 8.21166 16.2896 6.84187 16.2896 5.15216ZM19.349 3.80265C18.6037 3.80265 17.9996 4.40683 17.9996 5.15216C17.9996 5.89748 18.6037 6.50166 19.349 6.50166C20.0943 6.50166 20.6985 5.89748 20.6985 5.15216C20.6985 4.40683 20.0943 3.80265 19.349 3.80265Z" fill="#1335AF"/>
<path fill-rule="evenodd" clip-rule="evenodd" d="M8.94043 12.5005C8.94043 10.8108 10.3102 9.44098 11.9999 9.44098C13.6896 9.44098 15.0595 10.8108 15.0595 12.5005C15.0595 14.1902 13.6897 15.56 11.9999 15.56C10.3102 15.56 8.94043 14.1902 8.94043 12.5005ZM11.9999 11.151C11.2546 11.151 10.6504 11.7552 10.6504 12.5005C10.6504 13.2458 11.2546 13.85 11.9999 13.85C12.7452 13.85 13.3495 13.2458 13.3495 12.5005C13.3495 11.7552 12.7453 11.151 11.9999 11.151Z" fill="#1335AF"/>
<path fill-rule="evenodd" clip-rule="evenodd" d="M1.59229 19.8487C1.59229 18.159 2.96208 16.7892 4.6518 16.7892C6.34151 16.7892 7.7113 18.159 7.7113 19.8487C7.7113 21.5385 6.34151 22.9082 4.6518 22.9082C2.96208 22.9082 1.59229 21.5385 1.59229 19.8487ZM4.6518 18.4992C3.90646 18.4992 3.30229 19.1034 3.30229 19.8487C3.30229 20.594 3.90646 21.1982 4.6518 21.1982C5.39711 21.1982 6.0013 20.594 6.0013 19.8487C6.0013 19.1034 5.39711 18.4992 4.6518 18.4992Z" fill="#1335AF"/>
<path fill-rule="evenodd" clip-rule="evenodd" d="M8.94043 19.8487C8.94043 18.159 10.3102 16.7892 11.9999 16.7892C13.6896 16.7892 15.0595 18.159 15.0595 19.8487C15.0595 21.5385 13.6896 22.9082 11.9999 22.9082C10.3102 22.9082 8.94043 21.5385 8.94043 19.8487ZM11.9999 18.4992C11.2546 18.4992 10.6504 19.1034 10.6504 19.8487C10.6504 20.594 11.2546 21.1982 11.9999 21.1982C12.7453 21.1982 13.3495 20.594 13.3495 19.8487C13.3495 19.1034 12.7453 18.4992 11.9999 18.4992Z" fill="#1335AF"/>
<path fill-rule="evenodd" clip-rule="evenodd" d="M16.2896 19.8487C16.2896 18.159 17.6593 16.7892 19.349 16.7892C21.0387 16.7892 22.4085 18.159 22.4085 19.8487C22.4085 21.5384 21.0387 22.9082 19.349 22.9082C17.6593 22.9082 16.2896 21.5384 16.2896 19.8487ZM19.349 18.4992C18.6037 18.4992 17.9996 19.1034 17.9996 19.8487C17.9996 20.594 18.6037 21.1982 19.349 21.1982C20.0943 21.1982 20.6985 20.594 20.6985 19.8487C20.6985 19.1034 20.0943 18.4992 19.349 18.4992Z" fill="#1335AF"/>
<path fill-rule="evenodd" clip-rule="evenodd" d="M5.6054 6.10559C5.9393 5.77169 6.48066 5.77169 6.81456 6.10559L11.0472 10.3382C11.3811 10.6721 11.3811 11.2135 11.0472 11.5474C10.7133 11.8813 10.172 11.8813 9.83805 11.5474L5.6054 7.31474C5.27151 6.98084 5.27151 6.43949 5.6054 6.10559Z" fill="#1335AF"/>
<path fill-rule="evenodd" clip-rule="evenodd" d="M11.0472 13.4539C11.3811 13.7877 11.3811 14.3291 11.0472 14.663L6.81456 18.8957C6.48066 19.2296 5.93931 19.2296 5.60541 18.8957C5.27151 18.5618 5.2715 18.0204 5.6054 17.6865L9.83805 13.4539C10.1719 13.12 10.7133 13.12 11.0472 13.4539Z" fill="#1335AF"/>
<path fill-rule="evenodd" clip-rule="evenodd" d="M18.3954 6.10559C18.7293 6.43949 18.7293 6.98085 18.3954 7.31474L14.1627 11.5474C13.8288 11.8813 13.2874 11.8813 12.9535 11.5474C12.6196 11.2135 12.6197 10.6721 12.9536 10.3382L17.1862 6.10559C17.5201 5.77169 18.0615 5.77169 18.3954 6.10559Z" fill="#1335AF"/>
</svg>
