<svg width="48" height="49" viewBox="0 0 48 49" fill="none" xmlns="http://www.w3.org/2000/svg">
<path fill-rule="evenodd" clip-rule="evenodd" d="M12.8445 8.96316C11.9075 10.8629 10.3841 12.4068 8.50946 13.3554C10.3841 14.3039 11.9075 15.8479 12.8445 17.7476C13.7893 15.846 15.3198 14.3025 17.2001 13.3553C15.3198 12.4082 13.7893 10.8647 12.8445 8.96316ZM19.8536 14.2369C19.8528 14.2368 19.852 14.2366 19.8512 14.2365L19.8536 14.2369ZM19.8536 12.4738C19.8536 12.4738 19.8536 12.4738 19.8536 12.4738V12.4738ZM5.85167 12.4697C5.85247 12.4698 5.85326 12.47 5.85405 12.4701L5.85167 12.4697ZM10.3529 5.70122C10.9289 3.0257 14.7207 3.00646 15.3204 5.67959L15.3848 5.96684C15.3848 5.96682 15.3848 5.96685 15.3848 5.96684C15.9548 8.50781 17.9621 10.4292 20.4493 10.8692C23.2169 11.3588 23.2169 15.3519 20.4493 15.8415C17.9621 16.2815 15.9548 18.2028 15.3848 20.7438C15.3848 20.7438 15.3848 20.7438 15.3848 20.7438L15.3204 21.031C14.7207 23.7042 10.9289 23.685 10.3529 21.0095L10.2998 20.763C10.2998 20.763 10.2998 20.763 10.2998 20.763C9.75088 18.2131 7.74648 16.278 5.25591 15.8374C2.49283 15.3486 2.4928 11.3621 5.25593 10.8733C7.74651 10.4327 9.75087 8.49763 10.2998 5.94774C10.2998 5.94776 10.2998 5.94773 10.2998 5.94774L10.3529 5.70122Z" fill="#1335AF"/>
<path d="M28.0993 39.87C26.6179 36.7681 24.317 34.2061 21.5 32.5064C25.4588 30.8208 28.4434 27.9528 29.6702 24.5003C30.876 27.8431 33.7225 30.634 37.5 32.3363C33.7683 34.4734 30.8936 38.0982 29.5503 42.5003C29.1886 41.5753 28.6997 40.6946 28.0993 39.87Z" fill="#F9662D" fill-opacity="0.4"/>
<path fill-rule="evenodd" clip-rule="evenodd" d="M29.549 19.2484C28.1252 24.5125 24.069 28.6266 18.8948 30.0729C24.069 31.5191 28.1252 35.6333 29.549 40.8973C30.997 35.6234 35.0757 31.5121 40.2659 30.0728C35.0757 28.6337 30.997 24.5224 29.549 19.2484ZM26.4891 17.3128C27.1984 14.018 31.8575 13.9949 32.5957 17.2861L32.7052 17.7744C33.7776 22.5556 37.561 26.1913 42.2743 27.0251C45.6612 27.6243 45.6615 32.5214 42.2742 33.1206C37.5609 33.9544 33.7776 37.5902 32.7052 42.3713L32.5957 42.8596C31.8575 46.1504 27.1984 46.1279 26.4891 42.833L26.3989 42.4139C25.3654 37.6133 21.5855 33.9492 16.8626 33.1137C13.4834 32.5159 13.4832 27.6298 16.8626 27.032C21.5856 26.1965 25.3654 22.5325 26.3989 17.7318L26.4891 17.3128C26.4891 17.3127 26.4891 17.3128 26.4891 17.3128Z" fill="#1335AF"/>
</svg>
