<svg width="24" height="23" viewBox="0 0 24 23" fill="none" xmlns="http://www.w3.org/2000/svg">
<g id="Ai-Upscale-Spark--Streamline-Core">
<path id="Subtract" fill-rule="evenodd" clip-rule="evenodd" d="M11.2035 20.2574C15.9081 20.2574 19.8184 16.8566 20.61 12.3792C19.8184 7.90173 15.9081 4.50085 11.2035 4.50085C6.49884 4.50085 2.58855 7.90173 1.79688 12.3792C2.58855 16.8566 6.49884 20.2574 11.2035 20.2574ZM6.45842 10.1858C5.88625 10.287 5.88625 11.1222 6.45842 11.2234C8.53133 11.5902 10.18 13.1957 10.6299 15.2857L10.6644 15.4459C10.7882 16.0209 11.5934 16.0245 11.7221 15.4506L11.764 15.2639C12.2306 13.1837 13.8798 11.5918 15.9469 11.2261C16.522 11.1244 16.522 10.2849 15.9469 10.1831C13.8798 9.81744 12.2306 8.22551 11.764 6.14535L11.7222 5.95866C11.5934 5.38476 10.7882 5.38832 10.6644 5.96336L10.6299 6.12356C10.18 8.21358 8.53133 9.81907 6.45842 10.1858Z" fill="#F9662D" fill-opacity="0.4"/>
<path id="Vector_2 (Stroke)" fill-rule="evenodd" clip-rule="evenodd" d="M0.795898 10.7044C0.795898 4.95632 5.45565 0.29657 11.2038 0.29657C16.9519 0.29657 21.6116 4.95632 21.6116 10.7044C21.6116 16.4525 16.9519 21.1123 11.2038 21.1123C5.45565 21.1123 0.795898 16.4525 0.795898 10.7044ZM11.2038 2.00657C6.40006 2.00657 2.5059 5.90073 2.5059 10.7044C2.5059 15.5081 6.40006 19.4023 11.2038 19.4023C16.0075 19.4023 19.9016 15.5081 19.9016 10.7044C19.9016 5.90073 16.0075 2.00657 11.2038 2.00657Z" fill="#1335AF"/>
<path id="Vector_3 (Stroke)" fill-rule="evenodd" clip-rule="evenodd" d="M17.35 16.8508C17.6839 16.5169 18.2253 16.5169 18.5592 16.8508L22.9535 21.2451C23.2874 21.579 23.2874 22.1204 22.9535 22.4543C22.6196 22.7882 22.0782 22.7882 21.7443 22.4543L17.35 18.06C17.0161 17.7261 17.0161 17.1847 17.35 16.8508Z" fill="#1335AF"/>
<path id="Vector 2138 (Stroke)" fill-rule="evenodd" clip-rule="evenodd" d="M10.8235 7.06253C10.231 8.54918 9.0658 9.7308 7.60103 10.3311C9.0658 10.9314 10.231 12.1131 10.8235 13.5997C11.4224 12.1111 12.5934 10.9301 14.0625 10.3311C12.5934 9.73215 11.4224 8.55112 10.8235 7.06253ZM9.47602 5.59227C9.78781 4.14398 11.8386 4.13357 12.1632 5.58058L12.2034 5.76009C12.2034 5.76009 12.2034 5.76009 12.2034 5.76009C12.5781 7.4306 13.899 8.69743 15.5401 8.98776C17.0345 9.25212 17.0345 11.4101 15.5401 11.6745C13.8989 11.9648 12.5781 13.2316 12.2034 14.9022L12.1632 15.0817C12.1632 15.0817 12.1632 15.0817 12.1632 15.0817C11.8386 16.5287 9.78782 16.5183 9.47602 15.07C9.47602 15.07 9.47602 15.07 9.47602 15.07L9.44286 14.9159C9.08187 13.2391 7.76261 11.9627 6.11869 11.6719C4.62711 11.4081 4.6271 9.25418 6.11868 8.99031C7.76261 8.6995 9.08187 7.42319 9.44285 5.74633L9.47602 5.59227C9.47602 5.59226 9.47602 5.59227 9.47602 5.59227Z" fill="#1335AF"/>
</g>
</svg>
