<svg width="24" height="25" viewBox="0 0 24 25" fill="none" xmlns="http://www.w3.org/2000/svg">
<path fill-rule="evenodd" clip-rule="evenodd" d="M4.83496 6.52995C4.83496 6.10768 5.00271 5.70272 5.30128 5.40413C5.59987 5.10555 6.00484 4.93781 6.4271 4.93781H16.776L22.3485 10.5103V21.2573C22.3485 21.6795 22.1807 22.0846 21.8822 22.3831C21.5837 22.6816 21.1786 22.8494 20.7564 22.8494H12.2908C13.3529 21.5472 13.9898 19.8845 13.9898 18.073C13.9898 13.8962 10.6039 10.5103 6.4271 10.5103C5.88094 10.5103 5.34828 10.5682 4.83496 10.6782V6.52995Z" fill="#F9662D" fill-opacity="0.4"/>
<path fill-rule="evenodd" clip-rule="evenodd" d="M6.42761 3.00657C6.23212 3.00657 6.04463 3.08422 5.90638 3.22246C5.90637 3.22247 5.90637 3.22247 5.90636 3.22248M5.90636 3.22248C5.76813 3.36073 5.69047 3.54822 5.69047 3.74371V10.1123C5.69047 10.5845 5.30767 10.9673 4.83547 10.9673C4.36327 10.9673 3.98047 10.5845 3.98047 10.1123V3.74371C3.98047 3.09468 4.2383 2.47225 4.6972 2.01333L4.69722 2.01331C5.15615 1.5544 5.77858 1.29657 6.42761 1.29657H16.7765C17.0033 1.29657 17.2208 1.38665 17.3811 1.54699L22.9536 7.11949C23.114 7.27984 23.204 7.49731 23.204 7.72407V21.2573C23.204 21.9063 22.9461 22.5288 22.4873 22.9877C22.0284 23.4465 21.4059 23.7044 20.7569 23.7044H12.7962C12.324 23.7044 11.9412 23.3216 11.9412 22.8494C11.9412 22.3772 12.324 21.9944 12.7962 21.9944H20.7569C20.9523 21.9944 21.1399 21.9167 21.2781 21.7785C21.4163 21.6403 21.494 21.4527 21.494 21.2573V8.07822L16.4224 3.00657H6.42761" fill="#1335AF"/>
<path fill-rule="evenodd" clip-rule="evenodd" d="M0.795898 18.073C0.795898 14.9629 3.31718 12.4416 6.42733 12.4416C9.53747 12.4416 12.0588 14.9629 12.0588 18.073C12.0588 21.1833 9.53746 23.7044 6.42733 23.7044C3.31719 23.7044 0.795898 21.1833 0.795898 18.073ZM6.42733 14.1516C4.26159 14.1516 2.5059 15.9073 2.5059 18.073C2.5059 20.2388 4.26158 21.9944 6.42733 21.9944C8.59307 21.9944 10.3488 20.2388 10.3488 18.073C10.3488 15.9073 8.59307 14.1516 6.42733 14.1516Z" fill="#1335AF"/>
<path fill-rule="evenodd" clip-rule="evenodd" d="M8.22595 16.2743C8.55985 16.6082 8.55985 17.1495 8.22595 17.4834L7.03184 18.6775C6.69794 19.0114 6.15659 19.0114 5.82269 18.6775C5.48879 18.3437 5.48879 17.8023 5.82269 17.4684L7.0168 16.2743C7.35069 15.9404 7.89205 15.9404 8.22595 16.2743Z" fill="#1335AF"/>
</svg>
