<svg width="24" height="25" viewBox="0 0 24 25" fill="none" xmlns="http://www.w3.org/2000/svg">
<path d="M7.5 22.6884L12.0063 22.4359L21.8776 12.5009C22.0268 12.3529 22.1452 12.1768 22.2261 11.9828C22.2673 11.884 22.2983 11.7815 22.3188 11.6769L20.8556 10.2021C20.7073 10.0505 20.5303 9.93 20.3348 9.84773C20.1393 9.76547 19.9293 9.72308 19.7172 9.72308C19.5051 9.72308 19.2951 9.76547 19.0996 9.84773C18.9042 9.93 18.727 10.0505 18.5788 10.2021L7.5625 20.7509L7.5 22.6884Z" fill="#F9662D" fill-opacity="0.4"/>
<path fill-rule="evenodd" clip-rule="evenodd" d="M18.4315 8.63531C18.522 8.59727 18.6192 8.57768 18.7173 8.57768L18.4315 8.63531ZM17.7681 7.05925C18.0686 6.93282 18.3913 6.86768 18.7173 6.86768C19.0433 6.86768 19.366 6.93282 19.6665 7.05925C19.9659 7.18524 20.2373 7.36959 20.4647 7.6016L22.4825 9.6353C22.7105 9.8622 22.8916 10.1318 23.0154 10.4288C23.1398 10.7273 23.2037 11.0472 23.2037 11.3701C23.2037 11.693 23.1398 12.0129 23.0154 12.3114C22.8916 12.6084 22.7104 12.8782 22.4823 13.1051L12.613 23.0381C12.4704 23.1816 12.2817 23.2698 12.0803 23.2873L7.30383 23.7013C7.05228 23.7231 6.80396 23.6326 6.62543 23.454C6.44689 23.2755 6.3564 23.0272 6.3782 22.7756L6.79215 17.9992C6.80961 17.7978 6.8979 17.609 7.04133 17.4665L16.9723 7.59912C17.1994 7.36814 17.4702 7.18468 17.7681 7.05925ZM18.7173 8.57768C18.8155 8.57768 18.9127 8.5973 19.0033 8.6354L18.7173 8.57768ZM19.0033 8.6354C19.0938 8.67349 19.1757 8.72923 19.2442 8.79936L19.0033 8.6354ZM18.4315 8.63531C18.3409 8.6735 18.2587 8.72943 18.1904 8.79936L18.1816 8.8083L8.46873 18.4588L8.16964 21.9098L11.6206 21.6107L21.2755 11.8935C21.3446 11.8249 21.3996 11.7434 21.437 11.6534C21.4744 11.5638 21.4937 11.4676 21.4937 11.3701C21.4937 11.2726 21.4744 11.1763 21.437 11.0868C21.3996 10.9968 21.3446 10.9152 21.2755 10.8466L21.2707 10.8419L19.2442 8.79936" fill="#1335AF"/>
<path fill-rule="evenodd" clip-rule="evenodd" d="M6.61937 3.85843C6.0269 5.34508 4.8617 6.5267 3.39693 7.12702C4.8617 7.72734 6.02691 8.90896 6.61937 10.3956C7.21827 8.90703 8.38926 7.72599 9.85843 7.12702C8.38926 6.52805 7.21827 5.34701 6.61937 3.85843ZM5.27192 2.38817C5.58371 0.939883 7.63451 0.929464 7.95907 2.37648L7.99933 2.55599C7.99933 2.55599 7.99933 2.55599 7.99933 2.55599C8.37403 4.2265 9.69485 5.49333 11.336 5.78366C12.8304 6.04802 12.8304 8.20602 11.336 8.47038C9.69485 8.7607 8.37403 10.0275 7.99933 11.698L7.95907 11.8776C7.95907 11.8776 7.95907 11.8776 7.95907 11.8776C7.63451 13.3245 5.58372 13.3142 5.27192 11.8659C5.27192 11.8659 5.27192 11.8659 5.27192 11.8659L5.23876 11.7118C4.87777 10.035 3.55851 8.75864 1.91458 8.46783C0.423007 8.20396 0.422999 6.05008 1.91458 5.78621C3.55851 5.49539 4.87777 4.21909 5.23875 2.54223L5.27192 2.38817C5.27192 2.38816 5.27192 2.38817 5.27192 2.38817Z" fill="#1335AF"/>
</svg>
