<svg width="25" height="24" viewBox="0 0 25 24" fill="none" xmlns="http://www.w3.org/2000/svg">
<path d="M19.8887 9.69856H5.11206L11.9713 5.14606C12.1317 5.05045 12.3144 5.00003 12.5004 5.00003C12.6865 5.00003 12.8691 5.05045 13.0295 5.14606L19.8887 9.69856Z" fill="#F9662D" fill-opacity="0.4"/>
<path d="M21.6562 19.4063H3.19465C2.76982 19.4063 2.5 19.2687 2.5 19.6V21.4C2.5 21.7314 2.8444 22 3.26923 22H21.7308C22.1557 22 22.5 21.7314 22.5 21.4V19.6C22.5 19.2687 22.0811 19.4063 21.6562 19.4063Z" fill="#F9662D" fill-opacity="0.4"/>
<path fill-rule="evenodd" clip-rule="evenodd" d="M2.09216 18.5359C2.09216 17.6683 2.78312 16.9267 3.682 16.9267H21.3181C22.2171 16.9267 22.9079 17.6684 22.9079 18.5359V20.7987C22.9079 21.6662 22.2171 22.4079 21.3181 22.4079H3.682C2.78312 22.4079 2.09216 21.6663 2.09216 20.7987V18.5359ZM3.80216 18.6367V20.6979H21.1979V18.6367H3.80216Z" fill="#1335AF"/>
<path fill-rule="evenodd" clip-rule="evenodd" d="M5.15151 8.84357C5.62371 8.84357 6.00651 9.22636 6.00651 9.69857V17.7817C6.00651 18.2539 5.62371 18.6367 5.15151 18.6367C4.67931 18.6367 4.29651 18.2539 4.29651 17.7817V9.69857C4.29651 9.22636 4.67931 8.84357 5.15151 8.84357Z" fill="#1335AF"/>
<path fill-rule="evenodd" clip-rule="evenodd" d="M10.0504 8.84357C10.5226 8.84357 10.9054 9.22636 10.9054 9.69857V17.7817C10.9054 18.2539 10.5226 18.6367 10.0504 18.6367C9.57823 18.6367 9.19543 18.2539 9.19543 17.7817V9.69857C9.19543 9.22636 9.57823 8.84357 10.0504 8.84357Z" fill="#1335AF"/>
<path fill-rule="evenodd" clip-rule="evenodd" d="M14.9496 8.84357C15.4218 8.84357 15.8046 9.22636 15.8046 9.69857V17.7817C15.8046 18.2539 15.4218 18.6367 14.9496 18.6367C14.4774 18.6367 14.0946 18.2539 14.0946 17.7817V9.69857C14.0946 9.22636 14.4774 8.84357 14.9496 8.84357Z" fill="#1335AF"/>
<path fill-rule="evenodd" clip-rule="evenodd" d="M19.8485 8.84357C20.3207 8.84357 20.7035 9.22636 20.7035 9.69857V17.7817C20.7035 18.2539 20.3207 18.6367 19.8485 18.6367C19.3763 18.6367 18.9935 18.2539 18.9935 17.7817V9.69857C18.9935 9.22636 19.3763 8.84357 19.8485 8.84357Z" fill="#1335AF"/>
<path fill-rule="evenodd" clip-rule="evenodd" d="M12.4199 3.32163L4.10005 8.84353H20.9008L12.5809 3.32164C12.5554 3.30863 12.5279 3.30215 12.5004 3.30215C12.473 3.30215 12.4455 3.30863 12.4199 3.32163ZM21.2357 8.8365C21.2364 8.83607 21.2367 8.83591 21.2367 8.83593L21.2357 8.8365ZM11.5335 1.8588C11.8258 1.68455 12.1596 1.59215 12.5004 1.59215C12.8412 1.59215 13.1751 1.68454 13.4674 1.8588C13.4792 1.86585 13.4909 1.87319 13.5023 1.8808L22.1901 7.64692C22.8535 8.09008 23.0521 8.8537 22.7979 9.50226C22.5527 10.1278 21.931 10.5535 21.1861 10.5535H3.81468C3.06987 10.5535 2.44822 10.1278 2.203 9.50228C1.94877 8.85379 2.14723 8.09015 2.81067 7.64695L2.8128 7.64552L11.4986 1.8808C11.51 1.87319 11.5217 1.86585 11.5335 1.8588Z" fill="#1335AF"/>
</svg>
