<svg width="40" height="46" viewBox="0 0 40 46" fill="none" xmlns="http://www.w3.org/2000/svg">
<g id="flash-2--flash-power-connect-charge-electricity-lightning">
<path id="Intersect" d="M16.8169 27.7764H7.92969L23.1855 9V24.9214H32.0728L16.8169 43.6978V27.7764Z" fill="#F9662D" fill-opacity="0.4"/>
<path id="Vector_2 (Stroke)" fill-rule="evenodd" clip-rule="evenodd" d="M23.7573 0.690685C24.4395 0.932867 24.8952 1.57829 24.8952 2.30213V16.5136H37.5145C38.1742 16.5136 38.775 16.893 39.0585 17.4887C39.342 18.0843 39.2576 18.7899 38.8417 19.3019L18.1438 44.7762C17.6874 45.3379 16.9266 45.5515 16.2445 45.3093C15.5624 45.0671 15.1066 44.4217 15.1066 43.6978V29.4864H2.48736C1.82769 29.4864 1.22685 29.107 0.943338 28.5113C0.65983 27.9157 0.744222 27.2101 1.16021 26.6981L21.8581 1.22382C22.3145 0.662039 23.0752 0.448504 23.7573 0.690685ZM6.08002 26.0664H16.8166C17.7611 26.0664 18.5266 26.832 18.5266 27.7764V38.8815L33.9218 19.9336H23.1852C22.2408 19.9336 21.4752 19.168 21.4752 18.2236V7.11848L6.08002 26.0664Z" fill="#1335AF"/>
</g>
</svg>
