<svg width="32" height="32" viewBox="0 0 32 32" fill="none" xmlns="http://www.w3.org/2000/svg">
<path fill-rule="evenodd" clip-rule="evenodd" d="M7.05217 8.24004C9.24035 7.54295 11.5744 7.75758 13.9051 9.34781C14.4252 9.70266 14.5591 10.4119 14.2043 10.932C13.8494 11.4521 13.1402 11.586 12.6201 11.2312C10.8749 10.0405 9.27106 9.92607 7.74424 10.4125C6.5067 10.8067 5.27374 11.613 4.06488 12.6916L9.83865 16.1698C10.378 16.4947 10.5518 17.1953 10.2269 17.7346C9.90201 18.2739 9.20145 18.4477 8.66214 18.1228L1.61425 13.8771C1.31611 13.6975 1.11636 13.3915 1.07186 13.0463C1.02737 12.7011 1.14302 12.3545 1.38587 12.1052C3.03068 10.4165 4.93379 8.91489 7.05217 8.24004Z" fill="white"/>
<path fill-rule="evenodd" clip-rule="evenodd" d="M21.0693 17.7968C21.5894 17.442 22.2987 17.5759 22.6535 18.096C24.2438 20.4267 24.4584 22.7608 23.7613 24.949C23.0865 27.0673 21.5848 28.9705 19.8962 30.6153C19.6468 30.8581 19.3002 30.9738 18.955 30.9293C18.6098 30.8848 18.3038 30.685 18.1242 30.3869L13.8785 23.339C13.5536 22.7997 13.7275 22.0991 14.2668 21.7742C14.8061 21.4494 15.5066 21.6232 15.8315 22.1625L19.3097 27.9363C20.3884 26.7274 21.1946 25.4944 21.5889 24.2569C22.0753 22.7301 21.9609 21.1262 20.7702 19.381C20.4153 18.8609 20.5493 18.1517 21.0693 17.7968Z" fill="white"/>
<path d="M29.6955 9.21176C29.4419 11.1154 28.6593 13.1922 26.828 15.0236C25.4005 16.5028 22.9342 18.0535 20.2045 19.6513L13.5195 12.9663C14.7062 11.0427 15.8645 9.37534 16.9779 8.30103C22.0303 3.24863 28.9508 6.17818 28.9508 6.17818C28.9508 6.17818 29.4719 7.40914 29.6955 9.21176Z" fill="#F9662D" fill-opacity="0.4"/>
<path fill-rule="evenodd" clip-rule="evenodd" d="M29.3929 2.00029C29.3934 2.00051 29.3939 2.00071 28.9495 3.05052C29.9993 2.60612 29.9995 2.6066 29.9997 2.60711L30.0002 2.60825L30.0014 2.61103L30.0045 2.61849L30.0137 2.64101C30.0212 2.65936 30.0312 2.68436 30.0434 2.71573C30.0679 2.77845 30.1012 2.86677 30.1406 2.97851C30.2193 3.20179 30.323 3.51972 30.4292 3.91475C30.641 4.70239 30.8669 5.81006 30.9217 7.0937C31.0314 9.66385 30.4523 13.0052 27.6399 15.8223C26.3584 17.1478 24.3821 18.4692 22.2534 19.7586C21.1743 20.4123 20.0293 21.0731 18.8816 21.7341L18.7129 21.8312C17.6175 22.4621 16.5214 23.0933 15.4608 23.7286C15.0123 23.9973 14.4386 23.9265 14.0689 23.5568L8.44329 17.9312C8.07403 17.5619 8.00289 16.9889 8.27063 16.5406C8.85791 15.5571 9.47408 14.487 10.0914 13.4149C10.819 12.1513 11.5483 10.8849 12.2337 9.75421C13.5258 7.62274 14.8524 5.64142 16.1777 4.36012C18.9948 1.54768 22.3362 0.9686 24.9063 1.07834C26.19 1.13315 27.2976 1.35903 28.0853 1.57084C28.4803 1.67707 28.7982 1.78068 29.0215 1.85945C29.1332 1.89886 29.2216 1.93216 29.2843 1.95659C29.3157 1.96881 29.3407 1.97882 29.359 1.98629L29.3815 1.99553L29.389 1.99865L29.3918 1.99981L29.3929 2.00029ZM28.9495 3.05052L29.9993 2.60612C29.8838 2.33332 29.6667 2.11619 29.3939 2.00071L28.9495 3.05052ZM28.0595 3.94055C27.9053 3.89023 27.7149 3.83224 27.4932 3.77262C26.8253 3.59302 25.8871 3.40229 24.8091 3.35626C22.6581 3.26442 20.0165 3.74569 17.7827 5.97948L17.7682 5.99374C16.6758 7.04781 15.4788 8.79933 14.1834 10.9362C13.4766 12.1021 12.7944 13.2885 12.0994 14.4971C11.636 15.303 11.167 16.1187 10.6813 16.9447L15.0546 21.3181C15.8889 20.8265 16.7355 20.3389 17.57 19.8584L17.7437 19.7583C18.894 19.0958 20.0178 18.4471 21.0722 17.8085C23.2065 16.5156 24.9524 15.324 26.0063 14.2318L26.0205 14.2173C28.2543 11.9835 28.7356 9.34197 28.6438 7.19096C28.5977 6.11292 28.407 5.17468 28.2274 4.50684C28.1678 4.28511 28.1098 4.09469 28.0595 3.94055ZM28.5074 4.10131C28.5078 4.10149 28.5079 4.1015 28.5075 4.10134L28.5074 4.10131Z" fill="white"/>
<path fill-rule="evenodd" clip-rule="evenodd" d="M11.5409 10.9906C11.9861 10.5454 12.7079 10.5454 13.1531 10.9906L21.0077 18.8452C21.4529 19.2904 21.4529 20.0122 21.0077 20.4574C20.5625 20.9026 19.8407 20.9026 19.3955 20.4574L11.5409 12.6028C11.0957 12.1576 11.0957 11.4358 11.5409 10.9906Z" fill="white"/>
<path d="M23.4286 9.6314C24.0147 9.6314 24.49 9.15618 24.49 8.56997C24.49 7.98377 24.0147 7.50854 23.4286 7.50854C22.8425 7.50854 22.3672 7.98377 22.3672 8.56997C22.3672 9.15618 22.8425 9.6314 23.4286 9.6314Z" stroke="white" stroke-width="1.71" stroke-linecap="round" stroke-linejoin="round"/>
<path d="M7.5512 28.3337C5.48422 29.1676 2.20312 29.7985 2.20312 29.7985C2.20312 29.7985 2.91212 26.1118 3.82019 24.0924C4.05053 24.0357 4.28706 24.0047 4.52541 24.0005C4.95298 23.993 5.37767 24.0716 5.77418 24.2318C6.17067 24.3919 6.53085 24.6303 6.83323 24.9326C7.13559 25.2351 7.37397 25.5951 7.53414 25.9917C7.69429 26.3882 7.77294 26.8128 7.76538 27.2406C7.75878 27.6151 7.68614 27.9851 7.5512 28.3337Z" fill="#F9662D" fill-opacity="0.4"/>
<path d="M2.13809 31.057C1.84476 31.057 1.55143 30.937 1.33809 30.7237C1.07143 30.457 0.951425 30.0703 1.01809 29.697C1.27143 28.3237 2.24476 23.737 3.56476 22.3637C3.95143 21.9503 4.41809 21.617 4.95143 21.377C5.48476 21.137 6.04476 21.0037 6.63143 21.0037C7.23143 20.977 7.79143 21.097 8.32476 21.3237C8.87143 21.537 9.35143 21.857 9.76476 22.2703C10.1781 22.6837 10.4981 23.1637 10.7114 23.7103C10.9248 24.257 11.0314 24.8303 11.0314 25.4037C11.0314 25.9903 10.8981 26.5503 10.6581 27.0837C10.4181 27.617 10.0848 28.0837 9.65809 28.4837C8.28476 29.8037 3.71143 30.7637 2.33809 31.0303C2.27143 31.0303 2.19143 31.057 2.12476 31.057H2.13809ZM6.71143 23.2837H6.67143C6.39143 23.2837 6.12476 23.3503 5.87143 23.457C5.61809 23.5637 5.39143 23.7237 5.20476 23.937C4.73809 24.417 4.09809 26.3903 3.60476 28.417C5.63143 27.937 7.60476 27.297 8.07143 26.8303C8.07143 26.8303 8.07143 26.8303 8.08476 26.817C8.28476 26.6303 8.44476 26.4037 8.56476 26.1503C8.67143 25.897 8.73809 25.6303 8.73809 25.3503C8.73809 25.0703 8.69809 24.8037 8.59142 24.5503C8.48476 24.297 8.33809 24.0703 8.13809 23.8703C7.93809 23.6703 7.71143 23.5237 7.45809 23.417C7.21809 23.3237 6.95143 23.2703 6.69809 23.2703L6.71143 23.2837Z" fill="white"/>
</svg>
