<svg width="46" height="40" viewBox="0 0 46 40" fill="none" xmlns="http://www.w3.org/2000/svg">
<path fill-rule="evenodd" clip-rule="evenodd" d="M0.589844 33.7059C0.589844 30.6584 3.06032 28.1875 6.10806 28.1875C9.1558 28.1875 11.6263 30.6584 11.6263 33.7059C11.6263 36.7536 9.15561 39.224 6.10806 39.224C3.06051 39.224 0.589844 36.7536 0.589844 33.7059ZM6.10806 31.6075C4.94936 31.6075 4.00984 32.547 4.00984 33.7059C4.00984 34.8646 4.94917 35.804 6.10806 35.804C7.26695 35.804 8.20627 34.8646 8.20627 33.7059C8.20627 32.547 7.26676 31.6075 6.10806 31.6075Z" fill="#1335AF"/>
<path d="M12.5087 26.0717C12.5087 26.0717 15.1298 30.594 22.9978 30.594C30.8658 30.594 33.5051 26.0717 33.5051 26.0717L33.5032 15.8706H12.4883L12.5087 26.0717Z" fill="#F9662D" fill-opacity="0.4"/>
<path d="M23.0625 7.87549L37.75 13.688L23 20.4227L8.4375 13.7505L23.0625 7.87549Z" fill="#F9662D" fill-opacity="0.4"/>
<path fill-rule="evenodd" clip-rule="evenodd" d="M22.3198 0.917801C22.7536 0.729874 23.2457 0.729874 23.6795 0.917801L44.3773 9.88564C45.0027 10.1566 45.4075 10.7731 45.4075 11.4547C45.4075 12.1363 45.0027 12.7528 44.3773 13.0237L23.6795 21.9916C23.2457 22.1796 22.7536 22.1796 22.3198 21.9916L1.62196 13.0237C0.99656 12.7528 0.591796 12.1363 0.591797 11.4547C0.591797 10.7731 0.996562 10.1566 1.62197 9.88564L22.3198 0.917801ZM6.60301 11.4547L22.9997 18.559L39.3963 11.4547L22.9997 4.35046L6.60301 11.4547Z" fill="#1335AF"/>
<path fill-rule="evenodd" clip-rule="evenodd" d="M12.4859 14.1606C13.4303 14.1588 14.1974 14.9228 14.1993 15.8672L14.2186 25.5211C14.2527 25.5629 14.2907 25.6082 14.3325 25.6563C14.619 25.9858 15.0874 26.4512 15.7748 26.9254C17.1318 27.8615 19.4162 28.8841 22.9988 28.8841C26.5816 28.8841 28.8713 27.8615 30.2338 26.9241C30.9238 26.4494 31.3947 25.9834 31.683 25.6534C31.7245 25.6059 31.7621 25.5613 31.7961 25.5199L31.7942 15.871C31.7941 14.9266 32.5595 14.1608 33.5039 14.1606C34.4483 14.1605 35.2141 14.9259 35.2142 15.8703L35.2162 26.0714C35.2162 26.3744 35.1358 26.672 34.983 26.9337L33.5062 26.0718C34.983 26.9337 34.9825 26.9346 34.9819 26.9356L34.9807 26.9376L34.9781 26.942L34.9722 26.952L34.9571 26.977C34.9456 26.9958 34.9312 27.0189 34.9138 27.046C34.8791 27.1001 34.8324 27.1702 34.7731 27.2541C34.6545 27.4216 34.4849 27.6444 34.2586 27.9034C33.8062 28.4213 33.1255 29.0859 32.1722 29.7417C30.248 31.0655 27.2841 32.3041 22.9988 32.3041C18.7135 32.3041 15.7533 31.0655 13.8327 29.7405C12.8813 29.0841 12.2026 28.4189 11.7518 27.9004C11.5264 27.6412 11.3574 27.4181 11.2393 27.2503C11.1802 27.1664 11.1338 27.0961 11.0992 27.0419C11.0819 27.0147 11.0675 26.9916 11.0561 26.9727L11.041 26.9477L11.0351 26.9376L11.0325 26.9332L11.0313 26.9312C11.0308 26.9302 11.0302 26.9292 12.5097 26.0718L11.0302 26.9292C10.8798 26.6697 10.8003 26.3752 10.7997 26.0752L10.7793 15.8741C10.7774 14.9297 11.5415 14.1625 12.4859 14.1606Z" fill="#1335AF"/>
<path fill-rule="evenodd" clip-rule="evenodd" d="M6.10844 11.4116C7.05284 11.4116 7.81844 12.1772 7.81844 13.1216V29.8973C7.81844 30.8417 7.05284 31.6073 6.10844 31.6073C5.16403 31.6073 4.39844 30.8417 4.39844 29.8973V13.1216C4.39844 12.1772 5.16403 11.4116 6.10844 11.4116Z" fill="#1335AF"/>
</svg>
