<svg width="25" height="24" viewBox="0 0 25 24" fill="none" xmlns="http://www.w3.org/2000/svg">
<path d="M15.6842 3.49998H9.31564V10.6646H2.151V15H9.31564V22.5H15.6842V15H22.8489V10.6646H15.6842V3.49998Z" fill="#F9662D" fill-opacity="0.4"/>
<path fill-rule="evenodd" clip-rule="evenodd" d="M8.46066 1.65107C8.46066 1.17887 8.84346 0.796074 9.31566 0.796074H15.6842C16.1564 0.796074 16.5392 1.17887 16.5392 1.65107V7.96072H22.8489C23.3211 7.96072 23.7039 8.34351 23.7039 8.81572V15.1843C23.7039 15.6565 23.3211 16.0393 22.8489 16.0393H16.5392V22.3489C16.5392 22.8211 16.1564 23.2039 15.6842 23.2039H9.31566C8.84346 23.2039 8.46066 22.8211 8.46066 22.3489V16.0393H2.15102C1.67882 16.0393 1.29602 15.6565 1.29602 15.1843V8.81572C1.29602 8.34351 1.67882 7.96072 2.15102 7.96072H8.46066V1.65107ZM10.1707 2.50607V8.81572C10.1707 9.28792 9.78787 9.67072 9.31566 9.67072H3.00602V14.3293H9.31566C9.78787 14.3293 10.1707 14.7121 10.1707 15.1843V21.4939H14.8292V15.1843C14.8292 14.7121 15.212 14.3293 15.6842 14.3293H21.9939V9.67072H15.6842C15.212 9.67072 14.8292 9.28792 14.8292 8.81572V2.50607H10.1707Z" fill="#1335AF"/>
</svg>
