<svg width="42" height="42" viewBox="0 0 42 42" fill="none" xmlns="http://www.w3.org/2000/svg">
<g id="Ios-Ipados--Streamline-Core">
<path id="vector 1996 (Stroke)" fill-rule="evenodd" clip-rule="evenodd" d="M9.73633 5.07855C9.73633 2.37553 11.9276 0.184265 14.6306 0.184265H36.9206C39.6237 0.184265 41.8149 2.37555 41.8149 5.07855V36.9214C41.8149 39.6245 39.6237 41.8157 36.9206 41.8157H27.3678C26.4233 41.8157 25.6578 41.0501 25.6578 40.1057C25.6578 39.1613 26.4233 38.3957 27.3678 38.3957H36.9206C37.7349 38.3957 38.3949 37.7357 38.3949 36.9214V5.07855C38.3949 4.26432 37.7349 3.60427 36.9206 3.60427H14.6306C13.8164 3.60427 13.1563 4.26434 13.1563 5.07855V6.37217C13.1563 7.31657 12.3907 8.08217 11.4463 8.08217C10.5019 8.08217 9.73633 7.31657 9.73633 6.37217V5.07855Z" fill="#1335AF"/>
<path id="Intersect" d="M21.0002 22.1843C21.0002 20.4257 19.5746 19 17.816 19H5.07882C3.3202 19 1.89453 20.4257 1.89453 22.1843V36.9214C1.89453 38.6801 3.3202 40.1057 5.07882 40.1057H17.816C19.5746 40.1057 21.0002 38.6801 21.0002 36.9214V22.1843Z" fill="#F9662D" fill-opacity="0.4"/>
<path id="vector 1991 (Stroke)" fill-rule="evenodd" clip-rule="evenodd" d="M0.183594 16.2236C0.183594 13.5205 2.37486 11.3293 5.07788 11.3293H17.815C20.518 11.3293 22.7093 13.5205 22.7093 16.2236V36.9214C22.7093 39.6245 20.518 41.8157 17.815 41.8157H5.07788C2.37488 41.8157 0.183594 39.6245 0.183594 36.9214V16.2236ZM5.07788 14.7493C4.26367 14.7493 3.60359 15.4094 3.60359 16.2236V36.9214C3.60359 37.7357 4.26365 38.3957 5.07788 38.3957H17.815C18.6293 38.3957 19.2893 37.7357 19.2893 36.9214V16.2236C19.2893 15.4094 18.6292 14.7493 17.815 14.7493H5.07788Z" fill="#1335AF"/>
<path id="vector 1992 (Stroke)" fill-rule="evenodd" clip-rule="evenodd" d="M8.14453 33.7371C8.14453 32.7927 8.91012 32.0271 9.85453 32.0271H13.0388C13.9832 32.0271 14.7488 32.7927 14.7488 33.7371C14.7488 34.6815 13.9832 35.4471 13.0388 35.4471H9.85453C8.91012 35.4471 8.14453 34.6815 8.14453 33.7371Z" fill="#1335AF"/>
</g>
</svg>
