<svg width="42" height="42" viewBox="0 0 42 42" fill="none" xmlns="http://www.w3.org/2000/svg">
<g id="Keyhole-Shield--Streamline-Core">
<path id="Subtract" fill-rule="evenodd" clip-rule="evenodd" d="M36.9217 7C38.6804 7 40.106 8.42567 40.106 10.1843V13.5979C40.106 25.6249 32.4099 36.3024 21.0002 40.1057C9.5905 36.3024 1.89453 25.6249 1.89453 13.5979V10.1843C1.89453 8.42567 3.3202 7 5.07882 7H36.9217ZM25.7767 14.759C25.7767 17.3969 23.6382 19.5354 21.0002 19.5354C18.3623 19.5354 16.2238 17.3969 16.2238 14.759C16.2238 12.121 18.3623 9.98254 21.0002 9.98254C23.6382 9.98254 25.7767 12.121 25.7767 14.759Z" fill="#F9662D" fill-opacity="0.4"/>
<path id="Vector 3822 (Stroke)" fill-rule="evenodd" clip-rule="evenodd" d="M0.183594 5.07855C0.183594 2.37553 2.37486 0.184265 5.07788 0.184265H36.9207C39.6238 0.184265 41.815 2.37555 41.815 5.07855V13.5979C41.815 26.3609 33.6479 37.6919 21.5401 41.7279C21.1891 41.8449 20.8096 41.8449 20.4585 41.7279C8.35056 37.6919 0.183594 26.3609 0.183594 13.5979V5.07855ZM5.07788 3.60427C4.26367 3.60427 3.60359 4.26434 3.60359 5.07855V13.5979C3.60359 24.6978 10.5861 34.5733 20.9993 38.2967C31.4124 34.5733 38.395 24.6978 38.395 13.5979V5.07855C38.395 4.26432 37.735 3.60427 36.9207 3.60427H5.07788Z" fill="#1335AF"/>
<path id="Vector_2 (Stroke)" fill-rule="evenodd" clip-rule="evenodd" d="M20.9991 17.8253C21.9435 17.8253 22.7091 18.5909 22.7091 19.5353V27.496C22.7091 28.4404 21.9435 29.206 20.9991 29.206C20.0547 29.206 19.2891 28.4404 19.2891 27.496V19.5353C19.2891 18.5909 20.0547 17.8253 20.9991 17.8253Z" fill="#1335AF"/>
<path id="Vector_3 (Stroke)" fill-rule="evenodd" clip-rule="evenodd" d="M14.5137 14.7589C14.5137 11.1765 17.4177 8.27246 21.0001 8.27246C24.5825 8.27246 27.4865 11.1765 27.4865 14.7589C27.4865 18.3413 24.5825 21.2453 21.0001 21.2453C17.4177 21.2453 14.5137 18.3413 14.5137 14.7589ZM21.0001 11.6925C19.3066 11.6925 17.9337 13.0653 17.9337 14.7589C17.9337 16.4524 19.3066 17.8253 21.0001 17.8253C22.6937 17.8253 24.0665 16.4524 24.0665 14.7589C24.0665 13.0653 22.6937 11.6925 21.0001 11.6925Z" fill="#1335AF"/>
</g>
</svg>
