<svg width="25" height="24" viewBox="0 0 25 24" fill="none" xmlns="http://www.w3.org/2000/svg">
<path fill-rule="evenodd" clip-rule="evenodd" d="M1.29602 12.7961C1.29602 12.3239 1.67882 11.9411 2.15102 11.9411H3.74316C4.21537 11.9411 4.59816 12.3239 4.59816 12.7961C4.59816 13.2683 4.21537 13.6511 3.74316 13.6511H2.15102C1.67882 13.6511 1.29602 13.2683 1.29602 12.7961Z" fill="#1335AF"/>
<path fill-rule="evenodd" clip-rule="evenodd" d="M20.4017 12.7961C20.4017 12.3239 20.7845 11.9411 21.2567 11.9411H22.8489C23.3211 11.9411 23.7039 12.3239 23.7039 12.7961C23.7039 13.2683 23.3211 13.6511 22.8489 13.6511H21.2567C20.7845 13.6511 20.4017 13.2683 20.4017 12.7961Z" fill="#1335AF"/>
<path fill-rule="evenodd" clip-rule="evenodd" d="M20.4223 4.87379C20.7562 5.20769 20.7562 5.74905 20.4223 6.08294L19.2965 7.20875C18.9626 7.54265 18.4212 7.54265 18.0873 7.20875C17.7534 6.87485 17.7534 6.33349 18.0873 5.9996L19.2131 4.87379C19.547 4.53989 20.0884 4.53989 20.4223 4.87379Z" fill="#1335AF"/>
<path fill-rule="evenodd" clip-rule="evenodd" d="M4.57757 4.8738C4.91146 4.53989 5.45282 4.53989 5.78672 4.87379L6.91254 5.99959C7.24644 6.33349 7.24645 6.87484 6.91255 7.20874C6.57865 7.54264 6.0373 7.54265 5.7034 7.20875L4.57758 6.08295C4.24368 5.74905 4.24367 5.2077 4.57757 4.8738Z" fill="#1335AF"/>
<path fill-rule="evenodd" clip-rule="evenodd" d="M12.4999 1.59215C12.9721 1.59215 13.3549 1.97494 13.3549 2.44715V4.03929C13.3549 4.51149 12.9721 4.89429 12.4999 4.89429C12.0277 4.89429 11.6449 4.51149 11.6449 4.03929V2.44715C11.6449 1.97494 12.0277 1.59215 12.4999 1.59215Z" fill="#1335AF"/>
<path d="M18.3717 13.8833C17.8606 11.105 15.4261 9 12.5 9C9.57382 9 7.13933 11.105 6.62817 13.8833C6.991 15.8554 8.32285 17.4882 10.1117 18.2699V20.7568C10.1117 21.1964 10.4682 21.5529 10.9078 21.5529H14.0921C14.5318 21.5529 14.8882 21.1964 14.8882 20.7568V18.2699C16.6771 17.4882 18.0089 15.8554 18.3717 13.8833Z" fill="#F9662D" fill-opacity="0.4"/>
<path fill-rule="evenodd" clip-rule="evenodd" d="M5.67444 12.7961C5.67444 9.02643 8.73033 5.97054 12.5 5.97054C16.2696 5.97054 19.3255 9.02643 19.3255 12.7961C19.3255 15.3931 17.8752 17.6497 15.7432 18.8032V20.7568C15.7432 21.6685 15.004 22.4079 14.0921 22.4079H10.9078C9.99593 22.4079 9.25676 21.6685 9.25676 20.7568V18.8032C7.12472 17.6497 5.67444 15.3931 5.67444 12.7961ZM12.5 7.68054C9.67474 7.68054 7.38444 9.97084 7.38444 12.7961C7.38444 14.8924 8.64558 16.6962 10.4541 17.4864C10.7655 17.6224 10.9668 17.93 10.9668 18.2699V20.6979H14.0332V18.2699C14.0332 17.93 14.2344 17.6224 14.5459 17.4864C16.3544 16.6962 17.6155 14.8924 17.6155 12.7961C17.6155 9.97084 15.3252 7.68054 12.5 7.68054Z" fill="#1335AF"/>
</svg>
