<svg width="46" height="43" viewBox="0 0 46 43" fill="none" xmlns="http://www.w3.org/2000/svg">
<g id="lightbulb-on--lighting-light-shine-incandescent-bulb-lights">
<path id="Vector 3642 (Stroke)" fill-rule="evenodd" clip-rule="evenodd" d="M0.591797 23.2799C0.591797 22.3355 1.35739 21.5699 2.3018 21.5699H5.48608C6.43049 21.5699 7.19608 22.3355 7.19608 23.2799C7.19608 24.2243 6.43049 24.9899 5.48608 24.9899H2.3018C1.35739 24.9899 0.591797 24.2243 0.591797 23.2799Z" fill="#1335AF"/>
<path id="Vector 3643 (Stroke)" fill-rule="evenodd" clip-rule="evenodd" d="M38.8027 23.2799C38.8027 22.3355 39.5683 21.5699 40.5127 21.5699H43.697C44.6414 21.5699 45.407 22.3355 45.407 23.2799C45.407 24.2243 44.6414 24.9899 43.697 24.9899H40.5127C39.5683 24.9899 38.8027 24.2243 38.8027 23.2799Z" fill="#1335AF"/>
<path id="Vector 3646 (Stroke)" fill-rule="evenodd" clip-rule="evenodd" d="M38.8446 7.43533C39.5124 8.10312 39.5124 9.18583 38.8446 9.85363L36.593 12.1052C35.9252 12.773 34.8425 12.773 34.1747 12.1052C33.5069 11.4374 33.5069 10.3547 34.1747 9.68693L36.4263 7.43533C37.0941 6.76753 38.1768 6.76753 38.8446 7.43533Z" fill="#1335AF"/>
<path id="Vector 3648 (Stroke)" fill-rule="evenodd" clip-rule="evenodd" d="M7.15514 7.43533C7.82293 6.76753 8.90564 6.76753 9.57344 7.43532L11.8251 9.68693C12.4929 10.3547 12.4929 11.4374 11.8251 12.1052C11.1573 12.773 10.0746 12.773 9.40679 12.1052L7.15515 9.85364C6.48735 9.18585 6.48734 8.10314 7.15514 7.43533Z" fill="#1335AF"/>
<path id="Vector 3644 (Stroke)" fill-rule="evenodd" clip-rule="evenodd" d="M22.9991 0.87204C23.9435 0.87204 24.7091 1.63763 24.7091 2.58204V5.76633C24.7091 6.71073 23.9435 7.47633 22.9991 7.47633C22.0547 7.47633 21.2891 6.71073 21.2891 5.76633V2.58204C21.2891 1.63763 22.0547 0.87204 22.9991 0.87204Z" fill="#1335AF"/>
<path id="Intersect" d="M34.743 25.4544C33.7207 19.8978 28.8517 15.6877 22.9994 15.6877C17.1471 15.6877 12.2782 19.8977 11.2559 25.4544C11.9815 29.3985 14.6452 32.6642 18.223 34.2275V39.2014C18.223 40.0805 18.9358 40.7935 19.8151 40.7935H26.1837C27.063 40.7935 27.7759 40.0805 27.7759 39.2014V34.2275C31.3536 32.6642 34.0173 29.3985 34.743 25.4544Z" fill="#F9662D" fill-opacity="0.4"/>
<path id="Ellipse 1791 (Stroke)" fill-rule="evenodd" clip-rule="evenodd" d="M9.34766 23.2799C9.34766 15.7406 15.4594 9.62881 22.9987 9.62881C30.538 9.62881 36.6498 15.7406 36.6498 23.2799C36.6498 28.4739 33.7492 32.9872 29.4852 35.2941V39.2013C29.4852 41.0248 28.0068 42.5035 26.183 42.5035H19.8144C17.9906 42.5035 16.5123 41.0248 16.5123 39.2013V35.2941C12.2482 32.9872 9.34766 28.4739 9.34766 23.2799ZM22.9987 13.0488C17.3483 13.0488 12.7677 17.6294 12.7677 23.2799C12.7677 27.4726 15.2899 31.0801 18.907 32.6605C19.5298 32.9326 19.9323 33.5478 19.9323 34.2275V39.0835H26.0652V34.2275C26.0652 33.5478 26.4677 32.9326 27.0905 32.6605C30.7075 31.0801 33.2298 27.4726 33.2298 23.2799C33.2298 17.6294 28.6492 13.0488 22.9987 13.0488Z" fill="#1335AF"/>
</g>
</svg>
