<svg width="143" height="32" viewBox="0 0 143 32" fill="none" xmlns="http://www.w3.org/2000/svg">
<path d="M21.3571 8.44373H17.0845V12.7163H21.3571V8.44373Z" fill="#FFDD55"/>
<path d="M17.0897 12.7164H12.8171V16.989H17.0897V12.7164Z" fill="#FFDD55"/>
<path d="M12.818 16.9886H8.54541V21.2612H12.818V16.9886Z" fill="#FFDD55"/>
<path d="M12.818 8.44373H8.54541V12.7163H12.818V8.44373Z" fill="#FFDD55"/>
<path d="M8.54529 21.2551H4.27271V25.5277H8.54529V21.2551Z" fill="#FFDD55"/>
<path d="M4.27258 12.7164H0V16.989H4.27258V12.7164Z" fill="#FFDD55"/>
<g style="mix-blend-mode:multiply">
<mask id="mask0_3288_16721" style="mask-type:luminance" maskUnits="userSpaceOnUse" x="4" y="21" width="5" height="5">
<path d="M8.54529 21.2551H4.27271V25.5277H8.54529V21.2551Z" fill="white"/>
</mask>
<g mask="url(#mask0_3288_16721)">
<path d="M4.27271 21.2551V25.5277L8.54529 21.2551H4.27271Z" fill="#F8C1D9"/>
</g>
</g>
<g style="mix-blend-mode:multiply">
<mask id="mask1_3288_16721" style="mask-type:luminance" maskUnits="userSpaceOnUse" x="4" y="21" width="5" height="5">
<path d="M8.54529 21.2551H4.27271V25.5277H8.54529V21.2551Z" fill="white"/>
</mask>
<g mask="url(#mask1_3288_16721)">
<path d="M8.54529 21.2551L4.27271 25.5277H8.54529V21.2551Z" fill="#F5A4C7"/>
</g>
</g>
<g style="mix-blend-mode:multiply">
<mask id="mask2_3288_16721" style="mask-type:luminance" maskUnits="userSpaceOnUse" x="12" y="12" width="6" height="5">
<path d="M17.0817 12.7167H12.8091V16.9893H17.0817V12.7167Z" fill="white"/>
</mask>
<g mask="url(#mask2_3288_16721)">
<path d="M12.8164 12.7166V16.9828L17.0827 12.7166H12.8164Z" fill="#F8C1D9"/>
</g>
</g>
<g style="mix-blend-mode:multiply">
<mask id="mask3_3288_16721" style="mask-type:luminance" maskUnits="userSpaceOnUse" x="12" y="12" width="6" height="5">
<path d="M17.0817 12.7167H12.8091V16.9893H17.0817V12.7167Z" fill="white"/>
</mask>
<g mask="url(#mask3_3288_16721)">
<path d="M17.0827 12.7166L12.8164 16.9828H17.0827V12.7166Z" fill="#F5A4C7"/>
</g>
</g>
<g style="mix-blend-mode:multiply">
<mask id="mask4_3288_16721" style="mask-type:luminance" maskUnits="userSpaceOnUse" x="8" y="16" width="5" height="6">
<path d="M12.819 16.9884H8.54639V21.261H12.819V16.9884Z" fill="white"/>
</mask>
<g mask="url(#mask4_3288_16721)">
<path d="M8.54639 16.9884V21.2546L12.8126 16.9884H8.54639Z" fill="#FCDFEB"/>
</g>
</g>
<g style="mix-blend-mode:multiply">
<mask id="mask5_3288_16721" style="mask-type:luminance" maskUnits="userSpaceOnUse" x="17" y="8" width="5" height="5">
<path d="M21.3551 8.44336H17.0825V12.7159H21.3551V8.44336Z" fill="white"/>
</mask>
<g mask="url(#mask5_3288_16721)">
<path d="M17.0825 8.44336V12.7159L21.3551 8.44336H17.0825Z" fill="#FCDFEB"/>
</g>
</g>
<g style="mix-blend-mode:multiply">
<mask id="mask6_3288_16721" style="mask-type:luminance" maskUnits="userSpaceOnUse" x="8" y="8" width="5" height="5">
<path d="M12.819 8.44348H8.54639V12.7161H12.819V8.44348Z" fill="white"/>
</mask>
<g mask="url(#mask6_3288_16721)">
<path d="M8.54639 8.44348V12.7161L12.8126 8.44348H8.54639Z" fill="#FCDFEB"/>
</g>
</g>
<g style="mix-blend-mode:multiply">
<path d="M0 12.7164V16.9827L4.27258 12.7164H0Z" fill="#FCDFEB"/>
</g>
<path d="M127.519 25.5531V0.44374H120.222V18.1807C119.214 16.9002 117.731 16 115.874 15.2837C118.092 14.0412 119.962 12.0824 119.962 8.57052V8.48178C119.962 6.35182 119.252 4.6149 117.832 3.19493C116.057 1.41997 113.256 0.437401 109.699 0.437401H88.5202L80.3427 13.5911L72.1652 0.44374H64.7864V3.78447C61.6739 1.36292 57.8831 0 53.4584 0C47.1002 0 42.574 3.73376 42.574 9.37559V9.46434C42.574 15.6387 46.6184 17.3756 52.8815 18.9731C58.0796 20.3043 59.1446 21.1981 59.1446 22.9287V23.0174C59.1446 24.8368 57.4584 25.9525 54.6565 25.9525C51.1002 25.9525 48.1715 24.4881 45.3696 22.1743L43.3474 24.5959L33.0717 0.44374H26.574L21.3506 12.7163V16.9889H17.078V21.2615H12.8054V25.5341H15.8926L13.3316 31.5563H20.311L22.7579 25.5594H36.704L39.1509 31.5563H46.3015L45.6042 29.9144C48.3997 31.3027 51.4679 32 54.517 32C59.2523 32 62.9924 30.2694 64.7801 27.0808V31.5499H71.4869V11.3788L80.1525 24.5325H80.33L89.0843 11.2456V31.5499H110.042C114.714 31.5499 118.327 30.2884 120.216 27.7655V31.5499H142.111V25.5531H127.512H127.519ZM25.2111 19.4929L29.7373 8.44374L34.2634 19.4929H25.2111ZM64.7864 17.813C63.265 15.4041 60.2919 14.0285 56.0764 12.9255C50.7008 11.5499 49.3696 10.8843 49.3696 8.83677V8.74802C49.3696 7.2393 50.7452 6.03487 53.3696 6.03487C55.994 6.03487 58.7008 7.18859 61.4584 9.10301L64.7927 4.27258V17.8067L64.7864 17.813ZM101.921 6.44057H108.672C111.563 6.44057 113.16 7.59429 113.16 9.64184V9.73059C113.16 12.0444 111.252 13.0206 108.229 13.0206H101.921V6.44691V6.44057ZM114.891 22.1743C114.891 24.4881 113.072 25.5531 110.048 25.5531H101.915V18.7068H109.826C113.338 18.7068 114.891 19.9937 114.891 22.0856V22.1743Z" fill="#182A54"/>
</svg>
