<svg width="285" height="65" viewBox="0 0 285 65" fill="none" xmlns="http://www.w3.org/2000/svg">
<path d="M42.7131 17.1372H34.168V25.6824H42.7131V17.1372Z" fill="#FFDD55"/>
<path d="M34.178 25.6831H25.6328V34.2283H34.178V25.6831Z" fill="#FFDD55"/>
<path d="M25.635 34.2271H17.0898V42.7722H25.635V34.2271Z" fill="#FFDD55"/>
<path d="M25.635 17.1372H17.0898V25.6824H25.635V17.1372Z" fill="#FFDD55"/>
<path d="M17.092 42.7605H8.54688V51.3057H17.092V42.7605Z" fill="#FFDD55"/>
<path d="M8.54517 25.6831H0V34.2283H8.54517V25.6831Z" fill="#FFDD55"/>
<g style="mix-blend-mode:multiply">
<mask id="mask0_3294_5980" style="mask-type:luminance" maskUnits="userSpaceOnUse" x="8" y="42" width="10" height="10">
<path d="M17.092 42.7605H8.54688V51.3057H17.092V42.7605Z" fill="white"/>
</mask>
<g mask="url(#mask0_3294_5980)">
<path d="M8.54688 42.7605V51.3057L17.092 42.7605H8.54688Z" fill="#F8C1D9"/>
</g>
</g>
<g style="mix-blend-mode:multiply">
<mask id="mask1_3294_5980" style="mask-type:luminance" maskUnits="userSpaceOnUse" x="8" y="42" width="10" height="10">
<path d="M17.092 42.7605H8.54688V51.3057H17.092V42.7605Z" fill="white"/>
</mask>
<g mask="url(#mask1_3294_5980)">
<path d="M17.092 42.7605L8.54688 51.3057H17.092V42.7605Z" fill="#F5A4C7"/>
</g>
</g>
<g style="mix-blend-mode:multiply">
<mask id="mask2_3294_5980" style="mask-type:luminance" maskUnits="userSpaceOnUse" x="25" y="25" width="10" height="10">
<path d="M34.1663 25.6814H25.6211V34.2266H34.1663V25.6814Z" fill="white"/>
</mask>
<g mask="url(#mask2_3294_5980)">
<path d="M25.6367 25.6814V34.2139L34.1692 25.6814H25.6367Z" fill="#F8C1D9"/>
</g>
</g>
<g style="mix-blend-mode:multiply">
<mask id="mask3_3294_5980" style="mask-type:luminance" maskUnits="userSpaceOnUse" x="25" y="25" width="10" height="10">
<path d="M34.1663 25.6814H25.6211V34.2266H34.1663V25.6814Z" fill="white"/>
</mask>
<g mask="url(#mask3_3294_5980)">
<path d="M34.1692 25.6814L25.6367 34.2139H34.1692V25.6814Z" fill="#F5A4C7"/>
</g>
</g>
<g style="mix-blend-mode:multiply">
<mask id="mask4_3294_5980" style="mask-type:luminance" maskUnits="userSpaceOnUse" x="17" y="34" width="9" height="9">
<path d="M25.635 34.2288H17.0898V42.7739H25.635V34.2288Z" fill="white"/>
</mask>
<g mask="url(#mask4_3294_5980)">
<path d="M17.0898 34.2288V42.7612L25.6223 34.2288H17.0898Z" fill="#FCDFEB"/>
</g>
</g>
<g style="mix-blend-mode:multiply">
<mask id="mask5_3294_5980" style="mask-type:luminance" maskUnits="userSpaceOnUse" x="34" y="17" width="9" height="9">
<path d="M42.7131 17.1367H34.168V25.6819H42.7131V17.1367Z" fill="white"/>
</mask>
<g mask="url(#mask5_3294_5980)">
<path d="M34.168 17.1367V25.6819L42.7131 17.1367H34.168Z" fill="#FCDFEB"/>
</g>
</g>
<g style="mix-blend-mode:multiply">
<mask id="mask6_3294_5980" style="mask-type:luminance" maskUnits="userSpaceOnUse" x="17" y="17" width="9" height="9">
<path d="M25.635 17.1389H17.0898V25.6841H25.635V17.1389Z" fill="white"/>
</mask>
<g mask="url(#mask6_3294_5980)">
<path d="M17.0898 17.1389V25.6841L25.6223 17.1389H17.0898Z" fill="#FCDFEB"/>
</g>
</g>
<g style="mix-blend-mode:multiply">
<path d="M0 25.6831V34.2156L8.54517 25.6831H0Z" fill="#FCDFEB"/>
</g>
<path d="M255.036 51.3562V1.13748H240.443V36.6113C238.427 34.0503 235.46 32.25 231.746 30.8174C236.183 28.3324 239.923 24.4148 239.923 17.391V17.2136C239.923 12.9536 238.503 9.47979 235.663 6.63986C232.113 3.08994 226.51 1.1248 219.397 1.1248H177.039L160.684 27.4323L144.329 1.13748H129.571V7.81894C123.346 2.97583 115.765 0.25 106.915 0.25C94.1989 0.25 85.1466 7.71751 85.1466 19.0012V19.1787C85.1466 31.5273 93.2354 35.0012 105.762 38.1961C116.158 40.8586 118.288 42.6462 118.288 46.1074V46.2849C118.288 49.9235 114.915 52.1549 109.311 52.1549C102.199 52.1549 96.3416 49.2262 90.7378 44.5987L86.6934 49.4418L66.1419 1.13748H53.1466L42.6997 25.6826V34.2278H34.1545V42.773H25.6094V51.3181H31.7837L26.6617 63.3625H40.6205L45.5143 51.3689H73.4065L78.3003 63.3625H92.6015L91.2069 60.0788C96.798 62.8554 102.934 64.25 109.033 64.25C118.503 64.25 125.983 60.7888 129.559 54.4116V63.3498H142.972V23.0075L160.304 49.315H160.659L178.167 22.7413V63.3498H220.082C229.426 63.3498 236.652 60.8269 240.43 55.7809V63.3498H284.221V51.3562H255.023H255.036ZM50.4208 39.2357L59.4731 17.1375L68.5254 39.2357H50.4208ZM129.571 35.876C126.529 31.0582 120.582 28.3071 112.151 26.101C101.4 23.3498 98.7377 22.0186 98.7377 17.9235V17.746C98.7377 14.7286 101.489 12.3197 106.738 12.3197C111.987 12.3197 117.4 14.6272 122.915 18.456L129.584 8.79517V35.8633L129.571 35.876ZM203.841 13.1311H217.343C223.124 13.1311 226.319 15.4386 226.319 19.5337V19.7112C226.319 24.3387 222.503 26.2912 216.456 26.2912H203.841V13.1438V13.1311ZM229.781 44.5987C229.781 49.2262 226.142 51.3562 220.094 51.3562H203.828V37.6636H219.651C226.674 37.6636 229.781 40.2373 229.781 44.4212V44.5987Z" fill="#182A54"/>
</svg>
