<svg width="42" height="42" viewBox="0 0 42 42" fill="none" xmlns="http://www.w3.org/2000/svg">
<g id="Machine-Learning--Streamline-Core">
<path id="Vector" d="M20.9989 10.7123C23.4339 10.7123 25.4079 8.73834 25.4079 6.30331C25.4079 3.86826 23.4339 1.89429 20.9989 1.89429C18.5638 1.89429 16.5898 3.86826 16.5898 6.30331C16.5898 8.73834 18.5638 10.7123 20.9989 10.7123Z" fill="#F9662D" fill-opacity="0.4"/>
<path id="Vector_2" d="M6.30356 25.4089C8.73858 25.4089 10.7126 23.4349 10.7126 20.9999C10.7126 18.5649 8.73858 16.5909 6.30356 16.5909C3.8685 16.5909 1.89453 18.5649 1.89453 20.9999C1.89453 23.4349 3.8685 25.4089 6.30356 25.4089Z" fill="#F9662D" fill-opacity="0.4"/>
<path id="Vector_3" d="M35.6961 25.4089C38.1311 25.4089 40.105 23.4349 40.105 20.9999C40.105 18.5649 38.1311 16.5909 35.6961 16.5909C33.261 16.5909 31.2871 18.5649 31.2871 20.9999C31.2871 23.4349 33.261 25.4089 35.6961 25.4089Z" fill="#F9662D" fill-opacity="0.4"/>
<path id="Vector_4" d="M20.9989 40.1054C23.4339 40.1054 25.4079 38.1315 25.4079 35.6964C25.4079 33.2614 23.4339 31.2875 20.9989 31.2875C18.5638 31.2875 16.5898 33.2614 16.5898 35.6964C16.5898 38.1315 18.5638 40.1054 20.9989 40.1054Z" fill="#F9662D" fill-opacity="0.4"/>
<path id="Vector_5" d="M35.6961 40.1054C38.1311 40.1054 40.105 38.1315 40.105 35.6964C40.105 33.2614 38.1311 31.2875 35.6961 31.2875C33.261 31.2875 31.2871 33.2614 31.2871 35.6964C31.2871 38.1315 33.261 40.1054 35.6961 40.1054Z" fill="#F9662D" fill-opacity="0.4"/>
<path id="Vector_7 (Stroke)" fill-rule="evenodd" clip-rule="evenodd" d="M14.8789 6.30329C14.8789 2.92382 17.6185 0.184265 20.9979 0.184265C24.3774 0.184265 27.117 2.92382 27.117 6.30329C27.117 9.68274 24.3773 12.4223 20.9979 12.4223C17.6185 12.4223 14.8789 9.68274 14.8789 6.30329ZM20.9979 3.60427C19.5073 3.60427 18.2989 4.81265 18.2989 6.30329C18.2989 7.79389 19.5073 9.00229 20.9979 9.00229C22.4886 9.00229 23.697 7.79389 23.697 6.30329C23.697 4.81265 22.4886 3.60427 20.9979 3.60427Z" fill="#1335AF"/>
<path id="Vector_9 (Stroke)" fill-rule="evenodd" clip-rule="evenodd" d="M0.183594 20.9999C0.183594 17.6204 2.92317 14.8809 6.30262 14.8809C9.68205 14.8809 12.4216 17.6204 12.4216 20.9999C12.4216 24.3793 9.68207 27.1189 6.30262 27.1189C2.92315 27.1189 0.183594 24.3793 0.183594 20.9999ZM6.30262 18.3009C4.81196 18.3009 3.60359 19.5092 3.60359 20.9999C3.60359 22.4905 4.81198 23.6989 6.30262 23.6989C7.79322 23.6989 9.00161 22.4905 9.00161 20.9999C9.00161 19.5092 7.79324 18.3009 6.30262 18.3009Z" fill="#1335AF"/>
<path id="Vector_11 (Stroke)" fill-rule="evenodd" clip-rule="evenodd" d="M29.5781 20.9999C29.5781 17.6204 32.3176 14.8809 35.6971 14.8809C39.0765 14.8809 41.8161 17.6204 41.8161 20.9999C41.8161 24.3792 39.0766 27.1189 35.6971 27.1189C32.3176 27.1189 29.5781 24.3792 29.5781 20.9999ZM35.6971 18.3009C34.2065 18.3009 32.9981 19.5092 32.9981 20.9999C32.9981 22.4905 34.2065 23.6989 35.6971 23.6989C37.1877 23.6989 38.3961 22.4905 38.3961 20.9999C38.3961 19.5092 37.1877 18.3009 35.6971 18.3009Z" fill="#1335AF"/>
<path id="Vector_13 (Stroke)" fill-rule="evenodd" clip-rule="evenodd" d="M0.183594 6.30329C0.183594 2.92383 2.92316 0.184265 6.30262 0.184265C9.68206 0.184265 12.4216 2.92384 12.4216 6.30329C12.4216 9.68272 9.68205 12.4223 6.30262 12.4223C2.92317 12.4223 0.183594 9.68273 0.183594 6.30329ZM6.30262 3.60427C4.81197 3.60427 3.60359 4.81264 3.60359 6.30329C3.60359 7.7939 4.81196 9.00229 6.30262 9.00229C7.79324 9.00229 9.00161 7.79391 9.00161 6.30329C9.00161 4.81263 7.79323 3.60427 6.30262 3.60427Z" fill="#1335AF"/>
<path id="Vector_14 (Stroke)" fill-rule="evenodd" clip-rule="evenodd" d="M29.5781 6.30329C29.5781 2.92385 32.3176 0.184265 35.6971 0.184265C39.0765 0.184265 41.8161 2.92385 41.8161 6.30329C41.8161 9.6827 39.0765 12.4223 35.6971 12.4223C32.3176 12.4223 29.5781 9.6827 29.5781 6.30329ZM35.6971 3.60427C34.2065 3.60427 32.9981 4.81262 32.9981 6.30329C32.9981 7.79392 34.2065 9.00229 35.6971 9.00229C37.1877 9.00229 38.3961 7.79392 38.3961 6.30329C38.3961 4.81262 37.1877 3.60427 35.6971 3.60427Z" fill="#1335AF"/>
<path id="Vector_15 (Stroke)" fill-rule="evenodd" clip-rule="evenodd" d="M14.8789 20.9999C14.8789 17.6204 17.6185 14.8809 20.9979 14.8809C24.3773 14.8809 27.117 17.6204 27.117 20.9999C27.117 24.3793 24.3774 27.1189 20.9979 27.1189C17.6185 27.1189 14.8789 24.3793 14.8789 20.9999ZM20.9979 18.3009C19.5073 18.3009 18.2989 19.5093 18.2989 20.9999C18.2989 22.4905 19.5073 23.6989 20.9979 23.6989C22.4885 23.6989 23.697 22.4905 23.697 20.9999C23.697 19.5093 22.4886 18.3009 20.9979 18.3009Z" fill="#1335AF"/>
<path id="Vector_16 (Stroke)" fill-rule="evenodd" clip-rule="evenodd" d="M0.183594 35.6964C0.183594 32.317 2.92318 29.5775 6.30262 29.5775C9.68203 29.5775 12.4216 32.317 12.4216 35.6964C12.4216 39.0759 9.68203 41.8154 6.30262 41.8154C2.92318 41.8154 0.183594 39.0759 0.183594 35.6964ZM6.30262 32.9975C4.81195 32.9975 3.60359 34.2058 3.60359 35.6964C3.60359 37.187 4.81195 38.3954 6.30262 38.3954C7.79325 38.3954 9.00161 37.187 9.00161 35.6964C9.00161 34.2058 7.79325 32.9975 6.30262 32.9975Z" fill="#1335AF"/>
<path id="Vector_17 (Stroke)" fill-rule="evenodd" clip-rule="evenodd" d="M14.8789 35.6964C14.8789 32.317 17.6185 29.5775 20.9979 29.5775C24.3773 29.5775 27.117 32.317 27.117 35.6964C27.117 39.0759 24.3773 41.8154 20.9979 41.8154C17.6185 41.8154 14.8789 39.0759 14.8789 35.6964ZM20.9979 32.9975C19.5073 32.9975 18.2989 34.2058 18.2989 35.6964C18.2989 37.187 19.5073 38.3954 20.9979 38.3954C22.4886 38.3954 23.697 37.187 23.697 35.6964C23.697 34.2058 22.4886 32.9975 20.9979 32.9975Z" fill="#1335AF"/>
<path id="Vector_18 (Stroke)" fill-rule="evenodd" clip-rule="evenodd" d="M29.5781 35.6964C29.5781 32.317 32.3177 29.5775 35.6971 29.5775C39.0765 29.5775 41.8161 32.317 41.8161 35.6964C41.8161 39.0758 39.0765 41.8154 35.6971 41.8154C32.3177 41.8154 29.5781 39.0758 29.5781 35.6964ZM35.6971 32.9975C34.2065 32.9975 32.9981 34.2058 32.9981 35.6964C32.9981 37.187 34.2065 38.3954 35.6971 38.3954C37.1877 38.3954 38.3961 37.187 38.3961 35.6964C38.3961 34.2058 37.1877 32.9975 35.6971 32.9975Z" fill="#1335AF"/>
<path id="Vector_19 (Stroke)" fill-rule="evenodd" clip-rule="evenodd" d="M8.20983 8.21008C8.87763 7.54228 9.96034 7.54228 10.6281 8.21008L19.0934 16.6754C19.7612 17.3432 19.7612 18.4259 19.0934 19.0937C18.4256 19.7615 17.3429 19.7615 16.6751 19.0937L8.20983 10.6284C7.54204 9.96058 7.54204 8.87787 8.20983 8.21008Z" fill="#1335AF"/>
<path id="Vector_20 (Stroke)" fill-rule="evenodd" clip-rule="evenodd" d="M19.0934 22.9067C19.7612 23.5745 19.7612 24.6572 19.0934 25.325L10.6281 33.7904C9.96035 34.4582 8.87764 34.4582 8.20984 33.7904C7.54204 33.1226 7.54203 32.0399 8.20983 31.3721L16.6751 22.9067C17.3429 22.2389 18.4256 22.2389 19.0934 22.9067Z" fill="#1335AF"/>
<path id="Vector_21 (Stroke)" fill-rule="evenodd" clip-rule="evenodd" d="M33.7888 8.21008C34.4566 8.87788 34.4566 9.96059 33.7888 10.6284L25.3234 19.0937C24.6556 19.7615 23.5729 19.7615 22.9051 19.0937C22.2373 18.4259 22.2373 17.3432 22.9051 16.6754L31.3705 8.21007C32.0383 7.54228 33.121 7.54228 33.7888 8.21008Z" fill="#1335AF"/>
</g>
</svg>
