<svg width="25" height="24" viewBox="0 0 25 24" fill="none" xmlns="http://www.w3.org/2000/svg">
<path d="M22.053 12.2236L15.6844 17V12.2236L8.51977 17H2.94727V22H22.053V12.2236Z" fill="#F9662D" fill-opacity="0.4"/>
<path fill-rule="evenodd" clip-rule="evenodd" d="M22.4352 8.84704C22.7249 8.99187 22.9079 9.28793 22.9079 9.61178V21.5529C22.9079 22.0251 22.5251 22.4079 22.0529 22.4079H2.94716C2.47496 22.4079 2.09216 22.0251 2.09216 21.5529V14.3882C2.09216 13.916 2.47496 13.5332 2.94716 13.5332H8.26079L15.21 8.90038C15.4724 8.72547 15.8097 8.70916 16.0877 8.85795C16.3658 9.00673 16.5393 9.29646 16.5393 9.61178V12.6782L21.5399 8.92778C21.799 8.73347 22.1456 8.70221 22.4352 8.84704ZM14.8293 11.2094L8.99393 15.0996C8.85348 15.1932 8.68846 15.2432 8.51966 15.2432H3.80216V20.6979H21.1979V11.3218L16.1973 15.0722C15.9382 15.2665 15.5916 15.2978 15.3019 15.1529C15.0123 15.0081 14.8293 14.7121 14.8293 14.3882V11.2094Z" fill="#1335AF"/>
<path fill-rule="evenodd" clip-rule="evenodd" d="M2.89016 2.39026C2.9201 1.94113 3.29314 1.59213 3.74327 1.59213H7.72362C8.17375 1.59213 8.54679 1.94113 8.57673 2.39026L9.3728 14.3313C9.40421 14.8025 9.04773 15.2099 8.57657 15.2413C8.10541 15.2727 7.698 14.9162 7.66659 14.4451L6.92373 3.30213H4.54316L3.8003 14.4451C3.76889 14.9162 3.36148 15.2727 2.89032 15.2413C2.41916 15.2099 2.06268 14.8025 2.09409 14.3313L2.89016 2.39026Z" fill="#1335AF"/>
<path fill-rule="evenodd" clip-rule="evenodd" d="M6.92751 17.5135C7.39971 17.5135 7.78251 17.8963 7.78251 18.3685V21.5528C7.78251 22.025 7.39971 22.4078 6.92751 22.4078C6.45531 22.4078 6.07251 22.025 6.07251 21.5528V18.3685C6.07251 17.8963 6.45531 17.5135 6.92751 17.5135Z" fill="#1335AF"/>
</svg>
