<svg width="25" height="24" viewBox="0 0 25 24" fill="none" xmlns="http://www.w3.org/2000/svg">
<path d="M15.6843 6.59213C15.6843 5.71282 14.9715 4.99999 14.0921 4.99999H4.53929C3.65998 4.99999 2.94714 5.71282 2.94714 6.59213V21.5528H15.6843V6.59213Z" fill="#F9662D" fill-opacity="0.4"/>
<path d="M22.0529 13.5921C22.0529 12.7128 21.3401 12 20.4608 12H15.6843V21.5528H22.0529V13.5921Z" fill="#F9662D" fill-opacity="0.4"/>
<path fill-rule="evenodd" clip-rule="evenodd" d="M2.09216 4.03928C2.09216 2.68777 3.18779 1.59214 4.53931 1.59214H14.0922C15.4437 1.59214 16.5393 2.68777 16.5393 4.03928V21.5529C16.5393 22.0251 16.1565 22.4079 15.6843 22.4079H2.94716C2.47496 22.4079 2.09216 22.0251 2.09216 21.5529V4.03928ZM4.53931 3.30214C4.1322 3.30214 3.80216 3.63218 3.80216 4.03928V20.6979H14.8293V4.03928C14.8293 3.63218 14.4993 3.30214 14.0922 3.30214H4.53931Z" fill="#1335AF"/>
<path fill-rule="evenodd" clip-rule="evenodd" d="M14.8293 9.61178C14.8293 9.13958 15.2121 8.75678 15.6843 8.75678H20.4608C21.8123 8.75678 22.9079 9.85243 22.9079 11.2039V21.5529C22.9079 22.0251 22.5251 22.4079 22.0529 22.4079H15.6843C15.2121 22.4079 14.8293 22.0251 14.8293 21.5529V9.61178ZM16.5393 10.4668V20.6979H21.1979V11.2039C21.1979 10.7968 20.8679 10.4668 20.4608 10.4668H16.5393Z" fill="#1335AF"/>
<path fill-rule="evenodd" clip-rule="evenodd" d="M9.31569 17.5136C9.7879 17.5136 10.1707 17.8964 10.1707 18.3686V21.5529C10.1707 22.0251 9.7879 22.4079 9.31569 22.4079C8.84349 22.4079 8.46069 22.0251 8.46069 21.5529V18.3686C8.46069 17.8964 8.84349 17.5136 9.31569 17.5136Z" fill="#1335AF"/>
<path fill-rule="evenodd" clip-rule="evenodd" d="M6.92751 11.145C7.39971 11.145 7.78251 11.5278 7.78251 12V13.5921C7.78251 14.0643 7.39971 14.4471 6.92751 14.4471C6.45531 14.4471 6.07251 14.0643 6.07251 13.5921V12C6.07251 11.5278 6.45531 11.145 6.92751 11.145Z" fill="#1335AF"/>
<path fill-rule="evenodd" clip-rule="evenodd" d="M11.704 11.145C12.1762 11.145 12.559 11.5278 12.559 12V13.5921C12.559 14.0643 12.1762 14.4471 11.704 14.4471C11.2318 14.4471 10.849 14.0643 10.849 13.5921V12C10.849 11.5278 11.2318 11.145 11.704 11.145Z" fill="#1335AF"/>
<path fill-rule="evenodd" clip-rule="evenodd" d="M11.704 5.5725C12.1762 5.5725 12.559 5.9553 12.559 6.4275V8.01964C12.559 8.49185 12.1762 8.87464 11.704 8.87464C11.2318 8.87464 10.849 8.49185 10.849 8.01964V6.4275C10.849 5.9553 11.2318 5.5725 11.704 5.5725Z" fill="#1335AF"/>
<path fill-rule="evenodd" clip-rule="evenodd" d="M6.92751 5.5725C7.39971 5.5725 7.78251 5.9553 7.78251 6.4275V8.01964C7.78251 8.49185 7.39971 8.87464 6.92751 8.87464C6.45531 8.87464 6.07251 8.49185 6.07251 8.01964V6.4275C6.07251 5.9553 6.45531 5.5725 6.92751 5.5725Z" fill="#1335AF"/>
</svg>
