<svg width="32" height="32" viewBox="0 0 32 32" fill="none" xmlns="http://www.w3.org/2000/svg">
<path d="M6.95426 11.8626L7.63445 11.6186L7.30138 9.77935C7.55728 9.63384 7.87547 9.59195 8.19077 9.70836L12.6958 11.3717L15.0777 7.20172C15.4852 6.48843 16.5136 6.48843 16.9211 7.20172L19.303 11.3717L23.808 9.70836C24.1233 9.59194 24.4415 9.63384 24.6974 9.77936L24.3644 11.6186L25.0446 11.8626L24.3644 15.6187L27.2722 16.6619L25.5116 18.1254L27.0834 20.8189L25.5116 22.1254L26.528 23.8673L22.2081 23.8472L21.396 28.5804C21.2571 29.39 20.2907 29.7418 19.6639 29.2108L15.9994 26.107L12.3349 29.2108C11.7081 29.7418 10.7417 29.39 10.6028 28.5804L9.7907 23.8472L5.47073 23.8673L6.48713 22.1254L4.91538 20.8189L6.48713 18.1254L4.72656 16.6619L7.63445 15.6187L6.95426 11.8626Z" fill="#F9662D" fill-opacity="0.4"/>
<path fill-rule="evenodd" clip-rule="evenodd" d="M15.9301 3.76701L15.9302 3.76706L15.9301 3.76701ZM15.9984 3.88646L18.312 7.93698C18.5884 8.42083 19.1741 8.63399 19.6968 8.44098L24.0728 6.82529L23.2415 11.4154C23.1423 11.9637 23.4539 12.5034 23.9784 12.6916L28.3691 14.2667L24.782 17.2486C24.3535 17.6048 24.2453 18.2186 24.5261 18.6999L26.877 22.7288L22.2124 22.7072C21.6551 22.7046 21.1777 23.1052 21.0835 23.6544L20.2947 28.252L16.7352 25.2371C16.31 24.8769 15.6868 24.8769 15.2616 25.2371L11.7021 28.252L10.9133 23.6544C10.8191 23.1052 10.3416 22.7046 9.7844 22.7072L5.11972 22.7288L7.47075 18.6999C7.75158 18.2186 7.64336 17.6048 7.21486 17.2486L3.62764 14.2667L8.01839 12.6916C8.54288 12.5034 8.85449 11.9637 8.7552 11.4154L7.92394 6.8253L12.3 8.44099C12.8227 8.63398 13.4083 8.42083 13.6847 7.93698L15.9984 3.88646ZM3.52192 14.1789C3.52189 14.1788 3.52187 14.1788 3.52184 14.1788L3.52186 14.1788L3.52192 14.1789ZM28.4749 14.1788C28.4749 14.1788 28.4749 14.1788 28.4749 14.1788L28.4749 14.1788ZM24.0973 6.69005L24.0973 6.68996L24.0973 6.68983C24.0973 6.6899 24.0973 6.68997 24.0973 6.69005ZM17.9099 2.63615C17.0649 1.15674 14.9318 1.15679 14.0868 2.63614L14.0868 2.63615L12.1838 5.96767L8.58462 4.63879C8.58461 4.63879 8.58461 4.63879 8.58461 4.63879C6.98632 4.04868 5.35235 5.4198 5.65592 7.09623L5.65592 7.09625L6.33962 10.8716L2.72826 12.1671L2.72825 12.1671C1.12465 12.7424 0.754191 14.843 2.06438 15.9321C2.06439 15.9321 2.06439 15.9321 2.0644 15.9321L5.01485 18.3847L3.08115 21.6985C2.22252 23.1699 3.28894 25.0174 4.99275 25.0094L8.82939 24.9916L9.47815 28.7731L10.6017 28.5803L9.47815 28.7731C9.76625 30.4522 11.7706 31.1819 13.0707 30.0807L15.9984 27.6009L18.926 30.0807C20.2261 31.1819 22.2305 30.4523 22.5186 28.7731L23.1674 24.9916L27.0039 25.0094C28.7079 25.0174 29.7741 23.1699 28.9156 21.6986L28.9156 21.6985L26.982 18.3847L29.9323 15.9322C29.9323 15.9322 29.9324 15.9321 29.9324 15.9321C31.2428 14.8428 30.8717 12.7423 29.2685 12.1671L29.2684 12.1671L25.6571 10.8716L26.3408 7.09637C26.6446 5.41958 25.0101 4.04876 23.412 4.6388L19.8129 5.96767L17.9099 2.63616C17.9099 2.63616 17.9099 2.63615 17.9099 2.63615Z" fill="white"/>
</svg>
