<svg width="45" height="39" viewBox="0 0 45 39" fill="none" xmlns="http://www.w3.org/2000/svg">
<path fill-rule="evenodd" clip-rule="evenodd" d="M34.6592 8.48049C34.9592 8.80049 35.1192 9.22049 35.1192 9.66049V36.7405H4.89922C4.05922 36.7405 3.23922 36.3805 2.63922 35.7605C2.03922 35.1405 1.69922 34.2805 1.69922 33.4005V9.66049C1.69922 9.22049 1.85922 8.80049 2.15922 8.48049C2.45922 8.16049 2.85922 8.00049 3.27922 8.00049H33.5392C33.9592 8.00049 34.3592 8.18049 34.6592 8.48049ZM11.2792 10.4604H25.5992V18.4204H11.2792V10.4604Z" fill="#F9662D" fill-opacity="0.4"/>
<path d="M39.1195 38.4405H4.89953C3.59953 38.4405 2.31953 37.9005 1.41953 36.9405C0.519531 35.9805 0.0195312 34.7405 0.0195312 33.4005V3.38049C0.0195312 2.50049 0.359531 1.66049 0.959531 1.02049C1.57953 0.380488 2.43953 0.000488281 3.31953 0.000488281H33.5595C34.4395 0.000488281 35.2995 0.380488 35.9195 1.02049C36.5195 1.66049 36.8595 2.48049 36.8595 3.38049V32.5605C36.8595 33.2205 37.1195 33.8605 37.5595 34.3205C38.4195 35.2205 39.8595 35.2205 40.7195 34.3205C41.1595 33.8605 41.4195 33.2205 41.4195 32.5605V7.70049C41.4195 6.76049 42.1795 6.00049 43.1195 6.00049C44.0595 6.00049 44.8195 6.76049 44.8195 7.70049V32.5605C44.8195 34.1205 44.2395 35.5805 43.1795 36.6805C42.1195 37.8005 40.6395 38.4405 39.1195 38.4405ZM33.4395 3.38049L3.29953 3.42049L3.41953 33.4005C3.41953 33.8405 3.57953 34.2805 3.87953 34.5805C4.15953 34.8605 4.51953 35.0205 4.89953 35.0205H33.9595C33.6195 34.2605 33.4395 33.4205 33.4395 32.5605V3.38049Z" fill="#1335AF"/>
<path d="M25.6001 20.1403H11.2801C10.3401 20.1403 9.58008 19.3803 9.58008 18.4403V10.4803C9.58008 9.54027 10.3401 8.78027 11.2801 8.78027H25.6001C26.5401 8.78027 27.3001 9.54027 27.3001 10.4803V18.4403C27.3001 19.3803 26.5401 20.1403 25.6001 20.1403ZM12.9801 16.7203H23.8801V12.1803H12.9801V16.7203Z" fill="#1335AF"/>
<path d="M25.6001 29.7003H11.2801C10.3401 29.7003 9.58008 28.9403 9.58008 28.0003C9.58008 27.0603 10.3401 26.3003 11.2801 26.3003H25.6001C26.5401 26.3003 27.3001 27.0603 27.3001 28.0003C27.3001 28.9403 26.5401 29.7003 25.6001 29.7003Z" fill="#1335AF"/>
</svg>
