<svg width="25" height="24" viewBox="0 0 25 24" fill="none" xmlns="http://www.w3.org/2000/svg">
<path d="M20.8036 14.6887C20.6293 14.99 20.4049 15.2697 20.1307 15.5152L12.5 22.3489L4.86934 15.5152C4.5951 15.2697 4.3707 14.99 4.19641 14.6887C4.34636 14.4297 4.53363 14.1862 4.75841 13.9659C6.05593 12.6943 8.1256 12.6759 9.44547 13.9242L12.5 16.8132L15.5546 13.9242C16.8744 12.6759 18.9441 12.6943 20.2416 13.9659C20.4664 14.1862 20.6537 14.4297 20.8036 14.6887Z" fill="#F9662D" fill-opacity="0.4"/>
<path d="M15.4607 6.0098C14.9933 7.18717 13.8439 8.01963 12.5 8.01963C11.1562 8.01963 10.0067 7.18717 9.53931 6.0098C10.0067 4.83243 11.1562 3.99997 12.5 3.99997C13.8439 3.99997 14.9933 4.83243 15.4607 6.0098Z" fill="#F9662D" fill-opacity="0.4"/>
<path fill-rule="evenodd" clip-rule="evenodd" d="M19.6432 11.1883C18.6738 10.2384 17.128 10.2247 16.142 11.1572C16.142 11.1572 16.142 11.1572 16.142 11.1572L13.0875 14.0462C12.7579 14.358 12.2421 14.358 11.9125 14.0462L8.85792 11.1572C7.87196 10.2247 6.3261 10.2384 5.35681 11.1884L5.35681 11.1884C4.31333 12.211 4.35138 13.9037 5.43969 14.8783C5.43969 14.8783 5.43969 14.8783 5.43969 14.8783L12.5 21.2012L19.5602 14.8783L19.5603 14.8783C20.6486 13.9037 20.6866 12.211 19.6432 11.1884M14.967 9.91487C16.6208 8.35073 19.2142 8.37381 20.84 9.96705L20.8401 9.96707C22.5892 11.6813 22.5256 14.5182 20.701 16.1522C20.701 16.1522 20.701 16.1522 20.701 16.1522L13.0704 22.9858C12.7457 23.2766 12.2543 23.2766 11.9296 22.9858L4.2989 16.1522L4.29889 16.1522C2.4744 14.5183 2.41069 11.6813 4.15992 9.96707C5.78567 8.3738 8.37916 8.35074 10.0329 9.91487L12.5 12.2482L14.967 9.91487L14.967 9.91487Z" fill="#1335AF"/>
<path fill-rule="evenodd" clip-rule="evenodd" d="M8.46069 4.83535C8.46069 2.60452 10.2691 0.796066 12.5 0.796066C14.7308 0.796066 16.5393 2.60452 16.5393 4.83535C16.5393 7.06619 14.7308 8.87464 12.5 8.87464C10.2691 8.87464 8.46069 7.06619 8.46069 4.83535ZM12.5 2.50607C11.2135 2.50607 10.1707 3.54892 10.1707 4.83535C10.1707 6.12178 11.2135 7.16464 12.5 7.16464C13.7864 7.16464 14.8293 6.12178 14.8293 4.83535C14.8293 3.54892 13.7864 2.50607 12.5 2.50607Z" fill="#1335AF"/>
</svg>
