<svg width="25" height="24" viewBox="0 0 25 24" fill="none" xmlns="http://www.w3.org/2000/svg">
<path d="M12.4998 6.85615C13.7173 6.85615 14.7043 5.86917 14.7043 4.65166C14.7043 3.43413 13.7173 2.44714 12.4998 2.44714C11.2823 2.44714 10.2953 3.43413 10.2953 4.65166C10.2953 5.86917 11.2823 6.85615 12.4998 6.85615Z" fill="#F9662D" fill-opacity="0.4"/>
<path d="M5.15166 14.2045C6.36917 14.2045 7.35615 13.2175 7.35615 12C7.35615 10.7825 6.36917 9.79547 5.15166 9.79547C3.93413 9.79547 2.94714 10.7825 2.94714 12C2.94714 13.2175 3.93413 14.2045 5.15166 14.2045Z" fill="#F9662D" fill-opacity="0.4"/>
<path d="M19.8488 14.2045C21.0663 14.2045 22.0532 13.2175 22.0532 12C22.0532 10.7825 21.0663 9.79547 19.8488 9.79547C18.6313 9.79547 17.6443 10.7825 17.6443 12C17.6443 13.2175 18.6313 14.2045 19.8488 14.2045Z" fill="#F9662D" fill-opacity="0.4"/>
<path d="M12.4998 21.5527C13.7173 21.5527 14.7043 20.5657 14.7043 19.3482C14.7043 18.1307 13.7173 17.1437 12.4998 17.1437C11.2823 17.1437 10.2953 18.1307 10.2953 19.3482C10.2953 20.5657 11.2823 21.5527 12.4998 21.5527Z" fill="#F9662D" fill-opacity="0.4"/>
<path d="M19.8488 21.5527C21.0663 21.5527 22.0532 20.5657 22.0532 19.3482C22.0532 18.1307 21.0663 17.1437 19.8488 17.1437C18.6313 17.1437 17.6443 18.1307 17.6443 19.3482C17.6443 20.5657 18.6313 21.5527 19.8488 21.5527Z" fill="#F9662D" fill-opacity="0.4"/>
<path fill-rule="evenodd" clip-rule="evenodd" d="M9.44031 4.65168C9.44031 2.96194 10.8101 1.59216 12.4998 1.59216C14.1895 1.59216 15.5593 2.96194 15.5593 4.65168C15.5593 6.3414 14.1895 7.71117 12.4998 7.71117C10.8101 7.71117 9.44031 6.3414 9.44031 4.65168ZM12.4998 3.30216C11.7545 3.30216 11.1503 3.90636 11.1503 4.65168C11.1503 5.39698 11.7545 6.00117 12.4998 6.00117C13.2451 6.00117 13.8493 5.39698 13.8493 4.65168C13.8493 3.90636 13.2451 3.30216 12.4998 3.30216Z" fill="#1335AF"/>
<path fill-rule="evenodd" clip-rule="evenodd" d="M2.09216 12C2.09216 10.3103 3.46195 8.94049 5.15168 8.94049C6.84139 8.94049 8.21117 10.3103 8.21117 12C8.21117 13.6897 6.8414 15.0595 5.15168 15.0595C3.46194 15.0595 2.09216 13.6897 2.09216 12ZM5.15168 10.6505C4.40635 10.6505 3.80216 11.2547 3.80216 12C3.80216 12.7453 4.40636 13.3495 5.15168 13.3495C5.89698 13.3495 6.50117 12.7453 6.50117 12C6.50117 11.2547 5.89698 10.6505 5.15168 10.6505Z" fill="#1335AF"/>
<path fill-rule="evenodd" clip-rule="evenodd" d="M16.7892 12C16.7892 10.3103 18.1589 8.94049 19.8487 8.94049C21.5384 8.94049 22.9081 10.3103 22.9081 12C22.9081 13.6897 21.5384 15.0595 19.8487 15.0595C18.1589 15.0595 16.7892 13.6897 16.7892 12ZM19.8487 10.6505C19.1034 10.6505 18.4992 11.2547 18.4992 12C18.4992 12.7453 19.1034 13.3495 19.8487 13.3495C20.594 13.3495 21.1981 12.7453 21.1981 12C21.1981 11.2547 20.594 10.6505 19.8487 10.6505Z" fill="#1335AF"/>
<path fill-rule="evenodd" clip-rule="evenodd" d="M2.09216 4.65168C2.09216 2.96194 3.46194 1.59216 5.15168 1.59216C6.84139 1.59216 8.21117 2.96195 8.21117 4.65168C8.21117 6.34139 6.84139 7.71117 5.15168 7.71117C3.46195 7.71117 2.09216 6.34139 2.09216 4.65168ZM5.15168 3.30216C4.40635 3.30216 3.80216 3.90635 3.80216 4.65168C3.80216 5.39698 4.40635 6.00117 5.15168 6.00117C5.89698 6.00117 6.50117 5.39698 6.50117 4.65168C6.50117 3.90635 5.89698 3.30216 5.15168 3.30216Z" fill="#1335AF"/>
<path fill-rule="evenodd" clip-rule="evenodd" d="M16.7892 4.65168C16.7892 2.96196 18.1589 1.59216 19.8487 1.59216C21.5384 1.59216 22.9081 2.96196 22.9081 4.65168C22.9081 6.34138 21.5384 7.71117 19.8487 7.71117C18.1589 7.71117 16.7892 6.34138 16.7892 4.65168ZM19.8487 3.30216C19.1034 3.30216 18.4992 3.90634 18.4992 4.65168C18.4992 5.39699 19.1034 6.00117 19.8487 6.00117C20.594 6.00117 21.1981 5.39699 21.1981 4.65168C21.1981 3.90634 20.594 3.30216 19.8487 3.30216Z" fill="#1335AF"/>
<path fill-rule="evenodd" clip-rule="evenodd" d="M9.44031 12C9.44031 10.3103 10.8101 8.94049 12.4998 8.94049C14.1895 8.94049 15.5593 10.3103 15.5593 12C15.5593 13.6897 14.1895 15.0595 12.4998 15.0595C10.8101 15.0595 9.44031 13.6897 9.44031 12ZM12.4998 10.6505C11.7545 10.6505 11.1503 11.2547 11.1503 12C11.1503 12.7453 11.7545 13.3495 12.4998 13.3495C13.2451 13.3495 13.8493 12.7453 13.8493 12C13.8493 11.2547 13.2451 10.6505 12.4998 10.6505Z" fill="#1335AF"/>
<path fill-rule="evenodd" clip-rule="evenodd" d="M2.09216 19.3482C2.09216 17.6585 3.46196 16.2888 5.15168 16.2888C6.84138 16.2888 8.21117 17.6585 8.21117 19.3482C8.21117 21.038 6.84138 22.4077 5.15168 22.4077C3.46196 22.4077 2.09216 21.038 2.09216 19.3482ZM5.15168 17.9988C4.40634 17.9988 3.80216 18.6029 3.80216 19.3482C3.80216 20.0935 4.40634 20.6977 5.15168 20.6977C5.89699 20.6977 6.50117 20.0935 6.50117 19.3482C6.50117 18.6029 5.89699 17.9988 5.15168 17.9988Z" fill="#1335AF"/>
<path fill-rule="evenodd" clip-rule="evenodd" d="M9.44031 19.3482C9.44031 17.6585 10.8101 16.2888 12.4998 16.2888C14.1895 16.2888 15.5593 17.6585 15.5593 19.3482C15.5593 21.038 14.1895 22.4077 12.4998 22.4077C10.8101 22.4077 9.44031 21.038 9.44031 19.3482ZM12.4998 17.9988C11.7545 17.9988 11.1503 18.6029 11.1503 19.3482C11.1503 20.0935 11.7545 20.6977 12.4998 20.6977C13.2451 20.6977 13.8493 20.0935 13.8493 19.3482C13.8493 18.6029 13.2451 17.9988 12.4998 17.9988Z" fill="#1335AF"/>
<path fill-rule="evenodd" clip-rule="evenodd" d="M16.7892 19.3482C16.7892 17.6585 18.159 16.2888 19.8487 16.2888C21.5384 16.2888 22.9081 17.6585 22.9081 19.3482C22.9081 21.038 21.5384 22.4077 19.8487 22.4077C18.159 22.4077 16.7892 21.038 16.7892 19.3482ZM19.8487 17.9988C19.1034 17.9988 18.4992 18.6029 18.4992 19.3482C18.4992 20.0935 19.1034 20.6977 19.8487 20.6977C20.594 20.6977 21.1981 20.0935 21.1981 19.3482C21.1981 18.6029 20.594 17.9988 19.8487 17.9988Z" fill="#1335AF"/>
<path fill-rule="evenodd" clip-rule="evenodd" d="M6.10528 5.6051C6.43918 5.2712 6.98054 5.2712 7.31443 5.6051L11.5471 9.83775C11.881 10.1716 11.881 10.713 11.5471 11.0469C11.2132 11.3808 10.6718 11.3808 10.3379 11.0469L6.10528 6.81425C5.77138 6.48035 5.77138 5.939 6.10528 5.6051Z" fill="#1335AF"/>
<path fill-rule="evenodd" clip-rule="evenodd" d="M11.5471 12.9534C11.881 13.2873 11.881 13.8286 11.5471 14.1625L7.31444 18.3952C6.98054 18.7291 6.43918 18.7291 6.10528 18.3952C5.77138 18.0613 5.77138 17.5199 6.10528 17.186L10.3379 12.9534C10.6718 12.6195 11.2132 12.6195 11.5471 12.9534Z" fill="#1335AF"/>
<path fill-rule="evenodd" clip-rule="evenodd" d="M18.8953 5.6051C19.2292 5.939 19.2292 6.48036 18.8953 6.81425L14.6626 11.0469C14.3287 11.3808 13.7873 11.3808 13.4534 11.0469C13.1195 10.713 13.1195 10.1716 13.4534 9.83775L17.6861 5.6051C18.02 5.2712 18.5614 5.2712 18.8953 5.6051Z" fill="#1335AF"/>
</svg>
