<svg width="46" height="46" viewBox="0 0 46 46" fill="none" xmlns="http://www.w3.org/2000/svg">
<g id="Order-History--Streamline-Core">
<path id="Subtract" fill-rule="evenodd" clip-rule="evenodd" d="M8.66992 11.0589C8.66992 10.2144 9.00542 9.40446 9.60257 8.80729C10.1997 8.21012 11.0097 7.87463 11.8542 7.87463H32.5521L43.6971 19.0196V40.5136C43.6971 41.358 43.3614 42.1681 42.7644 42.7652C42.1673 43.3622 41.3573 43.6979 40.5128 43.6979H23.5817C25.7058 41.0934 26.9796 37.7681 26.9796 34.145C26.9796 25.7915 20.2077 19.0197 11.8542 19.0197C10.7619 19.0197 9.69657 19.1354 8.66992 19.3554V11.0589Z" fill="#F9662D" fill-opacity="0.4"/>
<path id="Vector (Stroke)" fill-rule="evenodd" clip-rule="evenodd" d="M11.8552 4.01216C11.4642 4.01216 11.0893 4.16747 10.8128 4.44395C10.8127 4.44396 10.8127 4.44397 10.8127 4.44398M10.8127 4.44398C10.5363 4.72049 10.3809 5.09547 10.3809 5.48645V18.2236C10.3809 19.168 9.61534 19.9336 8.67094 19.9336C7.72653 19.9336 6.96094 19.168 6.96094 18.2236V5.48645C6.96094 4.18838 7.4766 2.94353 8.39441 2.02569L8.39444 2.02565C9.3123 1.10781 10.5572 0.592163 11.8552 0.592163H32.5531C33.0066 0.592163 33.4415 0.772323 33.7622 1.09301L44.9072 12.238C45.2279 12.5587 45.4081 12.9936 45.4081 13.4472V40.5136C45.4081 41.8117 44.8922 43.0567 43.9746 43.9743C43.0569 44.892 41.8119 45.4079 40.5138 45.4079H24.5924C23.648 45.4079 22.8824 44.6423 22.8824 43.6979C22.8824 42.7535 23.648 41.9879 24.5924 41.9879H40.5138C40.9047 41.9879 41.2798 41.8325 41.5563 41.556C41.8327 41.2796 41.9881 40.9045 41.9881 40.5136V14.1555L31.8448 4.01216H11.8552" fill="#1335AF"/>
<path id="Vector_3 (Stroke)" fill-rule="evenodd" clip-rule="evenodd" d="M0.591797 34.145C0.591797 27.9247 5.63436 22.8821 11.8547 22.8821C18.0749 22.8821 23.1175 27.9247 23.1175 34.145C23.1175 40.3655 18.0749 45.4079 11.8547 45.4079C5.63438 45.4079 0.591797 40.3655 0.591797 34.145ZM11.8547 26.3021C7.52318 26.3021 4.0118 29.8135 4.0118 34.145C4.0118 38.4766 7.52316 41.9879 11.8547 41.9879C16.1861 41.9879 19.6975 38.4766 19.6975 34.145C19.6975 29.8135 16.1861 26.3021 11.8547 26.3021Z" fill="#1335AF"/>
<path id="Vector_4 (Stroke)" fill-rule="evenodd" clip-rule="evenodd" d="M15.4519 30.5477C16.1197 31.2155 16.1197 32.2982 15.4519 32.966L13.0637 35.3542C12.3959 36.022 11.3132 36.022 10.6454 35.3542C9.97758 34.6864 9.97758 33.6037 10.6454 32.9359L13.0336 30.5477C13.7014 29.8799 14.7841 29.8799 15.4519 30.5477Z" fill="#1335AF"/>
</g>
</svg>
