<svg width="40" height="40" viewBox="0 0 40 40" fill="none" xmlns="http://www.w3.org/2000/svg">
<path fill-rule="evenodd" clip-rule="evenodd" d="M30.5506 10.4005C30.8006 10.6672 30.934 11.0172 30.934 11.3838V33.9505H5.75065C5.05065 33.9505 4.36732 33.6505 3.86732 33.1338C3.36732 32.6171 3.08398 31.9005 3.08398 31.1671V11.3838C3.08398 11.0172 3.21732 10.6672 3.46732 10.4005C3.71732 10.1338 4.05065 10.0005 4.40065 10.0005H29.6173C29.9673 10.0005 30.3006 10.1505 30.5506 10.4005ZM11.0673 12.0505H23.0007V18.6838H11.0673V12.0505Z" fill="#F9662D" fill-opacity="0.4"/>
<path d="M34.2669 35.3672H5.75026C4.66693 35.3672 3.60026 34.9172 2.85026 34.1172C2.10026 33.3172 1.68359 32.2839 1.68359 31.1672V6.15053C1.68359 5.4172 1.96693 4.7172 2.46693 4.18386C2.98359 3.65053 3.70026 3.33386 4.43359 3.33386H29.6336C30.3669 3.33386 31.0836 3.65053 31.6003 4.18386C32.1003 4.7172 32.3836 5.40053 32.3836 6.15053V30.4672C32.3836 31.0172 32.6003 31.5505 32.9669 31.9339C33.6836 32.6839 34.8836 32.6839 35.6003 31.9339C35.9669 31.5505 36.1836 31.0172 36.1836 30.4672V9.75053C36.1836 8.9672 36.8169 8.33386 37.6003 8.33386C38.3836 8.33386 39.0169 8.9672 39.0169 9.75053V30.4672C39.0169 31.7672 38.5336 32.9839 37.6503 33.9005C36.7669 34.8339 35.5336 35.3672 34.2669 35.3672ZM29.5336 6.15053L4.41693 6.18386L4.51693 31.1672C4.51693 31.5339 4.65026 31.9005 4.90026 32.1505C5.13359 32.3839 5.43359 32.5172 5.75026 32.5172H29.9669C29.6836 31.8839 29.5336 31.1839 29.5336 30.4672V6.15053Z" fill="#1335AF"/>
<path d="M23.0004 20.1172H11.0671C10.2837 20.1172 9.65039 19.4838 9.65039 18.7005V12.0672C9.65039 11.2838 10.2837 10.6505 11.0671 10.6505H23.0004C23.7837 10.6505 24.4171 11.2838 24.4171 12.0672V18.7005C24.4171 19.4838 23.7837 20.1172 23.0004 20.1172ZM12.4837 17.2672H21.5671V13.4838H12.4837V17.2672Z" fill="#1335AF"/>
<path d="M23.0004 28.0838H11.0671C10.2837 28.0838 9.65039 27.4505 9.65039 26.6672C9.65039 25.8838 10.2837 25.2505 11.0671 25.2505H23.0004C23.7837 25.2505 24.4171 25.8838 24.4171 26.6672C24.4171 27.4505 23.7837 28.0838 23.0004 28.0838Z" fill="#1335AF"/>
</svg>
