<svg width="25" height="24" viewBox="0 0 25 24" fill="none" xmlns="http://www.w3.org/2000/svg">
<path fill-rule="evenodd" clip-rule="evenodd" d="M6.86865 4.03931C6.86865 2.68779 7.96428 1.59216 9.3158 1.59216H20.4608C21.8124 1.59216 22.9079 2.68781 22.9079 4.03931V19.9607C22.9079 21.3123 21.8123 22.4079 20.4608 22.4079H15.6844C15.2122 22.4079 14.8294 22.0251 14.8294 21.5529C14.8294 21.0807 15.2122 20.6979 15.6844 20.6979H20.4608C20.8679 20.6979 21.1979 20.3679 21.1979 19.9607V4.03931C21.1979 3.63219 20.8679 3.30216 20.4608 3.30216H9.3158C8.90869 3.30216 8.57865 3.6322 8.57865 4.03931V4.68611C8.57865 5.15832 8.19586 5.54111 7.72365 5.54111C7.25145 5.54111 6.86865 5.15832 6.86865 4.68611V4.03931Z" fill="#1335AF"/>
<path d="M12.5 12.5921C12.5 11.7128 11.7872 11 10.9079 11H4.53929C3.65998 11 2.94714 11.7128 2.94714 12.5921V19.9607C2.94714 20.8401 3.65998 21.5529 4.53929 21.5529H10.9079C11.7872 21.5529 12.5 20.8401 12.5 19.9607V12.5921Z" fill="#F9662D" fill-opacity="0.4"/>
<path fill-rule="evenodd" clip-rule="evenodd" d="M2.09216 9.61182C2.09216 8.2603 3.18779 7.16467 4.53931 7.16467H10.9079C12.2594 7.16467 13.355 8.2603 13.355 9.61182V19.9607C13.355 21.3123 12.2594 22.4079 10.9079 22.4079H4.53931C3.18781 22.4079 2.09216 21.3123 2.09216 19.9607V9.61182ZM4.53931 8.87467C4.1322 8.87467 3.80216 9.20471 3.80216 9.61182V19.9607C3.80216 20.3679 4.13219 20.6979 4.53931 20.6979H10.9079C11.315 20.6979 11.645 20.3679 11.645 19.9607V9.61182C11.645 9.20471 11.315 8.87467 10.9079 8.87467H4.53931Z" fill="#1335AF"/>
<path fill-rule="evenodd" clip-rule="evenodd" d="M6.07251 18.3686C6.07251 17.8964 6.45531 17.5136 6.92751 17.5136H8.51965C8.99186 17.5136 9.37465 17.8964 9.37465 18.3686C9.37465 18.8408 8.99186 19.2236 8.51965 19.2236H6.92751C6.45531 19.2236 6.07251 18.8408 6.07251 18.3686Z" fill="#1335AF"/>
</svg>
