<svg width="25" height="24" viewBox="0 0 25 24" fill="none" xmlns="http://www.w3.org/2000/svg">
<path d="M7.72648 12.796H20.7502C20.9368 12.7985 21.1181 12.7341 21.2612 12.6143C21.4044 12.4945 21.4999 12.3274 21.5303 12.1433L22.5491 7.17359C22.501 7.13521 22.4484 7.10244 22.3925 7.07603C22.2871 7.02635 22.1723 7.0004 22.0557 6.99997H6.56726L7.72648 12.796Z" fill="#F9662D" fill-opacity="0.4"/>
<path fill-rule="evenodd" clip-rule="evenodd" d="M5.4731 4.29329C5.63549 4.09519 5.87815 3.98035 6.1343 3.98035H22.0588C22.3005 3.98124 22.5386 4.03511 22.7569 4.138C22.9749 4.24085 23.1682 4.39043 23.3224 4.57597C23.4773 4.76211 23.589 4.97981 23.6501 5.21348C23.7111 5.44677 23.7205 5.69103 23.6768 5.92902L23.6734 5.94642L22.3706 12.3018C22.3034 12.6805 22.1048 13.0233 21.8099 13.27C21.5116 13.5197 21.1341 13.6547 20.7454 13.6511H7.72645C7.31889 13.6511 6.96798 13.3634 6.88805 12.9637L5.29591 5.00303C5.24567 4.75185 5.3107 4.49138 5.4731 4.29329ZM7.17724 5.69035L8.42738 11.9411H20.699L21.9803 5.69035H7.17724ZM22.0074 5.669C22.0073 5.66897 22.0074 5.66903 22.0074 5.669V5.669Z" fill="#1335AF"/>
<path fill-rule="evenodd" clip-rule="evenodd" d="M1.29919 1.65107C1.29919 1.17886 1.68199 0.796066 2.15419 0.796066L4.68552 0.796066C4.68558 0.796066 4.68564 0.796066 4.6857 0.796066C5.06627 0.796028 5.43516 0.927458 5.72996 1.16812C6.01758 1.40291 6.21747 1.72762 6.29776 2.08962L6.96153 4.61827C7.08142 5.075 6.80836 5.54244 6.35163 5.66233C5.8949 5.78223 5.42746 5.50917 5.30756 5.05244L4.63914 2.50607H2.15419C1.68199 2.50607 1.29919 2.12327 1.29919 1.65107Z" fill="#1335AF"/>
<path fill-rule="evenodd" clip-rule="evenodd" d="M7.55907 11.9577C8.0221 11.8651 8.47254 12.1654 8.56514 12.6284L9.22375 15.9214H18.8718C19.344 15.9214 19.7268 16.3042 19.7268 16.7764C19.7268 17.2486 19.344 17.6314 18.8718 17.6314H9.1756C8.79522 17.6314 8.42628 17.5001 8.13134 17.2594C7.83647 17.0187 7.63387 16.6835 7.55773 16.3106L7.55704 16.3072L7.55705 16.3072L6.88835 12.9637C6.79574 12.5007 7.09603 12.0503 7.55907 11.9577Z" fill="#1335AF"/>
<path fill-rule="evenodd" clip-rule="evenodd" d="M18.0758 21.6118C18.1083 21.6118 18.1347 21.5854 18.1347 21.5529C18.1347 21.5204 18.1083 21.4939 18.0758 21.4939C18.0431 21.4939 18.0168 21.5202 18.0168 21.5529C18.0168 21.5855 18.0431 21.6118 18.0758 21.6118ZM16.4247 21.5529C16.4247 20.6412 17.1637 19.9018 18.0758 19.9018C18.9875 19.9018 19.7268 20.6411 19.7268 21.5529C19.7268 22.4646 18.9875 23.2039 18.0758 23.2039C17.1637 23.2039 16.4247 22.4645 16.4247 21.5529Z" fill="#1335AF"/>
<path fill-rule="evenodd" clip-rule="evenodd" d="M10.1149 21.6118C10.1475 21.6118 10.1739 21.5854 10.1739 21.5529C10.1739 21.5203 10.1475 21.4939 10.1149 21.4939C10.0823 21.4939 10.056 21.5203 10.056 21.5529C10.056 21.5854 10.0823 21.6118 10.1149 21.6118ZM8.46387 21.5529C8.46387 20.6411 9.20304 19.9018 10.1149 19.9018C11.0269 19.9018 11.766 20.6411 11.766 21.5529C11.766 22.4646 11.0269 23.2039 10.1149 23.2039C9.20304 23.2039 8.46387 22.4646 8.46387 21.5529Z" fill="#1335AF"/>
</svg>
