<?xml version="1.0" standalone="no"?>
<!DOCTYPE svg PUBLIC "-//W3C//DTD SVG 20010904//EN"
 "http://www.w3.org/TR/2001/REC-SVG-20010904/DTD/svg10.dtd">
<svg version="1.0" xmlns="http://www.w3.org/2000/svg"
 width="593.000000pt" height="593.000000pt" viewBox="0 0 593.000000 593.000000"
 preserveAspectRatio="xMidYMid meet">
<metadata>
Created by potrace 1.14, written by Peter Selinger 2001-2017
</metadata>
<g transform="translate(0.000000,593.000000) scale(0.100000,-0.100000)"
fill="#000000" stroke="none">
<path d="M3330 4788 c-39 -94 -83 -195 -96 -224 -13 -29 -24 -56 -24 -59 0 -3
-9 -25 -19 -48 -10 -23 -78 -181 -151 -352 -73 -170 -138 -323 -145 -340 -8
-16 -44 -102 -81 -190 -36 -88 -69 -163 -73 -167 -3 -4 -5 114 -5 263 l1 269
-273 0 -274 0 0 -275 0 -275 -275 0 -275 0 0 -270 c0 -209 -3 -270 -12 -271
-7 0 -130 -2 -273 -2 l-260 -2 0 -272 0 -273 -272 0 -273 0 0 -275 0 -275 275
0 275 0 2 273 3 272 270 0 270 0 0 270 0 270 273 3 272 2 0 -270 0 -270 -32
-1 c-18 0 -141 -1 -273 -2 l-240 -2 -1 -272 -1 -273 196 -2 197 -3 -138 -325
c-76 -179 -149 -349 -163 -379 -14 -29 -24 -55 -21 -58 3 -4 412 -6 772 -4
l122 1 10 28 c52 130 195 483 206 507 8 17 31 73 52 125 21 52 39 97 42 100 2
3 403 5 892 5 l889 0 11 -25 c7 -14 34 -81 62 -150 27 -69 56 -138 63 -155 8
-16 51 -121 96 -232 45 -112 87 -203 93 -204 46 -3 899 1 902 4 3 2 -7 28 -20
58 -13 30 -88 205 -166 389 -142 334 -190 448 -215 505 -8 17 -91 212 -185
435 -94 223 -177 419 -185 435 -7 17 -58 136 -113 265 -411 965 -739 1738
-769 1808 l-35 82 -418 0 -417 0 -73 -172z m490 -879 c0 -6 9 -29 19 -52 10
-23 53 -127 96 -232 42 -104 88 -216 101 -247 32 -77 62 -151 114 -278 59
-147 130 -319 145 -355 8 -16 23 -55 35 -85 11 -30 27 -69 35 -87 8 -17 15
-35 15 -40 0 -9 -1125 -11 -1135 -1 -3 3 116 305 266 670 150 364 277 677 283
695 9 29 26 36 26 12z m-1089 -528 c1 -3 2 -124 3 -268 1 -172 -2 -264 -9
-266 -9 -3 -494 -1 -520 2 -7 1 -10 89 -9 269 1 147 2 267 3 268 8 4 531 0
532 -5z"/>
<path d="M1099 3938 c-1 -2 -2 -126 -3 -275 -1 -267 -1 -273 19 -274 149 -6
518 -2 523 6 4 6 7 130 7 278 l0 267 -272 0 c-150 0 -274 -1 -274 -2z"/>
<path d="M4 3118 l1 -273 268 -1 c164 -1 270 2 273 8 5 7 8 377 5 516 l-1 22
-274 0 -274 0 2 -272z"/>
</g>
</svg>
