<svg width="25" height="24" viewBox="0 0 25 24" fill="none" xmlns="http://www.w3.org/2000/svg">
<path d="M10.9079 14.3882H6.46423L14.0921 5V12.9607H18.5358L10.9079 22.3489V14.3882Z" fill="#F9662D" fill-opacity="0.4"/>
<path fill-rule="evenodd" clip-rule="evenodd" d="M14.3782 0.845343C14.7192 0.966433 14.9471 1.28915 14.9471 1.65107V8.75678H21.2568C21.5866 8.75678 21.887 8.9465 22.0288 9.24433C22.1705 9.54215 22.1283 9.89495 21.9203 10.1509L11.5714 22.8881C11.3432 23.169 10.9628 23.2757 10.6218 23.1546C10.2807 23.0336 10.0528 22.7108 10.0528 22.3489V15.2432H3.74319C3.41336 15.2432 3.11294 15.0535 2.97118 14.7557C2.82943 14.4578 2.87162 14.105 3.07962 13.8491L13.4285 1.11191C13.6568 0.831019 14.0371 0.724252 14.3782 0.845343ZM5.53952 13.5332H10.9078C11.38 13.5332 11.7628 13.916 11.7628 14.3882V19.9407L19.4604 10.4668H14.0921C13.6199 10.4668 13.2371 10.084 13.2371 9.61178V4.05924L5.53952 13.5332Z" fill="#1335AF"/>
</svg>
