<svg width="25" height="24" viewBox="0 0 25 24" fill="none" xmlns="http://www.w3.org/2000/svg">
<path fill-rule="evenodd" clip-rule="evenodd" d="M20.4607 5C21.3401 5 22.0529 5.71283 22.0529 6.59214V8.29897C22.0529 14.3124 18.2048 19.6512 12.5 21.5529C6.79513 19.6512 2.94714 14.3124 2.94714 8.29897V6.59214C2.94714 5.71283 3.65998 5 4.53929 5H20.4607ZM14.8882 8.87949C14.8882 10.1985 13.819 11.2677 12.5 11.2677C11.181 11.2677 10.1118 10.1985 10.1118 8.87949C10.1118 7.56051 11.181 6.49127 12.5 6.49127C13.819 6.49127 14.8882 7.56051 14.8882 8.87949Z" fill="#F9662D" fill-opacity="0.4"/>
<path fill-rule="evenodd" clip-rule="evenodd" d="M2.09216 4.03931C2.09216 2.68779 3.18779 1.59216 4.53931 1.59216H20.4607C21.8123 1.59216 22.9079 2.68781 22.9079 4.03931V8.29899C22.9079 14.6805 18.8243 20.346 12.7704 22.364C12.5949 22.4225 12.4051 22.4225 12.2296 22.364C6.17564 20.346 2.09216 14.6805 2.09216 8.29899V4.03931ZM4.53931 3.30216C4.1322 3.30216 3.80216 3.6322 3.80216 4.03931V8.29899C3.80216 13.8489 7.29343 18.7867 12.5 20.6484C17.7066 18.7867 21.1979 13.8489 21.1979 8.29899V4.03931C21.1979 3.63219 20.8679 3.30216 20.4607 3.30216H4.53931Z" fill="#1335AF"/>
<path fill-rule="evenodd" clip-rule="evenodd" d="M12.5 10.4127C12.9722 10.4127 13.355 10.7955 13.355 11.2677V15.2481C13.355 15.7203 12.9722 16.1031 12.5 16.1031C12.0278 16.1031 11.645 15.7203 11.645 15.2481V11.2677C11.645 10.7955 12.0278 10.4127 12.5 10.4127Z" fill="#1335AF"/>
<path fill-rule="evenodd" clip-rule="evenodd" d="M9.25684 8.87951C9.25684 7.08832 10.7089 5.63629 12.5001 5.63629C14.2912 5.63629 15.7433 7.08832 15.7433 8.87951C15.7433 10.6707 14.2912 12.1227 12.5001 12.1227C10.7089 12.1227 9.25684 10.6707 9.25684 8.87951ZM12.5001 7.34629C11.6533 7.34629 10.9668 8.03273 10.9668 8.87951C10.9668 9.72628 11.6533 10.4127 12.5001 10.4127C13.3468 10.4127 14.0333 9.72628 14.0333 8.87951C14.0333 8.03273 13.3468 7.34629 12.5001 7.34629Z" fill="#1335AF"/>
</svg>
