<svg width="30" height="20" viewBox="0 0 30 20" fill="none" xmlns="http://www.w3.org/2000/svg">
<path fill-rule="evenodd" clip-rule="evenodd" d="M0.0614014 10.0011C0.0614014 9.37148 0.571797 8.86108 1.2014 8.86108H20.3071C20.9367 8.86108 21.4471 9.37148 21.4471 10.0011C21.4471 10.6307 20.9367 11.1411 20.3071 11.1411H1.2014C0.571797 11.1411 0.0614014 10.6307 0.0614014 10.0011Z" fill="white"/>
<path d="M26.7082 11.8555L20.3071 18.4926L20.3123 6.10547L26.7082 11.8555Z" fill="#F9662D" fill-opacity="0.4"/>
<path fill-rule="evenodd" clip-rule="evenodd" d="M19.8709 0.45644C20.2968 0.279989 20.7872 0.377523 21.1132 0.70356L29.6046 9.19499C29.8184 9.40878 29.9385 9.69874 29.9385 10.0011C29.9385 10.3034 29.8184 10.5934 29.6046 10.8072L21.1132 19.2986C20.7872 19.6247 20.2968 19.7222 19.8709 19.5457C19.4449 19.3693 19.1671 18.9536 19.1671 18.4925V1.50966C19.1671 1.04858 19.4449 0.63289 19.8709 0.45644ZM21.4471 4.26187V15.7403L27.1863 10.0011L21.4471 4.26187Z" fill="white"/>
</svg>
