<svg width="25" height="24" viewBox="0 0 25 24" fill="none" xmlns="http://www.w3.org/2000/svg">
<path fill-rule="evenodd" clip-rule="evenodd" d="M5.78839 6.18007C7.42953 5.65725 9.18006 5.81823 10.9281 7.0109C11.3182 7.27703 11.4186 7.80899 11.1525 8.19905C10.8863 8.58911 10.3544 8.68957 9.96433 8.42344C8.65546 7.5304 7.45256 7.44459 6.30745 7.80939C5.37929 8.10508 4.45457 8.70976 3.54792 9.51878L7.87825 12.1274C8.28273 12.3711 8.4131 12.8965 8.16944 13.301C7.92578 13.7055 7.40035 13.8358 6.99587 13.5922L1.70996 10.4079C1.48635 10.2732 1.33653 10.0437 1.30316 9.7848C1.26979 9.5259 1.35653 9.26593 1.53867 9.07893C2.77228 7.81243 4.19961 6.68621 5.78839 6.18007Z" fill="#1335AF"/>
<path fill-rule="evenodd" clip-rule="evenodd" d="M16.301 13.3476C16.6911 13.0814 17.223 13.1819 17.4892 13.572C18.6819 15.32 18.8428 17.0705 18.32 18.7117C17.8139 20.3005 16.6876 21.7278 15.4211 22.9614C15.2341 23.1435 14.9742 23.2303 14.7153 23.1969C14.4564 23.1635 14.2269 23.0137 14.0922 22.7901L10.9079 17.5042C10.6642 17.0997 10.7946 16.5743 11.1991 16.3306C11.6036 16.087 12.129 16.2173 12.3727 16.6218L14.9813 20.9522C15.7903 20.0455 16.395 19.1208 16.6907 18.1926C17.0555 17.0475 16.9697 15.8446 16.0766 14.5357C15.8105 14.1457 15.911 13.6137 16.301 13.3476Z" fill="#1335AF"/>
<path d="M22.7707 6.90874C22.5805 8.3365 21.9935 9.89408 20.62 11.2676C19.5494 12.377 17.6997 13.54 15.6524 14.7384L10.6387 9.72463C11.5287 8.28196 12.3974 7.03141 13.2324 6.22568C17.0217 2.43639 22.2121 4.63354 22.2121 4.63354C22.2121 4.63354 22.6029 5.55677 22.7707 6.90874Z" fill="#F9662D" fill-opacity="0.4"/>
<path fill-rule="evenodd" clip-rule="evenodd" d="M22.5447 1.50021C22.5451 1.50037 22.5454 1.50053 22.2121 2.28789C22.9995 1.95459 22.9996 1.95494 22.9998 1.95532L23.0002 1.95618L23.001 1.95826L23.0034 1.96386L23.0103 1.98075C23.0159 1.99451 23.0234 2.01326 23.0326 2.03679C23.0509 2.08383 23.0759 2.15007 23.1054 2.23387C23.1645 2.40134 23.2422 2.63978 23.3219 2.93606C23.4807 3.52679 23.6502 4.35754 23.6913 5.32027C23.7736 7.24788 23.3393 9.75391 21.23 11.8667C20.2688 12.8608 18.7866 13.8519 17.1901 14.819C16.3807 15.3092 15.522 15.8048 14.6612 16.3006L14.5347 16.3734C13.7131 16.8465 12.891 17.32 12.0956 17.7965C11.7592 17.998 11.3289 17.9449 11.0516 17.6676L6.83247 13.4484C6.55552 13.1714 6.50217 12.7417 6.70297 12.4054C7.14343 11.6678 7.60556 10.8653 8.06856 10.0612C8.61427 9.11346 9.16119 8.16364 9.67525 7.31565C10.6443 5.71704 11.6393 4.23106 12.6332 3.27008C14.7461 1.16075 17.2521 0.726442 19.1797 0.808746C20.1425 0.849852 20.9732 1.01926 21.564 1.17812C21.8602 1.25779 22.0987 1.3355 22.2661 1.39458C22.3499 1.42414 22.4162 1.44911 22.4632 1.46744C22.4867 1.4766 22.5055 1.48411 22.5193 1.48971L22.5361 1.49664L22.5417 1.49898L22.5438 1.49985L22.5447 1.50021ZM22.2121 2.28789L22.9995 1.95459C22.9129 1.74999 22.75 1.58714 22.5454 1.50053L22.2121 2.28789ZM21.5446 2.95541C21.429 2.91767 21.2862 2.87417 21.1199 2.82945C20.619 2.69476 19.9153 2.55171 19.1068 2.51719C17.4935 2.44831 15.5124 2.80926 13.837 4.4846L13.8261 4.4953C13.0068 5.28585 12.1091 6.59949 11.1375 8.20211C10.6075 9.07653 10.0958 9.96639 9.57457 10.8728C9.22703 11.4773 8.87525 12.089 8.51095 12.7085L11.7909 15.9886C12.4167 15.6198 13.0517 15.2542 13.6775 14.8938L13.8078 14.8187C14.6705 14.3219 15.5134 13.8353 16.3041 13.3564C17.9049 12.3867 19.2143 11.493 20.0047 10.6739L20.0154 10.663C21.6907 8.98765 22.0517 7.00647 21.9828 5.39321C21.9483 4.58468 21.8052 3.88101 21.6706 3.38012C21.6258 3.21382 21.5823 3.07101 21.5446 2.95541ZM21.8805 3.07597C21.8809 3.07611 21.8809 3.07612 21.8806 3.076L21.8805 3.07597Z" fill="#1335AF"/>
<path fill-rule="evenodd" clip-rule="evenodd" d="M9.15692 8.24301C9.49082 7.90911 10.0322 7.90911 10.3661 8.24301L16.257 14.1339C16.5909 14.4678 16.5909 15.0092 16.257 15.3431C15.9231 15.677 15.3817 15.677 15.0478 15.3431L9.15692 9.45216C8.82302 9.11827 8.82302 8.57691 9.15692 8.24301Z" fill="#1335AF"/>
<path d="M18.0726 7.22357C18.5122 7.22357 18.8686 6.86715 18.8686 6.4275C18.8686 5.98784 18.5122 5.63143 18.0726 5.63143C17.633 5.63143 17.2765 5.98784 17.2765 6.4275C17.2765 6.86715 17.633 7.22357 18.0726 7.22357Z" stroke="#1335AF" stroke-width="1.71" stroke-linecap="round" stroke-linejoin="round"/>
<path d="M6.16218 21.2503C4.61194 21.8757 2.15112 22.3489 2.15112 22.3489C2.15112 22.3489 2.68287 19.5839 3.36392 18.0693C3.53668 18.0268 3.71407 18.0036 3.89284 18.0004C4.21351 17.9948 4.53204 18.0537 4.82942 18.1739C5.12678 18.294 5.39692 18.4728 5.6237 18.6995C5.85047 18.9264 6.02925 19.1964 6.14938 19.4938C6.26949 19.7912 6.32848 20.1096 6.32281 20.4305C6.31786 20.7114 6.26338 20.9889 6.16218 21.2503Z" fill="#F9662D" fill-opacity="0.4"/>
<path d="M2.10357 23.2927C1.88357 23.2927 1.66357 23.2027 1.50357 23.0427C1.30357 22.8427 1.21357 22.5527 1.26357 22.2727C1.45357 21.2427 2.18357 17.8027 3.17357 16.7727C3.46357 16.4627 3.81357 16.2127 4.21357 16.0327C4.61357 15.8527 5.03357 15.7527 5.47357 15.7527C5.92357 15.7327 6.34357 15.8227 6.74357 15.9927C7.15357 16.1527 7.51357 16.3927 7.82357 16.7027C8.13357 17.0127 8.37357 17.3727 8.53357 17.7827C8.69357 18.1927 8.77357 18.6227 8.77357 19.0527C8.77357 19.4927 8.67357 19.9127 8.49357 20.3127C8.31357 20.7127 8.06357 21.0627 7.74357 21.3627C6.71357 22.3527 3.28357 23.0727 2.25357 23.2727C2.20357 23.2727 2.14357 23.2927 2.09357 23.2927H2.10357ZM5.53357 17.4627H5.50357C5.29357 17.4627 5.09357 17.5127 4.90357 17.5927C4.71357 17.6727 4.54357 17.7927 4.40357 17.9527C4.05357 18.3127 3.57357 19.7927 3.20357 21.3127C4.72357 20.9527 6.20357 20.4727 6.55357 20.1227C6.55357 20.1227 6.55357 20.1227 6.56357 20.1127C6.71357 19.9727 6.83357 19.8027 6.92357 19.6127C7.00357 19.4227 7.05357 19.2227 7.05357 19.0127C7.05357 18.8027 7.02357 18.6027 6.94357 18.4127C6.86357 18.2227 6.75357 18.0527 6.60357 17.9027C6.45357 17.7527 6.28357 17.6427 6.09357 17.5627C5.91357 17.4927 5.71357 17.4527 5.52357 17.4527L5.53357 17.4627Z" fill="#1335AF"/>
</svg>
