<svg width="32" height="32" viewBox="0 0 32 32" fill="none" xmlns="http://www.w3.org/2000/svg">
<path d="M13.878 19.1841H7.95312L18.1237 6.6665V17.2808H24.0485L13.878 29.7984V19.1841Z" fill="#F9662D" fill-opacity="0.4"/>
<path fill-rule="evenodd" clip-rule="evenodd" d="M18.5036 1.12704C18.9583 1.2885 19.2622 1.71878 19.2622 2.20134V11.6756H27.675C28.1148 11.6756 28.5154 11.9286 28.7044 12.3257C28.8934 12.7228 28.8371 13.1932 28.5598 13.5345L14.7612 30.5174C14.4569 30.8919 13.9498 31.0342 13.495 30.8728C13.0403 30.7113 12.7365 30.281 12.7365 29.7985V20.3242H4.32361C3.88382 20.3242 3.48326 20.0712 3.29426 19.6741C3.10525 19.277 3.16151 18.8066 3.43884 18.4653L17.2374 1.48247C17.5417 1.10794 18.0488 0.965588 18.5036 1.12704ZM6.71871 18.0442H13.8765C14.5061 18.0442 15.0165 18.5546 15.0165 19.1842V26.5876L25.2799 13.9556H18.1222C17.4926 13.9556 16.9822 13.4452 16.9822 12.8156V5.41224L6.71871 18.0442Z" fill="white"/>
</svg>
