<svg width="30" height="31" viewBox="0 0 30 31" fill="none" xmlns="http://www.w3.org/2000/svg">
<path fill-rule="evenodd" clip-rule="evenodd" d="M6.05021 7.24016C8.23839 6.54307 10.5724 6.7577 12.9032 8.34793C13.4232 8.70278 13.5572 9.41205 13.2023 9.93213C12.8475 10.4522 12.1382 10.5862 11.6181 10.2313C9.87297 9.0406 8.2691 8.92619 6.74229 9.41259C5.50474 9.80683 4.27179 10.6131 3.06292 11.6918L8.8367 15.1699C9.376 15.4948 9.54983 16.1954 9.22494 16.7347C8.90006 17.274 8.1995 17.4478 7.66019 17.123L0.612301 12.8772C0.31416 12.6976 0.114402 12.3917 0.0699086 12.0465C0.0254153 11.7013 0.141062 11.3546 0.383918 11.1053C2.02873 9.41664 3.93184 7.91501 6.05021 7.24016Z" fill="#1335AF"/>
<path fill-rule="evenodd" clip-rule="evenodd" d="M20.0674 16.7968C20.5875 16.442 21.2967 16.5759 21.6516 17.096C23.2418 19.4267 23.4565 21.7608 22.7594 23.949C22.0845 26.0673 20.5829 27.9705 18.8942 29.6153C18.6449 29.8581 18.2983 29.9738 17.953 29.9293C17.6078 29.8848 17.3019 29.685 17.1223 29.3869L12.8766 22.339C12.5517 21.7997 12.7255 21.0991 13.2648 20.7742C13.8041 20.4494 14.5047 20.6232 14.8296 21.1625L18.3077 26.9363C19.3864 25.7274 20.1927 24.4944 20.5869 23.2569C21.0733 21.7301 20.9589 20.1262 19.7682 18.381C19.4134 17.8609 19.5473 17.1517 20.0674 16.7968Z" fill="#1335AF"/>
<path d="M28.6936 8.21164C28.44 10.1153 27.6573 12.1921 25.826 14.0234C24.3986 15.5027 21.9323 17.0534 19.2026 18.6511L12.5176 11.9662C13.7043 10.0426 14.8626 8.37521 15.9759 7.30091C21.0283 2.24851 27.9489 5.17805 27.9489 5.17805C27.9489 5.17805 28.4699 6.40902 28.6936 8.21164Z" fill="#F9662D" fill-opacity="0.4"/>
<path fill-rule="evenodd" clip-rule="evenodd" d="M28.3929 1.00029C28.3934 1.00051 28.3939 1.00071 27.9495 2.05052C28.9993 1.60612 28.9995 1.6066 28.9997 1.60711L29.0002 1.60825L29.0014 1.61103L29.0045 1.61849L29.0137 1.64101C29.0212 1.65936 29.0312 1.68436 29.0434 1.71573C29.0679 1.77845 29.1012 1.86677 29.1406 1.97851C29.2193 2.20179 29.323 2.51972 29.4292 2.91475C29.641 3.70239 29.8669 4.81006 29.9217 6.0937C30.0314 8.66385 29.4523 12.0052 26.6399 14.8223C25.3584 16.1478 23.3821 17.4692 21.2534 18.7586C20.1743 19.4123 19.0293 20.0731 17.8816 20.7341L17.7129 20.8312C16.6175 21.4621 15.5214 22.0933 14.4608 22.7286C14.0123 22.9973 13.4386 22.9265 13.0689 22.5568L7.44329 16.9312C7.07403 16.5619 7.00289 15.9889 7.27063 15.5406C7.85791 14.5571 8.47408 13.487 9.09141 12.4149C9.81903 11.1513 10.5483 9.88487 11.2337 8.75421C12.5258 6.62274 13.8524 4.64142 15.1777 3.36012C17.9948 0.54768 21.3362 -0.0314 23.9063 0.0783385C25.19 0.133146 26.2976 0.359028 27.0853 0.570837C27.4803 0.677067 27.7982 0.780677 28.0215 0.859447C28.1332 0.898864 28.2216 0.93216 28.2843 0.956591C28.3157 0.96881 28.3407 0.978822 28.359 0.986286L28.3815 0.995533L28.389 0.998646L28.3918 0.999811L28.3929 1.00029ZM27.9495 2.05052L28.9993 1.60612C28.8838 1.33332 28.6667 1.11619 28.3939 1.00071L27.9495 2.05052ZM27.0595 2.94055C26.9053 2.89023 26.7149 2.83224 26.4932 2.77262C25.8253 2.59302 24.8871 2.40229 23.8091 2.35626C21.6581 2.26442 19.0165 2.74569 16.7827 4.97948L16.7682 4.99374C15.6758 6.04781 14.4788 7.79933 13.1834 9.93616C12.4766 11.1021 11.7944 12.2885 11.0994 13.4971C10.636 14.303 10.167 15.1187 9.68126 15.9447L14.0546 20.3181C14.8889 19.8265 15.7355 19.3389 16.57 18.8584L16.7437 18.7583C17.894 18.0958 19.0178 17.4471 20.0722 16.8085C22.2065 15.5156 23.9524 14.324 25.0063 13.2318L25.0205 13.2173C27.2543 10.9835 27.7356 8.34197 27.6438 6.19096C27.5977 5.11292 27.407 4.17468 27.2274 3.50684C27.1678 3.28511 27.1098 3.09469 27.0595 2.94055ZM27.5074 3.10131C27.5078 3.10149 27.5079 3.1015 27.5075 3.10134L27.5074 3.10131Z" fill="#1335AF"/>
<path fill-rule="evenodd" clip-rule="evenodd" d="M10.5429 9.99064C10.9881 9.54544 11.7099 9.54544 12.1551 9.99064L20.0097 17.8452C20.4549 18.2904 20.4549 19.0122 20.0097 19.4574C19.5645 19.9026 18.8427 19.9026 18.3975 19.4574L10.5429 11.6028C10.0977 11.1576 10.0977 10.4358 10.5429 9.99064Z" fill="#1335AF"/>
<path d="M22.4306 8.6314C23.0167 8.6314 23.492 8.15618 23.492 7.56997C23.492 6.98377 23.0167 6.50854 22.4306 6.50854C21.8444 6.50854 21.3691 6.98377 21.3691 7.56997C21.3691 8.15618 21.8444 8.6314 22.4306 8.6314Z" stroke="#1335AF" stroke-width="1.71" stroke-linecap="round" stroke-linejoin="round"/>
<path d="M6.54925 27.3337C4.48227 28.1676 1.20117 28.7985 1.20117 28.7985C1.20117 28.7985 1.91017 25.1118 2.81824 23.0924C3.04858 23.0357 3.28511 23.0047 3.52346 23.0005C3.95102 22.993 4.37572 23.0716 4.77223 23.2318C5.16872 23.3919 5.5289 23.6303 5.83128 23.9326C6.13364 24.2351 6.37201 24.5951 6.53218 24.9917C6.69233 25.3882 6.77098 25.8128 6.76343 26.2406C6.75682 26.6151 6.68418 26.9851 6.54925 27.3337Z" fill="#F9662D" fill-opacity="0.4"/>
<path d="M1.13809 30.057C0.844758 30.057 0.551425 29.937 0.338092 29.7237C0.071425 29.457 -0.048575 29.0703 0.0180917 28.697C0.271425 27.3237 1.24476 22.737 2.56476 21.3637C2.95143 20.9503 3.41809 20.617 3.95143 20.377C4.48476 20.137 5.04476 20.0037 5.63143 20.0037C6.23143 19.977 6.79143 20.097 7.32476 20.3237C7.87143 20.537 8.35143 20.857 8.76476 21.2703C9.17809 21.6837 9.49809 22.1637 9.71143 22.7103C9.92476 23.257 10.0314 23.8303 10.0314 24.4037C10.0314 24.9903 9.89809 25.5503 9.65809 26.0837C9.41809 26.617 9.08476 27.0837 8.65809 27.4837C7.28476 28.8037 2.71143 29.7637 1.33809 30.0303C1.27143 30.0303 1.19143 30.057 1.12476 30.057H1.13809ZM5.71143 22.2837H5.67143C5.39143 22.2837 5.12476 22.3503 4.87143 22.457C4.61809 22.5637 4.39143 22.7237 4.20476 22.937C3.73809 23.417 3.09809 25.3903 2.60476 27.417C4.63143 26.937 6.60476 26.297 7.07143 25.8303C7.07143 25.8303 7.07143 25.8303 7.08476 25.817C7.28476 25.6303 7.44476 25.4037 7.56476 25.1503C7.67143 24.897 7.73809 24.6303 7.73809 24.3503C7.73809 24.0703 7.69809 23.8037 7.59142 23.5503C7.48476 23.297 7.33809 23.0703 7.13809 22.8703C6.93809 22.6703 6.71143 22.5237 6.45809 22.417C6.21809 22.3237 5.95143 22.2703 5.69809 22.2703L5.71143 22.2837Z" fill="#1335AF"/>
</svg>
