<svg width="46" height="48" viewBox="0 0 46 48" fill="none" xmlns="http://www.w3.org/2000/svg">
<path d="M41.683 30.0006C40.4288 39.1987 32.5421 46.2863 22.9997 46.2863C13.4574 46.2863 5.57055 39.1987 4.31641 30.0006C5.57055 20.8025 13.4574 13.7148 22.9997 13.7148C32.5421 13.7148 40.4288 20.8025 41.683 30.0006Z" fill="#F9662D" fill-opacity="0.4"/>
<path fill-rule="evenodd" clip-rule="evenodd" d="M2.42773 27.4291C2.42773 16.0678 11.6379 6.85767 22.9992 6.85767C34.3606 6.85767 43.5706 16.0678 43.5706 27.4291C43.5706 38.7905 34.3606 48.0005 22.9992 48.0005C11.6379 48.0005 2.42773 38.7905 2.42773 27.4291ZM22.9992 10.2862C13.5314 10.2862 5.85631 17.9613 5.85631 27.4291C5.85631 36.8969 13.5314 44.572 22.9992 44.572C32.467 44.572 40.142 36.8969 40.142 27.4291C40.142 17.9613 32.467 10.2862 22.9992 10.2862Z" fill="#1335AF"/>
<path fill-rule="evenodd" clip-rule="evenodd" d="M16.1426 1.71477C16.1426 0.768 16.9101 0.000488281 17.8569 0.000488281H28.1426C29.0894 0.000488281 29.8569 0.768 29.8569 1.71477C29.8569 2.66155 29.0894 3.42906 28.1426 3.42906H17.8569C16.9101 3.42906 16.1426 2.66155 16.1426 1.71477Z" fill="#1335AF"/>
<path fill-rule="evenodd" clip-rule="evenodd" d="M22.9994 0.000488281C23.9462 0.000488281 24.7137 0.768 24.7137 1.71477V8.57192C24.7137 9.51869 23.9462 10.2862 22.9994 10.2862C22.0527 10.2862 21.2852 9.51869 21.2852 8.57192V1.71477C21.2852 0.768 22.0527 0.000488281 22.9994 0.000488281Z" fill="#1335AF"/>
<path fill-rule="evenodd" clip-rule="evenodd" d="M38.9298 5.64541C39.5993 4.97594 40.6847 4.97594 41.3542 5.64541L44.7828 9.07398C45.4522 9.74345 45.4522 10.8289 44.7828 11.4984C44.1133 12.1678 43.0279 12.1678 42.3584 11.4984L38.9298 8.06978C38.2604 7.40031 38.2604 6.31488 38.9298 5.64541Z" fill="#1335AF"/>
<path fill-rule="evenodd" clip-rule="evenodd" d="M7.06891 5.64541C7.73838 6.31488 7.73838 7.40031 7.06891 8.06978L3.64034 11.4984C2.97087 12.1678 1.88544 12.1678 1.21597 11.4984C0.5465 10.8289 0.5465 9.74345 1.21597 9.07398L4.64454 5.64541C5.31401 4.97594 6.39944 4.97594 7.06891 5.64541Z" fill="#1335AF"/>
<path fill-rule="evenodd" clip-rule="evenodd" d="M22.9994 15.429C23.9462 15.429 24.7137 16.1965 24.7137 17.1432V25.7147H31.5709C32.5176 25.7147 33.2852 26.4822 33.2852 27.429C33.2852 28.3757 32.5176 29.1432 31.5709 29.1432H22.9994C22.0527 29.1432 21.2852 28.3757 21.2852 27.429V17.1432C21.2852 16.1965 22.0527 15.429 22.9994 15.429Z" fill="#1335AF"/>
</svg>
