<svg width="46" height="48" viewBox="0 0 46 48" fill="none" xmlns="http://www.w3.org/2000/svg">
<g id="Stopwatch--Streamline-Core">
<path id="Intersect" d="M41.683 30C40.4288 39.1981 32.5421 46.2857 22.9997 46.2857C13.4574 46.2857 5.57055 39.1981 4.31641 30C5.57055 20.8019 13.4574 13.7142 22.9997 13.7142C32.5421 13.7142 40.4288 20.8019 41.683 30Z" fill="#F9662D" fill-opacity="0.4"/>
<path id="Vector_2 (Stroke)" fill-rule="evenodd" clip-rule="evenodd" d="M2.42969 27.4286C2.42969 16.0673 11.6398 6.85718 23.0011 6.85718C34.3625 6.85718 43.5725 16.0673 43.5725 27.4286C43.5725 38.79 34.3625 48 23.0011 48C11.6398 48 2.42969 38.79 2.42969 27.4286ZM23.0011 10.2857C13.5334 10.2857 5.85826 17.9609 5.85826 27.4286C5.85826 36.8965 13.5334 44.5715 23.0011 44.5715C32.469 44.5715 40.144 36.8965 40.144 27.4286C40.144 17.9608 32.469 10.2857 23.0011 10.2857Z" fill="#1335AF"/>
<path id="Vector_3 (Stroke)" fill-rule="evenodd" clip-rule="evenodd" d="M16.1426 1.71429C16.1426 0.767512 16.9101 0 17.8569 0H28.1426C29.0894 0 29.8569 0.767512 29.8569 1.71429C29.8569 2.66106 29.0894 3.42857 28.1426 3.42857H17.8569C16.9101 3.42857 16.1426 2.66106 16.1426 1.71429Z" fill="#1335AF"/>
<path id="Vector_4 (Stroke)" fill-rule="evenodd" clip-rule="evenodd" d="M23.0014 0C23.9482 0 24.7157 0.767512 24.7157 1.71429V8.57143C24.7157 9.5182 23.9482 10.2857 23.0014 10.2857C22.0546 10.2857 21.2871 9.5182 21.2871 8.57143V1.71429C21.2871 0.767512 22.0546 0 23.0014 0Z" fill="#1335AF"/>
<path id="Vector_5 (Stroke)" fill-rule="evenodd" clip-rule="evenodd" d="M38.9318 5.64492C39.6013 4.97545 40.6867 4.97545 41.3562 5.64492L44.7847 9.0735C45.4542 9.74297 45.4542 10.8284 44.7847 11.4979C44.1153 12.1673 43.0298 12.1673 42.3604 11.4979L38.9318 8.06929C38.2623 7.39982 38.2623 6.3144 38.9318 5.64492Z" fill="#1335AF"/>
<path id="Vector_6 (Stroke)" fill-rule="evenodd" clip-rule="evenodd" d="M7.06988 5.64492C7.73935 6.3144 7.73935 7.39982 7.06988 8.06929L3.64131 11.4979C2.97184 12.1673 1.88642 12.1673 1.21695 11.4979C0.547476 10.8284 0.547476 9.74297 1.21695 9.0735L4.64552 5.64492C5.31499 4.97545 6.40041 4.97545 7.06988 5.64492Z" fill="#1335AF"/>
<path id="Vector_7 (Stroke)" fill-rule="evenodd" clip-rule="evenodd" d="M23.0014 15.4286C23.9482 15.4286 24.7157 16.1961 24.7157 17.1429V25.7143H31.5728C32.5196 25.7143 33.2871 26.4818 33.2871 27.4286C33.2871 28.3754 32.5196 29.1429 31.5728 29.1429H23.0014C22.0546 29.1429 21.2871 28.3754 21.2871 27.4286V17.1429C21.2871 16.1961 22.0546 15.4286 23.0014 15.4286Z" fill="#1335AF"/>
</g>
</svg>
