<svg width="42" height="42" viewBox="0 0 42 42" fill="none" xmlns="http://www.w3.org/2000/svg">
<path d="M40.106 21.4478L27.3688 31.0006V21.4478L13.0395 31.0006H1.89453V41.0006H40.106V21.4478Z" fill="#F9662D" fill-opacity="0.4"/>
<path fill-rule="evenodd" clip-rule="evenodd" d="M40.8705 14.6947C41.4498 14.9844 41.8158 15.5765 41.8158 16.2242V40.1063C41.8158 41.0507 41.0502 41.8163 40.1058 41.8163H1.89433C0.949919 41.8163 0.184326 41.0507 0.184326 40.1063V25.777C0.184326 24.8326 0.949919 24.067 1.89433 24.067H12.5216L26.4201 14.8014C26.9448 14.4515 27.6195 14.4189 28.1755 14.7165C28.7315 15.0141 29.0786 15.5935 29.0786 16.2242V22.357L39.0798 14.8562C39.5979 14.4675 40.2912 14.405 40.8705 14.6947ZM25.6586 19.4193L13.9879 27.1998C13.707 27.3871 13.3769 27.487 13.0393 27.487H3.60433V38.3963H38.3958V19.6442L28.3946 27.145C27.8764 27.5336 27.1832 27.5962 26.6039 27.3065C26.0246 27.0168 25.6586 26.4247 25.6586 25.777V19.4193Z" fill="#1335AF"/>
<path fill-rule="evenodd" clip-rule="evenodd" d="M1.78032 1.78107C1.84021 0.882808 2.58628 0.184814 3.48653 0.184814H11.4472C12.3475 0.184814 13.0936 0.882808 13.1535 1.78107L14.7456 25.6632C14.8084 26.6055 14.0955 27.4203 13.1531 27.4832C12.2108 27.546 11.396 26.833 11.3332 25.8907L9.84745 3.60481H5.08633L3.6006 25.8907C3.53778 26.833 2.72296 27.546 1.78064 27.4832C0.838328 27.4203 0.125357 26.6055 0.188179 25.6632L1.78032 1.78107Z" fill="#1335AF"/>
<path fill-rule="evenodd" clip-rule="evenodd" d="M9.85502 32.0276C10.7994 32.0276 11.565 32.7932 11.565 33.7376V40.1062C11.565 41.0506 10.7994 41.8162 9.85502 41.8162C8.91061 41.8162 8.14502 41.0506 8.14502 40.1062V33.7376C8.14502 32.7932 8.91061 32.0276 9.85502 32.0276Z" fill="#1335AF"/>
</svg>
