<svg width="25" height="24" viewBox="0 0 25 24" fill="none" xmlns="http://www.w3.org/2000/svg">
<path fill-rule="evenodd" clip-rule="evenodd" d="M18.5369 6.99997C19.4895 6.99997 20.2617 7.77219 20.2617 8.72479V18.0369C20.2617 18.9895 19.4895 19.7617 18.5369 19.7617H6.4631C5.5105 19.7617 4.73828 18.9895 4.73828 18.0369V8.72479C4.73828 7.77219 5.5105 6.99997 6.4631 6.99997H18.5369ZM8.84969 11.6009C8.40956 11.6787 8.40956 12.3212 8.84969 12.3991C10.4442 12.6812 11.7125 13.9162 12.0586 15.5239L12.0851 15.6471C12.1803 16.0894 12.7997 16.0922 12.8987 15.6507L12.9309 15.5071C13.2898 13.907 14.5584 12.6824 16.1485 12.4011C16.5909 12.3229 16.5909 11.6771 16.1485 11.5988C14.5584 11.3175 13.2898 10.093 12.9309 8.49286L12.8987 8.34924C12.7997 7.90777 12.1803 7.91053 12.0851 8.35286L12.0586 8.47609C11.7125 10.0838 10.4442 11.3188 8.84969 11.6009Z" fill="#F9662D" fill-opacity="0.4"/>
<path fill-rule="evenodd" clip-rule="evenodd" d="M1.29602 15.162C1.29602 14.6898 1.67882 14.307 2.15102 14.307H4.73825C5.21046 14.307 5.59325 14.6898 5.59325 15.162C5.59325 15.6342 5.21046 16.017 4.73825 16.017H2.15102C1.67882 16.017 1.29602 15.6342 1.29602 15.162Z" fill="#1335AF"/>
<path fill-rule="evenodd" clip-rule="evenodd" d="M19.4066 15.162C19.4066 14.6898 19.7894 14.307 20.2616 14.307H22.8488C23.3211 14.307 23.7038 14.6898 23.7038 15.162C23.7038 15.6342 23.3211 16.017 22.8488 16.017H20.2616C19.7894 16.017 19.4066 15.6342 19.4066 15.162Z" fill="#1335AF"/>
<path fill-rule="evenodd" clip-rule="evenodd" d="M1.29602 8.83797C1.29602 8.36577 1.67882 7.98297 2.15102 7.98297H4.73825C5.21046 7.98297 5.59325 8.36577 5.59325 8.83797C5.59325 9.31017 5.21046 9.69297 4.73825 9.69297H2.15102C1.67882 9.69297 1.29602 9.31017 1.29602 8.83797Z" fill="#1335AF"/>
<path fill-rule="evenodd" clip-rule="evenodd" d="M19.4066 8.83797C19.4066 8.36577 19.7894 7.98297 20.2616 7.98297H22.8488C23.3211 7.98297 23.7038 8.36577 23.7038 8.83797C23.7038 9.31017 23.3211 9.69297 22.8488 9.69297H20.2616C19.7894 9.69297 19.4066 9.31017 19.4066 8.83797Z" fill="#1335AF"/>
<path fill-rule="evenodd" clip-rule="evenodd" d="M9.33779 0.796066C9.80999 0.796066 10.1928 1.17886 10.1928 1.65107V4.2383C10.1928 4.7105 9.80999 5.0933 9.33779 5.0933C8.86558 5.0933 8.48279 4.7105 8.48279 4.2383V1.65107C8.48279 1.17886 8.86558 0.796066 9.33779 0.796066Z" fill="#1335AF"/>
<path fill-rule="evenodd" clip-rule="evenodd" d="M9.33779 18.9067C9.80999 18.9067 10.1928 19.2895 10.1928 19.7617V22.3489C10.1928 22.8211 9.80999 23.2039 9.33779 23.2039C8.86558 23.2039 8.48279 22.8211 8.48279 22.3489V19.7617C8.48279 19.2895 8.86558 18.9067 9.33779 18.9067Z" fill="#1335AF"/>
<path fill-rule="evenodd" clip-rule="evenodd" d="M15.6621 0.796066C16.1343 0.796066 16.5171 1.17886 16.5171 1.65107V4.2383C16.5171 4.7105 16.1343 5.0933 15.6621 5.0933C15.1899 5.0933 14.8071 4.7105 14.8071 4.2383V1.65107C14.8071 1.17886 15.1899 0.796066 15.6621 0.796066Z" fill="#1335AF"/>
<path fill-rule="evenodd" clip-rule="evenodd" d="M15.6621 18.9067C16.1343 18.9067 16.5171 19.2895 16.5171 19.7617V22.3489C16.5171 22.8211 16.1343 23.2039 15.6621 23.2039C15.1899 23.2039 14.8071 22.8211 14.8071 22.3489V19.7617C14.8071 19.2895 15.1899 18.9067 15.6621 18.9067Z" fill="#1335AF"/>
<path fill-rule="evenodd" clip-rule="evenodd" d="M3.8833 5.96312C3.8833 4.53832 5.03832 3.3833 6.46312 3.3833H18.5369C19.9617 3.3833 21.1167 4.53834 21.1167 5.96312V18.0369C21.1167 19.4617 19.9617 20.6167 18.5369 20.6167H6.46312C5.03834 20.6167 3.8833 19.4617 3.8833 18.0369V5.96312ZM6.46312 5.0933C5.98273 5.0933 5.5933 5.48273 5.5933 5.96312V18.0369C5.5933 18.5173 5.9827 18.9067 6.46312 18.9067H18.5369C19.0173 18.9067 19.4067 18.5173 19.4067 18.0369V5.96312C19.4067 5.4827 19.0173 5.0933 18.5369 5.0933H6.46312Z" fill="#1335AF"/>
<path fill-rule="evenodd" clip-rule="evenodd" d="M12.495 9.80391C12.0265 10.7538 11.2648 11.5257 10.3275 12C11.2648 12.4743 12.0265 13.2463 12.495 14.1961C12.9674 13.2453 13.7326 12.4736 14.6728 12C13.7327 11.5264 12.9674 10.7547 12.495 9.80391ZM15.9995 11.5592L15.9995 11.5592L15.9995 11.5592ZM8.99859 11.5572C8.99899 11.5572 8.99938 11.5573 8.99978 11.5574L8.99859 11.5572ZM11.2492 8.17294C11.5372 6.83519 13.4331 6.82555 13.7329 8.16212L13.733 8.16215L13.7652 8.30575C13.7652 8.30575 13.7652 8.30576 13.7652 8.30576C14.0501 9.57625 15.0538 10.5369 16.2974 10.7569C17.6812 11.0017 17.6812 12.9983 16.2974 13.2431L16.1485 12.4011L16.2974 13.2431C15.0538 13.4631 14.0501 14.4237 13.7652 15.6942C13.7652 15.6942 13.7652 15.6943 13.7652 15.6943L13.733 15.8378L13.7329 15.8379C13.4331 17.1744 11.5372 17.1648 11.2492 15.8271L11.2492 15.827L11.2227 15.7038C11.2227 15.7038 11.2227 15.7038 11.2227 15.7038C10.9482 14.4289 9.94599 13.4613 8.70071 13.241C7.31916 12.9966 7.31917 11.0034 8.70071 10.759C9.946 10.5387 10.9482 9.57114 11.2227 8.2962C11.2227 8.29619 11.2227 8.29618 11.2227 8.29617L11.2492 8.17297L11.2492 8.17294Z" fill="#1335AF"/>
</svg>
