<svg width="32" height="32" viewBox="0 0 32 32" fill="none" xmlns="http://www.w3.org/2000/svg">
<path d="M13.1328 5.12034C13.1328 6.73242 14.4397 8.03927 16.0517 8.03927C16.4593 8.03927 16.8473 7.95576 17.1997 7.80489C18.241 7.359 18.9707 6.32488 18.9707 5.12034C18.9707 3.50827 17.6638 2.20142 16.0517 2.20142C14.4397 2.20142 13.1328 3.50827 13.1328 5.12034Z" fill="#F9662D" fill-opacity="0.4"/>
<path d="M29.4219 28.2331C28.9049 27.2994 27.9096 26.6671 26.7667 26.6671C25.6237 26.6671 24.6284 27.2994 24.1113 28.2331C24.6284 29.167 25.6237 29.7992 26.7667 29.7992C27.19 29.7992 27.5934 29.7124 27.9593 29.5555C28.5814 29.2892 29.0964 28.821 29.4219 28.2331Z" fill="#F9662D" fill-opacity="0.4"/>
<path d="M18.6562 28.2326C18.1392 27.2988 17.1439 26.6666 16.0009 26.6666C14.858 26.6666 13.8627 27.2988 13.3457 28.2326C13.8627 29.1664 14.858 29.7985 16.0009 29.7985C16.4244 29.7985 16.8276 29.7117 17.1937 29.555C17.8158 29.2887 18.3307 28.8204 18.6562 28.2326Z" fill="#F9662D" fill-opacity="0.4"/>
<path d="M7.89057 28.2326C7.37357 27.2988 6.37828 26.6666 5.23532 26.6666C4.09237 26.6666 3.09708 27.2988 2.58008 28.2326C3.09708 29.1664 4.09237 29.7985 5.23532 29.7985C5.65879 29.7985 6.06198 29.7117 6.42809 29.555C7.05014 29.2887 7.56512 28.8204 7.89057 28.2326Z" fill="#F9662D" fill-opacity="0.4"/>
<path fill-rule="evenodd" clip-rule="evenodd" d="M5.23568 17.3337L26.8703 17.3333C27.1727 17.3332 27.4626 17.4533 27.6764 17.6671C27.8902 17.8809 28.0103 18.1709 28.0103 18.4733V23.027C28.0103 23.6566 27.4999 24.167 26.8703 24.167C26.2407 24.167 25.7303 23.6566 25.7303 23.027V19.6133L6.3757 19.6137V23.0274C6.3757 23.657 5.86531 24.1674 5.2357 24.1674C4.6061 24.1674 4.0957 23.657 4.0957 23.0274V18.4737C4.0957 17.8441 4.60608 17.3338 5.23568 17.3337Z" fill="#1335AF"/>
<path fill-rule="evenodd" clip-rule="evenodd" d="M16.0013 18.6666C16.7377 18.6666 17.3346 19.065 17.3346 19.5563V23.1103C17.3346 23.6016 16.7377 24 16.0013 24C15.2649 24 14.668 23.6016 14.668 23.1103V19.5563C14.668 19.065 15.2649 18.6666 16.0013 18.6666Z" fill="#1335AF"/>
<path d="M16.0031 11.4282C13.5896 11.4282 11.5001 12.8934 10.4883 14.9139H21.5564C20.5597 12.8511 18.4476 11.4282 16.0031 11.4282Z" fill="#F9662D" fill-opacity="0.4"/>
<path fill-rule="evenodd" clip-rule="evenodd" d="M16.0027 12.5683C14.0626 12.5683 12.3453 13.751 11.5072 15.4245C11.2253 15.9874 10.5404 16.2152 9.97744 15.9333C9.41448 15.6514 9.18666 14.9665 9.46858 14.4035C10.6542 12.036 13.1159 10.2883 16.0027 10.2883C18.901 10.2883 21.4028 11.9765 22.5825 14.418C22.8564 14.9849 22.6189 15.6665 22.052 15.9405C21.4851 16.2144 20.8035 15.9769 20.5296 15.41C19.7159 13.726 17.9934 12.5683 16.0027 12.5683Z" fill="#1335AF"/>
<path fill-rule="evenodd" clip-rule="evenodd" d="M11.9941 5.12033C11.9941 2.87865 13.8114 1.0614 16.0531 1.0614C18.2948 1.0614 20.112 2.87865 20.112 5.12033C20.112 6.79709 19.0955 8.23382 17.6497 8.85285L17.201 7.80487L17.6497 8.85285C17.1581 9.06334 16.6177 9.17926 16.0531 9.17926C13.8114 9.17926 11.9941 7.36201 11.9941 5.12033ZM16.0531 3.3414C15.0706 3.3414 14.2741 4.13786 14.2741 5.12033C14.2741 6.1028 15.0706 6.89926 16.0531 6.89926C16.3036 6.89926 16.5391 6.84816 16.7523 6.7569L16.7523 6.75689C17.3893 6.48416 17.832 5.85263 17.832 5.12033C17.832 4.13786 17.0355 3.3414 16.0531 3.3414Z" fill="#1335AF"/>
<path fill-rule="evenodd" clip-rule="evenodd" d="M5.33398 24.5C4.13737 24.5 3.16732 25.47 3.16732 26.6666C3.16732 27.8632 4.13737 28.8333 5.33398 28.8333C6.5306 28.8333 7.50065 27.8632 7.50065 26.6666C7.50065 25.47 6.5306 24.5 5.33398 24.5ZM0.833984 26.6666C0.833984 24.1813 2.8487 22.1666 5.33398 22.1666C7.81927 22.1666 9.83398 24.1813 9.83398 26.6666C9.83398 29.1519 7.81927 31.1666 5.33398 31.1666C2.8487 31.1666 0.833984 29.1519 0.833984 26.6666Z" fill="#1335AF"/>
<path fill-rule="evenodd" clip-rule="evenodd" d="M16 24.5C14.8034 24.5 13.8333 25.47 13.8333 26.6666C13.8333 27.8632 14.8034 28.8333 16 28.8333C17.1966 28.8333 18.1667 27.8632 18.1667 26.6666C18.1667 25.47 17.1966 24.5 16 24.5ZM11.5 26.6666C11.5 24.1813 13.5147 22.1666 16 22.1666C18.4853 22.1666 20.5 24.1813 20.5 26.6666C20.5 29.1519 18.4853 31.1666 16 31.1666C13.5147 31.1666 11.5 29.1519 11.5 26.6666Z" fill="#1335AF"/>
<path fill-rule="evenodd" clip-rule="evenodd" d="M26.666 24.5C25.4694 24.5 24.4993 25.47 24.4993 26.6666C24.4993 27.8632 25.4694 28.8333 26.666 28.8333C27.8626 28.8333 28.8327 27.8632 28.8327 26.6666C28.8327 25.47 27.8626 24.5 26.666 24.5ZM22.166 26.6666C22.166 24.1813 24.1807 22.1666 26.666 22.1666C29.1513 22.1666 31.166 24.1813 31.166 26.6666C31.166 29.1519 29.1513 31.1666 26.666 31.1666C24.1807 31.1666 22.166 29.1519 22.166 26.6666Z" fill="#1335AF"/>
</svg>
