<svg width="32" height="32" viewBox="0 0 32 32" fill="none" xmlns="http://www.w3.org/2000/svg">
<path d="M13.876 19.1844H7.95117L18.1217 6.66675V17.281H24.0466L13.876 29.7986V19.1844Z" fill="#F9662D" fill-opacity="0.4"/>
<path fill-rule="evenodd" clip-rule="evenodd" d="M18.5036 1.12716C18.9583 1.28862 19.2622 1.7189 19.2622 2.20146V11.6757H27.675C28.1148 11.6757 28.5154 11.9287 28.7044 12.3258C28.8934 12.7229 28.8371 13.1933 28.5598 13.5346L14.7612 30.5175C14.4569 30.892 13.9498 31.0344 13.495 30.8729C13.0403 30.7115 12.7365 30.2812 12.7365 29.7986V20.3243H4.32361C3.88382 20.3243 3.48326 20.0714 3.29426 19.6743C3.10525 19.2772 3.16151 18.8068 3.43884 18.4654L17.2374 1.48259C17.5417 1.10807 18.0488 0.96571 18.5036 1.12716ZM6.71871 18.0443H13.8765C14.5061 18.0443 15.0165 18.5547 15.0165 19.1843V26.5877L25.2799 13.9557H18.1222C17.4926 13.9557 16.9822 13.4454 16.9822 12.8157V5.41236L6.71871 18.0443Z" fill="#1335AF"/>
</svg>
