<svg width="25" height="24" viewBox="0 0 25 24" fill="none" xmlns="http://www.w3.org/2000/svg">
<path fill-rule="evenodd" clip-rule="evenodd" d="M5.13624 3.99998H19.8635C20.7673 3.99998 21.4999 4.6199 21.4999 5.3846V20.6154C21.4999 21.3801 20.7673 22 19.8635 22H5.13624C4.23251 22 3.49988 21.3801 3.49988 20.6154V5.3846C3.49988 4.6199 4.23251 3.99998 5.13624 3.99998ZM17.2763 10.4079C17.2763 13.0458 15.1378 15.1843 12.4999 15.1843C9.86194 15.1843 7.72345 13.0458 7.72345 10.4079C7.72345 7.76991 9.86194 5.63142 12.4999 5.63142C15.1378 5.63142 17.2763 7.76991 17.2763 10.4079Z" fill="#F9662D" fill-opacity="0.4"/>
<path fill-rule="evenodd" clip-rule="evenodd" d="M6.86853 10.4079C6.86853 7.29771 9.38981 4.77643 12.5 4.77643C15.6101 4.77643 18.1314 7.29771 18.1314 10.4079C18.1314 13.518 15.6101 16.0393 12.5 16.0393C9.38981 16.0393 6.86853 13.518 6.86853 10.4079ZM12.5 6.48643C10.3342 6.48643 8.57853 8.24212 8.57853 10.4079C8.57853 12.5736 10.3342 14.3293 12.5 14.3293C14.6657 14.3293 16.4214 12.5736 16.4214 10.4079C16.4214 8.24212 14.6657 6.48643 12.5 6.48643Z" fill="#1335AF"/>
<path fill-rule="evenodd" clip-rule="evenodd" d="M2.88818 3.24322C2.88818 1.89169 3.98382 0.796074 5.33533 0.796074H19.6646C21.0162 0.796074 22.1118 1.89171 22.1118 3.24322V20.7568C22.1118 22.1083 21.0162 23.2039 19.6646 23.2039H5.33533C3.98382 23.2039 2.88818 22.1083 2.88818 20.7568V3.24322ZM5.33533 2.50607C4.92822 2.50607 4.59818 2.83611 4.59818 3.24322V20.7568C4.59818 21.1639 4.92821 21.4939 5.33533 21.4939H19.6646C20.0717 21.4939 20.4018 21.1639 20.4018 20.7568V3.24322C20.4018 2.83609 20.0717 2.50607 19.6646 2.50607H5.33533Z" fill="#1335AF"/>
<path fill-rule="evenodd" clip-rule="evenodd" d="M6.86853 10.4079C6.86853 9.93565 7.25133 9.55286 7.72353 9.55286H17.2764C17.7486 9.55286 18.1314 9.93565 18.1314 10.4079C18.1314 10.8801 17.7486 11.2629 17.2764 11.2629H7.72353C7.25133 11.2629 6.86853 10.8801 6.86853 10.4079Z" fill="#1335AF"/>
<path fill-rule="evenodd" clip-rule="evenodd" d="M12.5 4.77643C12.9722 4.77643 13.355 5.15922 13.355 5.63143V15.1843C13.355 15.6565 12.9722 16.0393 12.5 16.0393C12.0278 16.0393 11.645 15.6565 11.645 15.1843V5.63143C11.645 5.15922 12.0278 4.77643 12.5 4.77643Z" fill="#1335AF"/>
</svg>
