<svg width="38" height="26" viewBox="0 0 38 26" fill="none" xmlns="http://www.w3.org/2000/svg">
<path fill-rule="evenodd" clip-rule="evenodd" d="M0.327148 13C0.327148 12.213 0.965143 11.575 1.75215 11.575H25.6343C26.4213 11.575 27.0593 12.213 27.0593 13C27.0593 13.787 26.4213 14.425 25.6343 14.425H1.75215C0.965143 14.425 0.327148 13.787 0.327148 13Z" fill="#1335AF"/>
<path d="M33.6361 15.3178L25.6348 23.6143L25.6413 8.13034L33.6361 15.3178Z" fill="#F9662D" fill-opacity="0.4"/>
<path fill-rule="evenodd" clip-rule="evenodd" d="M25.0887 1.06918C25.6211 0.848613 26.2341 0.97053 26.6416 1.37808L37.2559 11.9924C37.5231 12.2596 37.6733 12.6221 37.6733 13C37.6733 13.3779 37.5231 13.7404 37.2559 14.0076L26.6416 24.6219C26.2341 25.0294 25.6211 25.1514 25.0887 24.9308C24.5562 24.7102 24.209 24.1906 24.209 23.6143V2.3857C24.209 1.80935 24.5562 1.28974 25.0887 1.06918ZM27.059 5.82596V20.174L34.233 13L27.059 5.82596Z" fill="#1335AF"/>
</svg>
