<svg width="32" height="32" viewBox="0 0 32 32" fill="none" xmlns="http://www.w3.org/2000/svg">
<path fill-rule="evenodd" clip-rule="evenodd" d="M14.9405 27.6759C21.2134 27.6759 26.4271 23.1414 27.4826 17.1715C26.4271 11.2016 21.2134 6.66711 14.9405 6.66711C8.66772 6.66711 3.454 11.2016 2.39844 17.1715C3.454 23.1414 8.66772 27.6759 14.9405 27.6759ZM8.61384 14.247C7.85094 14.382 7.85094 15.4956 8.61384 15.6306C11.3777 16.1195 13.576 18.2602 14.1759 21.0469L14.2219 21.2605C14.3869 22.0272 15.4605 22.0319 15.6321 21.2667L15.688 21.0178C16.3101 18.2443 18.5089 16.1217 21.2651 15.6341C22.0319 15.4985 22.0319 14.3791 21.2651 14.2435C18.5089 13.7559 16.3101 11.6333 15.688 8.85978L15.6321 8.61086C15.4605 7.84565 14.3869 7.85041 14.2219 8.61712L14.1759 8.83072C13.576 11.6174 11.3777 13.7581 8.61384 14.247Z" fill="#F9662D" fill-opacity="0.4"/>
<path fill-rule="evenodd" clip-rule="evenodd" d="M1.0625 14.9385C1.0625 7.27441 7.27551 1.0614 14.9396 1.0614C22.6038 1.0614 28.8168 7.27441 28.8168 14.9385C28.8168 22.6027 22.6038 28.8157 14.9396 28.8157C7.27551 28.8157 1.0625 22.6027 1.0625 14.9385ZM14.9396 3.3414C8.53472 3.3414 3.3425 8.53362 3.3425 14.9385C3.3425 21.3435 8.53472 26.5357 14.9396 26.5357C21.3446 26.5357 26.5368 21.3435 26.5368 14.9385C26.5368 8.53362 21.3446 3.3414 14.9396 3.3414Z" fill="#1335AF"/>
<path fill-rule="evenodd" clip-rule="evenodd" d="M23.1308 23.1338C23.576 22.6886 24.2978 22.6886 24.743 23.1338L30.6021 28.9929C31.0473 29.4381 31.0473 30.1599 30.6021 30.6051C30.1569 31.0503 29.4351 31.0503 28.9899 30.6051L23.1308 24.746C22.6856 24.3008 22.6856 23.579 23.1308 23.1338Z" fill="#1335AF"/>
<path fill-rule="evenodd" clip-rule="evenodd" d="M14.4365 10.0827C13.6465 12.0649 12.0929 13.6404 10.1399 14.4408C12.0929 15.2412 13.6466 16.8167 14.4365 18.7989C15.235 16.8141 16.7964 15.2394 18.7553 14.4408C16.7964 13.6422 15.235 12.0675 14.4365 10.0827ZM12.6399 8.12233C13.0556 6.19129 15.79 6.1774 16.2228 8.10674L16.2765 8.3461C16.2765 8.3461 16.2765 8.3461 16.2765 8.3461C16.7761 10.5734 18.5371 12.2626 20.7253 12.6497C22.7179 13.0021 22.7179 15.8795 20.7253 16.2319C18.5371 16.6191 16.7761 18.3082 16.2765 20.5355L16.2228 20.7749C16.2228 20.7749 16.2228 20.7748 16.2228 20.7749C15.79 22.7042 13.0556 22.6903 12.6399 20.7593C12.6399 20.7593 12.6399 20.7593 12.6399 20.7593L12.5957 20.5539C12.1144 18.3181 10.3554 16.6163 8.16346 16.2285C6.17469 15.8767 6.17468 13.0049 8.16345 12.6531C10.3554 12.2653 12.1144 10.5636 12.5957 8.32775L12.6399 8.12233C12.6399 8.12233 12.6399 8.12234 12.6399 8.12233Z" fill="#1335AF"/>
</svg>
