<svg width="32" height="32" viewBox="0 0 32 32" fill="none" xmlns="http://www.w3.org/2000/svg">
<path d="M10 29.5839L16.0084 29.2472L29.1701 16.0005C29.369 15.8032 29.527 15.5684 29.6348 15.3097C29.6898 15.1779 29.7311 15.0413 29.7584 14.9018L27.8074 12.9355C27.6098 12.7333 27.3737 12.5726 27.113 12.463C26.8524 12.3533 26.5724 12.2968 26.2896 12.2968C26.0068 12.2968 25.7268 12.3533 25.4661 12.463C25.2057 12.5726 24.9694 12.7333 24.7717 12.9355L10.0833 27.0005L10 29.5839Z" fill="#F9662D" fill-opacity="0.4"/>
<path fill-rule="evenodd" clip-rule="evenodd" d="M24.5754 10.8463C24.696 10.7956 24.8256 10.7695 24.9564 10.7695L24.5754 10.8463ZM23.6908 8.74493C24.0914 8.57636 24.5218 8.4895 24.9564 8.4895C25.391 8.4895 25.8214 8.57636 26.222 8.74493C26.6213 8.91293 26.983 9.15872 27.2862 9.46806L29.9767 12.1797C30.2807 12.4822 30.5221 12.8417 30.6872 13.2377C30.8531 13.6356 30.9382 14.0622 30.9382 14.4927C30.9382 14.9232 30.8531 15.3498 30.6872 15.7478C30.5221 16.1438 30.2805 16.5035 29.9763 16.8061L16.8173 30.0501C16.6272 30.2413 16.3756 30.3591 16.107 30.3823L9.73844 30.9343C9.40304 30.9633 9.07195 30.8427 8.8339 30.6046C8.59586 30.3666 8.47519 30.0355 8.50426 29.7001L9.05621 23.3315C9.07948 23.0629 9.1972 22.8113 9.38844 22.6213L22.6298 9.46477C22.9325 9.15679 23.2936 8.91218 23.6908 8.74493ZM24.9564 10.7695C25.0873 10.7695 25.217 10.7957 25.3377 10.8465L24.9564 10.7695ZM25.3377 10.8465C25.4584 10.8972 25.5676 10.9716 25.659 11.0651L25.3377 10.8465ZM24.5754 10.8463C24.4546 10.8973 24.3449 10.9718 24.2538 11.0651L24.2421 11.077L11.2916 23.9444L10.8929 28.5457L15.4942 28.1469L28.3673 15.1906C28.4595 15.0992 28.5327 14.9904 28.5827 14.8705C28.6325 14.751 28.6582 14.6227 28.6582 14.4927C28.6582 14.3628 28.6325 14.2344 28.5827 14.1149C28.5327 13.995 28.4595 13.8862 28.3674 13.7948L28.361 13.7884L25.659 11.0651" fill="white"/>
<path fill-rule="evenodd" clip-rule="evenodd" d="M8.82712 4.47722C8.03717 6.45942 6.48356 8.03491 4.53054 8.83533C6.48356 9.63576 8.03718 11.2113 8.82713 13.1935C9.62566 11.2087 11.187 9.63397 13.1459 8.83533C11.187 8.0367 9.62566 6.46199 8.82712 4.47722ZM7.03053 2.51686C7.44625 0.585819 10.1807 0.571927 10.6134 2.50128L10.6671 2.74063C10.6671 2.74063 10.6671 2.74063 10.6671 2.74063C11.1667 4.96798 12.9278 6.65708 15.116 7.04419C17.1085 7.39666 17.1085 10.274 15.116 10.6265C12.9278 11.0136 11.1667 12.7027 10.6671 14.93L10.6134 15.1694C10.6134 15.1694 10.6134 15.1694 10.6134 15.1694C10.1806 17.0987 7.44626 17.0849 7.03053 15.1538C7.03053 15.1538 7.03053 15.1538 7.03053 15.1538L6.98631 14.9484C6.505 12.7126 4.74598 11.0108 2.55408 10.6231C0.565312 10.2713 0.565301 7.39941 2.55408 7.04759C4.74598 6.65983 6.50499 4.95809 6.9863 2.72228L7.03053 2.51686C7.03053 2.51686 7.03053 2.51687 7.03053 2.51686Z" fill="white"/>
</svg>
