<svg width="30" height="30" viewBox="0 0 30 30" fill="none" xmlns="http://www.w3.org/2000/svg">
<path fill-rule="evenodd" clip-rule="evenodd" d="M13.9405 26.6759C20.2134 26.6759 25.4271 22.1414 26.4826 16.1715C25.4271 10.2016 20.2134 5.66711 13.9405 5.66711C7.66772 5.66711 2.454 10.2016 1.39844 16.1715C2.454 22.1414 7.66772 26.6759 13.9405 26.6759ZM7.61384 13.247C6.85094 13.382 6.85094 14.4956 7.61384 14.6306C10.3777 15.1195 12.576 17.2602 13.1759 20.0469L13.2219 20.2605C13.3869 21.0272 14.4605 21.0319 14.6321 20.2667L14.688 20.0178C15.3101 17.2443 17.5089 15.1217 20.2651 14.6341C21.0319 14.4985 21.0319 13.3791 20.2651 13.2435C17.5089 12.7559 15.3101 10.6333 14.688 7.85978L14.6321 7.61086C14.4605 6.84565 13.3869 6.85041 13.2219 7.61712L13.1759 7.83072C12.576 10.6174 10.3777 12.7581 7.61384 13.247Z" fill="#F9662D" fill-opacity="0.4"/>
<path fill-rule="evenodd" clip-rule="evenodd" d="M0.0625 13.9385C0.0625 6.27441 6.27551 0.0614014 13.9396 0.0614014C21.6038 0.0614014 27.8168 6.27441 27.8168 13.9385C27.8168 21.6027 21.6038 27.8157 13.9396 27.8157C6.27551 27.8157 0.0625 21.6027 0.0625 13.9385ZM13.9396 2.3414C7.53472 2.3414 2.3425 7.53362 2.3425 13.9385C2.3425 20.3435 7.53472 25.5357 13.9396 25.5357C20.3446 25.5357 25.5368 20.3435 25.5368 13.9385C25.5368 7.53362 20.3446 2.3414 13.9396 2.3414Z" fill="white"/>
<path fill-rule="evenodd" clip-rule="evenodd" d="M22.1308 22.1338C22.576 21.6886 23.2978 21.6886 23.743 22.1338L29.6021 27.9929C30.0473 28.4381 30.0473 29.1599 29.6021 29.6051C29.1569 30.0503 28.4351 30.0503 27.9899 29.6051L22.1308 23.746C21.6856 23.3008 21.6856 22.579 22.1308 22.1338Z" fill="white"/>
<path fill-rule="evenodd" clip-rule="evenodd" d="M13.4365 9.08269C12.6465 11.0649 11.0929 12.6404 9.13991 13.4408C11.0929 14.2412 12.6466 15.8167 13.4365 17.7989C14.235 15.8141 15.7964 14.2394 17.7553 13.4408C15.7964 12.6422 14.235 11.0675 13.4365 9.08269ZM11.6399 7.12233C12.0556 5.19129 14.79 5.1774 15.2228 7.10674L15.2765 7.3461C15.2765 7.3461 15.2765 7.3461 15.2765 7.3461C15.7761 9.57345 17.5371 11.2626 19.7253 11.6497C21.7179 12.0021 21.7179 14.8795 19.7253 15.2319C17.5371 15.6191 15.7761 17.3082 15.2765 19.5355L15.2228 19.7749C15.2228 19.7749 15.2228 19.7748 15.2228 19.7749C14.79 21.7042 12.0556 21.6903 11.6399 19.7593C11.6399 19.7593 11.6399 19.7593 11.6399 19.7593L11.5957 19.5539C11.1144 17.3181 9.35536 15.6163 7.16346 15.2285C5.17469 14.8767 5.17468 12.0049 7.16345 11.6531C9.35536 11.2653 11.1144 9.56356 11.5957 7.32775L11.6399 7.12233C11.6399 7.12233 11.6399 7.12234 11.6399 7.12233Z" fill="white"/>
</svg>
