<svg width="32" height="32" viewBox="0 0 32 32" fill="none" xmlns="http://www.w3.org/2000/svg">
<path fill-rule="evenodd" clip-rule="evenodd" d="M16.4393 13.1589C17.5801 13.3607 18.5374 14.2575 18.8028 15.4905L18.847 15.6959C19.8425 20.3202 26.4216 20.3619 27.4597 15.7332L27.5134 15.4938C27.7826 14.2938 28.7005 13.4145 29.8042 13.1806V25.553C29.8042 26.116 29.5804 26.6561 29.1824 27.0541C28.7844 27.4521 28.2443 27.6759 27.6813 27.6759H10.6985L2.67188 29.7988L8.00521 23.4299V6.44708C8.00521 5.88405 8.22887 5.3441 8.62697 4.94598C9.02509 4.54788 9.56504 4.32422 10.1281 4.32422L17.0659 4.32447C16.866 4.41046 16.656 4.47385 16.4393 4.51217C11.6153 5.36558 11.6154 12.3055 16.4393 13.1589Z" fill="#F9662D" fill-opacity="0.4"/>
<path d="M2.41424 30.4018C2.11555 30.4018 1.8382 30.2738 1.62486 30.0605C1.36884 29.7831 1.26217 29.3564 1.39018 28.9938L3.45963 22.7641V5.86706C3.45963 5.01368 3.80099 4.20296 4.39836 3.60559C4.99572 3.00822 5.80644 2.66687 6.65982 2.66687H16.2604C16.8578 2.66687 17.3271 3.13623 17.3271 3.7336C17.3271 4.33097 16.8578 4.80033 16.2604 4.80033H6.68116C6.40381 4.80033 6.12646 4.907 5.93445 5.12035C5.74244 5.33369 5.61443 5.58971 5.61443 5.86706V22.9347C5.61443 23.0414 5.61443 23.1694 5.55042 23.2761L4.03567 27.8417L10.6921 26.1776C10.6921 26.1776 10.8627 26.1563 10.9481 26.1563H28.0157C28.2931 26.1563 28.5704 26.0496 28.7625 25.8362C28.9545 25.6229 29.0825 25.3669 29.0825 25.0895V13.3555C29.0825 12.7581 29.5518 12.2888 30.1492 12.2888C30.7466 12.2888 31.2159 12.7581 31.2159 13.3555V25.0895C31.2159 25.9429 30.8746 26.7536 30.2772 27.351C29.6798 27.9484 28.8478 28.2897 28.0157 28.2897H11.0761L2.67025 30.4018C2.67025 30.4018 2.49958 30.4232 2.41424 30.4232V30.4018Z" fill="#1335AF"/>
<path fill-rule="evenodd" clip-rule="evenodd" d="M23.1553 4.47725C22.3653 6.45943 20.8117 8.03491 18.8587 8.83533C20.8117 9.63576 22.3653 11.2112 23.1553 13.1934C23.9538 11.2086 25.5151 9.63395 27.474 8.83533C25.5151 8.03671 23.9538 6.46203 23.1553 4.47725ZM17.2794 8.37794C17.279 8.37787 17.2798 8.37801 17.2794 8.37794ZM17.2798 9.29266C17.2799 9.29263 17.2796 9.29268 17.2798 9.29266ZM21.3587 2.51676C21.7746 0.585705 24.5086 0.572138 24.9415 2.50109L24.9953 2.74054C25.4947 4.96781 27.2559 6.65708 29.4441 7.04419C31.4366 7.39668 31.4366 10.274 29.4441 10.6265C27.2559 11.0136 25.4947 12.7027 24.9953 14.93L24.9416 15.1695C24.5086 17.0984 21.7746 17.085 21.3587 15.1539L21.3145 14.9484C21.3145 14.9483 21.3146 14.9485 21.3145 14.9484C20.833 12.7127 19.074 11.0108 16.8822 10.6231C14.8934 10.2713 14.8934 7.39941 16.8822 7.04759C19.074 6.65986 20.833 4.95827 21.3145 2.72259L21.3587 2.51676Z" fill="#1335AF"/>
</svg>
