<svg width="32" height="32" viewBox="0 0 32 32" fill="none" xmlns="http://www.w3.org/2000/svg">
<path d="M29.8016 5.33553H21.4737C21.2466 5.31668 21.0155 5.40435 20.858 5.56904L4.46958 21.9575C4.31039 22.1169 4.18846 22.3065 4.10938 22.5129L10.9293 29.3328C11.2278 29.6311 11.6325 29.7984 12.0544 29.7984C12.4764 29.7984 12.881 29.6311 13.1795 29.3328L14.8283 27.6841C14.7353 27.3862 14.6732 27.0789 14.642 26.7684C11.7159 24.7473 12.3146 19.5706 16.4382 18.8411C17.5789 18.6393 18.5362 17.7425 18.8017 16.5095L18.8459 16.3041C19.7709 12.0072 25.5166 11.667 27.1586 15.3537L29.568 12.9444C29.7328 12.7869 29.8205 12.5558 29.8016 12.3287V5.33553Z" fill="#F9662D" fill-opacity="0.4"/>
<path d="M23.336 10.6665C22.2312 10.6665 21.3359 9.7711 21.3359 8.6665C21.3359 7.56194 22.2312 6.6665 23.336 6.6665C24.4404 6.6665 25.3359 7.56194 25.3359 8.6665C25.3359 9.7711 24.4404 10.6665 23.336 10.6665Z" fill="white"/>
<path fill-rule="evenodd" clip-rule="evenodd" d="M23.4912 19.1435C22.7012 21.1257 21.1476 22.7012 19.1946 23.5016C21.1476 24.302 22.7012 25.8775 23.4912 27.8597C24.2897 25.8749 25.851 24.3002 27.8099 23.5016C25.851 22.703 24.2897 21.1283 23.4912 19.1435ZM21.6946 17.1831C22.1103 15.2521 24.8447 15.2382 25.2775 17.1675L25.3311 17.4069C25.3311 17.4069 25.3311 17.4069 25.3311 17.4069C25.8307 19.6342 27.5918 21.3233 29.78 21.7105C31.7726 22.0629 31.7726 24.9403 29.78 25.2927C27.5918 25.6798 25.8307 27.3689 25.3311 29.5963L25.2775 29.8356C25.2775 29.8356 25.2775 29.8356 25.2775 29.8356C24.8447 31.765 22.1103 31.7511 21.6946 29.8201C21.6946 29.8201 21.6946 29.8201 21.6946 29.8201L21.6504 29.6147C21.1691 27.3789 19.41 25.6771 17.2181 25.2893C15.2294 24.9375 15.2294 22.0657 17.2181 21.7138C19.41 21.3261 21.1691 19.6244 21.6504 17.3885L21.6946 17.1831C21.6946 17.1831 21.6946 17.1831 21.6946 17.1831Z" fill="white"/>
<path fill-rule="evenodd" clip-rule="evenodd" d="M20.0006 1.33555H30.1463C30.7357 1.33555 31.2134 1.8133 31.2134 2.40265V12.5486C31.2411 13.0746 31.0381 13.5948 30.6596 13.9627L28.6619 15.9603C28.2451 16.377 27.5695 16.377 27.1528 15.9603C26.7361 15.5435 26.7361 14.8679 27.1528 14.4511L29.0792 12.5249V3.46975H20.0239L3.62619 19.8675C3.52625 19.9676 3.47014 20.1032 3.47014 20.2446C3.47014 20.3858 3.52615 20.5213 3.62589 20.6213C3.62599 20.6214 3.62579 20.6212 3.62589 20.6213L11.9271 28.9226C11.9273 28.9227 11.927 28.9225 11.9271 28.9226C12.0272 29.0223 12.1631 29.0787 12.3043 29.0787C12.4457 29.0787 12.5814 29.0226 12.6815 28.9226L14.1452 27.4589C14.5619 27.0422 15.2376 27.0422 15.6543 27.459C16.071 27.8757 16.071 28.5513 15.6543 28.9681L14.19 30.4323C13.6899 30.9317 13.0113 31.2129 12.3043 31.2129C11.5973 31.2129 10.9194 30.9323 10.4193 30.4329L2.1166 22.1303C1.61703 21.6301 1.33594 20.9515 1.33594 20.2446C1.33594 19.5376 1.61656 18.8596 2.11612 18.3594L18.586 1.88948C18.9539 1.51082 19.4742 1.30764 20.0006 1.33555Z" fill="white"/>
</svg>
